<svg xmlns="http://www.w3.org/2000/svg" direction="ltr" width="1203.62" height="662.68" viewBox="21521.14 803.15 1203.62 662.68" stroke-linecap="round" stroke-linejoin="round" style=""><defs><!--def: tldraw:font:mono--><style></style></defs><g transform="matrix(1, 0, 0, 1, 22189.76, 1079.71)" opacity="1"><g><text font-size="36px" font-family="'tldraw_mono', monospace" font-style="normal" font-weight="normal" line-height="48.6px" dominant-baseline="mathematical" alignment-baseline="mathematical" stroke="rgb(249, 250, 251)" stroke-width="2px" fill="rgb(249, 250, 251)"><tspan alignment-baseline="mathematical" x="0px" y="19.5px">origin</tspan></text><text font-size="36px" font-family="'tldraw_mono', monospace" font-style="normal" font-weight="normal" line-height="48.6px" dominant-baseline="mathematical" alignment-baseline="mathematical" stroke="none" stroke-width="2px" fill="#1d1d1d"><tspan alignment-baseline="mathematical" x="0px" y="19.5px">origin</tspan></text></g></g><g transform="matrix(1, 0, 0, 1, 22540.23, 1080.10)" opacity="1"><g><text font-size="36px" font-family="'tldraw_mono', monospace" font-style="normal" font-weight="normal" line-height="48.6px" dominant-baseline="mathematical" alignment-baseline="mathematical" stroke="rgb(249, 250, 251)" stroke-width="2px" fill="rgb(249, 250, 251)"><tspan alignment-baseline="mathematical" x="0px" y="19.5px">red</tspan></text><text font-size="36px" font-family="'tldraw_mono', monospace" font-style="normal" font-weight="normal" line-height="48.6px" dominant-baseline="mathematical" alignment-baseline="mathematical" stroke="none" stroke-width="2px" fill="#1d1d1d"><tspan alignment-baseline="mathematical" x="0px" y="19.5px">red</tspan></text></g></g><g transform="matrix(1, 0, 0, 1, 22196.37, 1351.02)" opacity="1"><g><text font-size="36px" font-family="'tldraw_mono', monospace" font-style="normal" font-weight="normal" line-height="48.6px" dominant-baseline="mathematical" alignment-baseline="mathematical" stroke="rgb(249, 250, 251)" stroke-width="2px" fill="rgb(249, 250, 251)"><tspan alignment-baseline="mathematical" x="0px" y="19.5px">blue</tspan></text><text font-size="36px" font-family="'tldraw_mono', monospace" font-style="normal" font-weight="normal" line-height="48.6px" dominant-baseline="mathematical" alignment-baseline="mathematical" stroke="none" stroke-width="2px" fill="#1d1d1d"><tspan alignment-baseline="mathematical" x="0px" y="19.5px">blue</tspan></text></g></g><g transform="matrix(1, 0, 0, 1, 22265.80, 1374.73)" opacity="1"><g><defs><mask id="shape_Sy6sbKeEdpXe1hScNoQl-_clip"><rect x="-112.64606732777762" y="-246.87239319713768" width="460.99" height="323.16" fill="white"/><path d="M 236.46 -152.67225705104175 L 248.34 -143.51174773433718 L 234.47 -137.80541881047296" fill="none" stroke="none"/></mask></defs><g mask="url(#shape_Sy6sbKeEdpXe1hScNoQl-_clip)"><rect x="-100" y="-100" width="460.99" height="323.16" fill="transparent" stroke="none"/><path d="M-12.646067327776109,-23.705984258665012 A256.98220106788824 256.98 0 0 1 248.34,-143.51174773433718" fill="none" stroke="#1d1d1d" stroke-width="5" stroke-dasharray="none" stroke-dashoffset="none"/></g><path d="M 236.46 -152.67225705104175 L 248.34 -143.51174773433718 L 234.47 -137.80541881047296" fill="none" stroke="#1d1d1d" stroke-width="5"/></g></g><g transform="matrix(1, 0, 0, 1, 22225.93, 1370.38)" opacity="1"><g><g mask="url(#shape_-0UBg9Brrh316jVTSYayh_clip)"><rect x="-100" y="-100" width="489.07" height="438.90" fill="transparent" stroke="none"/><path d="M25.226439182642935,-19.357514838038696 A456.75638286036826 456.75 0 0 1 314.30,-258.26461716299673" fill="none" stroke="#1d1d1d" stroke-width="5" stroke-dasharray="10.43 11.01" stroke-dashoffset="5"/></g></g></g><g transform="matrix(1, 0, 0, 1, 21848.16, 1196.22)" opacity="1"><g><text font-size="36px" font-family="'tldraw_mono', monospace" font-style="normal" font-weight="normal" line-height="48.6px" dominant-baseline="mathematical" alignment-baseline="mathematical" stroke="rgb(249, 250, 251)" stroke-width="2px" fill="rgb(249, 250, 251)"><tspan alignment-baseline="mathematical" x="0px" y="19.5px"> </tspan><tspan alignment-baseline="mathematical" x="21.6015625px" y="19.5px">originBlue</tspan></text><text font-size="36px" font-family="'tldraw_mono', monospace" font-style="normal" font-weight="normal" line-height="48.6px" dominant-baseline="mathematical" alignment-baseline="mathematical" stroke="none" stroke-width="2px" fill="#1d1d1d"><tspan alignment-baseline="mathematical" x="0px" y="19.5px"> </tspan><tspan alignment-baseline="mathematical" x="21.6015625px" y="19.5px">originBlue</tspan></text></g></g><g transform="matrix(1, 0, 0, 1, 22238.77, 1368.61)" opacity="1"><g><defs><mask id="shape_o_ISFsW4UMpModEpYjytl_clip"><rect x="-237.3608041824711" y="-242.0880340075787" width="314.42" height="324.50" fill="white"/><path d="M -123.9262538449151 -134.63691034312703 L -137.3608041824711 -141.3087059955488 L -124.86558448983729 -149.6074700500822" fill="none" stroke="none"/></mask></defs><g mask="url(#shape_o_ISFsW4UMpModEpYjytl_clip)"><rect x="-100" y="-100" width="314.42" height="324.50" fill="transparent" stroke="none"/><path d="M-25.717312107801263,-17.58176530660421 A100.74856626047115 100.74 0 0 0 -137.3608041824711,-141.3087059955488" fill="none" stroke="#1d1d1d" stroke-width="5" stroke-dasharray="none" stroke-dashoffset="none"/></g><path d="M -123.9262538449151 -134.63691034312703 L -137.3608041824711 -141.3087059955488 L -124.86558448983729 -149.6074700500822" fill="none" stroke="#1d1d1d" stroke-width="5"/></g></g><g transform="matrix(1, 0, 0, 1, 22260.51, 1105.05)" opacity="1"><g><defs><mask id="shape_3FstXCvGgWBv1i3Xc909Z_clip"><rect x="-258.75995566285707" y="-76.74429921313833" width="344.16" height="299.38" fill="white"/><path d="M -144.99379912524606 128.59 L -158.75995566285707 122.64 L -146.7174490694702 113.69" fill="none" stroke="none"/></mask></defs><g mask="url(#shape_3FstXCvGgWBv1i3Xc909Z_clip)"><rect x="-100" y="-100" width="344.16" height="299.38" fill="transparent" stroke="none"/><path d="M-14.597060818075988,23.25570078686178 A172.63541064862343 172.63 0 0 1 -158.75995566285707,122.6401086992158" fill="none" stroke="#1d1d1d" stroke-width="5" stroke-dasharray="none" stroke-dashoffset="none"/></g><path d="M -144.99379912524606 128.59 L -158.75995566285707 122.64 L -146.7174490694702 113.69" fill="none" stroke="#1d1d1d" stroke-width="5"/></g></g><g transform="matrix(1, 0, 0, 1, 22304.99, 946.17)" opacity="1"><g><text font-size="36px" font-family="'tldraw_mono', monospace" font-style="normal" font-weight="normal" line-height="48.6px" dominant-baseline="mathematical" alignment-baseline="mathematical" stroke="rgb(249, 250, 251)" stroke-width="2px" fill="rgb(249, 250, 251)"><tspan alignment-baseline="mathematical" x="0px" y="19.5px">originRed</tspan></text><text font-size="36px" font-family="'tldraw_mono', monospace" font-style="normal" font-weight="normal" line-height="48.6px" dominant-baseline="mathematical" alignment-baseline="mathematical" stroke="none" stroke-width="2px" fill="#1d1d1d"><tspan alignment-baseline="mathematical" x="0px" y="19.5px">originRed</tspan></text></g></g><g transform="matrix(1, 0, 0, 1, 22252.12, 1109.42)" opacity="1"><g><defs><mask id="shape__rSDefJ52bJa4uiwaH8HG_clip"><rect x="-31.762282952590013" y="-199.71801368465572" width="283.30" height="294.92" fill="white"/><path d="M 141.49 -88.57523465803924 L 151.53 -99.71801368465569 L 156.16 -85.45013886560484" fill="none" stroke="none"/></mask></defs><g mask="url(#shape__rSDefJ52bJa4uiwaH8HG_clip)"><rect x="-100" y="-100" width="283.30" height="294.92" fill="transparent" stroke="none"/><path d="M68.23771704741011,-4.790363671255363 A116.11214183369819 116.11 0 0 0 151.53,-99.71801368465569" fill="none" stroke="#1d1d1d" stroke-width="5" stroke-dasharray="none" stroke-dashoffset="none"/></g><path d="M 141.49 -88.57523465803924 L 151.53 -99.71801368465569 L 156.16 -85.45013886560484" fill="none" stroke="#1d1d1d" stroke-width="5"/></g></g><g transform="matrix(1, 0, 0, 1, 22577.10, 1107.03)" opacity="1"><g><defs><mask id="shape_2jxX5CqJRTUPZ_WjRll2f_clip"><rect x="-273.3092102395651" y="-197.3902499724133" width="336.43" height="302.98" fill="white"/><path d="M -177.45838262051302 -82.97552248441758 L -173.30921023956515 -97.3902499724133 L -162.90027623680493 -86.58959754183383" fill="none" stroke="none"/></mask></defs><g mask="url(#shape_2jxX5CqJRTUPZ_WjRll2f_clip)"><rect x="-100" y="-100" width="336.43" height="302.98" fill="transparent" stroke="none"/><path d="M-36.87382207827977,5.149248486695797 A126.22340449654389 126.22 0 0 1 -173.30921023956515,-97.3902499724133" fill="none" stroke="#1d1d1d" stroke-width="5" stroke-dasharray="none" stroke-dashoffset="none"/></g><path d="M -177.45838262051302 -82.97552248441758 L -173.30921023956515 -97.3902499724133 L -162.90027623680493 -86.58959754183383" fill="none" stroke="#1d1d1d" stroke-width="5"/></g></g><g transform="matrix(1, 0, 0, 1, 21962.30, 971.09)" opacity="1"><g><text font-size="36px" font-family="'tldraw_mono', monospace" font-style="normal" font-weight="normal" line-height="48.6px" dominant-baseline="mathematical" alignment-baseline="mathematical" stroke="rgb(249, 250, 251)" stroke-width="2px" fill="rgb(249, 250, 251)"><tspan alignment-baseline="mathematical" x="0px" y="19.5px">originSvgEl</tspan></text><text font-size="36px" font-family="'tldraw_mono', monospace" font-style="normal" font-weight="normal" line-height="48.6px" dominant-baseline="mathematical" alignment-baseline="mathematical" stroke="none" stroke-width="2px" fill="#1d1d1d"><tspan alignment-baseline="mathematical" x="0px" y="19.5px">originSvgEl</tspan></text></g></g><g transform="matrix(1, 0, 0, 1, 22239.22, 1104.51)" opacity="1"><g><g mask="url(#shape_0Koc0bR9HYwq2sgIxSf7I_clip)"><rect x="-100" y="-100" width="295.85" height="260.02" fill="transparent" stroke="none"/><path d="M-22.965588949762605,-24.803542665214536L-118.82342342786069,-84.82748104653331" fill="none" stroke="#1d1d1d" stroke-width="5" stroke-dasharray="none" stroke-dashoffset="none"/></g></g></g><g transform="matrix(1, 0, 0, 1, 22316.89, 835.15)" opacity="1"><g><text font-size="36px" font-family="'tldraw_mono', monospace" font-style="normal" font-weight="normal" line-height="48.6px" dominant-baseline="mathematical" alignment-baseline="mathematical" stroke="rgb(249, 250, 251)" stroke-width="2px" fill="rgb(249, 250, 251)"><tspan alignment-baseline="mathematical" x="0px" y="19.5px">redSvgEl</tspan></text><text font-size="36px" font-family="'tldraw_mono', monospace" font-style="normal" font-weight="normal" line-height="48.6px" dominant-baseline="mathematical" alignment-baseline="mathematical" stroke="none" stroke-width="2px" fill="#1d1d1d"><tspan alignment-baseline="mathematical" x="0px" y="19.5px">redSvgEl</tspan></text></g></g><g transform="matrix(1, 0, 0, 1, 22403.46, 977.15)" opacity="1"><g><g mask="url(#shape_za3Dn-FAsp3EpvuvDu8hp_clip)"><rect x="-100" y="-100" width="200.61" height="262.41" fill="transparent" stroke="none"/><path d="M-0.5286548972071614,-30.986372921299335L0.09033828969040769,-93.40369396336155" fill="none" stroke="#1d1d1d" stroke-width="5" stroke-dasharray="none" stroke-dashoffset="none"/></g></g></g><g transform="matrix(1, 0, 0, 1, 21553.14, 1201.19)" opacity="1"><g><text font-size="36px" font-family="'tldraw_mono', monospace" font-style="normal" font-weight="normal" line-height="48.6px" dominant-baseline="mathematical" alignment-baseline="mathematical" stroke="rgb(249, 250, 251)" stroke-width="2px" fill="rgb(249, 250, 251)"><tspan alignment-baseline="mathematical" x="0px" y="19.5px">blueSvgEl..</tspan></text><text font-size="36px" font-family="'tldraw_mono', monospace" font-style="normal" font-weight="normal" line-height="48.6px" dominant-baseline="mathematical" alignment-baseline="mathematical" stroke="none" stroke-width="2px" fill="#1d1d1d"><tspan alignment-baseline="mathematical" x="0px" y="19.5px">blueSvgEl..</tspan></text></g></g><g transform="matrix(1, 0, 0, 1, 21980.09, 1210.47)" opacity="1"><g><g mask="url(#shape_eXL0AEyZyB3TxNfx2aLlD_clip)"><rect x="-100" y="-100" width="256.41" height="200.30" fill="transparent" stroke="none"/><path d="M-131.93085975299618,9.415360028680652L-188.34414412328624,9.114977695925973" fill="none" stroke="#1d1d1d" stroke-width="5" stroke-dasharray="none" stroke-dashoffset="none"/></g></g></g><g transform="matrix(1, 0, 0, 1, 21984.85, 885.30)" opacity="1"><g><text font-size="36px" font-family="'tldraw_mono', monospace" font-style="normal" font-weight="normal" line-height="48.6px" dominant-baseline="mathematical" alignment-baseline="mathematical" stroke="rgb(249, 250, 251)" stroke-width="2px" fill="rgb(249, 250, 251)"><tspan alignment-baseline="mathematical" x="0px" y="19.5px">redLineSvgEl</tspan></text><text font-size="36px" font-family="'tldraw_mono', monospace" font-style="normal" font-weight="normal" line-height="48.6px" dominant-baseline="mathematical" alignment-baseline="mathematical" stroke="none" stroke-width="2px" fill="#1d1d1d"><tspan alignment-baseline="mathematical" x="0px" y="19.5px">redLineSvgEl</tspan></text></g></g><g transform="matrix(1, 0, 0, 1, 22256.61, 1093.09)" opacity="1"><g><defs><mask id="shape_TbzQPbslCm967sUjPVjzo_clip"><rect x="-98.43157491507561" y="-257.8445439014948" width="244.80" height="344.46" fill="white"/><path d="M 7.30 -143.98345373096373 L 1.56 -157.84454390149477 L 16.43 -155.8791407541104" fill="none" stroke="none"/></mask></defs><g mask="url(#shape_TbzQPbslCm967sUjPVjzo_clip)"><rect x="-100" y="-100" width="244.80" height="344.46" fill="transparent" stroke="none"/><path d="M25.75912934250664,-13.37735164804235 A99.68917382902201 99.68 0 0 0 1.56,-157.84454390149477" fill="none" stroke="#1d1d1d" stroke-width="5" stroke-dasharray="none" stroke-dashoffset="none"/></g><path d="M 7.30 -143.98345373096373 L 1.56 -157.84454390149477 L 16.43 -155.8791407541104" fill="none" stroke="#1d1d1d" stroke-width="5"/></g></g><g transform="matrix(1, 0, 0, 1, 22400.48, 970.12)" opacity="1"><g><defs><mask id="shape_YQiznKswwyedey79bauUu_clip"><rect x="-241.67043169071613" y="-131.35746095037774" width="246.17" height="216.03" fill="white"/><path d="M -135.6208343675541 -23.670392556507096 L -141.67043169071604 -31.357460950377742 L -131.98843651941465 -32.75303171796699" fill="none" stroke="none"/></mask></defs><g mask="url(#shape_YQiznKswwyedey79bauUu_clip)"><rect x="-100" y="-100" width="246.17" height="216.03" fill="transparent" stroke="none"/><path d="M-95.49137350055389,-15.32489424126527 A422.7200792018185 422.72 0 0 1 -141.67043169071604,-31.357460950377742" fill="none" stroke="#1d1d1d" stroke-width="5" stroke-dasharray="none" stroke-dashoffset="none"/></g><path d="M -135.6208343675541 -23.670392556507096 L -141.67043169071604 -31.357460950377742 L -131.98843651941465 -32.75303171796699" fill="none" stroke="#1d1d1d" stroke-width="5"/></g></g><g transform="matrix(1, 0, 0, 1, 21745.98, 1065.33)" opacity="1"><g><text font-size="36px" font-family="'tldraw_mono', monospace" font-style="normal" font-weight="normal" line-height="48.6px" dominant-baseline="mathematical" alignment-baseline="mathematical" stroke="rgb(249, 250, 251)" stroke-width="2px" fill="rgb(249, 250, 251)"><tspan alignment-baseline="mathematical" x="0px" y="19.5px">blueLineSvgEl</tspan></text><text font-size="36px" font-family="'tldraw_mono', monospace" font-style="normal" font-weight="normal" line-height="48.6px" dominant-baseline="mathematical" alignment-baseline="mathematical" stroke="none" stroke-width="2px" fill="#1d1d1d"><tspan alignment-baseline="mathematical" x="0px" y="19.5px">blueLineSvgEl</tspan></text></g></g><g transform="matrix(1, 0, 0, 1, 22247.53, 1103.22)" opacity="1"><g><defs><mask id="shape_owI_60nQ-b-RpKWCP-GeQ_clip"><rect x="-304.76521881909684" y="-108.36074517307244" width="346.99" height="206.33" fill="white"/><path d="M -192.10978265947512 -0.30842031563284955 L -204.76521881909682 -8.360745173072443 L -191.46398285321837 -15.294511954557212" fill="none" stroke="none"/></mask></defs><g mask="url(#shape_owI_60nQ-b-RpKWCP-GeQ_clip)"><rect x="-100" y="-100" width="346.99" height="206.33" fill="transparent" stroke="none"/><path d="M-57.77302810209221,-2.0263699020888453L-204.76521881909682,-8.360745173072443" fill="none" stroke="#1d1d1d" stroke-width="5" stroke-dasharray="none" stroke-dashoffset="none"/></g><path d="M -192.10978265947512 -0.30842031563284955 L -204.76521881909682 -8.360745173072443 L -191.46398285321837 -15.294511954557212" fill="none" stroke="#1d1d1d" stroke-width="5"/></g></g><g transform="matrix(1, 0, 0, 1, 22205.46, 982.70)" opacity="1"><g><path d="M0,11.72458538006731a11.72458538006731,11.72458538006731,0,1,1,23.44917076013462,0a11.72458538006731,11.72458538006731,0,1,1,-23.44917076013462,0" fill="#d3e9e3"/><path d="M0,11.72458538006731a11.72458538006731,11.72458538006731,0,1,1,23.44917076013462,0a11.72458538006731,11.72458538006731,0,1,1,-23.44917076013462,0" stroke-width="5" width="23.44" height="23.44" fill="none" stroke="#099268"/></g></g><g transform="matrix(1, 0, 0, 1, 22492.30, 847.38)" opacity="1"><g><path d="M0,11.72458538006731a11.72458538006731,11.72458538006731,0,1,1,23.44917076013462,0a11.72458538006731,11.72458538006731,0,1,1,-23.44917076013462,0" fill="#f4dadb"/><path d="M0,11.72458538006731a11.72458538006731,11.72458538006731,0,1,1,23.44917076013462,0a11.72458538006731,11.72458538006731,0,1,1,-23.44917076013462,0" stroke-width="5" width="23.44" height="23.44" fill="none" stroke="#e03131"/></g></g><g transform="matrix(1, 0, 0, 1, 21756.30, 1218.41)" opacity="1"><g><path d="M0,11.72458538006731a11.72458538006731,11.72458538006731,0,1,1,23.44917076013462,0a11.72458538006731,11.72458538006731,0,1,1,-23.44917076013462,0" fill="#dce1f8"/><path d="M0,11.72458538006731a11.72458538006731,11.72458538006731,0,1,1,23.44917076013462,0a11.72458538006731,11.72458538006731,0,1,1,-23.44917076013462,0" stroke-width="5" width="23.44" height="23.44" fill="none" stroke="#4263eb"/></g></g><g transform="matrix(1, 0, 0, 1, 22032.00, 1102.56)" opacity="1"><path d="M0,0 Q0.1782,-2.4694 0.22,-3.4151 T0.3075,-5.141 0.35,-6.61 0.37,-7.936 0.39,-9.179 0.39,-10.375 0.40,-11.5466 0.40,-12.7024 0.40,-13.8491 0.40,-14.9907 0.40,-16.1294 0.40,-17.2687 0.40,-18.4062 0.40,-19.5425 0.40,-20.6805 0.41,-21.8171 0.41,-22.9531 0.41,-24.0886 0.41,-25.2239 0.41,-26.6069 0.41,-28.4808 L0.41,-29.54 " stroke="#4263eb" fill="none" stroke-linecap="round" stroke-width="5" stroke-dasharray="none" stroke-dashoffset="0"/></g><g transform="matrix(1, 0, 0, 1, 22004.25, 1212.73)" opacity="1"><g><defs><mask id="shape_eHrWrMGN_fYcJ87DigkaT_clip"><rect x="-57.63600340082128" y="-216.07814364006975" width="266.87" height="308.65" fill="white"/><path d="M 55.38 -108.6344682834909 L 42.36 -116.07814364006975 L 55.32 -123.63432763623173" fill="none" stroke="none"/></mask></defs><g mask="url(#shape_eHrWrMGN_fYcJ87DigkaT_clip)"><rect x="-100" y="-100" width="266.87" height="308.65" fill="transparent" stroke="none"/><path d="M82.50506781922013,-7.4219520827412 A59.38636135518575 59.38 0 0 0 42.36,-116.07814364006975" fill="none" stroke="#1d1d1d" stroke-width="5" stroke-dasharray="none" stroke-dashoffset="none"/></g><path d="M 55.38 -108.6344682834909 L 42.36 -116.07814364006975 L 55.32 -123.63432763623173" fill="none" stroke="#1d1d1d" stroke-width="5"/></g></g><g transform="matrix(1, 0, 0, 1, 22248.62, 906.03)" opacity="1"><path d="M0,0 Q2.6389,0 3.63,0 T5.4279,0 6.93,0 8.03,0 9.11,0 11.59,0 16.70,0 24.37,0 L28.71,0 " stroke="#e03131" fill="none" stroke-linecap="round" stroke-width="5" stroke-dasharray="none" stroke-dashoffset="0"/></g><g transform="matrix(1, 0, 0, 1, 22543.46, 1091.74)" opacity="1"><path d="M0,0 Q13.122,-0.2034 24.96,-0.387 T43.3996,-0.6727 53.26,-1.0864 57.22,-2.3363 56.39,-5.0707 52.97,-9.1135 L51.08,-11.36 " stroke="#1d1d1d" fill="none" stroke-linecap="round" stroke-width="3.5" stroke-dasharray="none" stroke-dashoffset="0"/></g><g transform="matrix(1, 0, 0, 1, 22198.73, 1357.22)" opacity="1"><path d="M0,0 Q9.8326,-0.0278 18.71,-0.0528 T41.1239,-0.1161 62.18,-0.1756 73.50,-0.4098 78.29,-1.3447 77.95,-3.4736 74.95,-6.6403 L73.29,-8.4 " stroke="#1d1d1d" fill="none" stroke-linecap="round" stroke-width="3.5" stroke-dasharray="none" stroke-dashoffset="0"/></g><g transform="matrix(1, 0, 0, 1, 22189.76, 1079.71)" opacity="1"><g><text font-size="36px" font-family="'tldraw_mono', monospace" font-style="normal" font-weight="normal" line-height="48.6px" dominant-baseline="mathematical" alignment-baseline="mathematical" stroke="rgb(249, 250, 251)" stroke-width="2px" fill="rgb(249, 250, 251)"><tspan alignment-baseline="mathematical" x="0px" y="19.5px">origin</tspan></text><text font-size="36px" font-family="'tldraw_mono', monospace" font-style="normal" font-weight="normal" line-height="48.6px" dominant-baseline="mathematical" alignment-baseline="mathematical" stroke="none" stroke-width="2px" fill="#1d1d1d"><tspan alignment-baseline="mathematical" x="0px" y="19.5px">origin</tspan></text></g></g><g transform="matrix(1, 0, 0, 1, 22540.23, 1080.10)" opacity="1"><g><text font-size="36px" font-family="'tldraw_mono', monospace" font-style="normal" font-weight="normal" line-height="48.6px" dominant-baseline="mathematical" alignment-baseline="mathematical" stroke="rgb(249, 250, 251)" stroke-width="2px" fill="rgb(249, 250, 251)"><tspan alignment-baseline="mathematical" x="0px" y="19.5px">red</tspan></text><text font-size="36px" font-family="'tldraw_mono', monospace" font-style="normal" font-weight="normal" line-height="48.6px" dominant-baseline="mathematical" alignment-baseline="mathematical" stroke="none" stroke-width="2px" fill="#1d1d1d"><tspan alignment-baseline="mathematical" x="0px" y="19.5px">red</tspan></text></g></g><g transform="matrix(1, 0, 0, 1, 22304.99, 946.17)" opacity="1"><g><text font-size="36px" font-family="'tldraw_mono', monospace" font-style="normal" font-weight="normal" line-height="48.6px" dominant-baseline="mathematical" alignment-baseline="mathematical" stroke="rgb(249, 250, 251)" stroke-width="2px" fill="rgb(249, 250, 251)"><tspan alignment-baseline="mathematical" x="0px" y="19.5px">originRed</tspan></text><text font-size="36px" font-family="'tldraw_mono', monospace" font-style="normal" font-weight="normal" line-height="48.6px" dominant-baseline="mathematical" alignment-baseline="mathematical" stroke="none" stroke-width="2px" fill="#1d1d1d"><tspan alignment-baseline="mathematical" x="0px" y="19.5px">originRed</tspan></text></g></g><g transform="matrix(1, 0, 0, 1, 22525.05, 1230.20)" opacity="1"><g><text font-size="36px" font-family="'tldraw_mono', monospace" font-style="normal" font-weight="normal" line-height="48.6px" dominant-baseline="mathematical" alignment-baseline="mathematical" stroke="rgb(249, 250, 251)" stroke-width="2px" fill="rgb(249, 250, 251)"><tspan alignment-baseline="mathematical" x="0px" y="19.5px">basis</tspan></text><text font-size="36px" font-family="'tldraw_mono', monospace" font-style="normal" font-weight="normal" line-height="48.6px" dominant-baseline="mathematical" alignment-baseline="mathematical" stroke="none" stroke-width="2px" fill="#1d1d1d"><tspan alignment-baseline="mathematical" x="0px" y="19.5px">basis</tspan></text></g></g><g transform="matrix(1, 0, 0, 1, 22572.21, 1108.71)" opacity="1"><g><defs><mask id="shape_KbSseJ_UbtF7ii1Aeo9nw_clip"><rect x="-172.4966358927568" y="-94.54718687660002" width="240.51" height="315.68" fill="white"/><path d="M -57.37888100457284 106.14 L -57.14426955207916 121.14 L -70.25036729682293 113.84" fill="none" stroke="none"/></mask></defs><g mask="url(#shape_KbSseJ_UbtF7ii1Aeo9nw_clip)"><rect x="-100" y="-100" width="240.51" height="315.68" fill="transparent" stroke="none"/><path d="M-31.98471441293077,5.452813123399892 A78.89155476930493 78.89 0 0 0 -57.14426955207916,121.14136791277068" fill="none" stroke="#1d1d1d" stroke-width="5" stroke-dasharray="none" stroke-dashoffset="none"/></g><path d="M -57.37888100457284 106.14 L -57.14426955207916 121.14 L -70.25036729682293 113.84" fill="none" stroke="#1d1d1d" stroke-width="5"/></g></g><g transform="matrix(1, 0, 0, 1, 22616.68, 1354.24)" opacity="1"><g><text font-size="36px" font-family="'tldraw_mono', monospace" font-style="normal" font-weight="normal" line-height="48.6px" dominant-baseline="mathematical" alignment-baseline="mathematical" stroke="rgb(249, 250, 251)" stroke-width="2px" fill="rgb(249, 250, 251)"><tspan alignment-baseline="mathematical" x="0px" y="19.5px">t</tspan></text><text font-size="36px" font-family="'tldraw_mono', monospace" font-style="normal" font-weight="normal" line-height="48.6px" dominant-baseline="mathematical" alignment-baseline="mathematical" stroke="none" stroke-width="2px" fill="#1d1d1d"><tspan alignment-baseline="mathematical" x="0px" y="19.5px">t</tspan></text></g></g><g transform="matrix(1, 0, 0, 1, 22268.74, 1109.46)" opacity="1"><g><defs><mask id="shape_PW8OICKZO1jINONCpvK35_clip"><rect x="-81.98995373486105" y="-81.15306403669774" width="518.02" height="443.81" fill="white"/><path d="M 330.28 248.80 L 336.03 262.66 L 321.16 260.71" fill="none" stroke="none"/></mask></defs><g mask="url(#shape_PW8OICKZO1jINONCpvK35_clip)"><rect x="-100" y="-100" width="518.02" height="443.81" fill="transparent" stroke="none"/><path d="M18.010046265138953,18.846935963302258L336.03553608890417,262.66334489297054" fill="none" stroke="#1d1d1d" stroke-width="5" stroke-dasharray="none" stroke-dashoffset="none"/></g><path d="M 330.28 248.80 L 336.03 262.66 L 321.16 260.71" fill="none" stroke="#1d1d1d" stroke-width="5"/></g></g><g transform="matrix(1, 0, 0, 1, 22587.13, 1258.56)" opacity="1"><g><defs><mask id="shape_f6I7ko89HNPAwVBZDfdGQ_clip"><rect x="-126.71915753436019" y="-79.76775934914522" width="242.06" height="289.81" fill="white"/><path d="M 7.93 97.00 L 15.34 110.04 L 0.34 109.94" fill="none" stroke="none"/></mask></defs><g mask="url(#shape_f6I7ko89HNPAwVBZDfdGQ_clip)"><rect x="-100" y="-100" width="242.06" height="289.81" fill="transparent" stroke="none"/><path d="M-22.4241813061235,20.232240650855147 A71.71558526819564 71.71 0 0 0 15.34,110.04799974514606" fill="none" stroke="#1d1d1d" stroke-width="5" stroke-dasharray="none" stroke-dashoffset="none"/></g><path d="M 7.93 97.00 L 15.34 110.04 L 0.34 109.94" fill="none" stroke="#1d1d1d" stroke-width="5"/></g></g><g transform="matrix(1, 0, 0, 1, 22633.47, 1384.24)" opacity="1"><g><defs><mask id="shape_nzoZupZN9B7Nv1D_UxpkJ_clip"><rect x="-110.49022617931888" y="-120.12183422856725" width="269.78" height="269.72" fill="white"/><path d="M 32.13 -11.56418365101636 L 19.82 -20.121834228567256 L 33.39 -26.511887158442875" fill="none" stroke="none"/></mask></defs><g mask="url(#shape_nzoZupZN9B7Nv1D_UxpkJ_clip)"><rect x="-100" y="-100" width="269.78" height="269.72" fill="transparent" stroke="none"/><path d="M-10.490226179321326,18.598993666917522 A35.136199918051055 35.13 0 1 0 19.82,-20.121834228567256" fill="none" stroke="#1d1d1d" stroke-width="5" stroke-dasharray="none" stroke-dashoffset="none"/></g><path d="M 32.13 -11.56418365101636 L 19.82 -20.121834228567256 L 33.39 -26.511887158442875" fill="none" stroke="#1d1d1d" stroke-width="5"/></g></g></svg>