<svg
  xmlns="http://www.w3.org/2000/svg"
  direction="ltr"
  width="618.63"
  height="485.94"
  viewBox="16228.81 -1433.115955041671 618.63 485.94"
  stroke-linecap="round"
  stroke-linejoin="round"
>
  <g transform="matrix(1, 0, 0, 1, 16525.73, -1291.1286)" opacity="1">
    <path
      d="M-1.3997,-3.2913 Q-0.74,-3.7769 0.67,-4.6174 T3.5321,-5.963 6.53,-6.6557 9.83,-6.8904 13.72,-5.9746 16.89,-3.9571 18.90,-1.803 20.74,0.7142 21.80,3.6616 21.99,7.066 21.92,11.2511 21.79,14.9586 21.70,18.4483 21.64,22.216 21.01,25.7331 19.41,29.0395 17.26,31.3519 14.85,33.2117 12.21,35.2475 9.12,36.9571 5.81,38.0089 2.99,38.8315 1.30,39.3761 0.41,39.4439 -0.4752,39.2953 -1.3002,38.9388 -2.0159,38.3953 -2.5807,37.6963 -2.9618,36.8824 -3.1371,36.001 -3.0963,35.1033 -2.8419,34.2413 -2.3886,33.4654 -1.7627,32.8204 -1.0007,32.344 1.07,31.8216 4.36,31.4641 7.79,31.4431 11.74,31.6009 15.30,31.8912 18.17,32.0249 21.27,32.0176 24.45,32.0055 27.88,31.9917 30.39,32.0884 31.56,32.4812 32.54,33.2256 33.23,34.2438 33.55,35.4291 33.49,36.6575 33.03,37.8002 32.24,38.7377 31.18,39.3718 29.98,39.6362 28.76,39.503 27.64,38.9864 26.75,38.1403 26.17,37.0534 25.97,35.8394 26.17,34.6255 26.75,33.5388 27.64,32.693 28.76,32.1767 29.98,32.0439 31.18,32.3086 32.24,32.943 33.03,33.8808 33.49,35.0236 33.55,36.252 33.22,37.4372 32.53,38.4552 31.55,39.1994 30.39,39.5918 29.77,39.6925 28.71,39.6988 26.04,39.6877 22.89,39.6646 19.71,39.6535 16.65,39.5926 13.59,39.269 10.24,39.0079 6.74,39.0294 3.35,39.1658 1.30,39.3761 0.41,39.4439 -0.4752,39.2953 -1.3002,38.9388 -2.0159,38.3953 -2.5807,37.6963 -2.9618,36.8824 -3.1371,36.001 -3.0963,35.1033 -2.8419,34.2413 -2.3886,33.4654 -1.7627,32.8204 -1.0007,32.344 0.11,31.8839 2.51,31.3046 5.87,30.3502 8.80,28.806 11.44,26.8682 13.77,24.6333 14.75,21.9883 14.77,18.4492 14.66,13.9666 14.52,9.526 14.18,5.6386 12.94,2.601 10.51,0.8815 7.58,0.3812 4.74,1.1198 2.71,2.3227 1.44,3.0929 0.15,3.4102 -1.166,3.2082 -2.305,2.5177 -3.093,1.444 -3.4102,0.1504 -3.2081,-1.1661 -2.5176,-2.3051 -2.0592,-2.8058 -1.3997,-3.2913 Z"
      fill="#ae3ec9"
      stroke-linecap="round"
    />
  </g>
  <g transform="matrix(1, 0, 0, 1, 16560.23, -1276.8594)" opacity="1">
    <path
      d="M1.0934,-3.2164 Q2.1867,-3.2164 4.93,-2.685 T9.8964,-1.1448 14.00,1.1449 17.39,3.3969 20.33,5.3674 23.52,7.3291 26.95,9.3424 30.50,11.5972 34.29,13.9738 37.81,15.9398 40.71,17.4078 43.54,18.9805 46.36,20.5344 49.13,21.804 51.07,22.7286 51.91,23.4875 52.45,24.4729 52.66,25.5815 52.50,26.6972 51.99,27.7033 51.19,28.4944 50.17,28.9878 49.05,29.1316 47.95,28.9109 46.97,28.3488 46.23,27.5042 45.79,26.4654 45.71,25.3412 45.99,24.2494 46.60,23.3042 47.48,22.6046 48.54,22.2239 49.67,22.2019 50.75,22.5409 51.66,23.2054 52.31,24.1259 52.63,25.206 52.59,26.3325 52.19,27.3876 51.48,28.2608 50.53,28.8606 49.43,29.1243 48.31,29.0242 47.76,28.8823 47.03,28.5642 45.02,27.6056 42.14,26.0447 39.14,24.2301 36.28,22.5601 32.94,20.715 28.79,18.3417 24.98,16.0758 22.08,14.2966 19.38,12.6382 16.71,10.8265 13.71,8.7289 10.68,6.6147 7.47,4.7673 3.90,3.5618 1.09,3.2164 -0.6154,3.0939 -1.7526,2.6228 -2.6229,1.7525 -3.0939,0.6153 -3.0939,-0.6156 -2.6228,-1.7527 -1.7523,-2.623 -0.6151,-3.094 0.00,-3.2163 1.09,-3.2164 Z"
      fill="#ae3ec9"
      stroke-linecap="round"
    />
  </g>
  <g transform="matrix(1, 0, 0, 1, 16619.28, -1242.9773)" opacity="1">
    <path
      d="M0.9442,-3.4691 Q1.8883,-3.4636 3.73,-3.4879 T7.045,-3.5476 10.16,-3.6178 13.27,-3.674 16.53,-3.7058 18.92,-3.619 20.04,-3.2401 20.99,-2.522 21.65,-1.5398 21.97,-0.3963 21.91,0.7886 21.47,1.8909 20.70,2.7953 19.68,3.407 18.52,3.662 17.34,3.5336 16.27,3.0352 15.41,2.219 14.85,1.1705 14.66,-0.0006 14.85,-1.1716 15.41,-2.2199 16.27,-3.0358 17.34,-3.5339 18.52,-3.6619 19.68,-3.4066 20.70,-2.7946 21.47,-1.89 21.91,-0.7875 21.97,0.3974 21.65,1.5408 20.99,2.5228 20.04,3.2406 18.92,3.6192 18.32,3.7163 16.53,3.7058 13.27,3.674 10.16,3.6178 7.04,3.5476 3.73,3.4879 0.94,3.4691 -0.6649,3.3425 -1.8934,2.8336 -2.8337,1.8933 -3.3425,0.6647 -3.3424,-0.665 -2.8335,-1.8935 -1.8931,-2.8338 -0.6645,-3.3425 0.00,-3.4747 0.94,-3.4691 Z"
      fill="#ae3ec9"
      stroke-linecap="round"
    />
  </g>
  <g transform="matrix(1, 0, 0, 1, 16627.78, -1252.4565)" opacity="1">
    <path
      d="M3.325,1.3463 Q3.2915,2.6925 3.30,4.5053 T3.3393,7.8421 3.39,11.325 3.46,14.8851 3.51,18.1838 2.80,21.813 1.73,24.2215 0.94,25.0455 -0.0659,25.5736 -1.1945,25.7506 -2.3206,25.5579 -3.3262,25.0158 -4.106,24.1809 -4.5785,23.1408 -4.6941,22.0042 -4.4407,20.8902 -3.8448,19.9155 -2.9689,19.182 -1.9047,18.7666 -0.7636,18.7128 0.33,19.0262 1.27,19.674 1.96,20.5883 2.31,21.6735 2.31,22.8159 1.93,23.8959 1.23,24.8005 0.28,25.4348 -0.8133,25.7326 -1.9536,25.6626 -3.0119,25.2322 -3.8772,24.4863 -4.4592,23.5033 -4.6968,22.3858 -4.5651,21.251 -4.4064,20.6949 -3.972,20.1433 -3.5164,18.0388 -3.4633,14.8851 -3.3964,11.325 -3.3393,7.8421 -3.3043,4.5053 -3.325,1.3463 -3.2307,-0.6426 -2.7388,-1.8301 -1.8299,-2.7389 -0.6425,-3.2307 0.64,-3.2306 1.83,-2.7387 2.73,-1.8298 3.23,-0.6423 3.35,0.0002 3.32,1.3463 Z"
      fill="#ae3ec9"
      stroke-linecap="round"
    />
  </g>
  <g transform="matrix(1, 0, 0, 1, 16608.63, -1226.6814)" opacity="1">
    <path
      d="M1.2973,3.2882 Q0.4033,4.041 -0.8533,5.1231 T-3.5706,7.4444 -6.3122,9.8659 -9.2756,12.4486 -12.4446,14.982 -15.2111,17.1037 -17.9771,19.1461 -21.0386,21.4813 -23.9608,23.931 -27.1627,26.5232 -30.3152,28.9403 -32.8753,30.9431 -35.3485,32.9034 -37.8611,34.8563 -40.6463,37.1407 -43.6219,39.645 -46.5255,42.061 -49.3512,44.6384 -51.7327,47.1147 -54.2568,49.7453 -56.876,52.2242 -58.5178,53.664 -59.6076,54.481 -60.7027,54.9384 -61.8865,55.0222 -63.035,54.7235 -64.0281,54.0738 -64.7617,53.1409 -65.1591,52.0227 -65.1786,50.8361 -64.8181,49.7054 -64.1155,48.749 -63.1443,48.067 -62.0061,47.7309 -60.8202,47.7757 -59.7108,48.1969 -58.7938,48.9503 -58.1655,49.957 -57.8915,51.1117 -58.0005,52.2935 -58.4812,53.3785 -59.2832,54.2532 -60.3225,54.8261 -61.4904,55.0371 -62.6644,54.8642 -63.7218,54.3254 -64.5518,53.4772 -65.0676,52.4084 -65.215,51.2308 -64.9787,50.0678 -64.3834,49.0412 -64.002,48.577 -62.5849,47.3137 -60.0731,45.1018 -57.9344,42.9527 -55.568,40.5217 -52.912,38.1288 -50.4976,36.0564 -47.9454,33.9739 -45.0656,31.6162 -42.1206,29.3028 -39.4046,27.334 -36.9285,25.4825 -34.3057,23.4864 -31.42,21.2581 -28.4039,18.7399 -25.2515,16.0147 -22.1786,13.5813 -19.5199,11.6143 -16.8351,9.5395 -13.7383,7.0692 -10.7961,4.6151 -8.0293,2.3456 -5.2253,0.0835 -3.0657,-1.7597 -1.6228,-2.8582 -0.4055,-3.2616 0.87,-3.1685 2.01,-2.593 2.85,-1.6227 3.26,-0.4053 3.16,0.8738 2.59,2.0198 2.19,2.5355 1.29,3.2882 Z"
      fill="#ae3ec9"
      stroke-linecap="round"
    />
  </g>
  <g transform="matrix(1, 0, 0, 1, 16355.61, -1111.8422)" opacity="1">
    <path
      d="M1.1943,-3.2976 Q2.3885,-3.2827 4.63,-3.4935 T8.7639,-3.8205 12.15,-3.9915 15.30,-4.1003 18.89,-4.0713 22.42,-3.2556 25.59,-1.0263 28.25,1.815 30.12,4.4701 31.75,7.4907 32.80,10.6694 32.90,14.3811 31.21,19.2979 27.92,23.6408 25.05,26.199 21.94,28.3146 18.61,30.4941 17.11,29.3317 18.67,26.7141 21.84,26.209 25.63,26.3829 30.15,27.4158 34.38,29.5912 37.84,31.9844 40.37,34.1841 42.22,36.4735 43.40,39.1916 43.85,42.2583 43.25,45.2638 41.30,48.0659 37.93,50.5975 33.34,52.9749 28.84,54.956 25.26,56.317 22.16,57.1589 18.98,57.5956 15.86,57.7658 13.63,57.8092 12.28,57.7216 11.21,57.3652 10.31,56.6858 9.68,55.7545 9.37,54.6688 9.43,53.5424 9.84,52.4933 10.57,51.6312 11.53,51.0465 12.63,50.8003 13.76,50.9184 14.78,51.3885 15.60,52.1613 16.13,53.156 16.32,54.2683 16.14,55.3819 15.62,56.3801 14.80,57.1584 13.78,57.6354 12.66,57.761 11.56,57.5222 10.59,56.9439 9.85,56.0867 9.43,55.0404 9.37,53.9144 9.67,52.8267 10.30,51.8912 11.19,51.2058 12.26,50.8422 12.82,50.748 13.61,50.7453 16.18,50.7556 19.72,50.6323 22.92,50.0563 26.24,48.8106 30.21,46.9023 33.89,44.8271 36.19,42.419 35.94,39.6538 33.77,37.4005 30.85,35.4047 27.35,33.7684 23.75,33.1849 20.15,33.1591 16.70,33.1058 13.34,32.2972 12.11,28.9955 13.92,25.5681 16.64,23.8355 19.85,21.6125 22.94,18.9706 25.06,16.1207 25.83,12.7475 24.98,9.6093 23.12,6.7439 20.66,3.9901 17.65,2.6949 14.29,2.6098 10.80,2.6107 7.26,2.7761 3.93,3.0974 1.19,3.2976 -0.6338,3.1864 -1.805,2.7013 -2.7013,1.8049 -3.1864,0.6337 -3.1864,-0.634 -2.7012,-1.8051 -1.8047,-2.7014 -0.6335,-3.1864 0.00,-3.3125 1.19,-3.2976 Z"
      fill="#ae3ec9"
      stroke-linecap="round"
    />
  </g>
  <g transform="matrix(1, 0, 0, 1, 16411.16, -1082.6053)" opacity="1">
    <path
      d="M0.7617,-3.444 Q1.8197,-3.5297 4.15,-3.5061 T8.0037,-2.7828 11.19,-1.0528 14.69,0.9472 17.78,2.6341 20.65,4.2385 23.59,6.0176 26.18,7.5167 28.92,9.0243 31.62,10.4219 33.35,11.2243 34.27,11.9868 34.91,13.0051 35.18,14.1726 35.07,15.3671 34.59,16.4634 33.77,17.3469 32.72,17.9249 31.54,18.1371 30.35,17.9611 29.29,17.4154 28.45,16.5571 27.93,15.4761 27.78,14.2856 28.02,13.1102 28.62,12.073 29.53,11.2826 30.63,10.8217 31.83,10.7386 32.99,11.042 33.99,11.7001 34.73,12.644 35.13,13.775 35.15,14.9745 34.79,16.117 34.08,17.0828 33.09,17.771 31.94,18.1093 30.74,18.0624 30.15,17.9409 29.57,17.722 27.71,16.889 25.11,15.3824 22.27,13.6596 19.24,11.7868 16.08,9.7904 13.08,8.104 9.99,6.3936 6.86,4.4668 3.93,3.3373 1.35,3.2574 -0.3576,3.2872 -1.5883,2.9001 -2.5773,2.0715 -3.1738,0.9275 -3.2871,-0.3577 -2.9,-1.5885 -2.0714,-2.5774 -0.9273,-3.1739 -0.2962,-3.3583 0.76,-3.444 Z"
      fill="#ae3ec9"
      stroke-linecap="round"
    />
  </g>
  <g transform="matrix(1, 0, 0, 1, 16446.38, -1050.9828)" opacity="1">
    <path
      d="M0.9797,-3.4547 Q1.9594,-3.4475 3.65,-3.4749 T6.9198,-3.5269 9.86,-3.7839 12.82,-4.1218 16.13,-4.3814 18.45,-4.6367 19.64,-4.7421 20.81,-4.559 21.86,-4.0127 22.67,-3.1603 23.18,-2.0912 23.31,-0.9173 23.07,0.2385 22.46,1.2553 21.57,2.0264 20.47,2.4713 19.29,2.5434 18.15,2.235 17.17,1.5785 16.45,0.6426 16.07,-0.4747 16.06,-1.6565 16.43,-2.7789 17.14,-3.7245 18.11,-4.3942 19.25,-4.718 20.43,-4.662 21.53,-4.2319 22.43,-3.4729 23.05,-2.4645 23.31,-1.3121 23.19,-0.1364 22.70,0.9394 21.89,1.8027 20.85,2.3632 20.29,2.558 19.42,2.6917 16.57,2.9241 13.12,3.0914 10.06,3.3558 6.92,3.5269 3.65,3.4749 0.97,3.4547 -0.6624,3.3301 -1.8864,2.8231 -2.8232,1.8863 -3.3302,0.6623 -3.3301,-0.6626 -2.823,-1.8866 -1.8861,-2.8233 -0.6621,-3.3302 0.00,-3.4619 0.97,-3.4547 Z"
      fill="#ae3ec9"
      stroke-linecap="round"
    />
  </g>
  <g transform="matrix(1, 0, 0, 1, 16446.71, -1033.8498)" opacity="1">
    <path
      d="M3.1942,1.448 Q3.1271,2.7995 2.63,5.1997 T1.3094,9.2317 -0.6736,12.5037 -3.1059,15.5816 -5.3841,18.2371 -7.3083,20.6036 -9.0935,23.1573 -11.0396,26.8399 -12.9339,30.6663 -14.4589,33.7333 -15.7289,36.4463 -16.5816,38.1127 -17.3143,38.9364 -18.2716,39.483 -19.3534,39.6953 -20.4464,39.5511 -21.436,39.0654 -22.2188,38.2892 -22.7127,37.3036 -22.8661,36.2119 -22.6628,35.1284 -22.1243,34.1665 -21.3067,33.4269 -20.2958,32.9871 -19.1974,32.8931 -18.1265,33.1548 -17.1952,33.7447 -16.5011,34.6011 -16.1167,35.6344 -16.0824,36.7363 -16.4017,37.7914 -17.0412,38.6894 -17.934,39.3361 -18.9865,39.6639 -20.0886,39.6385 -21.1249,39.2625 -21.9869,38.5752 -22.5843,37.6487 -22.8546,36.5799 -22.7695,35.4808 -22.637,34.9387 -22.1613,33.7115 -20.8879,30.6993 -19.3858,27.5399 -17.9748,24.3987 -16.4769,21.4738 -14.842,19.1248 -12.8535,16.6432 -10.4974,13.9218 -7.7598,10.7637 -5.1411,7.4027 -3.6681,4.1864 -3.2742,1.2534 -3.1188,-0.7169 -2.607,-1.8559 -1.6983,-2.7123 -0.531,-3.1557 0.71,-3.1187 1.85,-2.6069 2.71,-1.6982 3.15,-0.5309 3.26,0.0967 3.19,1.448 Z"
      fill="#ae3ec9"
      stroke-linecap="round"
    />
  </g>
  <g transform="matrix(1, 0, 0, 1, 16390.74, -992.0683)" opacity="1">
    <path
      d="M1.9106,-3.1224 Q3.8211,-3.0128 5.26,-2.9589 T8.8137,-2.5445 12.37,-1.7543 15.75,-0.5668 19.10,1.0221 21.98,2.5262 24.69,3.881 27.23,5.4169 29.68,7.3518 31.53,9.542 32.42,11.2109 32.65,12.3673 32.50,13.5367 31.98,14.5964 31.15,15.4356 30.10,15.9664 28.93,16.1332 27.77,15.9186 26.74,15.345 25.95,14.4725 25.47,13.3924 25.37,12.2178 25.65,11.0717 26.28,10.0741 27.19,9.3295 28.30,8.9158 29.47,8.8763 30.60,9.2151 31.57,9.8968 32.26,10.8501 32.61,11.975 32.59,13.1539 32.19,14.2632 31.46,15.1869 30.47,15.8282 29.32,16.12 28.15,16.0318 27.06,15.5727 26.18,14.7909 25.80,14.3281 24.84,13.0507 22.45,10.7807 19.50,8.9527 16.34,7.0979 13.37,5.4193 10.05,4.0597 5.94,3.1862 1.91,3.1224 -0.6185,3.1091 -1.7612,2.6357 -2.6358,1.7611 -3.1091,0.6183 -3.1091,-0.6186 -2.6356,-1.7613 -1.7609,-2.6359 -0.6181,-3.1091 0.00,-3.2321 1.91,-3.1224 Z"
      fill="#ae3ec9"
      stroke-linecap="round"
    />
  </g>
  <g transform="matrix(1, 0, 0, 1, 16402.22, -979.1714)" opacity="1">
    <path
      d="M-3.4662,-0.492 Q-3.5473,-1.3001 -3.6368,-2.7849 T-3.4954,-6.5143 -2.9335,-10.531 -2.2927,-13.7023 -1.6739,-16.468 -1.1549,-19.3456 -0.6073,-22.5272 -0.0313,-24.9312 0.47,-26.1906 1.16,-27.1287 2.11,-27.7979 3.23,-28.1281 4.39,-28.0848 5.48,-27.6723 6.38,-26.934 6.99,-25.9472 7.26,-24.8151 7.16,-23.6563 6.69,-22.5921 5.90,-21.734 4.88,-21.1717 3.74,-20.9642 2.58,-21.1332 1.55,-21.6609 0.73,-22.4922 0.23,-23.54 0.08,-24.6946 0.31,-25.8351 0.90,-26.8421 1.77,-27.6101 2.84,-28.0588 4.00,-28.1412 5.13,-27.8486 6.10,-27.2117 6.82,-26.2972 7.21,-25.2008 7.23,-24.0373 7.15,-23.4544 6.92,-22.7182 6.30,-20.2964 5.62,-17.2319 4.90,-14.1548 4.14,-10.8368 3.52,-7.6806 3.23,-4.0396 3.31,-1.1253 3.31,0.3436 2.93,1.5867 2.10,2.5883 0.95,3.1958 -0.3437,3.3168 -1.5869,2.9327 -2.5884,2.1022 -3.1959,0.9516 -3.3852,0.316 -3.4662,-0.492 Z"
      fill="#ae3ec9"
      stroke-linecap="round"
    />
  </g>
  <g transform="matrix(1, 0, 0, 1, 16471.77, -1071.0301)" opacity="1">
    <path
      d="M-3.4642,-0.9708 Q-3.457,-1.9416 -3.2038,-4.1098 T-1.9731,-7.809 -0.1439,-10.5158 1.66,-13.5083 3.30,-16.7546 4.69,-19.8493 6.29,-23.0569 8.04,-25.9896 10.16,-29.0189 12.37,-32.1503 14.24,-34.7915 16.06,-37.1927 17.88,-39.5385 19.95,-42.0292 22.07,-44.6585 24.00,-47.1339 26.17,-49.6504 28.39,-52.0143 30.87,-54.2496 33.51,-56.2664 35.80,-58.0237 38.06,-59.8221 40.38,-61.5834 42.81,-63.7165 44.82,-66.2631 46.42,-69.1611 47.93,-72.0206 49.56,-74.6573 50.90,-76.5199 51.82,-77.2663 52.94,-77.678 54.13,-77.712 55.26,-77.3647 56.23,-76.6724 56.92,-75.7076 57.28,-74.5714 57.25,-73.3827 56.84,-72.266 56.09,-71.3381 55.09,-70.6963 53.94,-70.4076 52.75,-70.5025 51.66,-70.9708 50.77,-71.7637 50.19,-72.798 49.96,-73.9655 50.12,-75.1439 50.65,-76.2099 51.49,-77.0519 52.55,-77.5816 53.73,-77.7437 54.90,-77.5211 55.93,-76.9372 56.73,-76.0531 57.20,-74.9614 57.30,-73.7763 57.01,-72.622 56.78,-72.0688 56.29,-71.2715 54.92,-68.9494 53.43,-66.0795 52.02,-63.2851 50.17,-60.6058 47.96,-58.2566 45.43,-56.138 42.83,-54.1645 39.95,-51.8398 36.80,-49.4434 34.26,-47.4511 31.91,-45.2338 29.71,-42.7756 27.73,-40.1911 25.50,-37.2828 23.17,-34.352 20.83,-31.3565 18.90,-28.5448 17.23,-26.1398 15.55,-23.7568 13.83,-21.0298 12.12,-18.1705 10.79,-15.4958 9.41,-12.6553 7.73,-9.5114 5.68,-6.3825 3.98,-3.4141 3.46,-0.9708 3.33,0.6642 2.83,1.8915 1.89,2.8309 0.66,3.3392 -0.6644,3.3391 -1.8917,2.8307 -2.831,1.8913 -3.3392,0.6639 -3.4713,-0.0002 -3.4642,-0.9708 Z"
      fill="#ae3ec9"
      stroke-linecap="round"
    />
  </g>
  <g transform="matrix(1, 0, 0, 1, 16483.17, -1067.6249)" opacity="1">
    <path
      d="M-1.7008,-2.9615 Q-0.8281,-4.2133 0.86,-6.4217 T3.5036,-9.6942 6.14,-12.5741 9.64,-16.3593 12.98,-20.1463 16.26,-23.9742 19.15,-27.4701 21.62,-30.4552 24.15,-33.1353 26.51,-35.4529 28.73,-37.5683 31.14,-39.7736 33.31,-42.6761 35.16,-46.0254 37.06,-49.1622 38.59,-51.9711 40.06,-54.6419 41.76,-57.5048 43.45,-60.4597 45.12,-63.2684 47.26,-66.2544 49.09,-69.2426 50.59,-72.0839 51.96,-74.1472 52.86,-75.2017 53.85,-75.9172 55.02,-76.278 56.24,-76.2464 57.39,-75.8257 58.35,-75.0599 59.01,-74.0293 59.31,-72.8417 59.21,-71.6214 58.73,-70.4963 57.91,-69.5841 56.84,-68.9803 55.64,-68.7482 54.43,-68.9121 53.33,-69.4547 52.46,-70.3193 51.92,-71.4154 51.75,-72.6282 51.98,-73.8307 52.58,-74.897 53.49,-75.7155 54.62,-76.2005 55.84,-76.3012 57.03,-76.007 58.06,-75.3488 58.83,-74.3954 59.25,-73.2468 59.28,-72.0231 58.93,-70.8524 58.65,-70.297 57.82,-69.0535 55.92,-66.2756 54.08,-63.0694 52.13,-59.9092 49.91,-56.502 47.89,-52.879 45.97,-49.7 44.21,-46.6918 42.30,-43.4975 40.26,-40.2661 38.30,-37.2394 36.00,-34.6696 33.49,-32.6097 31.10,-30.6687 28.65,-28.6408 26.21,-26.3675 23.72,-23.6077 20.79,-20.152 17.51,-16.2861 13.94,-12.2015 10.48,-8.4422 8.03,-5.7723 5.66,-2.7887 3.38,0.42 2.14,2.1371 1.16,2.7966 0.00,3.0303 -1.1523,2.8027 -2.1372,2.1483 -2.7966,1.1669 -3.0303,0.0078 -2.8026,-1.1525 -2.5735,-1.7098 -1.7008,-2.9615 Z"
      fill="#ae3ec9"
      stroke-linecap="round"
    />
  </g>
  <g transform="matrix(1, 0, 0, 1, 16659.54, -1249.3597)" opacity="1">
    <path
      d="M1.4929,-3.0074 Q2.9858,-2.9822 4.62,-2.9416 T8.0313,-2.849 11.25,-2.796 15.13,-2.8361 19.57,-2.929 23.58,-3.0212 27.19,-3.1064 30.49,-3.1853 34.10,-3.2717 37.70,-3.3663 41.04,-3.4544 44.28,-3.5372 47.44,-3.5673 49.62,-3.4673 50.70,-3.1042 51.61,-2.4162 52.24,-1.4752 52.55,-0.3797 52.49,0.7555 52.07,1.8116 51.33,2.6781 50.36,3.2641 49.24,3.5084 48.11,3.3854 47.08,2.9079 46.26,2.1259 45.73,1.1214 45.54,-0.0005 45.73,-1.1224 46.26,-2.1268 47.08,-2.9085 48.12,-3.3857 49.25,-3.5084 50.36,-3.2637 51.33,-2.6774 52.07,-1.8107 52.49,-0.7545 52.55,0.3808 52.24,1.4761 51.61,2.417 50.70,3.1047 49.62,3.4674 49.05,3.5605 47.44,3.5673 44.28,3.5372 41.04,3.4544 37.70,3.3663 34.10,3.2717 30.49,3.1853 27.19,3.1064 23.58,3.0212 19.57,2.929 15.13,2.8361 11.25,2.796 8.03,2.849 4.62,2.9416 1.49,3.0074 -0.5803,2.9172 -1.6525,2.473 -2.4731,1.6524 -2.9172,0.5801 -2.9171,-0.5804 -2.4729,-1.6526 -1.6522,-2.4732 -0.58,-2.9172 0.00,-3.0326 1.49,-3.0074 Z"
      fill="#ae3ec9"
      stroke-linecap="round"
    />
  </g>
  <g transform="matrix(1, 0, 0, 1, 16655.93, -1236.0599)" opacity="1">
    <path
      d="M1.6151,-3.1575 Q3.2302,-3.1 5.68,-3.0951 T10.0765,-3.1195 13.54,-3.1855 16.66,-3.2482 20.14,-3.3209 23.78,-3.4038 26.93,-3.4801 29.83,-3.5646 33.18,-3.7905 36.61,-4.1356 39.58,-4.5409 42.49,-4.8328 45.58,-4.8787 49.01,-4.8649 52.54,-4.8617 54.93,-4.8606 56.26,-4.7546 57.39,-4.3709 58.35,-3.6437 59.03,-2.6491 59.35,-1.4913 59.28,-0.2915 58.84,0.8247 58.06,1.7405 57.03,2.3599 55.86,2.6181 54.66,2.488 53.57,1.9834 52.70,1.1569 52.14,0.0952 51.94,-1.0905 52.14,-2.2763 52.70,-3.3378 53.57,-4.164 54.66,-4.6683 55.86,-4.798 57.03,-4.5395 58.06,-3.9198 58.84,-3.0038 59.28,-1.8874 59.35,-0.6876 59.02,0.4701 58.35,1.4645 57.39,2.1914 56.25,2.5748 55.65,2.6731 53.74,2.6757 50.06,2.6849 46.50,2.7011 43.08,2.7082 40.00,2.9197 37.00,3.3133 33.39,3.5509 29.83,3.5646 26.93,3.4801 23.78,3.4038 20.14,3.3209 16.66,3.2482 13.54,3.1855 10.07,3.1195 5.68,3.0951 1.61,3.1575 -0.6152,3.0925 -1.7518,2.6217 -2.6218,1.7517 -3.0925,0.615 -3.0925,-0.6153 -2.6216,-1.7519 -1.7516,-2.6218 -0.6148,-3.0926 0.00,-3.2149 1.61,-3.1575 Z"
      fill="#ae3ec9"
      stroke-linecap="round"
    />
  </g>
  <g transform="matrix(1, 0, 0, 1, 16726.02, -1265.4164)" opacity="1">
    <path
      d="M-0.0736,-3.5532 Q1.0781,-3.9824 2.93,-4.7128 T6.1708,-5.8709 9.76,-6.5946 13.97,-6.9503 17.70,-7.0409 21.26,-6.9844 24.86,-6.0258 27.62,-4.1473 29.22,-1.7866 30.46,0.9946 31.41,4.2162 31.81,7.5272 31.85,11.0363 31.50,14.8059 30.53,18.0617 28.97,21.2824 26.78,24.2212 23.96,26.2499 20.43,27.6457 16.91,28.5304 13.88,29.1113 12.11,29.3815 11.38,29.3437 10.47,29.1374 9.64,28.7203 8.94,28.1166 8.39,27.3614 8.05,26.4986 7.92,25.5784 8.02,24.6541 8.33,23.7797 8.85,23.0057 9.53,22.3774 10.34,21.9311 11.24,21.6928 13.42,21.6394 16.91,21.6875 20.04,22.1244 22.94,23.1858 25.70,24.7358 27.98,26.6497 30.41,29.0487 32.17,31.8806 32.57,34.8996 32.57,38.1743 32.56,41.3673 32.36,44.2447 30.70,47.0548 27.45,49.3295 23.78,50.8037 20.24,51.5615 16.65,51.7117 12.68,51.68 8.84,51.6244 5.51,51.5998 2.53,51.4751 -0.6185,50.7519 -3.5984,48.9654 -5.3678,46.1219 -5.9157,43.8661 -5.8295,42.6881 -5.3717,41.5993 -4.5902,40.7137 -3.5668,40.124 -2.4086,39.8919 -1.237,40.0418 -0.1746,40.558 0.66,41.3864 1.20,42.4402 1.36,43.6092 1.15,44.771 0.58,45.8039 -0.2893,46.5997 -1.3705,47.0752 -2.5469,47.1805 -3.6954,46.9047 -4.6957,46.2766 -5.4431,45.362 -5.8593,44.2566 -5.9007,43.0762 -5.5631,41.9443 -4.8817,40.9795 -3.9279,40.2828 -2.8016,39.9271 -1.6207,39.9497 -0.5088,40.3482 0.41,41.0809 1.06,42.071 1.30,42.6183 1.84,43.437 3.82,44.342 6.87,44.4178 10.42,44.3639 14.28,44.2521 17.69,44.0895 20.60,43.6386 23.40,42.1481 24.78,39.4196 25.15,36.3629 24.26,33.7603 21.89,31.6347 19.53,30.0168 16.71,29.3761 13.49,29.3798 11.38,29.3437 10.47,29.1374 9.64,28.7203 8.94,28.1166 8.39,27.3614 8.05,26.4986 7.92,25.5784 8.02,24.6541 8.33,23.7797 8.85,23.0057 9.53,22.3774 10.34,21.9311 11.24,21.6928 11.91,21.6244 13.49,21.4194 16.38,20.8934 19.76,19.7854 22.35,17.7653 23.73,14.7827 24.38,11.0869 24.29,7.3585 23.70,4.1608 21.73,1.3777 18.70,-0.0078 15.29,-0.0352 11.82,0.0023 8.56,0.4421 5.21,1.5129 2.36,2.6557 0.58,3.2396 -0.7031,3.2153 -1.88,2.7015 -2.7707,1.7763 -3.2396,0.5808 -3.2153,-0.7032 -2.7014,-1.8802 -1.7762,-2.7708 -1.2252,-3.1241 -0.0736,-3.5532 Z"
      fill="#ae3ec9"
      stroke-linecap="round"
    />
  </g>
  <g
    transform="matrix(1, 0, 0, 1, 16277.42, -1401.116) scale(1.6657275758231656, 1.66)"
    opacity="1"
  >
    <g>
      <text
        font-size="24px"
        font-family="'tldraw_sans', sans-serif"
        font-style="normal"
        font-weight="normal"
        line-height="32.400000000000006px"
        dominant-baseline="mathematical"
        alignment-baseline="mathematical"
        stroke="rgb(249, 250, 251)"
        stroke-width="2px"
        fill="rgb(249, 250, 251)"
      >
        <tspan alignment-baseline="mathematical" x="52.7421875px" y="13.5px">
          const
        </tspan>
        <tspan alignment-baseline="mathematical" x="112.734375px" y="13.5px">
           
        </tspan>
        <tspan alignment-baseline="mathematical" x="118.3984375px" y="13.5px">
          +(2,-(3,x))
        </tspan>
        <tspan alignment-baseline="mathematical" x="230.125px" y="13.5px">
           
        </tspan>
        <tspan alignment-baseline="mathematical" x="235.7890625px" y="13.5px">
          =
        </tspan>
        <tspan alignment-baseline="mathematical" x="250.1875px" y="13.5px">
           
        </tspan>
        <tspan alignment-baseline="mathematical" x="255.8515625px" y="13.5px">
          3
        </tspan>
      </text>
      <text
        font-size="24px"
        font-family="'tldraw_sans', sans-serif"
        font-style="normal"
        font-weight="normal"
        line-height="32.400000000000006px"
        dominant-baseline="mathematical"
        alignment-baseline="mathematical"
        stroke="none"
        stroke-width="2px"
        fill="#1d1d1d"
      >
        <tspan alignment-baseline="mathematical" x="52.7421875px" y="13.5px">
          const
        </tspan>
        <tspan alignment-baseline="mathematical" x="112.734375px" y="13.5px">
           
        </tspan>
        <tspan alignment-baseline="mathematical" x="118.3984375px" y="13.5px">
          +(2,-(3,x))
        </tspan>
        <tspan alignment-baseline="mathematical" x="230.125px" y="13.5px">
           
        </tspan>
        <tspan alignment-baseline="mathematical" x="235.7890625px" y="13.5px">
          =
        </tspan>
        <tspan alignment-baseline="mathematical" x="250.1875px" y="13.5px">
           
        </tspan>
        <tspan alignment-baseline="mathematical" x="255.8515625px" y="13.5px">
          3
        </tspan>
      </text>
    </g>
  </g>
  <g transform="matrix(1, 0, 0, 1, 16593.73, -1287.8501)" opacity="1">
    <path
      d="M0.969,-2.1726 Q1.938,-2.1446 2.95,-2.1152 T5.38,-2.0917 7.75,-2.1357 9.89,-1.7627 11.47,-0.1774 11.77,2.4717 11.32,5.3929 10.53,7.9668 9.58,10.3465 8.41,12.6272 6.92,14.1479 5.07,15.3297 3.97,16.1285 3.61,16.3794 3.06,16.5962 2.48,16.6749 1.89,16.6109 1.33,16.4079 0.84,16.0778 0.44,15.6397 0.16,15.119 0.01,14.5462 0.00,13.9544 0.14,13.378 0.41,12.8505 0.79,12.4027 2.17,11.9589 4.38,11.7389 6.57,11.8589 8.72,11.9914 11.08,12.0195 13.67,12.0155 15.98,12.0308 17.72,12.0597 18.82,12.1406 19.55,12.3877 20.17,12.8559 20.60,13.4962 20.81,14.2416 20.77,15.0141 20.48,15.7328 19.98,16.3223 19.32,16.7211 18.56,16.8874 17.80,16.8036 17.09,16.4787 16.53,15.9466 16.17,15.2631 16.04,14.4996 16.17,13.7362 16.53,13.0528 17.09,12.5209 17.80,12.1962 18.56,12.1127 19.32,12.2791 19.98,12.6781 20.48,13.2679 20.77,13.9866 20.81,14.7591 20.60,15.5045 20.17,16.1447 19.55,16.6127 18.82,16.8595 18.43,16.9228 17.72,16.9403 15.98,16.9692 13.67,16.9844 11.44,16.9868 9.53,16.946 7.44,16.8109 5.08,16.4764 3.61,16.3794 3.06,16.5962 2.48,16.6749 1.89,16.6109 1.33,16.4079 0.84,16.0778 0.44,15.6397 0.16,15.119 0.01,14.5462 0.00,13.9544 0.14,13.378 0.41,12.8505 0.79,12.4027 1.26,12.0518 2.36,11.2864 4.07,10.0781 5.40,8.4485 6.22,6.5224 6.87,4.4513 7.26,2.0295 8.03,1.4813 7.75,2.1357 5.38,2.0917 2.95,2.1152 0.96,2.1726 -0.4211,2.117 -1.1992,1.7947 -1.7947,1.1991 -2.117,0.421 -2.1169,-0.4212 -1.7946,-1.1993 -1.199,-1.7948 -0.4209,-2.117 0.00,-2.2007 0.96,-2.1726 Z"
      fill="#e03131"
      stroke-linecap="round"
    />
  </g>
  <g transform="matrix(1, 0, 0, 1, 16664.00, -1273.136)" opacity="1">
    <path
      d="M-1.3615,-1.9992 Q-0.8985,-2.573 -0.2233,-3.4219 T1.3303,-4.9757 3.35,-5.8381 6.00,-5.5763 8.60,-4.2864 10.36,-2.7142 11.40,-1.1049 11.68,0.8628 10.73,2.9697 9.05,4.6888 7.45,5.8713 7.32,4.8065 7.37,2.4669 7.82,1.7346 10.07,1.7743 12.36,1.9716 14.33,3.3087 15.22,5.7282 15.24,8.2121 15.14,10.6724 14.00,12.9657 11.96,14.2596 9.65,14.5994 7.26,14.7022 5.30,14.7108 4.04,14.6431 3.28,14.3896 2.64,13.9068 2.19,13.2453 1.98,12.4744 2.02,11.6748 2.31,10.9301 2.83,10.3184 3.51,9.9037 4.29,9.7294 5.09,9.8138 5.82,10.148 6.40,10.6971 6.78,11.4035 6.91,12.1933 6.78,12.9839 6.41,13.6923 5.83,14.2445 5.10,14.5826 4.31,14.6713 3.53,14.5012 2.84,14.0902 2.32,13.4813 2.02,12.7382 1.97,11.9388 2.19,11.1667 2.63,10.5028 3.27,10.0166 4.03,9.759 4.43,9.6924 5.28,9.6844 7.15,9.6631 9.14,9.5874 11.02,9.2858 11.09,9.5077 10.23,8.924 10.22,6.5392 10.73,5.9766 10.03,6.7517 7.71,6.7529 4.91,5.8971 4.11,3.2689 6.11,1.3128 6.56,0.3892 5.04,-0.9292 3.45,-0.6311 2.26,0.8373 1.48,1.7203 0.71,2.1566 -0.1683,2.2646 -1.0221,2.0278 -1.7203,1.4822 -2.1566,0.711 -2.2645,-0.1684 -2.0277,-1.0222 -1.8244,-1.4255 -1.3615,-1.9992 Z"
      fill="#e03131"
      stroke-linecap="round"
    />
  </g>
  <g transform="matrix(1, 0, 0, 1, 16588.51, -1195.6568)" opacity="1">
    <path
      d="M2.2072,0.9304 Q2.1814,1.8609 2.19,3.0667 T2.2307,5.2078 2.28,7.1494 2.32,9.4781 2.33,11.3703 2.27,12.3132 2.03,13.0205 1.58,13.6147 0.96,14.0335 0.24,14.2332 -0.496,14.1927 -1.1893,13.9164 -1.7582,13.4332 -2.1429,12.7936 -2.3033,12.0647 -2.2225,11.3227 -1.9091,10.6453 -1.3957,10.1035 -0.7362,9.754 0.00,9.6333 0.73,9.7542 1.39,10.1039 1.90,10.6459 2.22,11.3233 2.30,12.0653 2.14,12.7942 1.75,13.4337 1.18,13.9168 0.49,14.1929 -0.25,14.2331 -0.9691,14.0332 -1.5868,13.6142 -2.0383,13.0199 -2.2764,12.3125 -2.3375,11.9396 -2.3389,11.3703 -2.3267,9.4781 -2.2871,7.1494 -2.2307,5.2078 -2.1909,3.0667 -2.2072,0.9304 -2.1479,-0.4273 -1.8209,-1.2167 -1.2167,-1.821 -0.4272,-2.148 0.42,-2.1479 1.21,-1.8209 1.82,-1.2166 2.14,-0.4271 2.23,0.0001 2.20,0.9304 Z"
      fill="#ff8787"
      stroke-linecap="round"
    />
  </g>
  <g transform="matrix(1, 0, 0, 1, 16530.39, -1102.0924)" opacity="1">
    <path
      d="M1.8233,1.6884 Q1.7242,3.3768 1.69,4.6597 T1.6632,7.0653 1.74,9.1836 1.98,11.2676 2.41,13.5283 2.68,15.0105 2.60,15.6159 2.32,16.162 1.89,16.5917 1.34,16.86 0.73,16.9388 0.13,16.8198 -0.3932,16.5155 -0.7987,16.0578 -1.0368,15.4946 -1.0826,14.8848 -0.9313,14.2923 -0.5987,13.7792 -0.1197,13.3991 0.45,13.1918 1.06,13.1791 1.65,13.3623 2.14,13.7222 2.49,14.2211 2.67,14.8068 2.65,15.418 2.43,15.9906 2.05,16.4647 1.53,16.7908 0.94,16.9345 0.33,16.881 -0.228,16.6357 -0.6806,16.2245 -0.9781,15.6902 -1.083,15.399 -1.2766,14.0723 -1.5015,11.578 -1.5983,9.2995 -1.6632,7.0655 -1.6933,4.6597 -1.8233,1.6884 -1.8492,-0.3678 -1.5677,-1.0475 -1.0475,-1.5677 -0.3678,-1.8492 0.36,-1.8492 1.04,-1.5676 1.56,-1.0474 1.84,-0.3677 1.92,0.0001 1.82,1.6884 Z"
      fill="#ff8787"
      stroke-linecap="round"
    />
  </g>
  <g transform="matrix(1, 0, 0, 1, 16423.92, -1106.2884)" opacity="1">
    <path
      d="M-2.2978,-0.6876 Q-2.2907,-1.3752 -2.2741,-2.5949 T-1.0395,-5.0656 1.16,-6.3954 3.63,-6.0751 6.15,-5.3317 8.27,-4.3939 9.70,-2.9426 10.12,-0.9662 9.73,1.8118 8.49,3.957 6.75,4.7602 5.27,5.2493 4.42,5.4542 3.81,5.4475 3.23,5.2957 2.69,5.0075 2.24,4.5997 1.90,4.0961 1.69,3.5258 1.63,2.9221 1.71,2.32 1.93,1.7545 2.28,1.2585 2.74,0.8608 3.28,0.5846 4.75,0.4374 6.86,0.5209 8.82,1.0161 10.67,1.9548 11.88,3.3767 12.42,5.5429 12.61,7.9441 12.60,10.0684 12.00,12.083 10.61,13.7663 8.96,15.1471 7.12,16.1321 4.84,15.8129 2.75,14.7622 0.96,13.9252 -0.3434,13.327 -1.0616,12.9183 -1.6981,12.3642 -2.1244,11.6359 -2.2958,10.8095 -2.1944,9.9717 -1.8307,9.2102 -1.243,8.6046 -0.4926,8.2184 0.34,8.0921 1.17,8.2388 1.91,8.6431 2.48,9.2629 2.83,10.0331 2.91,10.8731 2.72,11.695 2.27,12.4127 1.62,12.9511 0.83,13.2538 -0.0039,13.2892 -0.8142,13.0534 -1.5068,12.5712 -2.0092,11.8931 -2.2688,11.0901 -2.2583,10.2463 -1.979,9.4499 -1.46,8.7845 -0.7557,8.3196 0.06,8.1039 0.90,8.16 1.31,8.257 2.05,8.6787 3.68,9.5142 5.42,10.3349 7.06,11.53 6.93,11.5922 6.74,10.1251 7.45,8.3438 7.29,6.2007 7.78,5.7993 7.52,6.1108 5.69,5.5707 4.42,5.4542 3.81,5.4475 3.23,5.2957 2.69,5.0075 2.24,4.5997 1.90,4.0961 1.69,3.5258 1.63,2.9221 1.71,2.32 1.93,1.7545 2.28,1.2585 2.74,0.8608 3.28,0.5846 3.74,0.4356 5.01,0.0261 5.66,0.5081 5.85,0.6355 5.49,-0.5038 3.55,-1.2223 2.44,-2.4504 2.27,-2.3771 2.29,-0.6876 2.21,0.441 1.87,1.2559 1.25,1.8796 0.44,2.2172 -0.4411,2.2171 -1.256,1.8795 -1.8797,1.2558 -2.2172,0.4408 -2.3049,-0.0001 -2.2978,-0.6876 Z"
      fill="#e03131"
      stroke-linecap="round"
    />
  </g>
  <g transform="matrix(1, 0, 0, 1, 16449.13, -1009.7362)" opacity="1">
    <path
      d="M-0.2214,-2.4177 Q0.5309,-2.748 1.48,-3.1575 T3.4287,-3.9178 5.95,-3.9633 7.86,-2.7164 8.35,-0.6076 8.38,1.6625 8.26,3.748 7.97,5.8698 7.39,8.1028 6.73,10.347 5.64,12.4483 4.31,14.1357 2.99,15.7544 1.86,15.1512 0.53,13.4518 0.61,12.9074 3.08,12.5515 5.50,12.5396 7.52,12.5538 9.59,12.5408 11.57,12.5285 13.71,12.5374 15.87,12.5566 17.23,12.6335 17.99,12.8897 18.62,13.3752 19.08,14.0391 19.29,14.8121 19.25,15.6131 18.95,16.3583 18.43,16.9696 17.74,17.3831 16.96,17.5555 16.16,17.4687 15.43,17.1318 14.85,16.58 14.48,15.8713 14.35,15.0796 14.48,14.288 14.85,13.5794 15.43,13.0278 16.16,12.6911 16.96,12.6045 17.74,12.7772 18.43,13.1909 18.95,13.8024 19.25,14.5477 19.29,15.3487 19.07,16.1215 18.62,16.7854 17.99,17.2707 17.23,17.5266 16.82,17.5922 15.52,17.6038 13.01,17.6242 10.86,17.6275 8.92,17.6134 6.76,17.6103 4.50,17.638 2.33,17.8523 -0.2834,17.7736 -1.6272,15.3075 -0.6079,12.178 1.02,10.4675 2.10,8.7046 2.70,6.6162 3.23,4.2813 3.55,1.8535 3.60,-0.3284 4.22,-0.4646 3.67,0.8728 1.71,1.7232 0.53,2.1942 -0.3434,2.2327 -1.1717,1.9313 -1.8216,1.3359 -2.1942,0.5371 -2.2327,-0.3435 -1.9313,-1.1718 -1.3358,-1.8217 -0.9736,-2.0874 -0.2214,-2.4177 Z"
      fill="#ff8787"
      stroke-linecap="round"
    />
  </g>
  <g transform="matrix(1, 0, 0, 1, 16337.03, -1347.039)" opacity="1">
    <path
      d="M3.0572,-0.0497 Q5.0215,1.4519 7.71,3.529 T12.4712,7.1582 16.40,9.9831 19.55,12.1207 21.82,13.6331 23.91,14.9469 26.14,15.8757 28.15,16.494 30.13,17.2672 32.28,18.0692 34.70,18.988 37.43,20.0364 40.57,20.9271 43.88,21.5787 46.66,22.0918 49.42,22.4378 52.19,22.5088 54.93,22.407 58.48,22.3458 61.49,22.2315 64.48,21.3913 68.41,20.0109 71.92,18.8046 75.04,17.7566 77.75,16.7811 80.67,15.8756 84.08,14.9913 87.19,14.1899 90.28,13.3594 93.18,12.2965 95.75,11.1461 98.58,10.0163 100.99,9.0098 102.91,8.0482 105.32,6.7005 107.86,5.2881 110.10,4.2185 112.33,3.6067 115.12,3.2905 117.98,2.9919 120.86,2.5624 123.65,2.0955 125.96,1.6856 128.44,1.2667 130.77,1.0614 133.45,1.0223 136.32,1.113 139.32,1.2916 142.75,1.4767 146.06,1.6176 149.93,1.7229 154.34,1.8008 158.08,1.9291 161.18,2.2653 163.84,2.7809 166.35,3.3246 168.85,3.8725 171.06,4.4652 173.22,5.1551 175.54,6.0124 177.76,6.9218 179.78,7.7929 182.29,8.9234 184.65,10.0794 186.72,11.2483 189.16,12.715 191.38,13.9323 193.28,14.8092 195.23,15.5351 197.30,16.1067 199.95,17.0661 202.79,18.2264 205.22,19.2041 207.49,20.0582 210.20,20.8604 213.23,21.6779 215.78,22.3556 218.12,22.8194 220.47,23.2386 223.18,23.6405 225.79,23.7568 228.17,23.8661 231.19,24.0952 234.19,24.2616 237.02,24.4255 240.68,24.6007 244.68,24.7294 248.37,24.8233 251.98,24.8916 255.68,24.9412 258.82,24.9438 261.32,24.8929 264.33,24.6842 268.00,24.2915 271.79,23.6752 275.76,22.743 279.52,21.7077 282.84,20.7191 285.81,19.7687 288.38,18.8345 290.97,17.9701 293.71,17.1783 296.42,16.3587 298.86,15.4969 301.48,14.6239 304.25,13.8194 306.47,13.0622 308.52,12.3592 310.66,11.6011 312.67,10.6268 314.67,9.5897 317.48,8.2813 320.55,7.1239 323.14,6.4287 325.42,5.7162 328.07,5.1492 330.94,4.8277 333.29,4.5455 335.72,4.2414 338.35,4.0038 340.80,3.8473 343.22,3.7585 346.12,3.7734 348.96,3.789 352.07,3.8052 356.55,3.8717 361.54,3.9218 366.23,3.9592 371.17,4.2346 375.59,4.7532 378.84,5.3117 381.75,5.9833 384.81,6.843 387.58,7.6563 390.03,8.1992 392.72,8.8879 395.59,10.003 398.59,11.5135 401.42,13.0917 403.91,14.3743 406.23,15.4875 408.21,16.4582 410.43,17.6581 412.56,18.9221 413.56,19.6078 413.91,20.051 414.10,20.583 414.11,21.1483 413.94,21.6875 413.61,22.1443 413.15,22.4708 412.61,22.6329 412.04,22.6135 411.51,22.4147 411.08,22.0573 410.78,21.5788 410.64,21.0292 410.69,20.466 410.92,19.9483 411.30,19.5303 411.79,19.2556 412.35,19.1531 412.91,19.2336 413.41,19.4884 413.81,19.8911 414.06,20.3994 414.13,20.9602 414.02,21.5146 413.74,22.0047 413.32,22.3791 412.79,22.5986 412.23,22.6403 411.68,22.4998 411.42,22.3848 410.65,21.8667 408.74,20.53 406.77,19.2422 404.93,18.2518 402.58,17.1871 399.95,16.0524 396.40,14.438 393.31,12.9137 391.55,11.8844 389.31,10.8814 386.86,10.0051 384.17,9.1408 381.21,8.3165 378.44,7.6666 375.31,7.1433 371.06,6.6783 366.23,6.4658 361.54,6.5073 356.56,6.565 352.08,6.6454 348.99,6.687 346.17,6.7493 343.32,6.8495 340.99,6.917 338.66,7.0465 336.13,7.3328 333.66,7.6721 331.33,7.9364 328.89,8.2999 326.51,8.9538 324.15,9.8037 321.83,10.5897 319.88,11.3429 318.13,12.1659 316.25,12.9422 314.07,13.7813 311.62,14.576 309.35,15.1098 307.29,15.661 304.97,16.3193 302.31,17.0928 299.69,17.9373 297.15,18.7661 294.40,19.5961 291.73,20.3455 289.18,21.123 286.53,22.0152 283.53,22.9878 280.17,24.016 276.33,25.1115 272.21,26.1278 268.30,26.8354 264.48,27.3377 261.32,27.5461 258.82,27.4944 255.68,27.4954 251.97,27.5423 248.37,27.6055 244.68,27.6902 240.66,27.8019 236.99,27.9461 234.10,28.0532 231.70,28.0741 228.97,27.8126 226.30,27.4346 224.05,27.1132 221.97,26.7306 219.92,26.2991 217.53,25.8687 215.03,25.3918 212.51,24.8124 209.28,24.1924 206.33,23.5258 203.98,22.8291 201.43,22.114 199.11,21.4273 196.99,20.6418 194.82,19.7868 192.57,18.9526 190.46,17.9542 188.19,16.594 185.78,15.0222 183.42,13.4415 180.81,11.8729 178.49,10.6388 176.57,9.7244 174.49,8.819 172.25,7.9654 170.22,7.2096 168.23,6.5346 165.74,5.9415 163.28,5.3434 160.91,4.7988 158.02,4.5316 154.34,4.5193 149.93,4.5973 146.06,4.7028 142.75,4.844 139.32,5.0297 136.33,5.2094 133.46,5.3044 130.86,5.2958 128.82,5.2813 126.53,5.488 123.42,5.9723 120.59,6.4539 118.45,6.8108 116.18,7.162 113.51,7.3874 111.06,7.7044 109.13,8.3528 106.61,9.3795 104.02,10.5193 101.93,11.3591 99.49,12.2798 96.76,13.3989 94.06,14.5963 90.94,15.7714 87.84,16.6453 84.77,17.4936 81.51,18.4418 78.72,19.3627 76.02,20.4098 73.00,21.6276 69.63,23.0577 66.57,24.3999 64.12,25.3423 61.80,25.8717 58.54,26.1235 55.25,26.1734 52.90,25.9817 50.49,25.6294 48.29,25.2207 46.17,24.7584 43.41,24.2743 39.83,23.7234 36.44,22.9689 33.62,22.1434 31.11,21.3679 28.85,20.6051 26.48,19.6759 24.33,18.7364 22.29,17.4302 20.31,15.8593 18.10,14.3653 14.80,12.3027 10.70,9.5891 5.80,6.1767 0.98,2.8955 -1.3481,1.2831 -1.7366,0.6695 -1.8606,-0.046 -1.7013,-0.7545 -1.2831,-1.3482 -0.6695,-1.7366 0.04,-1.8606 0.75,-1.7013 1.09,-1.5513 3.05,-0.0497 Z"
      fill="#adb5bd"
      stroke-linecap="round"
    />
  </g>
  <g transform="matrix(1, 0, 0, 1, 16265.82, -1311.7205)" opacity="1">
    <path
      d="M2.0748,0.5764 Q2.0884,1.1528 1.10,0.6231 T1.0745,-0.7924 2.99,-2.3868 4.90,-3.8467 6.65,-5.2403 8.38,-6.5448 10.64,-8.0348 12.88,-9.4998 14.36,-10.4547 15.17,-10.8571 15.67,-10.9662 16.18,-10.9528 16.67,-10.8178 17.11,-10.569 17.48,-10.2209 17.76,-9.7936 17.93,-9.3122 17.98,-8.8044 17.91,-8.2999 17.71,-7.8279 17.41,-7.4159 17.02,-7.0879 15.81,-5.8009 13.90,-3.8218 11.97,-2.1336 9.98,-0.4268 8.34,1.0814 6.80,2.3984 5.20,3.655 3.58,5.0279 2.25,6.6849 1.44,8.882 -0.0722,9.919 -0.2744,8.5618 1.57,6.8715 3.54,5.5801 5.74,4.2093 7.98,2.8065 9.91,1.5225 11.89,0.0576 13.94,-1.4938 15.13,-2.2984 15.67,-2.5292 16.14,-2.6436 16.63,-2.6416 17.10,-2.5232 17.53,-2.2953 17.89,-1.9713 18.17,-1.5699 18.34,-1.1144 18.39,-0.6314 18.33,-0.1488 18.16,0.3052 17.88,0.7042 17.51,1.0251 16.11,2.8158 14.15,5.3199 12.72,6.9268 11.16,8.81 9.68,10.674 8.34,12.074 7.87,12.5701 7.97,12.5848 7.57,12.9024 7.11,13.1158 6.61,13.2126 6.11,13.1872 5.62,13.0411 5.18,12.7827 4.82,12.4271 4.55,11.995 4.40,11.5115 4.36,11.0046 4.45,10.5038 4.65,10.0383 6.23,8.5121 8.66,6.5203 10.84,5.0905 13.40,3.5981 16.13,2.0494 18.53,0.6508 20.88,-0.7077 23.12,-1.9567 25.35,-1.8457 26.18,0.1081 24.30,2.887 21.74,5.5445 19.07,8.224 16.42,10.6868 14.47,12.5375 13.40,14.2674 13.03,15.5093 12.82,16.1092 12.57,16.585 12.21,16.9861 11.76,17.2892 11.25,17.4767 10.72,17.5377 10.18,17.4686 9.68,17.2735 9.24,16.9637 8.88,16.5572 8.64,16.0776 8.51,15.5528 8.52,15.0134 9.01,13.9272 10.43,12.3179 12.44,10.8889 14.64,9.58 16.93,8.2484 18.94,7.1083 20.70,6.2135 23.21,6.2489 24.80,7.9906 24.14,10.5242 22.48,13.3346 20.89,15.6998 19.70,17.2806 18.24,19.1682 16.92,20.9396 16.18,21.8499 15.62,22.2418 14.97,22.4366 14.30,22.4141 13.66,22.1765 13.14,21.7487 12.78,21.1755 12.62,20.5169 12.68,19.8419 12.95,19.2212 13.40,18.7196 14.00,18.3899 14.66,18.2664 15.33,18.3621 15.94,18.6669 16.41,19.1491 16.71,19.758 16.80,20.43 16.67,21.0946 16.33,21.6823 15.82,22.1316 15.20,22.3954 14.52,22.4461 13.87,22.2783 13.30,21.9097 12.88,21.3789 12.65,20.7414 12.63,20.0639 12.84,19.4175 12.99,19.1111 13.91,17.8413 15.77,15.3135 17.65,12.565 19.63,10.0079 21.86,9.5963 22.17,10.6501 20.31,11.607 18.05,12.9532 15.93,14.2396 14.01,15.2967 12.82,16.1092 12.57,16.585 12.21,16.9861 11.76,17.2892 11.25,17.4767 10.72,17.5377 10.18,17.4686 9.68,17.2735 9.24,16.9637 8.88,16.5572 8.64,16.0776 8.51,15.5528 8.52,15.0134 8.73,14.2821 9.39,12.6208 10.57,10.7113 11.99,9.3971 13.88,7.8183 15.82,6.1329 17.73,4.1614 19.56,2.213 21.63,0.6601 23.41,0.6692 22.44,2.152 20.12,3.2898 17.85,4.7506 15.35,6.5262 13.11,8.2205 11.26,9.692 9.31,11.3575 7.97,12.5848 7.57,12.9024 7.11,13.1158 6.61,13.2126 6.11,13.1872 5.62,13.0411 5.18,12.7827 4.82,12.4271 4.55,11.995 4.40,11.5115 4.36,11.0046 4.45,10.5038 4.65,10.0383 5.22,9.477 6.47,8.2946 8.26,6.3333 9.88,4.4625 11.19,2.9189 12.50,1.2177 14.29,-1.0672 15.67,-2.5292 16.14,-2.6436 16.63,-2.6416 17.10,-2.5232 17.53,-2.2953 17.89,-1.9713 18.17,-1.5699 18.34,-1.1144 18.39,-0.6314 18.33,-0.1488 18.16,0.3052 17.88,0.7042 17.51,1.0251 17.16,1.2009 16.11,1.7232 13.99,3.0384 11.93,4.4253 10.05,5.799 7.95,7.3927 5.97,8.924 4.16,10.3786 2.09,12.0197 -0.4282,13.5492 -2.6796,13.1084 -3.5166,11.0507 -3.0973,9.1132 -2.4256,7.1365 -1.6425,5.1663 -0.5292,3.6026 1.17,2.1929 3.69,0.2967 5.88,-1.4961 7.49,-3.0919 9.30,-4.9326 10.94,-6.6322 12.31,-8.1644 13.93,-9.8296 15.17,-10.8571 15.67,-10.9662 16.18,-10.9528 16.67,-10.8178 17.11,-10.569 17.48,-10.2209 17.76,-9.7936 17.93,-9.3122 17.98,-8.8044 17.91,-8.2999 17.71,-7.8279 17.41,-7.4159 17.02,-7.0879 16.33,-6.75 14.88,-6.0172 12.73,-4.8158 10.73,-3.5309 9.17,-2.2806 7.49,-0.7578 5.73,0.8785 3.72,2.5475 1.33,3.9227 -0.9852,2.7634 -2.0748,0.5764 -1.9827,-0.3944 -1.6809,-1.1232 -1.1231,-1.6809 -0.3943,-1.9827 0.39,-1.9827 1.12,-1.6808 1.68,-1.123 1.98,-0.3942 2.06,0.0001 2.07,0.5764 Z"
      fill="#e03131"
      stroke-linecap="round"
    />
  </g>
  <g transform="matrix(1, 0, 0, 1, 16268.35, -1274.5943)" opacity="1">
    <path
      d="M1.8703,1.4603 Q1.6094,2.3733 1.04,3.8807 T-0.003,6.2231 -1.0733,8.0821 -2.1459,9.9267 -3.3606,11.4306 -4.3296,12.1941 -4.8398,12.3021 -5.3878,12.2915 -5.9174,12.15 -6.3978,11.8858 -6.8009,11.5144 -7.1035,11.0573 -7.2879,10.5411 -7.3434,9.9958 -7.2667,9.453 -7.0624,8.9443 -6.7423,8.4993 -6.325,8.1439 -5.8347,7.8987 -4.5014,7.0564 -2.1683,5.5799 0.21,4.2246 2.20,3.1848 3.82,2.1326 6.28,1.6398 8.11,2.7394 7.72,4.7542 6.35,6.7193 4.79,8.3269 3.03,9.9856 1.15,11.7149 -0.84,13.4763 -3.1886,15.5725 -4.9728,17.4464 -5.8244,18.4202 -6.1912,18.7948 -6.5714,19.0762 -7.0079,19.2584 -7.4753,19.3309 -7.9465,19.2894 -8.394,19.1363 -8.7919,18.8806 -9.1171,18.5371 -9.3506,18.1258 -9.4788,17.6705 -9.4944,17.1977 -9.3964,16.735 -9.1905,16.3092 -8.2024,15.6538 -6.3703,14.2808 -4.1822,12.5105 -1.7307,10.6702 0.78,8.8876 3.07,7.3391 5.55,6.1026 7.94,6.5514 8.76,8.452 7.99,10.3104 6.99,12.2141 6.66,14.4082 6.56,16.5277 6.45,17.6371 6.38,18.0977 6.19,18.6567 5.88,19.1549 5.45,19.5633 4.94,19.8581 4.38,20.0223 3.79,20.0463 3.21,19.9287 2.68,19.6764 2.22,19.3039 1.87,18.833 1.64,18.291 1.54,17.7095 2.02,16.3251 3.35,14.4509 4.97,12.9744 6.96,11.4958 9.19,10.0995 10.99,8.9843 12.68,7.9777 14.52,6.8765 17.64,6.5514 19.49,8.1959 18.52,10.5095 16.69,12.6942 14.46,14.9976 12.72,16.7446 11.41,18.3047 10.40,20.1599 9.87,21.3738 9.5,21.801 9.03,22.1253 8.49,22.3278 7.93,22.3967 7.36,22.3281 6.83,22.1259 6.36,21.8019 5.98,21.375 5.71,20.8698 5.58,20.3159 5.58,19.7453 5.71,19.1913 6.58,17.4123 7.96,15.1975 9.58,13.5214 11.34,11.8118 13.34,10.4032 15.73,10.2381 17.40,12.0554 17.85,14.7371 17.41,17.8021 16.49,20.9037 15.57,23.1788 14.85,24.9872 14.48,27.1047 14.42,28.6628 14.17,29.3831 13.70,29.9869 13.07,30.411 12.34,30.6108 11.58,30.5656 10.87,30.28 10.29,29.784 9.90,29.1295 9.74,28.385 9.83,27.6284 10.15,26.939 10.68,26.389 11.36,26.0359 12.11,25.9167 12.86,26.0439 13.53,26.4042 14.05,26.9599 14.37,27.6527 14.44,28.4101 14.28,29.1529 13.88,29.8032 13.30,30.293 12.59,30.571 11.83,30.6081 11.10,30.4004 10.47,29.9696 10.01,29.3609 9.77,28.638 9.71,28.2572 9.71,27.2451 9.86,25.145 10.52,23.1104 11.41,21.3069 12.19,19.4556 12.84,17.0683 13.12,14.4078 14.18,13.8192 14.52,15.1627 12.96,16.6796 11.41,18.4672 10.38,20.2697 9.87,21.3738 9.5,21.801 9.03,22.1253 8.49,22.3278 7.93,22.3967 7.36,22.3281 6.83,22.1259 6.36,21.8019 5.98,21.375 5.71,20.8698 5.58,20.3159 5.58,19.7453 5.71,19.1913 5.88,18.8712 6.31,17.899 7.36,16.0109 8.83,14.3889 10.44,12.9259 12.39,10.9241 14.66,8.9972 16.24,9.2705 15.32,11.0493 13.19,12.352 11.53,13.5026 9.79,14.8339 7.68,16.6761 6.38,18.0977 6.19,18.6567 5.88,19.1549 5.45,19.5633 4.94,19.8581 4.38,20.0223 3.79,20.0463 3.21,19.9287 2.68,19.6764 2.22,19.3039 1.87,18.833 1.64,18.291 1.54,17.7095 1.68,16.4968 1.84,14.3897 2.02,11.7674 2.73,9.5609 4.17,8.3021 6.07,8.9245 6.12,10.5385 4.19,11.661 2.00,13.0761 -0.502,14.8791 -3.0089,16.7001 -5.1058,18.0749 -6.1912,18.7948 -6.5714,19.0762 -7.0079,19.2584 -7.4753,19.3309 -7.9465,19.2894 -8.394,19.1363 -8.7919,18.8806 -9.1171,18.5371 -9.3506,18.1258 -9.4788,17.6705 -9.4944,17.1977 -9.3964,16.735 -9.1905,16.3092 -8.3172,15.41 -6.6701,13.9398 -5.0678,12.5481 -3.3758,10.8974 -1.6071,9.005 0.62,6.4507 3.05,3.4874 4.16,3.5127 6.07,4.8253 7.12,5.5405 5.33,6.7494 3.38,7.6901 1.37,8.7568 -0.8789,10.1357 -3.2765,11.5765 -4.8398,12.3021 -5.3878,12.2915 -5.9174,12.15 -6.3978,11.8858 -6.8009,11.5144 -7.1035,11.0573 -7.2879,10.5411 -7.3434,9.9958 -7.2667,9.453 -7.0624,8.9443 -6.7423,8.4993 -6.325,8.1439 -5.8347,7.8987 -5.7778,7.7365 -5.3798,6.8673 -4.1352,4.9041 -3.0226,2.5219 -2.3423,0.3779 -1.9453,-0.9342 -1.4397,-1.6075 -0.7149,-2.0361 0.11,-2.1547 0.93,-1.9452 1.60,-1.4396 2.03,-0.7148 2.15,0.1189 2.13,0.5474 1.87,1.4603 Z"
      fill="#ff8787"
      stroke-linecap="round"
    />
  </g>
  <g transform="matrix(1, 0, 0, 1, 16299.85, -1271.8488)" opacity="1">
    <g>
      <text
        font-size="18px"
        font-family="'tldraw_draw', sans-serif"
        font-style="normal"
        font-weight="normal"
        line-height="24.3px"
        dominant-baseline="mathematical"
        alignment-baseline="mathematical"
        stroke="rgb(249, 250, 251)"
        stroke-width="2px"
        fill="rgb(249, 250, 251)"
      >
        <tspan alignment-baseline="mathematical" x="0.5078125px" y="8.75px">
          computed
        </tspan>
      </text>
      <text
        font-size="18px"
        font-family="'tldraw_draw', sans-serif"
        font-style="normal"
        font-weight="normal"
        line-height="24.3px"
        dominant-baseline="mathematical"
        alignment-baseline="mathematical"
        stroke="none"
        stroke-width="2px"
        fill="#ff8787"
      >
        <tspan alignment-baseline="mathematical" x="0.5078125px" y="8.75px">
          computed
        </tspan>
      </text>
    </g>
  </g>
  <g transform="matrix(1, 0, 0, 1, 16301.55, -1316.7647)" opacity="1">
    <g>
      <text
        font-size="18px"
        font-family="'tldraw_draw', sans-serif"
        font-style="normal"
        font-weight="normal"
        line-height="24.3px"
        dominant-baseline="mathematical"
        alignment-baseline="mathematical"
        stroke="rgb(249, 250, 251)"
        stroke-width="2px"
        fill="rgb(249, 250, 251)"
      >
        <tspan alignment-baseline="mathematical" x="0.515625px" y="8.75px">
          given
        </tspan>
      </text>
      <text
        font-size="18px"
        font-family="'tldraw_draw', sans-serif"
        font-style="normal"
        font-weight="normal"
        line-height="24.3px"
        dominant-baseline="mathematical"
        alignment-baseline="mathematical"
        stroke="none"
        stroke-width="2px"
        fill="#e03131"
      >
        <tspan alignment-baseline="mathematical" x="0.515625px" y="8.75px">
          given
        </tspan>
      </text>
    </g>
  </g>
</svg>