<svg xmlns="http://www.w3.org/2000/svg" id="s" viewBox="80 180 440 440"><circle r="4" fill="black" cx="198" cy="566"></circle><circle r="4" fill="red" cx="368.99480986465124" cy="442.14378228393065"></circle><line stroke-width="3" stroke="red" x1="365.1820191476259" y1="437.6856470930543" x2="368.99480986465124" y2="442.14378228393065"></line><circle r="4" fill="blue" cx="363.4622529197485" cy="440.50965533241873"></circle><line stroke-width="3" stroke="blue" x1="365.1820191476259" y1="437.6856470930543" x2="363.4622529197485" y2="440.50965533241873"></line><circle r="4" fill="green" cx="365.1820191476259" cy="437.6856470930543"></circle><circle r="4" fill="black" cx="198" cy="566"></circle><circle r="4" fill="red" cx="247.18629526136087" cy="434.3040939092544"></circle><line stroke-width="3" stroke="red" x1="247.40179348662795" y1="440.6933222027619" x2="247.18629526136087" y2="434.3040939092544"></line><circle r="4" fill="blue" cx="250.40938012752522" cy="440.1768139689048"></circle><line stroke-width="3" stroke="blue" x1="247.40179348662795" y1="440.6933222027619" x2="250.40938012752522" y2="440.1768139689048"></line><circle r="4" fill="green" cx="247.40179348662795" cy="440.6933222027619"></circle><circle r="4" fill="black" cx="198" cy="566"></circle><circle r="4" fill="red" cx="282.8321296200622" cy="535.6608668348501"></circle><line stroke-width="3" stroke="red" x1="287.94785967411497" y1="535.788833738821" x2="282.8321296200622" y2="535.6608668348501"></line><circle r="4" fill="blue" cx="287.4794281615309" cy="532.3401842653117"></circle><line stroke-width="3" stroke="blue" x1="287.94785967411497" y1="535.788833738821" x2="287.4794281615309" y2="532.3401842653117"></line><circle r="4" fill="green" cx="287.94785967411497" cy="535.788833738821"></circle><circle r="4" fill="black" cx="198" cy="566"></circle><circle r="4" fill="red" cx="335.0860434043494" cy="543.8236554697806"></circle><line stroke-width="3" stroke="red" x1="338.76823869688803" y1="539.1487121622545" x2="335.0860434043494" y2="543.8236554697806"></line><circle r="4" fill="blue" cx="336.1704586989266" cy="536.9436617615398"></circle><line stroke-width="3" stroke="blue" x1="338.76823869688803" y1="539.1487121622545" x2="336.1704586989266" y2="536.9436617615398"></line><circle r="4" fill="green" cx="338.76823869688803" cy="539.1487121622545"></circle><circle r="4" fill="black" cx="198" cy="566"></circle><circle r="4" fill="red" cx="286.9044112308334" cy="397.6676153785893"></circle><line stroke-width="3" stroke="red" x1="283.4013058290726" y1="401.74113577865995" x2="286.9044112308334" y2="397.6676153785893"></line><circle r="4" fill="blue" cx="285.6953582424415" cy="403.8606915954103"></circle><line stroke-width="3" stroke="blue" x1="283.4013058290726" y1="401.74113577865995" x2="285.6953582424415" y2="403.8606915954103"></line><circle r="4" fill="green" cx="283.4013058290726" cy="401.74113577865995"></circle><circle r="4" fill="black" cx="198" cy="566"></circle><circle r="4" fill="red" cx="334.1764313060542" cy="391.78797390318584"></circle><line stroke-width="3" stroke="red" x1="328.56249573908553" y1="391.9298219365671" x2="334.1764313060542" y2="391.78797390318584"></line><circle r="4" fill="blue" cx="329.21040682137516" cy="395.6979098908316"></circle><line stroke-width="3" stroke="blue" x1="328.56249573908553" y1="391.9298219365671" x2="329.21040682137516" y2="395.6979098908316"></line><circle r="4" fill="green" cx="328.56249573908553" cy="391.9298219365671"></circle><circle r="4" fill="black" cx="198" cy="566"></circle><circle r="4" fill="red" cx="363.40191373934476" cy="501.0605563248708"></circle><line stroke-width="3" stroke="red" x1="363.4116535567032" y1="495.25334951852017" x2="363.40191373934476" y2="501.0605563248708"></line><circle r="4" fill="blue" cx="360.6567747481627" cy="495.58450053198305"></circle><line stroke-width="3" stroke="blue" x1="363.4116535567032" y1="495.25334951852017" x2="360.6567747481627" y2="495.58450053198305"></line><circle r="4" fill="green" cx="363.4116535567032" cy="495.25334951852017"></circle><circle r="4" fill="black" cx="198" cy="566"></circle><circle r="4" fill="red" cx="243.34884291693254" cy="499.429273811428"></circle><line stroke-width="3" stroke="red" x1="247.70286910682972" y1="504.1231630248733" x2="243.34884291693254" y2="499.429273811428"></line><circle r="4" fill="blue" cx="249.478454194709" cy="500.9213712370455"></circle><line stroke-width="3" stroke="blue" x1="247.70286910682972" y1="504.1231630248733" x2="249.478454194709" y2="500.9213712370455"></line><circle r="4" fill="green" cx="247.70286910682972" cy="504.1231630248733"></circle><circle r="4" fill="black" cx="198" cy="566"></circle><circle r="4" fill="red" cx="252.75511841018482" cy="488.37790215486086"></circle><line stroke-width="3" stroke="red" x1="256.08274492520115" y1="492.5973768774842" x2="252.75511841018482" y2="488.37790215486086"></line><circle r="4" fill="blue" cx="257.7395146069616" cy="490.1136036344572"></circle><line stroke-width="3" stroke="blue" x1="256.08274492520115" y1="492.5973768774842" x2="257.7395146069616" y2="490.1136036344572"></line><circle r="4" fill="green" cx="256.08274492520115" cy="492.5973768774842"></circle><circle r="4" fill="black" cx="198" cy="566"></circle><circle r="4" fill="red" cx="377.20658646559644" cy="501.32441289957626"></circle><line stroke-width="3" stroke="red" x1="376.7214660111763" y1="494.30732824098567" x2="377.20658646559644" y2="501.32441289957626"></line><circle r="4" fill="blue" cx="373.44402651483074" cy="495.04171509648654"></circle><line stroke-width="3" stroke="blue" x1="376.7214660111763" y1="494.30732824098567" x2="373.44402651483074" y2="495.04171509648654"></line><circle r="4" fill="green" cx="376.7214660111763" cy="494.30732824098567"></circle><circle r="4" fill="black" cx="198" cy="566"></circle><circle r="4" fill="red" cx="334.21542110738136" cy="407.46333413568976"></circle><line stroke-width="3" stroke="red" x1="329.5619745601075" y1="407.113325390647" x2="334.21542110738136" y2="407.46333413568976"></line><circle r="4" fill="blue" cx="329.8772966599104" cy="410.2639219900652"></circle><line stroke-width="3" stroke="blue" x1="329.5619745601075" y1="407.113325390647" x2="329.8772966599104" y2="410.2639219900652"></line><circle r="4" fill="green" cx="329.5619745601075" cy="407.113325390647"></circle><circle r="4" fill="black" cx="198" cy="566"></circle><circle r="4" fill="red" cx="276.5666535509485" cy="385.69470318859334"></circle><line stroke-width="3" stroke="red" x1="272.71152583396895" y1="391.04118485303655" x2="276.5666535509485" y2="385.69470318859334"></line><circle r="4" fill="blue" cx="275.645646435758" cy="393.32351050502064"></circle><line stroke-width="3" stroke="blue" x1="272.71152583396895" y1="391.04118485303655" x2="275.645646435758" y2="393.32351050502064"></line><circle r="4" fill="green" cx="272.71152583396895" cy="391.04118485303655"></circle><circle r="4" fill="black" cx="198" cy="566"></circle><circle r="4" fill="red" cx="326.06003549149113" cy="532.4872167428003"></circle><line stroke-width="3" stroke="red" x1="329.38070496015746" y1="528.9512175090156" x2="326.06003549149113" y2="532.4872167428003"></line><circle r="4" fill="blue" cx="327.36042297002587" cy="526.9231231012327"></circle><line stroke-width="3" stroke="blue" x1="329.38070496015746" y1="528.9512175090156" x2="327.36042297002587" y2="526.9231231012327"></line><circle r="4" fill="green" cx="329.38070496015746" cy="528.9512175090156"></circle><circle r="4" fill="black" cx="198" cy="566"></circle><circle r="4" fill="red" cx="283.4853970509949" cy="552.903667805926"></circle><line stroke-width="3" stroke="red" x1="289.6350628256529" y1="552.4374635738827" x2="283.4853970509949" y2="552.903667805926"></line><circle r="4" fill="blue" cx="288.7779266786829" cy="548.3278670332683"></circle><line stroke-width="3" stroke="blue" x1="289.6350628256529" y1="552.4374635738827" x2="288.7779266786829" y2="548.3278670332683"></line><circle r="4" fill="green" cx="289.6350628256529" cy="552.4374635738827"></circle><circle r="4" fill="black" cx="198" cy="566"></circle><circle r="4" fill="red" cx="259.74613281910234" cy="435.1746710315424"></circle><line stroke-width="3" stroke="red" x1="259.5500867947049" y1="440.4434745452604" x2="259.74613281910234" y2="435.1746710315424"></line><circle r="4" fill="blue" cx="262.0689155387383" cy="440.2689558996004"></circle><line stroke-width="3" stroke="blue" x1="259.5500867947049" y1="440.4434745452604" x2="262.0689155387383" y2="440.2689558996004"></line><circle r="4" fill="green" cx="259.5500867947049" cy="440.4434745452604"></circle><circle r="4" fill="black" cx="198" cy="566"></circle><circle r="4" fill="red" cx="378.8775450540592" cy="429.46615404405117"></circle><line stroke-width="3" stroke="red" x1="373.92091933535306" y1="424.54280604619294" x2="378.8775450540592" y2="429.46615404405117"></line><circle r="4" fill="blue" cx="372.09884752194256" cy="428.1632931762043"></circle><line stroke-width="3" stroke="blue" x1="373.92091933535306" y1="424.54280604619294" x2="372.09884752194256" y2="428.1632931762043"></line><circle r="4" fill="green" cx="373.92091933535306" cy="424.54280604619294"></circle><circle r="4" fill="black" cx="198" cy="566"></circle><circle r="4" fill="red" cx="360.07474055982584" cy="451.7413319080725"></circle><line stroke-width="3" stroke="red" x1="357.1811349732343" y1="447.76059122335704" x2="360.07474055982584" y2="451.7413319080725"></line><circle r="4" fill="blue" cx="355.59268642960507" cy="449.9385278352338"></circle><line stroke-width="3" stroke="blue" x1="357.1811349732343" y1="447.76059122335704" x2="355.59268642960507" y2="449.9385278352338"></line><circle r="4" fill="green" cx="357.1811349732343" cy="447.76059122335704"></circle><circle r="4" fill="black" cx="198" cy="566"></circle><circle r="4" fill="red" cx="232.0403997515326" cy="434.7764829575162"></circle><line stroke-width="3" stroke="red" x1="232.8455909832351" y1="442.4693962762855" x2="232.0403997515326" y2="434.7764829575162"></line><circle r="4" fill="blue" cx="236.41041472430453" cy="441.48040577637215"></circle><line stroke-width="3" stroke="blue" x1="232.8455909832351" y1="442.4693962762855" x2="236.41041472430453" y2="441.48040577637215"></line><circle r="4" fill="green" cx="232.8455909832351" cy="442.4693962762855"></circle><circle r="4" fill="black" cx="198" cy="566"></circle><circle r="4" fill="red" cx="283.3018815416939" cy="521.4358308555727"></circle><line stroke-width="3" stroke="red" x1="287.52728928243" y1="521.9661762563691" x2="283.3018815416939" y2="521.4358308555727"></line><circle r="4" fill="blue" cx="287.34175742232344" cy="519.0930223376616"></circle><line stroke-width="3" stroke="blue" x1="287.52728928243" y1="521.9661762563691" x2="287.34175742232344" y2="519.0930223376616"></line><circle r="4" fill="green" cx="287.52728928243" cy="521.9661762563691"></circle><circle r="4" fill="black" cx="198" cy="566"></circle><circle r="4" fill="red" cx="346.8868093764216" cy="556.4243019011876"></circle><line stroke-width="3" stroke="red" x1="350.90538756105445" y1="550.3294858577201" x2="346.8868093764216" y2="556.4243019011876"></line><circle r="4" fill="blue" cx="347.59948914970505" cy="547.9807290694866"></circle><line stroke-width="3" stroke="blue" x1="350.90538756105445" y1="550.3294858577201" x2="347.59948914970505" y2="547.9807290694866"></line><circle r="4" fill="green" cx="350.90538756105445" cy="550.3294858577201"></circle><circle r="4" fill="black" cx="198" cy="566"></circle><circle r="4" fill="red" cx="294.75666304683375" cy="408.3665666786238"></circle><line stroke-width="3" stroke="red" x1="291.61941619833215" y1="411.42317985268477" x2="294.75666304683375" y2="408.3665666786238"></line><circle r="4" fill="blue" cx="293.3933943211984" cy="413.3557684418391"></circle><line stroke-width="3" stroke="blue" x1="291.61941619833215" y1="411.42317985268477" x2="293.3933943211984" y2="413.3557684418391"></line><circle r="4" fill="green" cx="291.61941619833215" cy="411.42317985268477"></circle><circle r="4" fill="black" cx="198" cy="566"></circle><circle r="4" fill="red" cx="332.78861392153993" cy="372.8547192136951"></circle><line stroke-width="3" stroke="red" x1="326.06419964034944" y1="373.7073553198092" x2="332.78861392153993" y2="372.8547192136951"></line><circle r="4" fill="blue" cx="327.16403377021044" cy="378.18109711399256"></circle><line stroke-width="3" stroke="blue" x1="326.06419964034944" y1="373.7073553198092" x2="327.16403377021044" y2="378.18109711399256"></line><circle r="4" fill="green" cx="326.06419964034944" cy="373.7073553198092"></circle><circle r="4" fill="black" cx="198" cy="566"></circle><circle r="4" fill="red" cx="351.99498123261986" cy="499.696378073794"></circle><line stroke-width="3" stroke="red" x1="352.3432942247997" y1="494.92462028316" x2="351.99498123261986" y2="499.696378073794"></line><circle r="4" fill="blue" cx="350.04442376540106" cy="494.96780884084734"></circle><line stroke-width="3" stroke="blue" x1="352.3432942247997" y1="494.92462028316" x2="350.04442376540106" y2="494.96780884084734"></line><circle r="4" fill="green" cx="352.3432942247997" cy="494.92462028316"></circle><circle r="4" fill="black" cx="198" cy="566"></circle><circle r="4" fill="red" cx="233.0070501309035" cy="513.9223208240572"></circle><line stroke-width="3" stroke="red" x1="238.6333105257713" y1="519.0648118411905" x2="233.0070501309035" y2="513.9223208240572"></line><circle r="4" fill="blue" cx="240.49004377526649" cy="514.9811365944779"></circle><line stroke-width="3" stroke="blue" x1="238.6333105257713" y1="519.0648118411905" x2="240.49004377526649" y2="514.9811365944779"></line><circle r="4" fill="green" cx="238.6333105257713" cy="519.0648118411905"></circle><circle r="4" fill="black" cx="198" cy="566"></circle><circle r="4" fill="red" cx="261.185665847262" cy="480.07726808667053"></circle><line stroke-width="3" stroke="red" x1="263.6918158179135" y1="483.82154629989304" x2="261.185665847262" y2="480.07726808667053"></line><circle r="4" fill="blue" cx="265.20820422738154" cy="481.9179910446375"></circle><line stroke-width="3" stroke="blue" x1="263.6918158179135" y1="483.82154629989304" x2="265.20820422738154" y2="481.9179910446375"></line><circle r="4" fill="green" cx="263.6918158179135" cy="483.82154629989304"></circle><circle r="4" fill="black" cx="198" cy="566"></circle><circle r="4" fill="red" cx="393.7943406693052" cy="499.96795851290875"></circle><line stroke-width="3" stroke="red" x1="392.61189782154406" y1="491.54922783667837" x2="393.7943406693052" y2="499.96795851290875"></line><circle r="4" fill="blue" cx="388.7418985508714" cy="492.83419288509236"></circle><line stroke-width="3" stroke="blue" x1="392.61189782154406" y1="491.54922783667837" x2="388.7418985508714" y2="492.83419288509236"></line><circle r="4" fill="green" cx="392.61189782154406" cy="491.54922783667837"></circle><circle r="4" fill="black" cx="198" cy="566"></circle><circle r="4" fill="red" cx="333.3292367850166" cy="420.34913831832944"></circle><line stroke-width="3" stroke="red" x1="329.499345820435" y1="419.6747323328528" x2="333.3292367850166" y2="420.34913831832944"></line><circle r="4" fill="blue" cx="329.57565386587436" cy="422.2902106883538"></circle><line stroke-width="3" stroke="blue" x1="329.499345820435" y1="419.6747323328528" x2="329.57565386587436" y2="422.2902106883538"></line><circle r="4" fill="green" cx="329.499345820435" cy="419.6747323328528"></circle><circle r="4" fill="black" cx="198" cy="566"></circle><circle r="4" fill="red" cx="263.13737788631664" cy="372.48429337810387"></circle><line stroke-width="3" stroke="red" x1="258.9687363971061" y1="379.4114056621049" x2="263.13737788631664" y2="372.48429337810387"></line><circle r="4" fill="blue" cx="262.684844068662" cy="381.8127058386105"></circle><line stroke-width="3" stroke="blue" x1="258.9687363971061" y1="379.4114056621049" x2="262.684844068662" y2="381.8127058386105"></line><circle r="4" fill="green" cx="258.9687363971061" cy="379.4114056621049"></circle><circle r="4" fill="black" cx="198" cy="566"></circle><circle r="4" fill="red" cx="319.25587197341673" cy="522.4203636972633"></circle><line stroke-width="3" stroke="red" x1="322.21067169803706" y1="519.7903417834966" x2="319.25587197341673" y2="522.4203636972633"></line><circle r="4" fill="blue" cx="320.6578603996026" cy="517.9556729656086"></circle><line stroke-width="3" stroke="blue" x1="322.21067169803706" y1="519.7903417834966" x2="320.6578603996026" y2="517.9556729656086"></line><circle r="4" fill="green" cx="322.21067169803706" cy="519.7903417834966"></circle><circle r="4" fill="black" cx="198" cy="566"></circle><circle r="4" fill="red" cx="285.744423563257" cy="573.6560619700858"></circle><line stroke-width="3" stroke="red" x1="293.0839488085811" y1="572.3465469523671" x2="285.744423563257" y2="573.6560619700858"></line><circle r="4" fill="blue" cx="291.70383491708526" cy="567.4856058739285"></circle><line stroke-width="3" stroke="blue" x1="293.0839488085811" y1="572.3465469523671" x2="291.70383491708526" y2="567.4856058739285"></line><circle r="4" fill="green" cx="293.0839488085811" cy="572.3465469523671"></circle><circle r="4" fill="black" cx="198" cy="566"></circle><circle r="4" fill="red" cx="270.08750331422664" cy="436.9340130891904"></circle><line stroke-width="3" stroke="red" x1="269.6165810371566" y1="441.2478078228552" x2="270.08750331422664" y2="436.9340130891904"></line><circle r="4" fill="blue" cx="271.71095937632253" cy="441.3137267141687"></circle><line stroke-width="3" stroke="blue" x1="269.6165810371566" y1="441.2478078228552" x2="271.71095937632253" y2="441.3137267141687"></line><circle r="4" fill="green" cx="269.6165810371566" cy="441.2478078228552"></circle><circle r="4" fill="black" cx="198" cy="566"></circle><circle r="4" fill="red" cx="389.6519481296229" cy="412.9505464187216"></circle><line stroke-width="3" stroke="red" x1="383.2829566445144" y1="407.6039645656334" x2="389.6519481296229" y2="412.9505464187216"></line><circle r="4" fill="blue" cx="381.4062602460386" cy="412.1991225135786"></circle><line stroke-width="3" stroke="blue" x1="383.2829566445144" y1="407.6039645656334" x2="381.4062602460386" y2="412.1991225135786"></line><circle r="4" fill="green" cx="383.2829566445144" cy="407.6039645656334"></circle><circle r="4" fill="black" cx="198" cy="566"></circle><circle r="4" fill="red" cx="352.1316762955443" cy="458.8875732621665"></circle><line stroke-width="3" stroke="red" x1="349.9706601812184" y1="455.37556737150214" x2="352.1316762955443" y2="458.8875732621665"></line><circle r="4" fill="blue" cx="348.528722172103" cy="457.0334535959381"></circle><line stroke-width="3" stroke="blue" x1="349.9706601812184" y1="455.37556737150214" x2="348.528722172103" y2="457.0334535959381"></line><circle r="4" fill="green" cx="349.9706601812184" cy="455.37556737150214"></circle><circle r="4" fill="black" cx="198" cy="566"></circle><circle r="4" fill="red" cx="213.9062055919806" cy="437.18518361019693"></circle><line stroke-width="3" stroke="red" x1="215.53054079788237" y1="446.38156670994584" x2="213.9062055919806" y2="437.18518361019693"></line><circle r="4" fill="blue" cx="219.72361088970516" cy="444.75413077087035"></circle><line stroke-width="3" stroke="blue" x1="215.53054079788237" y1="446.38156670994584" x2="219.72361088970516" y2="444.75413077087035"></line><circle r="4" fill="green" cx="215.53054079788237" cy="446.38156670994584"></circle><circle r="4" fill="black" cx="198" cy="566"></circle><circle r="4" fill="red" cx="284.5240368022689" cy="509.7842367306551"></circle><line stroke-width="3" stroke="red" x1="287.9891896397654" y1="510.57127464892665" x2="284.5240368022689" y2="509.7842367306551"></line><circle r="4" fill="blue" cx="288.00401802497964" cy="508.19459557395214"></circle><line stroke-width="3" stroke="blue" x1="287.9891896397654" y1="510.57127464892665" x2="288.00401802497964" y2="508.19459557395214"></line><circle r="4" fill="green" cx="287.9891896397654" cy="510.57127464892665"></circle><circle r="4" fill="black" cx="198" cy="566"></circle><circle r="4" fill="red" cx="362.12535265292905" cy="570.2155613358806"></circle><line stroke-width="3" stroke="red" x1="366.4261094731146" y1="562.3645233360422" x2="362.12535265292905" y2="570.2155613358806"></line><circle r="4" fill="blue" cx="362.2581967048303" cy="559.9280813381131"></circle><line stroke-width="3" stroke="blue" x1="366.4261094731146" y1="562.3645233360422" x2="362.2581967048303" y2="559.9280813381131"></line><circle r="4" fill="green" cx="366.4261094731146" cy="562.3645233360422"></circle><circle r="4" fill="black" cx="198" cy="566"></circle><circle r="4" fill="red" cx="300.626977698885" cy="417.8119570648447"></circle><line stroke-width="3" stroke="red" x1="297.8520352787142" y1="420.0632472037926" x2="300.626977698885" y2="417.8119570648447"></line><circle r="4" fill="blue" cx="299.20664335785284" cy="421.7989552077069"></circle><line stroke-width="3" stroke="blue" x1="297.8520352787142" y1="420.0632472037926" x2="299.20664335785284" y2="421.7989552077069"></line><circle r="4" fill="green" cx="297.8520352787142" cy="420.0632472037926"></circle><circle r="4" fill="black" cx="198" cy="566"></circle><circle r="4" fill="red" cx="329.5035314148681" cy="350.149164342844"></circle><line stroke-width="3" stroke="red" x1="321.50738503995603" y1="351.9952891681821" x2="329.5035314148681" y2="350.149164342844"></line><circle r="4" fill="blue" cx="323.20988173415486" cy="357.26671571421883"></circle><line stroke-width="3" stroke="blue" x1="321.50738503995603" y1="351.9952891681821" x2="323.20988173415486" y2="357.26671571421883"></line><circle r="4" fill="green" cx="321.50738503995603" cy="351.9952891681821"></circle><circle r="4" fill="black" cx="198" cy="566"></circle><circle r="4" fill="red" cx="342.63647920921676" cy="497.6271972556116"></circle><line stroke-width="3" stroke="red" x1="343.20426891260695" y1="493.73454740673924" x2="342.63647920921676" y2="497.6271972556116"></line><circle r="4" fill="blue" cx="341.29958537864877" cy="493.57897795473656"></circle><line stroke-width="3" stroke="blue" x1="343.20426891260695" y1="493.73454740673924" x2="341.29958537864877" y2="493.57897795473656"></line><circle r="4" fill="green" cx="343.20426891260695" cy="493.73454740673924"></circle><circle r="4" fill="black" cx="198" cy="566"></circle><circle r="4" fill="red" cx="221.8371016188172" cy="532.686911158982"></circle><line stroke-width="3" stroke="red" x1="229.02838178586694" y1="538.2169861161863" x2="221.8371016188172" y2="532.686911158982"></line><circle r="4" fill="blue" cx="230.90704498343007" cy="533.0580271164681"></circle><line stroke-width="3" stroke="blue" x1="229.02838178586694" y1="538.2169861161863" x2="230.90704498343007" y2="533.0580271164681"></line><circle r="4" fill="green" cx="229.02838178586694" cy="538.2169861161863"></circle><circle r="4" fill="black" cx="198" cy="566"></circle><circle r="4" fill="red" cx="268.64769686160196" cy="473.95619260044197"></circle><line stroke-width="3" stroke="red" x1="270.5019755340799" y1="477.24166315025644" x2="268.64769686160196" y2="473.95619260044197"></line><circle r="4" fill="blue" cx="271.8682124047972" cy="475.8032841482832"></circle><line stroke-width="3" stroke="blue" x1="270.5019755340799" y1="477.24166315025644" x2="271.8682124047972" y2="475.8032841482832"></line><circle r="4" fill="green" cx="270.5019755340799" cy="477.24166315025644"></circle><circle r="4" fill="black" cx="198" cy="566"></circle><circle r="4" fill="red" cx="413.58308875898723" cy="496.31621269039545"></circle><line stroke-width="3" stroke="red" x1="411.4439694081782" y1="486.2887229897533" x2="413.58308875898723" y2="496.31621269039545"></line><circle r="4" fill="blue" cx="406.910018793216" cy="488.31077056274995"></circle><line stroke-width="3" stroke="blue" x1="411.4439694081782" y1="486.2887229897533" x2="406.910018793216" y2="488.31077056274995"></line><circle r="4" fill="green" cx="411.4439694081782" cy="486.2887229897533"></circle><circle r="4" fill="black" cx="198" cy="566"></circle><circle r="4" fill="red" cx="331.8409809416599" cy="430.8654940795944"></circle><line stroke-width="3" stroke="red" x1="328.71153107079897" y1="429.9929342171698" x2="331.8409809416599" y2="430.8654940795944"></line><circle r="4" fill="blue" cx="328.62142533145465" cy="432.14876863889145"></circle><line stroke-width="3" stroke="blue" x1="328.71153107079897" y1="429.9929342171698" x2="328.62142533145465" y2="432.14876863889145"></line><circle r="4" fill="green" cx="328.71153107079897" cy="429.9929342171698"></circle><circle r="4" fill="black" cx="198" cy="566"></circle><circle r="4" fill="red" cx="245.8925078370261" cy="358.15397956911517"></circle><line stroke-width="3" stroke="red" x1="241.48288282576436" y1="367.02875617149493" x2="245.8925078370261" y2="358.15397956911517"></line><circle r="4" fill="blue" cx="246.14752914525266" cy="369.47889793910167"></circle><line stroke-width="3" stroke="blue" x1="241.48288282576436" y1="367.02875617149493" x2="246.14752914525266" y2="369.47889793910167"></line><circle r="4" fill="green" cx="241.48288282576436" cy="367.02875617149493"></circle><circle r="4" fill="black" cx="198" cy="566"></circle><circle r="4" fill="red" cx="314.2157407144297" cy="513.5815624776783"></circle><line stroke-width="3" stroke="red" x1="316.81472632026504" y1="511.6656965613955" x2="314.2157407144297" y2="513.5815624776783"></line><circle r="4" fill="blue" cx="315.6373808941941" cy="510.02884405719965"></circle><line stroke-width="3" stroke="blue" x1="316.81472632026504" y1="511.6656965613955" x2="315.6373808941941" y2="510.02884405719965"></line><circle r="4" fill="green" cx="316.81472632026504" cy="511.6656965613955"></circle><circle r="4" fill="black" cx="198" cy="566"></circle><circle r="4" fill="red" cx="290.2305579528543" cy="598.4536636893816"></circle><line stroke-width="3" stroke="red" x1="298.92573239979595" y1="595.980921289402" x2="290.2305579528543" y2="598.4536636893816"></line><circle r="4" fill="blue" cx="296.8537836504553" cy="590.2757174799233"></circle><line stroke-width="3" stroke="blue" x1="298.92573239979595" y1="595.980921289402" x2="296.8537836504553" y2="590.2757174799233"></line><circle r="4" fill="green" cx="298.92573239979595" cy="595.980921289402"></circle><circle r="4" fill="black" cx="198" cy="566"></circle><circle r="4" fill="red" cx="278.54117467379956" cy="439.2393926459942"></circle><line stroke-width="3" stroke="red" x1="277.8987672644364" y1="442.7454820272393" x2="278.54117467379956" y2="439.2393926459942"></line><circle r="4" fill="blue" cx="279.627855214248" cy="442.973724113002"></circle><line stroke-width="3" stroke="blue" x1="277.8987672644364" y1="442.7454820272393" x2="279.627855214248" y2="442.973724113002"></line><circle r="4" fill="green" cx="277.8987672644364" cy="442.7454820272393"></circle><circle r="4" fill="black" cx="198" cy="566"></circle><circle r="4" fill="red" cx="401.1679850919127" cy="391.6899270493525"></circle><line stroke-width="3" stroke="red" x1="393.06799051993266" y1="386.00341451188405" x2="401.1679850919127" y2="391.6899270493525"></line><circle r="4" fill="blue" cx="391.20912962745194" cy="391.7827373771226"></circle><line stroke-width="3" stroke="blue" x1="393.06799051993266" y1="386.00341451188405" x2="391.20912962745194" y2="391.7827373771226"></line><circle r="4" fill="green" cx="393.06799051993266" cy="386.00341451188405"></circle><circle r="4" fill="black" cx="198" cy="566"></circle><circle r="4" fill="red" cx="345.1406410027699" cy="464.1004437368942"></circle><line stroke-width="3" stroke="red" x1="343.55832701110535" y1="461.03454747691313" x2="345.1406410027699" y2="464.1004437368942"></line><circle r="4" fill="blue" cx="342.2680867520514" cy="462.2772147174092"></circle><line stroke-width="3" stroke="blue" x1="343.55832701110535" y1="461.03454747691313" x2="342.2680867520514" y2="462.2772147174092"></line><circle r="4" fill="green" cx="343.55832701110535" cy="461.03454747691313"></circle><circle r="4" fill="black" cx="198" cy="566"></circle><circle r="4" fill="red" cx="192.35179720424185" cy="442.2958514223607"></circle><line stroke-width="3" stroke="red" x1="195.08770209774406" y1="453.2092272913956" x2="192.35179720424185" y2="442.2958514223607"></line><circle r="4" fill="blue" cx="199.9800292601698" cy="450.7342224872418"></circle><line stroke-width="3" stroke="blue" x1="195.08770209774406" y1="453.2092272913956" x2="199.9800292601698" y2="450.7342224872418"></line><circle r="4" fill="green" cx="195.08770209774406" cy="453.2092272913956"></circle><circle r="4" fill="black" cx="198" cy="566"></circle><circle r="4" fill="red" cx="286.217970447101" cy="500.3101214660812"></circle><line stroke-width="3" stroke="red" x1="289.0390259683762" y1="501.24493216838806" x2="286.217970447101" y2="500.3101214660812"></line><circle r="4" fill="blue" cx="289.19054902128374" cy="499.2929259297464"></circle><line stroke-width="3" stroke="blue" x1="289.0390259683762" y1="501.24493216838806" x2="289.19054902128374" y2="499.2929259297464"></line><circle r="4" fill="green" cx="289.0390259683762" cy="501.24493216838806"></circle><circle r="4" fill="black" cx="198" cy="566"></circle><circle r="4" fill="red" cx="381.5909798206909" cy="585.0280623391594"></circle><line stroke-width="3" stroke="red" x1="386.0800970850619" y1="575.0210241829203" x2="381.5909798206909" y2="585.0280623391594"></line><circle r="4" fill="blue" cx="380.8702922025542" cy="572.5832538783881"></circle><line stroke-width="3" stroke="blue" x1="386.0800970850619" y1="575.0210241829203" x2="380.8702922025542" y2="572.5832538783881"></line><circle r="4" fill="green" cx="386.0800970850619" cy="575.0210241829203"></circle><circle r="4" fill="black" cx="198" cy="566"></circle><circle r="4" fill="red" cx="304.93082747399615" cy="426.06240447313587"></circle><line stroke-width="3" stroke="red" x1="302.50285162223815" y1="427.6819635345553" x2="304.93082747399615" y2="426.06240447313587"></line><circle r="4" fill="blue" cx="303.5219961540884" cy="429.2210135206854"></circle><line stroke-width="3" stroke="blue" x1="302.50285162223815" y1="427.6819635345553" x2="303.5219961540884" y2="429.2210135206854"></line><circle r="4" fill="green" cx="302.50285162223815" cy="427.6819635345553"></circle><circle r="4" fill="black" cx="198" cy="566"></circle><circle r="4" fill="red" cx="323.6190681329401" cy="323.11639076550966"></circle><line stroke-width="3" stroke="red" x1="314.181875693845" y1="326.31711395919785" x2="323.6190681329401" y2="323.11639076550966"></line><circle r="4" fill="blue" cx="316.67579098672854" cy="332.47911863446615"></circle><line stroke-width="3" stroke="blue" x1="314.181875693845" y1="326.31711395919785" x2="316.67579098672854" y2="332.47911863446615"></line><circle r="4" fill="green" cx="314.181875693845" cy="326.31711395919785"></circle><circle r="4" fill="black" cx="198" cy="566"></circle><circle r="4" fill="red" cx="335.0142161085137" cy="495.14886927967984"></circle><line stroke-width="3" stroke="red" x1="335.712098891243" y1="491.99694244117535" x2="335.0142161085137" y2="495.14886927967984"></line><circle r="4" fill="blue" cx="334.14522278013413" cy="491.7107882464796"></circle><line stroke-width="3" stroke="blue" x1="335.712098891243" y1="491.99694244117535" x2="334.14522278013413" y2="491.7107882464796"></line><circle r="4" fill="green" cx="335.712098891243" cy="491.99694244117535"></circle><circle r="4" fill="black" cx="198" cy="566"></circle><circle r="4" fill="red" cx="210.0388233506632" cy="556.7126106197021"></circle><line stroke-width="3" stroke="red" x1="219.14123684128816" y1="562.5210213509683" x2="210.0388233506632" y2="556.7126106197021"></line><circle r="4" fill="blue" cx="220.95422451681264" cy="556.0603107726031"></circle><line stroke-width="3" stroke="blue" x1="219.14123684128816" y1="562.5210213509683" x2="220.95422451681264" y2="556.0603107726031"></line><circle r="4" fill="green" cx="219.14123684128816" cy="562.5210213509683"></circle><circle r="4" fill="black" cx="198" cy="566"></circle><circle r="4" fill="red" cx="275.1806449062476" cy="469.54586002402425"></circle><line stroke-width="3" stroke="red" x1="276.52242840057016" y1="472.4000880442761" x2="275.1806449062476" y2="469.54586002402425"></line><circle r="4" fill="blue" cx="277.73717001471294" cy="471.33152791769527"></circle><line stroke-width="3" stroke="blue" x1="276.52242840057016" y1="472.4000880442761" x2="277.73717001471294" y2="471.33152791769527"></line><circle r="4" fill="green" cx="276.52242840057016" cy="472.4000880442761"></circle><circle r="4" fill="black" cx="198" cy="566"></circle><circle r="4" fill="red" cx="437.0165679851789" cy="489.50299174686893"></circle><line stroke-width="3" stroke="red" x1="433.591836636871" y1="477.64799531686873" x2="437.0165679851789" y2="489.50299174686893"></line><circle r="4" fill="blue" cx="428.3242224873523" cy="480.6411117739961"></circle><line stroke-width="3" stroke="blue" x1="433.591836636871" y1="477.64799531686873" x2="428.3242224873523" y2="480.6411117739961"></line><circle r="4" fill="green" cx="433.591836636871" cy="477.64799531686873"></circle><circle r="4" fill="black" cx="198" cy="566"></circle><circle r="4" fill="red" cx="329.99338336535885" cy="439.3845143279961"></circle><line stroke-width="3" stroke="red" x1="327.4551092281102" y1="438.40731956490134" x2="329.99338336535885" y2="439.3845143279961"></line><circle r="4" fill="blue" cx="327.25423913637405" cy="440.17157144301655"></circle><line stroke-width="3" stroke="blue" x1="327.4551092281102" y1="438.40731956490134" x2="327.25423913637405" y2="440.17157144301655"></line><circle r="4" fill="green" cx="327.4551092281102" cy="438.40731956490134"></circle><circle r="4" fill="black" cx="198" cy="566"></circle><circle r="4" fill="red" cx="223.9732342332972" cy="342.9336993590036"></circle><line stroke-width="3" stroke="red" x1="219.44105958259576" y1="354.190765638121" x2="223.9732342332972" y2="342.9336993590036"></line><circle r="4" fill="blue" cx="225.24810141417476" cy="356.58480736563325"></circle><line stroke-width="3" stroke="blue" x1="219.44105958259576" y1="354.190765638121" x2="225.24810141417476" y2="356.58480736563325"></line><circle r="4" fill="green" cx="219.44105958259576" cy="354.190765638121"></circle><circle r="4" fill="black" cx="198" cy="566"></circle><circle r="4" fill="red" cx="310.5632680242087" cy="505.89862949284804"></circle><line stroke-width="3" stroke="red" x1="312.8259989642229" y1="504.54010979001043" x2="310.5632680242087" y2="505.89862949284804"></line><circle r="4" fill="blue" cx="311.9477346566263" cy="503.0970353621933"></circle><line stroke-width="3" stroke="blue" x1="312.8259989642229" y1="504.54010979001043" x2="311.9477346566263" y2="503.0970353621933"></line><circle r="4" fill="green" cx="312.8259989642229" cy="504.54010979001043"></circle><circle r="4" fill="black" cx="198" cy="566"></circle><circle r="4" fill="red" cx="297.73522153506696" cy="627.8681664819378"></circle><line stroke-width="3" stroke="red" x1="307.95761880236773" y1="623.8255745790804" x2="297.73522153506696" y2="627.8681664819378"></line><circle r="4" fill="blue" cx="304.98326269701914" cy="617.1843413163735"></circle><line stroke-width="3" stroke="blue" x1="307.95761880236773" y1="623.8255745790804" x2="304.98326269701914" y2="617.1843413163735"></line><circle r="4" fill="green" cx="307.95761880236773" cy="623.8255745790804"></circle><circle r="4" fill="black" cx="198" cy="566"></circle><circle r="4" fill="red" cx="285.4009149858385" cy="441.8366349399302"></circle><line stroke-width="3" stroke="red" x1="284.6639405439065" y1="444.6646711439629" x2="285.4009149858385" y2="441.8366349399302"></line><circle r="4" fill="blue" cx="286.08126569177244" cy="444.99595620075695"></circle><line stroke-width="3" stroke="blue" x1="284.6639405439065" y1="444.6646711439629" x2="286.08126569177244" y2="444.99595620075695"></line><circle r="4" fill="green" cx="284.6639405439065" cy="444.6646711439629"></circle><circle r="4" fill="black" cx="198" cy="566"></circle><circle r="4" fill="red" cx="413.16802293644145" cy="364.606683357244"></circle><line stroke-width="3" stroke="red" x1="402.96179693354065" y1="358.7195491813632" x2="413.16802293644145" y2="364.606683357244"></line><circle r="4" fill="blue" cx="401.2256436903824" cy="365.927341381898"></circle><line stroke-width="3" stroke="blue" x1="402.96179693354065" y1="358.7195491813632" x2="401.2256436903824" y2="365.927341381898"></line><circle r="4" fill="green" cx="402.96179693354065" cy="358.7195491813632"></circle><circle r="4" fill="black" cx="198" cy="566"></circle><circle r="4" fill="red" cx="339.0506219273774" cy="467.8035267328259"></circle><line stroke-width="3" stroke="red" x1="337.9210047846538" y1="465.15235608735696" x2="339.0506219273774" y2="467.8035267328259"></line><circle r="4" fill="blue" cx="336.78061208274886" cy="466.0663896060857"></circle><line stroke-width="3" stroke="blue" x1="337.9210047846538" y1="465.15235608735696" x2="336.78061208274886" y2="466.0663896060857"></line><circle r="4" fill="green" cx="337.9210047846538" cy="465.15235608735696"></circle><circle r="4" fill="black" cx="198" cy="566"></circle><circle r="4" fill="red" cx="166.9243912409154" cy="451.08591733674507"></circle><line stroke-width="3" stroke="red" x1="171.14103459565263" y1="463.93876450081655" x2="166.9243912409154" y2="451.08591733674507"></line><circle r="4" fill="blue" cx="176.79993894163135" cy="460.354923719361"></circle><line stroke-width="3" stroke="blue" x1="171.14103459565263" y1="463.93876450081655" x2="176.79993894163135" y2="460.354923719361"></line><circle r="4" fill="green" cx="171.14103459565263" cy="463.93876450081655"></circle><circle r="4" fill="black" cx="198" cy="566"></circle><circle r="4" fill="red" cx="288.1746852690689" cy="492.66474546023164"></circle><line stroke-width="3" stroke="red" x1="290.45413746838176" y1="493.66746893935294" x2="288.1746852690689" y2="492.66474546023164"></line><circle r="4" fill="blue" cx="290.6938834171711" cy="492.07583475332757"></circle><line stroke-width="3" stroke="blue" x1="290.45413746838176" y1="493.66746893935294" x2="290.6938834171711" y2="492.07583475332757"></line><circle r="4" fill="green" cx="290.45413746838176" cy="493.66746893935294"></circle><circle r="4" fill="black" cx="198" cy="566"></circle><circle r="4" fill="red" cx="406.2163446562494" cy="600.5613967749413"></circle><line stroke-width="3" stroke="red" x1="410.7470423098612" y1="587.9267565946315" x2="406.2163446562494" y2="600.5613967749413"></line><circle r="4" fill="blue" cx="404.28688540981244" cy="585.6138175593883"></circle><line stroke-width="3" stroke="blue" x1="410.7470423098612" y1="587.9267565946315" x2="404.28688540981244" y2="585.6138175593883"></line><circle r="4" fill="green" cx="410.7470423098612" cy="587.9267565946315"></circle><circle r="4" fill="black" cx="198" cy="566"></circle><circle r="4" fill="red" cx="308.0085518412664" cy="433.20061385194066"></circle><line stroke-width="3" stroke="red" x1="305.9046805176629" y1="434.32983106889407" x2="308.0085518412664" y2="433.20061385194066"></line><circle r="4" fill="blue" cx="306.65777516505545" cy="435.67937957350784"></circle><line stroke-width="3" stroke="blue" x1="305.9046805176629" y1="434.32983106889407" x2="306.65777516505545" y2="435.67937957350784"></line><circle r="4" fill="green" cx="305.9046805176629" cy="434.32983106889407"></circle><circle r="4" fill="black" cx="198" cy="566"></circle><circle r="4" fill="red" cx="314.24523354893563" cy="291.1711841326781"></circle><line stroke-width="3" stroke="red" x1="303.1947165237958" y1="296.1833223501795" x2="314.24523354893563" y2="291.1711841326781"></line><circle r="4" fill="blue" cx="306.71449888160896" cy="303.3252271153026"></circle><line stroke-width="3" stroke="blue" x1="303.1947165237958" y1="296.1833223501795" x2="306.71449888160896" y2="303.3252271153026"></line><circle r="4" fill="green" cx="303.1947165237958" cy="296.1833223501795"></circle><circle r="4" fill="black" cx="198" cy="566"></circle><circle r="4" fill="red" cx="328.8525407851692" cy="492.4785917397143"></circle><line stroke-width="3" stroke="red" x1="329.6146662059194" y1="489.94622945900556" x2="328.8525407851692" y2="492.4785917397143"></line><circle r="4" fill="blue" cx="328.33495307271545" cy="489.5808319122146"></circle><line stroke-width="3" stroke="blue" x1="329.6146662059194" y1="489.94622945900556" x2="328.33495307271545" y2="489.5808319122146"></line><circle r="4" fill="green" cx="329.6146662059194" cy="489.94622945900556"></circle><circle r="4" fill="black" cx="198" cy="566"></circle><circle r="4" fill="red" cx="197.93665791484548" cy="587.1707011397874"></circle><line stroke-width="3" stroke="red" x1="209.35618410163335" y1="593.0834591798114" x2="197.93665791484548" y2="587.1707011397874"></line><circle r="4" fill="blue" cx="210.97899801802328" cy="585.0580239414336"></circle><line stroke-width="3" stroke="blue" x1="209.35618410163335" y1="593.0834591798114" x2="210.97899801802328" y2="585.0580239414336"></line><circle r="4" fill="green" cx="209.35618410163335" cy="593.0834591798114"></circle><circle r="4" fill="black" cx="198" cy="566"></circle><circle r="4" fill="red" cx="280.84460707631723" cy="466.46425849655077"></circle><line stroke-width="3" stroke="red" x1="281.7876042068177" y1="468.92148179045734" x2="280.84460707631723" y2="466.46425849655077"></line><circle r="4" fill="blue" cx="282.8553258813384" cy="468.1442608054775"></circle><line stroke-width="3" stroke="blue" x1="281.7876042068177" y1="468.92148179045734" x2="282.8553258813384" y2="468.1442608054775"></line><circle r="4" fill="green" cx="281.7876042068177" cy="468.92148179045734"></circle><circle r="4" fill="black" cx="198" cy="566"></circle><circle r="4" fill="red" cx="464.5531471312774" cy="478.42797837600915"></circle><line stroke-width="3" stroke="red" x1="459.4293774256362" y1="464.5211150636021" x2="464.5531471312774" y2="478.42797837600915"></line><circle r="4" fill="blue" cx="453.36446485396624" cy="468.77644777309337"></circle><line stroke-width="3" stroke="blue" x1="459.4293774256362" y1="464.5211150636021" x2="453.36446485396624" y2="468.77644777309337"></line><circle r="4" fill="green" cx="459.4293774256362" cy="464.5211150636021"></circle><circle r="4" fill="black" cx="198" cy="566"></circle><circle r="4" fill="red" cx="327.9654831040831" cy="446.23218828740323"></circle><line stroke-width="3" stroke="red" x1="325.9224958936582" y1="445.2181345712672" x2="327.9654831040831" y2="446.23218828740323"></line><circle r="4" fill="blue" cx="325.65291959599614" cy="446.6513642818792"></circle><line stroke-width="3" stroke="blue" x1="325.9224958936582" y1="445.2181345712672" x2="325.65291959599614" y2="446.6513642818792"></line><circle r="4" fill="green" cx="325.9224958936582" cy="445.2181345712672"></circle><circle r="4" fill="black" cx="198" cy="566"></circle><circle r="4" fill="red" cx="196.36868379386962" cy="327.2054674205517"></circle><line stroke-width="3" stroke="red" x1="191.89325881118907" y1="341.3555382214671" x2="196.36868379386962" y2="327.2054674205517"></line><circle r="4" fill="blue" cx="199.06634062703029" cy="343.5431710338496"></circle><line stroke-width="3" stroke="blue" x1="191.89325881118907" y1="341.3555382214671" x2="199.06634062703029" y2="343.5431710338496"></line><circle r="4" fill="green" cx="191.89325881118907" cy="341.3555382214671"></circle><circle r="4" fill="black" cx="198" cy="566"></circle><circle r="4" fill="red" cx="307.9912605972" cy="499.28096061646903"></circle><line stroke-width="3" stroke="red" x1="309.9431086862461" y1="498.35254094020854" x2="307.9912605972" y2="499.28096061646903"></line><circle r="4" fill="blue" cx="309.30095911183906" cy="497.0935773462829"></circle><line stroke-width="3" stroke="blue" x1="309.9431086862461" y1="498.35254094020854" x2="309.30095911183906" y2="497.0935773462829"></line><circle r="4" fill="green" cx="309.9431086862461" cy="498.35254094020854"></circle><circle r="4" fill="black" cx="198" cy="566"></circle><circle r="4" fill="red" cx="309.25700397971815" cy="662.4942137391743"></circle><line stroke-width="3" stroke="red" x1="321.17772049458716" y1="656.3696961534156" x2="309.25700397971815" y2="662.4942137391743"></line><circle r="4" fill="blue" cx="317.0404258693613" cy="648.7071201098626"></circle><line stroke-width="3" stroke="blue" x1="321.17772049458716" y1="656.3696961534156" x2="317.0404258693613" y2="648.7071201098626"></line><circle r="4" fill="green" cx="321.17772049458716" cy="656.3696961534156"></circle><circle r="4" fill="black" cx="198" cy="566"></circle><circle r="4" fill="red" cx="290.92468913349705" cy="444.5412657941712"></circle><line stroke-width="3" stroke="red" x1="290.14919541914014" y1="446.8041943534676" x2="290.92468913349705" y2="444.5412657941712"></line><circle r="4" fill="blue" cx="291.3025213931584" cy="447.1942525795394"></circle><line stroke-width="3" stroke="blue" x1="290.14919541914014" y1="446.8041943534676" x2="291.3025213931584" y2="447.1942525795394"></line><circle r="4" fill="green" cx="290.14919541914014" cy="446.8041943534676"></circle><circle r="4" fill="black" cx="198" cy="566"></circle><circle r="4" fill="red" cx="425.25071999480946" cy="330.4301758411706"></circle><line stroke-width="3" stroke="red" x1="412.49991805128667" y1="324.5562593084528" x2="425.25071999480946" y2="330.4301758411706"></line><circle r="4" fill="blue" cx="411.0332160942541" cy="333.4749476256292"></circle><line stroke-width="3" stroke="blue" x1="412.49991805128667" y1="324.5562593084528" x2="411.0332160942541" y2="333.4749476256292"></line><circle r="4" fill="green" cx="412.49991805128667" cy="324.5562593084528"></circle><circle r="4" fill="black" cx="198" cy="566"></circle><circle r="4" fill="red" cx="333.7945911545152" cy="470.34069825848803"></circle><line stroke-width="3" stroke="red" x1="333.0152492326728" y1="468.06798820769257" x2="333.7945911545152" y2="470.34069825848803"></line><circle r="4" fill="blue" cx="332.0181000082298" cy="468.724393052724"></circle><line stroke-width="3" stroke="blue" x1="333.0152492326728" y1="468.06798820769257" x2="332.0181000082298" y2="468.724393052724"></line><circle r="4" fill="green" cx="333.0152492326728" cy="468.06798820769257"></circle><circle r="4" fill="black" cx="198" cy="566"></circle><circle r="4" fill="red" cx="137.1642811111204" cy="464.7911983776063"></circle><line stroke-width="3" stroke="red" x1="143.32368715282053" y1="479.807501930683" x2="137.1642811111204" y2="464.7911983776063"></line><circle r="4" fill="blue" cx="149.8075992760622" cy="474.7910091950721"></circle><line stroke-width="3" stroke="blue" x1="143.32368715282053" y1="479.807501930683" x2="149.8075992760622" y2="474.7910091950721"></line><circle r="4" fill="green" cx="143.32368715282053" cy="479.807501930683"></circle><circle r="4" fill="black" cx="198" cy="566"></circle><circle r="4" fill="red" cx="290.24168406874423" cy="486.54413207339815"></circle><line stroke-width="3" stroke="red" x1="292.06901862369386" y1="487.5576550234097" x2="290.24168406874423" y2="486.54413207339815"></line><circle r="4" fill="blue" cx="292.3606479891726" cy="486.26951966136966"></circle><line stroke-width="3" stroke="blue" x1="292.06901862369386" y1="487.5576550234097" x2="292.3606479891726" y2="486.26951966136966"></line><circle r="4" fill="green" cx="292.06901862369386" cy="487.5576550234097"></circle><circle r="4" fill="black" cx="198" cy="566"></circle><circle r="4" fill="red" cx="437.0949029183924" cy="616.339450673636"></circle><line stroke-width="3" stroke="red" x1="441.4507037726104" y1="600.5252608012293" x2="437.0949029183924" y2="616.339450673636"></line><circle r="4" fill="blue" cx="433.5008423868155" cy="598.5148682120818"></circle><line stroke-width="3" stroke="blue" x1="441.4507037726104" y1="600.5252608012293" x2="433.5008423868155" y2="598.5148682120818"></line><circle r="4" fill="green" cx="441.4507037726104" cy="600.5252608012293"></circle><circle r="4" fill="black" cx="198" cy="566"></circle><circle r="4" fill="red" cx="310.1369118676351" cy="439.32284127979744"></circle><line stroke-width="3" stroke="red" x1="308.32994411538306" y1="440.07601520263955" x2="310.1369118676351" y2="439.32284127979744"></line><circle r="4" fill="blue" cx="308.87400447142977" cy="441.24771281610305"></circle><line stroke-width="3" stroke="blue" x1="308.32994411538306" y1="440.07601520263955" x2="308.87400447142977" y2="441.24771281610305"></line><circle r="4" fill="green" cx="308.32994411538306" cy="440.07601520263955"></circle><circle r="4" fill="black" cx="198" cy="566"></circle><circle r="4" fill="red" cx="300.2640012710538" cy="253.71452763829464"></circle><line stroke-width="3" stroke="red" x1="287.432511525163" y1="261.110884487254" x2="300.2640012710538" y2="253.71452763829464"></line><circle r="4" fill="blue" cx="292.2671333866382" cy="269.31215165780725"></circle><line stroke-width="3" stroke="blue" x1="287.432511525163" y1="261.110884487254" x2="292.2671333866382" y2="269.31215165780725"></line><circle r="4" fill="green" cx="287.432511525163" cy="261.110884487254"></circle><circle r="4" fill="black" cx="198" cy="566"></circle><circle r="4" fill="red" cx="323.91064540161807" cy="489.7719554042717"></circle><line stroke-width="3" stroke="red" x1="324.6896257449414" y1="487.75411244293394" x2="323.91064540161807" y2="489.7719554042717"></line><circle r="4" fill="blue" cx="323.6521627079547" cy="487.3474565563559"></circle><line stroke-width="3" stroke="blue" x1="324.6896257449414" y1="487.75411244293394" x2="323.6521627079547" y2="487.3474565563559"></line><circle r="4" fill="green" cx="324.6896257449414" cy="487.75411244293394"></circle><circle r="4" fill="black" cx="198" cy="566"></circle><circle r="4" fill="red" cx="186.02012985425117" cy="625.4368801554759"></circle><line stroke-width="3" stroke="red" x1="200.2290466994249" y1="631.1945170160171" x2="186.02012985425117" y2="625.4368801554759"></line><circle r="4" fill="blue" cx="201.4897954044588" cy="621.301757701556"></circle><line stroke-width="3" stroke="blue" x1="200.2290466994249" y1="631.1945170160171" x2="201.4897954044588" y2="621.301757701556"></line><circle r="4" fill="green" cx="200.2290466994249" cy="631.1945170160171"></circle><circle r="4" fill="black" cx="198" cy="566"></circle><circle r="4" fill="red" cx="285.71169219144133" cy="464.40243198262095"></circle><line stroke-width="3" stroke="red" x1="286.34798292579126" y1="466.5002389315799" x2="285.71169219144133" y2="464.40243198262095"></line><circle r="4" fill="blue" cx="287.27698592873656" cy="465.95023162797594"></circle><line stroke-width="3" stroke="blue" x1="286.34798292579126" y1="466.5002389315799" x2="287.27698592873656" y2="465.95023162797594"></line><circle r="4" fill="green" cx="286.34798292579126" cy="466.5002389315799"></circle><circle r="4" fill="black" cx="198" cy="566"></circle><circle r="4" fill="red" cx="496.6487221811047" cy="461.7062141576934"></circle><line stroke-width="3" stroke="red" x1="489.31062118124146" y1="445.5265963665724" x2="496.6487221811047" y2="461.7062141576934"></line><circle r="4" fill="blue" cx="482.3969580134634" cy="451.4036135441031"></circle><line stroke-width="3" stroke="blue" x1="489.31062118124146" y1="445.5265963665724" x2="482.3969580134634" y2="451.4036135441031"></line><circle r="4" fill="green" cx="489.31062118124146" cy="445.5265963665724"></circle><circle r="4" fill="black" cx="198" cy="566"></circle><circle r="4" fill="red" cx="325.88632207786605" cy="451.69130565759383"></circle><line stroke-width="3" stroke="red" x1="324.25530946839046" y1="450.688124157368" x2="325.88632207786605" y2="451.69130565759383"></line><circle r="4" fill="blue" cx="323.94827877846603" cy="451.8435978821233"></circle><line stroke-width="3" stroke="blue" x1="324.25530946839046" y1="450.688124157368" x2="323.94827877846603" y2="451.8435978821233"></line><circle r="4" fill="green" cx="324.25530946839046" cy="450.688124157368"></circle><circle r="4" fill="black" cx="198" cy="566"></circle><circle r="4" fill="red" cx="161.8985212272051" cy="311.55348173796057"></circle><line stroke-width="3" stroke="red" x1="157.73869132513363" y1="329.19181228523524" x2="161.8985212272051" y2="311.55348173796057"></line><circle r="4" fill="blue" cx="166.53332062908552" cy="330.9643026554983"></circle><line stroke-width="3" stroke="blue" x1="157.73869132513363" y1="329.19181228523524" x2="166.53332062908552" y2="330.9643026554983"></line><circle r="4" fill="green" cx="157.73869132513363" cy="329.19181228523524"></circle><circle r="4" fill="black" cx="198" cy="566"></circle><circle r="4" fill="red" cx="306.25084630331406" cy="493.628562785471"></circle><line stroke-width="3" stroke="red" x1="307.92026049474174" y1="493.02777643136415" x2="306.25084630331406" y2="493.628562785471"></line><circle r="4" fill="blue" cx="307.4626918339991" cy="491.9397455391155"></circle><line stroke-width="3" stroke="blue" x1="307.92026049474174" y1="493.02777643136415" x2="307.4626918339991" y2="491.9397455391155"></line><circle r="4" fill="green" cx="307.92026049474174" cy="493.02777643136415"></circle><circle r="4" fill="black" cx="198" cy="566"></circle><circle r="4" fill="red" cx="326.0450539552966" cy="702.9290350841503"></circle><line stroke-width="3" stroke="red" x1="339.82559190976525" y1="694.0831705692078" x2="326.0450539552966" y2="702.9290350841503"></line><circle r="4" fill="blue" cx="334.20543083329915" cy="685.3277976043698"></circle><line stroke-width="3" stroke="blue" x1="339.82559190976525" y1="694.0831705692078" x2="334.20543083329915" y2="685.3277976043698"></line><circle r="4" fill="green" cx="339.82559190976525" cy="694.0831705692078"></circle><circle r="4" fill="black" cx="198" cy="566"></circle><circle r="4" fill="red" cx="295.33675350088276" cy="447.2231177601925"></circle><line stroke-width="3" stroke="red" x1="294.56249841153453" y1="449.0184195271253" x2="295.33675350088276" y2="447.2231177601925"></line><circle r="4" fill="blue" cx="295.4939400845452" cy="449.43483816122506"></circle><line stroke-width="3" stroke="blue" x1="294.56249841153453" y1="449.0184195271253" x2="295.4939400845452" y2="449.43483816122506"></line><circle r="4" fill="green" cx="294.56249841153453" cy="449.0184195271253"></circle><circle r="4" fill="black" cx="198" cy="566"></circle><circle r="4" fill="red" cx="436.82577513777613" cy="287.6740013722337"></circle><line stroke-width="3" stroke="red" x1="421.02269137266137" y1="282.12484381057357" x2="436.82577513777613" y2="287.6740013722337"></line><circle r="4" fill="blue" cx="420.0256902157507" cy="293.0778308682432"></circle><line stroke-width="3" stroke="blue" x1="421.02269137266137" y1="282.12484381057357" x2="420.0256902157507" y2="293.0778308682432"></line><circle r="4" fill="green" cx="421.02269137266137" cy="282.12484381057357"></circle><circle r="4" fill="black" cx="198" cy="566"></circle><circle r="4" fill="red" cx="329.2969395439327" cy="471.9889969282476"></circle><line stroke-width="3" stroke="red" x1="328.78525100327755" y1="470.05643115134876" x2="329.2969395439327" y2="471.9889969282476"></line><circle r="4" fill="blue" cx="327.92172054170675" cy="470.51301289729736"></circle><line stroke-width="3" stroke="blue" x1="328.78525100327755" y1="470.05643115134876" x2="327.92172054170675" y2="470.51301289729736"></line><circle r="4" fill="green" cx="328.78525100327755" cy="470.05643115134876"></circle><circle r="4" fill="black" cx="198" cy="566"></circle><circle r="4" fill="red" cx="102.62555753670077" cy="484.9605175641851"></circle><line stroke-width="3" stroke="red" x1="111.30130305502831" y1="502.35481451500004" x2="102.62555753670077" y2="484.9605175641851"></line><circle r="4" fill="blue" cx="118.65263533015082" cy="495.50736500067495"></circle><line stroke-width="3" stroke="blue" x1="111.30130305502831" y1="502.35481451500004" x2="118.65263533015082" y2="495.50736500067495"></line><circle r="4" fill="green" cx="111.30130305502831" cy="502.35481451500004"></circle><circle r="4" fill="black" cx="198" cy="566"></circle><circle r="4" fill="red" cx="292.31059667815373" cy="481.68578826512197"></circle><line stroke-width="3" stroke="red" x1="293.7632030351126" y1="482.6706102761474" x2="292.31059667815373" y2="481.68578826512197"></line><circle r="4" fill="blue" cx="294.0799797609947" cy="481.63621307313156"></circle><line stroke-width="3" stroke="blue" x1="293.7632030351126" y1="482.6706102761474" x2="294.0799797609947" y2="481.63621307313156"></line><circle r="4" fill="green" cx="293.7632030351126" cy="482.6706102761474"></circle><circle r="4" fill="black" cx="198" cy="566"></circle><circle r="4" fill="red" cx="475.4980361054994" cy="631.6543196109568"></circle><line stroke-width="3" stroke="red" x1="479.37195495987675" y1="612.020021536497" x2="475.4980361054994" y2="631.6543196109568"></line><circle r="4" fill="blue" cx="469.66037708973886" cy="610.555925695844"></circle><line stroke-width="3" stroke="blue" x1="479.37195495987675" y1="612.020021536497" x2="469.66037708973886" y2="610.555925695844"></line><circle r="4" fill="green" cx="479.37195495987675" cy="612.020021536497"></circle><circle r="4" fill="black" cx="198" cy="566"></circle><circle r="4" fill="red" cx="311.53926799638145" cy="444.53119551433224"></circle><line stroke-width="3" stroke="red" x1="310" y1="445" x2="311.53926799638145" y2="444.53119551433224"></line><circle r="4" fill="blue" cx="310.38151981605097" cy="446.00816025850827"></circle><line stroke-width="3" stroke="blue" x1="310" y1="445" x2="310.38151981605097" y2="446.00816025850827"></line><circle r="4" fill="green" cx="310" cy="445"></circle><circle r="4" fill="black" cx="198" cy="566"></circle><circle r="4" fill="red" cx="280.28252810400136" cy="210.15840189996064"></circle><line stroke-width="3" stroke="red" x1="265.5178965358982" y1="220.65134723411086" x2="280.28252810400136" y2="210.15840189996064"></line><circle r="4" fill="blue" cx="272.02091392895255" cy="229.97291070983417"></circle><line stroke-width="3" stroke="blue" x1="265.5178965358982" y1="220.65134723411086" x2="272.02091392895255" y2="229.97291070983417"></line><circle r="4" fill="green" cx="265.5178965358982" cy="220.65134723411086"></circle></svg>