<svg xmlns="http://www.w3.org/2000/svg" id="s" height="800" width="800"><circle r="4" fill="black" cx="409" cy="596"></circle><circle r="4" fill="red" cx="323.79313896539264" cy="431.4116061667486"></circle><line stroke-width="3" stroke="red" x1="319.9803482483495" y1="426.95347097585227" x2="323.79313896539264" y2="431.4116061667486"></line><circle r="4" fill="blue" cx="318.26058202046244" cy="429.7774792152281"></circle><line stroke-width="3" stroke="blue" x1="319.9803482483495" y1="426.95347097585227" x2="318.26058202046244" y2="429.7774792152281"></line><circle r="4" fill="green" cx="319.9803482483495" cy="426.95347097585227"></circle><circle r="4" fill="black" cx="409" cy="596"></circle><circle r="4" fill="red" cx="300.0169689276121" cy="428.8784785955259"></circle><line stroke-width="3" stroke="red" x1="300.232467152878" y1="435.26770688905873" x2="300.0169689276121" y2="428.8784785955259"></line><circle r="4" fill="blue" cx="303.2400537937868" cy="434.751198655201"></circle><line stroke-width="3" stroke="blue" x1="300.232467152878" y1="435.26770688905873" x2="303.2400537937868" y2="434.751198655201"></line><circle r="4" fill="green" cx="300.232467152878" cy="435.26770688905873"></circle><circle r="4" fill="black" cx="409" cy="596"></circle><circle r="4" fill="red" cx="306.3989945578397" cy="448.93817486932664"></circle><line stroke-width="3" stroke="red" x1="311.5147246119219" y1="449.0661417732962" x2="306.3989945578397" y2="448.93817486932664"></line><circle r="4" fill="blue" cx="311.04629309933756" cy="445.61749229976954"></circle><line stroke-width="3" stroke="blue" x1="311.5147246119219" y1="449.0661417732962" x2="311.04629309933756" y2="445.61749229976954"></line><circle r="4" fill="green" cx="311.5147246119219" cy="449.0661417732962"></circle><circle r="4" fill="black" cx="409" cy="596"></circle><circle r="4" fill="red" cx="316.5706952998362" cy="450.96084355237815"></circle><line stroke-width="3" stroke="red" x1="320.25289059238924" y1="446.28590024483657" x2="316.5706952998362" y2="450.96084355237815"></line><circle r="4" fill="blue" cx="317.655110594422" cy="444.0808498441149"></circle><line stroke-width="3" stroke="blue" x1="320.25289059238924" y1="446.28590024483657" x2="317.655110594422" y2="444.0808498441149"></line><circle r="4" fill="green" cx="320.25289059238924" cy="446.28590024483657"></circle><circle r="4" fill="black" cx="409" cy="596"></circle><circle r="4" fill="red" cx="307.9974716090552" cy="422.0613903188723"></circle><line stroke-width="3" stroke="red" x1="304.494366207271" y1="426.1349107189704" x2="307.9974716090552" y2="422.0613903188723"></line><circle r="4" fill="blue" cx="306.78841862065246" cy="428.2544665357332"></circle><line stroke-width="3" stroke="blue" x1="304.494366207271" y1="426.1349107189704" x2="306.78841862065246" y2="428.2544665357332"></line><circle r="4" fill="green" cx="304.494366207271" cy="426.1349107189704"></circle><circle r="4" fill="black" cx="409" cy="596"></circle><circle r="4" fill="red" cx="317.27649816592253" cy="421.3045396162898"></circle><line stroke-width="3" stroke="red" x1="311.66256259893885" y1="421.4463876496717" x2="317.27649816592253" y2="421.3045396162898"></line><circle r="4" fill="blue" cx="312.3104736812265" cy="425.21447560394364"></circle><line stroke-width="3" stroke="blue" x1="311.66256259893885" y1="421.4463876496717" x2="312.3104736812265" y2="425.21447560394364"></line><circle r="4" fill="green" cx="311.66256259893885" cy="421.4463876496717"></circle><circle r="4" fill="black" cx="409" cy="596"></circle><circle r="4" fill="red" cx="322.35690431762185" cy="442.8549800272754"></circle><line stroke-width="3" stroke="red" x1="322.3666441349808" y1="437.04777322088364" x2="322.35690431762185" y2="442.8549800272754"></line><circle r="4" fill="blue" cx="319.6117653264214" cy="437.37892423434863"></circle><line stroke-width="3" stroke="blue" x1="322.3666441349808" y1="437.04777322088364" x2="319.6117653264214" y2="437.37892423434863"></line><circle r="4" fill="green" cx="322.3666441349808" cy="437.04777322088364"></circle><circle r="4" fill="black" cx="409" cy="596"></circle><circle r="4" fill="red" cx="298.8879555488826" cy="441.547040371104"></circle><line stroke-width="3" stroke="red" x1="303.24198173878557" y1="446.24092958455714" x2="298.8879555488826" y2="441.547040371104"></line><circle r="4" fill="blue" cx="305.01756682667036" cy="443.03913779672706"></circle><line stroke-width="3" stroke="blue" x1="303.24198173878557" y1="446.24092958455714" x2="305.01756682667036" y2="443.03913779672706"></line><circle r="4" fill="green" cx="303.24198173878557" cy="446.24092958455714"></circle><circle r="4" fill="black" cx="409" cy="596"></circle><circle r="4" fill="red" cx="300.7917485882614" cy="439.4694420292061"></circle><line stroke-width="3" stroke="red" x1="304.1193751033045" y1="443.68891675186035" x2="300.7917485882614" y2="439.4694420292061"></line><circle r="4" fill="blue" cx="305.7761447850786" cy="441.20514350881507"></circle><line stroke-width="3" stroke="blue" x1="304.1193751033045" y1="443.68891675186035" x2="305.7761447850786" y2="441.20514350881507"></line><circle r="4" fill="green" cx="304.1193751033045" cy="443.68891675186035"></circle><circle r="4" fill="black" cx="409" cy="596"></circle><circle r="4" fill="red" cx="325.0551104344465" cy="443.0202527419496"></circle><line stroke-width="3" stroke="red" x1="324.5699899800299" y1="436.00316808335293" x2="325.0551104344465" y2="443.0202527419496"></line><circle r="4" fill="blue" cx="321.2925504836816" cy="436.7375549388516"></circle><line stroke-width="3" stroke="blue" x1="324.5699899800299" y1="436.00316808335293" x2="321.2925504836816" y2="436.7375549388516"></line><circle r="4" fill="green" cx="324.5699899800299" cy="436.00316808335293"></circle><circle r="4" fill="black" cx="409" cy="596"></circle><circle r="4" fill="red" cx="317.1930117349443" cy="424.36174669779"></circle><line stroke-width="3" stroke="red" x1="312.5395651876293" y1="424.0117379527478" x2="317.1930117349443" y2="424.36174669779"></line><circle r="4" fill="blue" cx="312.85488728743366" cy="427.1623345521915"></circle><line stroke-width="3" stroke="blue" x1="312.5395651876293" y1="424.0117379527478" x2="312.85488728743366" y2="427.1623345521915"></line><circle r="4" fill="green" cx="312.5395651876293" cy="424.0117379527478"></circle><circle r="4" fill="black" cx="409" cy="596"></circle><circle r="4" fill="red" cx="306.04533778205473" cy="419.64129375749025"></circle><line stroke-width="3" stroke="red" x1="302.1902100650704" y1="424.987775421933" x2="306.04533778205473" y2="419.64129375749025"></line><circle r="4" fill="blue" cx="305.1243306668565" cy="427.2701010739185"></circle><line stroke-width="3" stroke="blue" x1="302.1902100650704" y1="424.987775421933" x2="305.1243306668565" y2="427.2701010739185"></line><circle r="4" fill="green" cx="302.1902100650704" cy="424.987775421933"></circle><circle r="4" fill="black" cx="409" cy="596"></circle><circle r="4" fill="red" cx="314.8713971236481" cy="448.67568222817584"></circle><line stroke-width="3" stroke="red" x1="318.19206659234595" y1="445.13968299435487" x2="314.8713971236481" y2="448.67568222817584"></line><circle r="4" fill="blue" cx="316.1717846021966" cy="443.1115885865545"></circle><line stroke-width="3" stroke="blue" x1="318.19206659234595" y1="445.13968299435487" x2="316.1717846021966" y2="443.1115885865545"></line><circle r="4" fill="green" cx="318.19206659234595" cy="445.13968299435487"></circle><circle r="4" fill="black" cx="409" cy="596"></circle><circle r="4" fill="red" cx="306.4265300176214" cy="452.3061165586887"></circle><line stroke-width="3" stroke="red" x1="312.57619579227713" y1="451.83991232664766" x2="306.4265300176214" y2="452.3061165586887"></line><circle r="4" fill="blue" cx="311.71905964531265" cy="447.73031578603747"></circle><line stroke-width="3" stroke="blue" x1="312.57619579227713" y1="451.83991232664766" x2="311.71905964531265" y2="447.73031578603747"></line><circle r="4" fill="green" cx="312.57619579227713" cy="451.83991232664766"></circle><circle r="4" fill="black" cx="409" cy="596"></circle><circle r="4" fill="red" cx="302.468199739391" cy="429.1518057041138"></circle><line stroke-width="3" stroke="red" x1="302.2721537149925" y1="434.4206092178857" x2="302.468199739391" y2="429.1518057041138"></line><circle r="4" fill="blue" cx="304.79098245905084" cy="434.2460905722232"></circle><line stroke-width="3" stroke="blue" x1="302.2721537149925" y1="434.4206092178857" x2="304.79098245905084" y2="434.2460905722232"></line><circle r="4" fill="green" cx="302.2721537149925" cy="434.4206092178857"></circle><circle r="4" fill="black" cx="409" cy="596"></circle><circle r="4" fill="red" cx="325.7995643070108" cy="429.02079638036537"></circle><line stroke-width="3" stroke="red" x1="320.84293858831444" y1="424.0974483825125" x2="325.7995643070108" y2="429.02079638036537"></line><circle r="4" fill="blue" cx="319.0208667749027" cy="427.71793551251466"></circle><line stroke-width="3" stroke="blue" x1="320.84293858831444" y1="424.0974483825125" x2="319.0208667749027" y2="427.71793551251466"></line><circle r="4" fill="green" cx="320.84293858831444" cy="424.0974483825125"></circle><circle r="4" fill="black" cx="409" cy="596"></circle><circle r="4" fill="red" cx="321.99288206187805" cy="433.20970025411395"></circle><line stroke-width="3" stroke="red" x1="319.09927647525325" y1="429.2289595693578" x2="321.99288206187805" y2="433.20970025411395"></line><circle r="4" fill="blue" cx="317.5108279316067" cy="431.406896181258"></circle><line stroke-width="3" stroke="blue" x1="319.09927647525325" y1="429.2289595693578" x2="317.5108279316067" y2="431.406896181258"></line><circle r="4" fill="green" cx="319.09927647525325" cy="429.2289595693578"></circle><circle r="4" fill="black" cx="409" cy="596"></circle><circle r="4" fill="red" cx="297.0521844074737" cy="428.8457245359118"></circle><line stroke-width="3" stroke="red" x1="297.85737563916814" y1="436.53863785466416" x2="297.0521844074737" y2="428.8457245359118"></line><circle r="4" fill="blue" cx="301.42219938023" cy="435.5496473547575"></circle><line stroke-width="3" stroke="blue" x1="297.85737563916814" y1="436.53863785466416" x2="301.42219938023" y2="435.5496473547575"></line><circle r="4" fill="green" cx="297.85737563916814" cy="436.53863785466416"></circle><circle r="4" fill="black" cx="409" cy="596"></circle><circle r="4" fill="red" cx="306.57354425730415" cy="446.1679931308244"></circle><line stroke-width="3" stroke="red" x1="310.79895199809084" y1="446.69833853162226" x2="306.57354425730415" y2="446.1679931308244"></line><circle r="4" fill="blue" cx="310.61342013798253" cy="443.82518461288265"></circle><line stroke-width="3" stroke="blue" x1="310.79895199809084" y1="446.69833853162226" x2="310.61342013798253" y2="443.82518461288265"></line><circle r="4" fill="green" cx="310.79895199809084" cy="446.69833853162226"></circle><circle r="4" fill="black" cx="409" cy="596"></circle><circle r="4" fill="red" cx="318.8052967640813" cy="453.51541820068695"></circle><line stroke-width="3" stroke="red" x1="322.82387494870864" y1="447.4206021572403" x2="318.8052967640813" y2="453.51541820068695"></line><circle r="4" fill="blue" cx="319.5179765373731" cy="445.07184536901127"></circle><line stroke-width="3" stroke="blue" x1="322.82387494870864" y1="447.4206021572403" x2="319.5179765373731" y2="445.07184536901127"></line><circle r="4" fill="green" cx="322.82387494870864" cy="447.4206021572403"></circle><circle r="4" fill="black" cx="409" cy="596"></circle><circle r="4" fill="red" cx="309.47092704936017" cy="424.21255640794766"></circle><line stroke-width="3" stroke="red" x1="306.33368020081986" y1="427.2691695820507" x2="309.47092704936017" y2="424.21255640794766"></line><circle r="4" fill="blue" cx="308.1076583237076" cy="429.20175817122714"></circle><line stroke-width="3" stroke="blue" x1="306.33368020081986" y1="427.2691695820507" x2="308.1076583237076" y2="429.20175817122714"></line><circle r="4" fill="green" cx="306.33368020081986" cy="427.2691695820507"></circle><circle r="4" fill="black" cx="409" cy="596"></circle><circle r="4" fill="red" cx="317.1151345075808" cy="417.6008826665907"></circle><line stroke-width="3" stroke="red" x1="310.3907202264132" y1="418.453518772697" x2="317.1151345075808" y2="417.6008826665907"></line><circle r="4" fill="blue" cx="311.49055435626343" cy="422.92726056686223"></circle><line stroke-width="3" stroke="blue" x1="310.3907202264132" y1="418.453518772697" x2="311.49055435626343" y2="422.92726056686223"></line><circle r="4" fill="green" cx="310.3907202264132" cy="418.453518772697"></circle><circle r="4" fill="black" cx="409" cy="596"></circle><circle r="4" fill="red" cx="320.1340128088087" cy="442.4949002350509"></circle><line stroke-width="3" stroke="red" x1="320.4823258009912" y1="437.72314244435296" x2="320.1340128088087" y2="442.4949002350509"></line><circle r="4" fill="blue" cx="318.1834553415627" cy="437.7663310020424"></circle><line stroke-width="3" stroke="blue" x1="320.4823258009912" y1="437.72314244435296" x2="318.1834553415627" y2="437.7663310020424"></line><circle r="4" fill="green" cx="320.4823258009912" cy="437.72314244435296"></circle><circle r="4" fill="black" cx="409" cy="596"></circle><circle r="4" fill="red" cx="296.7812016957095" cy="444.2880940039388"></circle><line stroke-width="3" stroke="red" x1="302.4074620905478" y1="449.43058502105265" x2="296.7812016957095" y2="444.2880940039388"></line><circle r="4" fill="blue" cx="304.2641953400401" cy="445.3469097743636"></circle><line stroke-width="3" stroke="blue" x1="302.4074620905478" y1="449.43058502105265" x2="304.2641953400401" y2="445.3469097743636"></line><circle r="4" fill="green" cx="302.4074620905478" cy="449.43058502105265"></circle><circle r="4" fill="black" cx="409" cy="596"></circle><circle r="4" fill="red" cx="302.4887329222331" cy="437.9202261906117"></circle><line stroke-width="3" stroke="red" x1="304.9948828929222" y1="441.6645044038834" x2="302.4887329222331" y2="437.9202261906117"></line><circle r="4" fill="blue" cx="306.511271302411" cy="439.7609491486009"></circle><line stroke-width="3" stroke="blue" x1="304.9948828929222" y1="441.6645044038834" x2="306.511271302411" y2="439.7609491486009"></line><circle r="4" fill="green" cx="304.9948828929222" cy="441.6645044038834"></circle><circle r="4" fill="black" cx="409" cy="596"></circle><circle r="4" fill="red" cx="328.3070136187998" cy="442.89249123492976"></circle><line stroke-width="3" stroke="red" x1="327.1245707710538" y1="434.4737605587436" x2="328.3070136187998" y2="442.89249123492976"></line><circle r="4" fill="blue" cx="323.2545715004007" cy="435.75872560714436"></circle><line stroke-width="3" stroke="blue" x1="327.1245707710538" y1="434.4737605587436" x2="323.2545715004007" y2="435.75872560714436"></line><circle r="4" fill="green" cx="327.1245707710538" cy="434.4737605587436"></circle><circle r="4" fill="black" cx="409" cy="596"></circle><circle r="4" fill="red" cx="316.9448057186595" cy="426.86732854816563"></circle><line stroke-width="3" stroke="red" x1="313.11491475402" y1="426.19292256268466" x2="316.9448057186595" y2="426.86732854816563"></line><circle r="4" fill="blue" cx="313.1912227994608" cy="428.8084009182231"></circle><line stroke-width="3" stroke="blue" x1="313.11491475402" y1="426.19292256268466" x2="313.1912227994608" y2="428.8084009182231"></line><circle r="4" fill="green" cx="313.11491475402" cy="426.19292256268466"></circle><circle r="4" fill="black" cx="409" cy="596"></circle><circle r="4" fill="red" cx="303.4957975983457" cy="416.95438102417086"></circle><line stroke-width="3" stroke="red" x1="299.3271561091515" y1="423.88149330812536" x2="303.4957975983457" y2="416.95438102417086"></line><circle r="4" fill="blue" cx="303.04326378068004" cy="426.28279348462064"></circle><line stroke-width="3" stroke="blue" x1="299.3271561091515" y1="423.88149330812536" x2="303.04326378068004" y2="426.28279348462064"></line><circle r="4" fill="green" cx="299.3271561091515" cy="423.88149330812536"></circle><circle r="4" fill="black" cx="409" cy="596"></circle><circle r="4" fill="red" cx="313.5992392567682" cy="446.656424307797"></circle><line stroke-width="3" stroke="red" x1="316.55403898143356" y1="444.0264023939845" x2="313.5992392567682" y2="446.656424307797"></line><circle r="4" fill="blue" cx="315.00122768297507" cy="442.1917335760703"></circle><line stroke-width="3" stroke="blue" x1="316.55403898143356" y1="444.0264023939845" x2="315.00122768297507" y2="442.1917335760703"></line><circle r="4" fill="green" cx="316.55403898143356" cy="444.0264023939845"></circle><circle r="4" fill="black" cx="409" cy="596"></circle><circle r="4" fill="red" cx="306.7476999385515" cy="456.37171078864225"></circle><line stroke-width="3" stroke="red" x1="314.0872251838287" y1="455.0621957709402" x2="306.7476999385515" y2="456.37171078864225"></line><circle r="4" fill="blue" cx="312.7071112923507" cy="450.20125469253566"></circle><line stroke-width="3" stroke="blue" x1="314.0872251838287" y1="455.0621957709402" x2="312.7071112923507" y2="450.20125469253566"></line><circle r="4" fill="green" cx="314.0872251838287" cy="455.0621957709402"></circle><circle r="4" fill="black" cx="409" cy="596"></circle><circle r="4" fill="red" cx="304.48040552747693" cy="429.5801618370601"></circle><line stroke-width="3" stroke="red" x1="304.00948325040207" y1="433.89395657079655" x2="304.48040552747693" y2="429.5801618370601"></line><circle r="4" fill="blue" cx="306.1038615896017" cy="433.95987546210887"></circle><line stroke-width="3" stroke="blue" x1="304.00948325040207" y1="433.89395657079655" x2="306.1038615896017" y2="433.95987546210887"></line><circle r="4" fill="green" cx="304.00948325040207" cy="433.89395657079655"></circle><circle r="4" fill="black" cx="409" cy="596"></circle><circle r="4" fill="red" cx="328.00267844110243" cy="425.8888856725135"></circle><line stroke-width="3" stroke="red" x1="321.6336869560478" y1="420.54230381945933" x2="328.00267844110243" y2="425.8888856725135"></line><circle r="4" fill="blue" cx="319.7569905575789" cy="425.13746176736333"></circle><line stroke-width="3" stroke="blue" x1="321.6336869560478" y1="420.54230381945933" x2="319.7569905575789" y2="425.13746176736333"></line><circle r="4" fill="green" cx="321.6336869560478" cy="420.54230381945933"></circle><circle r="4" fill="black" cx="409" cy="596"></circle><circle r="4" fill="red" cx="320.397943195219" cy="434.53781472024406"></circle><line stroke-width="3" stroke="red" x1="318.236927080853" y1="431.0258088295231" x2="320.397943195219" y2="434.53781472024406"></line><circle r="4" fill="blue" cx="316.7949890717138" cy="432.68369505398834"></circle><line stroke-width="3" stroke="blue" x1="318.236927080853" y1="431.0258088295231" x2="316.7949890717138" y2="432.68369505398834"></line><circle r="4" fill="green" cx="318.236927080853" cy="431.0258088295231"></circle><circle r="4" fill="black" cx="409" cy="596"></circle><circle r="4" fill="red" cx="293.4917323694117" cy="429.165936675952"></circle><line stroke-width="3" stroke="red" x1="295.1160675752878" y1="438.3623197756248" x2="293.4917323694117" y2="429.165936675952"></line><circle r="4" fill="blue" cx="299.3091376670772" cy="436.7348838365717"></circle><line stroke-width="3" stroke="blue" x1="295.1160675752878" y1="438.3623197756248" x2="299.3091376670772" y2="436.7348838365717"></line><circle r="4" fill="green" cx="295.1160675752878" cy="438.3623197756248"></circle><circle r="4" fill="black" cx="409" cy="596"></circle><circle r="4" fill="red" cx="306.88028140478684" cy="443.90586726122217"></circle><line stroke-width="3" stroke="red" x1="310.34543424234676" y1="444.69290517950145" x2="306.88028140478684" y2="443.90586726122217"></line><circle r="4" fill="blue" cx="310.36026262756036" cy="442.31622610448545"></circle><line stroke-width="3" stroke="blue" x1="310.34543424234676" y1="444.69290517950145" x2="310.36026262756036" y2="442.31622610448545"></line><circle r="4" fill="green" cx="310.34543424234676" cy="444.69290517950145"></circle><circle r="4" fill="black" cx="409" cy="596"></circle><circle r="4" fill="red" cx="321.70529402711105" cy="456.33052080789133"></circle><line stroke-width="3" stroke="red" x1="326.0060508472693" y1="448.47948280813137" x2="321.70529402711105" y2="456.33052080789133"></line><circle r="4" fill="blue" cx="321.83813807902885" cy="446.0430408102181"></circle><line stroke-width="3" stroke="blue" x1="326.0060508472693" y1="448.47948280813137" x2="321.83813807902885" y2="446.0430408102181"></line><circle r="4" fill="green" cx="326.0060508472693" cy="448.47948280813137"></circle><circle r="4" fill="black" cx="409" cy="596"></circle><circle r="4" fill="red" cx="310.56406699838215" cy="426.1029221170191"></circle><line stroke-width="3" stroke="red" x1="307.7891245781609" y1="428.35421225601465" x2="310.56406699838215" y2="426.1029221170191"></line><circle r="4" fill="blue" cx="309.14373265732524" cy="430.0899202599588"></circle><line stroke-width="3" stroke="blue" x1="307.7891245781609" y1="428.35421225601465" x2="309.14373265732524" y2="430.0899202599588"></line><circle r="4" fill="green" cx="307.7891245781609" cy="428.35421225601465"></circle><circle r="4" fill="black" cx="409" cy="596"></circle><circle r="4" fill="red" cx="316.60465435777724" cy="413.145938699068"></circle><line stroke-width="3" stroke="red" x1="308.60850798293995" y1="414.9920635243764" x2="316.60465435777724" y2="413.145938699068"></line><circle r="4" fill="blue" cx="310.3110046771113" cy="420.2634900703607"></circle><line stroke-width="3" stroke="blue" x1="308.60850798293995" y1="414.9920635243764" x2="310.3110046771113" y2="420.2634900703607"></line><circle r="4" fill="green" cx="308.60850798293995" cy="414.9920635243764"></circle><circle r="4" fill="black" cx="409" cy="596"></circle><circle r="4" fill="red" cx="318.31582466220294" cy="442.0142253856331"></circle><line stroke-width="3" stroke="red" x1="318.88361436560064" y1="438.1215755366835" x2="318.31582466220294" y2="442.0142253856331"></line><circle r="4" fill="blue" cx="316.97893083160585" cy="437.96600608468054"></circle><line stroke-width="3" stroke="blue" x1="318.88361436560064" y1="438.1215755366835" x2="316.97893083160585" y2="437.96600608468054"></line><circle r="4" fill="green" cx="318.88361436560064" cy="438.1215755366835"></circle><circle r="4" fill="black" cx="409" cy="596"></circle><circle r="4" fill="red" cx="294.487659889285" cy="447.855322439719"></circle><line stroke-width="3" stroke="red" x1="301.67894005625095" y1="453.38539739687405" x2="294.487659889285" y2="447.855322439719"></line><circle r="4" fill="blue" cx="303.5576032538037" cy="448.22643839721854"></circle><line stroke-width="3" stroke="blue" x1="301.67894005625095" y1="453.38539739687405" x2="303.5576032538037" y2="448.22643839721854"></line><circle r="4" fill="green" cx="301.67894005625095" cy="453.38539739687405"></circle><circle r="4" fill="black" cx="409" cy="596"></circle><circle r="4" fill="red" cx="303.9836388331198" cy="436.7880654711801"></circle><line stroke-width="3" stroke="red" x1="305.837917505639" y1="440.0735360210574" x2="303.9836388331198" y2="436.7880654711801"></line><circle r="4" fill="blue" cx="307.2041543763827" cy="438.6351570190537"></circle><line stroke-width="3" stroke="blue" x1="305.837917505639" y1="440.0735360210574" x2="307.2041543763827" y2="438.6351570190537"></line><circle r="4" fill="green" cx="305.837917505639" cy="440.0735360210574"></circle><circle r="4" fill="black" cx="409" cy="596"></circle><circle r="4" fill="red" cx="332.19826704720884" cy="442.3435117421245"></circle><line stroke-width="3" stroke="red" x1="330.05914769643994" y1="432.3160220415954" x2="332.19826704720884" y2="442.3435117421245"></line><circle r="4" fill="blue" cx="325.52519708152687" cy="434.3380696145576"></circle><line stroke-width="3" stroke="blue" x1="330.05914769643994" y1="432.3160220415954" x2="325.52519708152687" y2="434.3380696145576"></line><circle r="4" fill="green" cx="330.05914769643994" cy="432.3160220415954"></circle><circle r="4" fill="black" cx="409" cy="596"></circle><circle r="4" fill="red" cx="316.5926265188574" cy="428.9058751900214"></circle><line stroke-width="3" stroke="red" x1="313.46317664792923" y1="428.03331532758534" x2="316.5926265188574" y2="428.9058751900214"></line><circle r="4" fill="blue" cx="313.37307090858445" cy="430.18914974935143"></circle><line stroke-width="3" stroke="blue" x1="313.46317664792923" y1="428.03331532758534" x2="313.37307090858445" y2="430.18914974935143"></line><circle r="4" fill="green" cx="313.46317664792923" cy="428.03331532758534"></circle><circle r="4" fill="black" cx="409" cy="596"></circle><circle r="4" fill="red" cx="300.20656203718187" cy="414.0176144008603"></circle><line stroke-width="3" stroke="red" x1="295.7969370259583" y1="422.89239100312284" x2="300.20656203718187" y2="414.0176144008603"></line><circle r="4" fill="blue" cx="300.4615833453831" cy="425.34253277070854"></circle><line stroke-width="3" stroke="blue" x1="295.7969370259583" y1="422.89239100312284" x2="300.4615833453831" y2="425.34253277070854"></line><circle r="4" fill="green" cx="295.7969370259583" cy="422.89239100312284"></circle><circle r="4" fill="black" cx="409" cy="596"></circle><circle r="4" fill="red" cx="312.66493012086175" cy="444.8911955918865"></circle><line stroke-width="3" stroke="red" x1="315.263915726752" y1="442.9753296755558" x2="312.66493012086175" y2="444.8911955918865"></line><circle r="4" fill="blue" cx="314.0865703006546" cy="441.33847717132704"></circle><line stroke-width="3" stroke="blue" x1="315.263915726752" y1="442.9753296755558" x2="314.0865703006546" y2="441.33847717132704"></line><circle r="4" fill="green" cx="315.263915726752" cy="442.9753296755558"></circle><circle r="4" fill="black" cx="409" cy="596"></circle><circle r="4" fill="red" cx="307.48090649237855" cy="461.2445317932238"></circle><line stroke-width="3" stroke="red" x1="316.17608093921325" y1="458.7717893932919" x2="307.48090649237855" y2="461.2445317932238"></line><circle r="4" fill="blue" cx="314.1041321899125" cy="453.0665855838864"></circle><line stroke-width="3" stroke="blue" x1="316.17608093921325" y1="458.7717893932919" x2="314.1041321899125" y2="453.0665855838864"></line><circle r="4" fill="green" cx="316.17608093921325" cy="458.7717893932919"></circle><circle r="4" fill="black" cx="409" cy="596"></circle><circle r="4" fill="red" cx="306.1202656857636" cy="430.099438114494"></circle><line stroke-width="3" stroke="red" x1="305.47785827639007" y1="433.60552749582007" x2="306.1202656857636" y2="430.099438114494"></line><circle r="4" fill="blue" cx="307.2069462262403" cy="433.8337695815847"></circle><line stroke-width="3" stroke="blue" x1="305.47785827639007" y1="433.60552749582007" x2="307.2069462262403" y2="433.8337695815847"></line><circle r="4" fill="green" cx="305.47785827639007" cy="433.60552749582007"></circle><circle r="4" fill="black" cx="409" cy="596"></circle><circle r="4" fill="red" cx="330.3784116941285" cy="421.83775470966987"></circle><line stroke-width="3" stroke="red" x1="322.2784171222685" y1="416.1512421722657" x2="330.3784116941285" y2="421.83775470966987"></line><circle r="4" fill="blue" cx="320.419556229801" cy="421.930565037416"></circle><line stroke-width="3" stroke="blue" x1="322.2784171222685" y1="416.1512421722657" x2="320.419556229801" y2="421.930565037416"></line><circle r="4" fill="green" cx="322.2784171222685" cy="416.1512421722657"></circle><circle r="4" fill="black" cx="409" cy="596"></circle><circle r="4" fill="red" cx="319.0004274058797" cy="435.4967477224783"></circle><line stroke-width="3" stroke="red" x1="317.41811341417406" y1="432.43085146242936" x2="319.0004274058797" y2="435.4967477224783"></line><circle r="4" fill="blue" cx="316.1278731550914" cy="433.6735187029563"></circle><line stroke-width="3" stroke="blue" x1="317.41811341417406" y1="432.43085146242936" x2="316.1278731550914" y2="433.6735187029563"></line><circle r="4" fill="green" cx="317.41811341417406" cy="432.43085146242936"></circle><circle r="4" fill="black" cx="409" cy="596"></circle><circle r="4" fill="red" cx="289.24669403726074" cy="429.98486606760605"></circle><line stroke-width="3" stroke="red" x1="291.9825989307035" y1="440.8982419364856" x2="289.24669403726074" y2="429.98486606760605"></line><circle r="4" fill="blue" cx="296.87492609306236" cy="438.42323713238204"></circle><line stroke-width="3" stroke="blue" x1="291.9825989307035" y1="440.8982419364856" x2="296.87492609306236" y2="438.42323713238204"></line><circle r="4" fill="green" cx="291.9825989307035" cy="440.8982419364856"></circle><circle r="4" fill="black" cx="409" cy="596"></circle><circle r="4" fill="red" cx="307.2666264903598" cy="442.0722659567683"></circle><line stroke-width="3" stroke="red" x1="310.08768201170477" y1="443.0070766590905" x2="307.2666264903598" y2="442.0722659567683"></line><circle r="4" fill="blue" cx="310.23920506461417" cy="441.05507042040233"></circle><line stroke-width="3" stroke="blue" x1="310.08768201170477" y1="443.0070766590905" x2="310.23920506461417" y2="441.05507042040233"></line><circle r="4" fill="green" cx="310.08768201170477" cy="443.0070766590905"></circle><circle r="4" fill="black" cx="409" cy="596"></circle><circle r="4" fill="red" cx="325.4260339415586" cy="459.37962960295863"></circle><line stroke-width="3" stroke="red" x1="329.915151205881" y1="449.3725914468837" x2="325.4260339415586" y2="459.37962960295863"></line><circle r="4" fill="blue" cx="324.70534632346033" cy="446.93482114237673"></circle><line stroke-width="3" stroke="blue" x1="329.915151205881" y1="449.3725914468837" x2="324.70534632346033" y2="446.93482114237673"></line><circle r="4" fill="green" cx="329.915151205881" cy="449.3725914468837"></circle><circle r="4" fill="black" cx="409" cy="596"></circle><circle r="4" fill="red" cx="311.3578034535912" cy="427.74734416282797"></circle><line stroke-width="3" stroke="red" x1="308.9298276017746" y1="429.36690322429433" x2="311.3578034535912" y2="427.74734416282797"></line><circle r="4" fill="blue" cx="309.9489721336514" cy="430.90595321046"></circle><line stroke-width="3" stroke="blue" x1="308.9298276017746" y1="429.36690322429433" x2="309.9489721336514" y2="430.90595321046"></line><circle r="4" fill="green" cx="308.9298276017746" cy="429.36690322429433"></circle><circle r="4" fill="black" cx="409" cy="596"></circle><circle r="4" fill="red" cx="315.6109724086857" cy="407.82570302269426"></circle><line stroke-width="3" stroke="red" x1="306.17377996973414" y1="411.0264262163104" x2="315.6109724086857" y2="407.82570302269426"></line><circle r="4" fill="blue" cx="308.667695262562" cy="417.18843089148186"></circle><line stroke-width="3" stroke="blue" x1="306.17377996973414" y1="411.0264262163104" x2="308.667695262562" y2="417.18843089148186"></line><circle r="4" fill="green" cx="306.17377996973414" cy="411.0264262163104"></circle><circle r="4" fill="black" cx="409" cy="596"></circle><circle r="4" fill="red" cx="316.8395658491884" cy="441.4680769038003"></circle><line stroke-width="3" stroke="red" x1="317.5374486319311" y1="438.31615006521264" x2="316.8395658491884" y2="441.4680769038003"></line><circle r="4" fill="blue" cx="315.97057252078224" cy="438.029995870513"></circle><line stroke-width="3" stroke="blue" x1="317.5374486319311" y1="438.31615006521264" x2="315.97057252078224" y2="438.029995870513"></line><circle r="4" fill="green" cx="317.5374486319311" cy="438.31615006521264"></circle><circle r="4" fill="black" cx="409" cy="596"></circle><circle r="4" fill="red" cx="292.04065775637554" cy="452.4433505634681"></circle><line stroke-width="3" stroke="red" x1="301.14307124683705" y1="458.25176129465524" x2="292.04065775637554" y2="452.4433505634681"></line><circle r="4" fill="blue" cx="302.9560589223465" cy="451.79105071640873"></circle><line stroke-width="3" stroke="blue" x1="301.14307124683705" y1="458.25176129465524" x2="302.9560589223465" y2="451.79105071640873"></line><circle r="4" fill="green" cx="301.14307124683705" cy="458.25176129465524"></circle><circle r="4" fill="black" cx="409" cy="596"></circle><circle r="4" fill="red" cx="305.28690315370807" cy="435.9818602442343"></circle><line stroke-width="3" stroke="red" x1="306.62868664807064" y1="438.83608826455816" x2="305.28690315370807" y2="435.9818602442343"></line><circle r="4" fill="blue" cx="307.843428262244" cy="437.76752813794684"></circle><line stroke-width="3" stroke="blue" x1="306.62868664807064" y1="438.83608826455816" x2="307.843428262244" y2="437.76752813794684"></line><circle r="4" fill="green" cx="306.62868664807064" cy="438.83608826455816"></circle><circle r="4" fill="black" cx="409" cy="596"></circle><circle r="4" fill="red" cx="336.820685736194" cy="441.20805647326387"></circle><line stroke-width="3" stroke="red" x1="333.3959543879708" y1="429.3530600434672" x2="336.820685736194" y2="441.20805647326387"></line><circle r="4" fill="blue" cx="328.1283402385389" cy="432.3461765005242"></circle><line stroke-width="3" stroke="blue" x1="333.3959543879708" y1="429.3530600434672" x2="328.1283402385389" y2="432.3461765005242"></line><circle r="4" fill="green" cx="333.3959543879708" cy="429.3530600434672"></circle><circle r="4" fill="black" cx="409" cy="596"></circle><circle r="4" fill="red" cx="316.18178122414184" cy="430.5519544307606"></circle><line stroke-width="3" stroke="red" x1="313.6435070868221" y1="429.5747596676466" x2="316.18178122414184" y2="430.5519544307606"></line><circle r="4" fill="blue" cx="313.4426369950826" cy="431.3390115458095"></circle><line stroke-width="3" stroke="blue" x1="313.6435070868221" y1="429.5747596676466" x2="313.4426369950826" y2="431.3390115458095"></line><circle r="4" fill="green" cx="313.6435070868221" cy="429.5747596676466"></circle><circle r="4" fill="black" cx="409" cy="596"></circle><circle r="4" fill="red" cx="296.0083397924983" cy="410.86875375738134"></circle><line stroke-width="3" stroke="red" x1="291.47616514185484" y1="422.1258200362784" x2="296.0083397924983" y2="410.86875375738134"></line><circle r="4" fill="blue" cx="297.283206973319" cy="424.51986176376226"></circle><line stroke-width="3" stroke="blue" x1="291.47616514185484" y1="422.1258200362784" x2="297.283206973319" y2="424.51986176376226"></line><circle r="4" fill="green" cx="291.47616514185484" cy="422.1258200362784"></circle><circle r="4" fill="black" cx="409" cy="596"></circle><circle r="4" fill="red" cx="311.9952829665677" cy="443.3628162582952"></circle><line stroke-width="3" stroke="red" x1="314.2580139066434" y1="442.00429655541257" x2="311.9952829665677" y2="443.3628162582952"></line><circle r="4" fill="blue" cx="313.3797495990208" cy="440.56122212755776"></circle><line stroke-width="3" stroke="blue" x1="314.2580139066434" y1="442.00429655541257" x2="313.3797495990208" y2="440.56122212755776"></line><circle r="4" fill="green" cx="314.2580139066434" cy="442.00429655541257"></circle><circle r="4" fill="black" cx="409" cy="596"></circle><circle r="4" fill="red" cx="308.7776027328841" cy="467.04259190275377"></circle><line stroke-width="3" stroke="red" x1="319" y1="463" x2="308.7776027328841" y2="467.04259190275377"></line><circle r="4" fill="blue" cx="316.02564389472707" cy="456.3587667374163"></circle><line stroke-width="3" stroke="blue" x1="319" y1="463" x2="316.02564389472707" y2="456.3587667374163"></line><circle r="4" fill="green" cx="319" cy="463"></circle><circle r="4" fill="black" cx="409" cy="596"></circle><circle r="4" fill="red" cx="307.4467089529972" cy="430.6624894452637"></circle><line stroke-width="3" stroke="red" x1="306.70973451104874" y1="433.49052564938034" x2="307.4467089529972" y2="430.6624894452637"></line><circle r="4" fill="blue" cx="308.1270596589554" cy="433.8218107061802"></circle><line stroke-width="3" stroke="blue" x1="306.70973451104874" y1="433.49052564938034" x2="308.1270596589554" y2="433.8218107061802"></line><circle r="4" fill="green" cx="306.70973451104874" cy="433.49052564938034"></circle><circle r="4" fill="black" cx="409" cy="596"></circle><circle r="4" fill="red" cx="332.8826430490283" cy="416.65513180593473"></circle><line stroke-width="3" stroke="red" x1="322.6764170463425" y1="410.7679976301465" x2="332.8826430490283" y2="416.65513180593473"></line><circle r="4" fill="blue" cx="320.9402638031997" cy="417.9757898305265"></circle><line stroke-width="3" stroke="blue" x1="322.6764170463425" y1="410.7679976301465" x2="320.9402638031997" y2="417.9757898305265"></line><circle r="4" fill="green" cx="322.6764170463425" cy="410.7679976301465"></circle><circle r="4" fill="black" cx="409" cy="596"></circle><circle r="4" fill="red" cx="317.7878962390986" cy="436.16868257558923"></circle><line stroke-width="3" stroke="red" x1="316.6582790963368" y1="433.5175119300453" x2="317.7878962390986" y2="436.16868257558923"></line><circle r="4" fill="blue" cx="315.5178863943998" cy="434.43154544880366"></circle><line stroke-width="3" stroke="blue" x1="316.6582790963368" y1="433.5175119300453" x2="315.5178863943998" y2="434.43154544880366"></line><circle r="4" fill="green" cx="316.6582790963368" cy="433.5175119300453"></circle><circle r="4" fill="black" cx="409" cy="596"></circle><circle r="4" fill="red" cx="284.222838661412" cy="431.48939048369584"></circle><line stroke-width="3" stroke="red" x1="288.43948201603234" y1="444.34223764750925" x2="284.222838661412" y2="431.48939048369584"></line><circle r="4" fill="blue" cx="294.0983863619022" cy="440.75839686614927"></circle><line stroke-width="3" stroke="blue" x1="288.43948201603234" y1="444.34223764750925" x2="294.0983863619022" y2="440.75839686614927"></line><circle r="4" fill="green" cx="288.43948201603234" cy="444.34223764750925"></circle><circle r="4" fill="black" cx="409" cy="596"></circle><circle r="4" fill="red" cx="307.69373355317373" cy="440.59745760888677"></circle><line stroke-width="3" stroke="red" x1="309.97318575255787" y1="441.6001810880311" x2="307.69373355317373" y2="440.59745760888677"></line><circle r="4" fill="blue" cx="310.21293170135215" cy="440.00854690195746"></circle><line stroke-width="3" stroke="blue" x1="309.97318575255787" y1="441.6001810880311" x2="310.21293170135215" y2="440.00854690195746"></line><circle r="4" fill="green" cx="309.97318575255787" cy="441.6001810880311"></circle><circle r="4" fill="black" cx="409" cy="596"></circle><circle r="4" fill="red" cx="330.15165899215833" cy="462.61185094300754"></circle><line stroke-width="3" stroke="red" x1="334.6823566457043" y1="449.9772107629846" x2="330.15165899215833" y2="462.61185094300754"></line><circle r="4" fill="blue" cx="328.222199745803" cy="447.6642717277713"></circle><line stroke-width="3" stroke="blue" x1="334.6823566457043" y1="449.9772107629846" x2="328.222199745803" y2="447.6642717277713"></line><circle r="4" fill="green" cx="334.6823566457043" cy="449.9772107629846"></circle><circle r="4" fill="black" cx="409" cy="596"></circle><circle r="4" fill="red" cx="311.9182149019459" cy="429.1647570631576"></circle><line stroke-width="3" stroke="red" x1="309.8143435782788" y1="430.29397428015335" x2="311.9182149019459" y2="429.1647570631576"></line><circle r="4" fill="blue" cx="310.5674382256965" cy="431.6435227848064"></circle><line stroke-width="3" stroke="blue" x1="309.8143435782788" y1="430.29397428015335" x2="310.5674382256965" y2="431.6435227848064"></line><circle r="4" fill="green" cx="309.8143435782788" cy="430.29397428015335"></circle><circle r="4" fill="black" cx="409" cy="596"></circle><circle r="4" fill="red" cx="313.9634373006113" cy="401.51871389239875"></circle><line stroke-width="3" stroke="red" x1="302.9129202757028" y1="406.53085210975604" x2="313.9634373006113" y2="401.51871389239875"></line><circle r="4" fill="blue" cx="306.4327026334156" cy="413.6727568747267"></circle><line stroke-width="3" stroke="blue" x1="302.9129202757028" y1="406.53085210975604" x2="306.4327026334156" y2="413.6727568747267"></line><circle r="4" fill="green" cx="302.9129202757028" cy="406.53085210975604"></circle><circle r="4" fill="black" cx="409" cy="596"></circle><circle r="4" fill="red" cx="315.6500656351928" cy="440.89653825531565"></circle><line stroke-width="3" stroke="red" x1="316.4121910559624" y1="438.3641759745232" x2="315.6500656351928" y2="440.89653825531565"></line><circle r="4" fill="blue" cx="315.13247792271756" cy="437.99877842772446"></circle><line stroke-width="3" stroke="blue" x1="316.4121910559624" y1="438.3641759745232" x2="315.13247792271756" y2="437.99877842772446"></line><circle r="4" fill="green" cx="316.4121910559624" cy="438.3641759745232"></circle><circle r="4" fill="black" cx="409" cy="596"></circle><circle r="4" fill="red" cx="289.4968376260697" cy="458.28326755796576"></circle><line stroke-width="3" stroke="red" x1="300.9163638125817" y1="464.1960255978855" x2="289.4968376260697" y2="458.28326755796576"></line><circle r="4" fill="blue" cx="302.53917772895784" cy="456.17059035970465"></circle><line stroke-width="3" stroke="blue" x1="300.9163638125817" y1="464.1960255978855" x2="302.53917772895784" y2="456.17059035970465"></line><circle r="4" fill="green" cx="300.9163638125817" cy="464.1960255978855"></circle><circle r="4" fill="black" cx="409" cy="596"></circle><circle r="4" fill="red" cx="306.4124993062936" cy="435.42760904915673"></circle><line stroke-width="3" stroke="red" x1="307.35549643683" y1="437.8848323431405" x2="306.4124993062936" y2="435.42760904915673"></line><circle r="4" fill="blue" cx="308.4232181113839" cy="437.10761135813243"></circle><line stroke-width="3" stroke="blue" x1="307.35549643683" y1="437.8848323431405" x2="308.4232181113839" y2="437.10761135813243"></line><circle r="4" fill="green" cx="307.35549643683" cy="437.8848323431405"></circle><circle r="4" fill="black" cx="409" cy="596"></circle><circle r="4" fill="red" cx="342.2703070282623" cy="439.2753293733144"></circle><line stroke-width="3" stroke="red" x1="337.1465373227785" y1="425.3684660612265" x2="342.2703070282623" y2="439.2753293733144"></line><circle r="4" fill="blue" cx="331.08162475124175" cy="429.62379877059107"></circle><line stroke-width="3" stroke="blue" x1="337.1465373227785" y1="425.3684660612265" x2="331.08162475124175" y2="429.62379877059107"></line><circle r="4" fill="green" cx="337.1465373227785" cy="425.3684660612265"></circle><circle r="4" fill="black" cx="409" cy="596"></circle><circle r="4" fill="red" cx="315.7453891995968" cy="431.87061427842747"></circle><line stroke-width="3" stroke="red" x1="313.70240198910125" y1="430.8565605622649" x2="315.7453891995968" y2="431.87061427842747"></line><circle r="4" fill="blue" cx="313.43282569143264" cy="432.28979027292496"></circle><line stroke-width="3" stroke="blue" x1="313.70240198910125" y1="430.8565605622649" x2="313.43282569143264" y2="432.28979027292496"></line><circle r="4" fill="green" cx="313.70240198910125" cy="430.8565605622649"></circle><circle r="4" fill="black" cx="409" cy="596"></circle><circle r="4" fill="red" cx="290.7012168878639" cy="407.5739620941403"></circle><line stroke-width="3" stroke="red" x1="286.2257919052545" y1="421.7240328946903" x2="290.7012168878639" y2="407.5739620941403"></line><circle r="4" fill="blue" cx="293.39887372091044" cy="423.911665707044"></circle><line stroke-width="3" stroke="blue" x1="286.2257919052545" y1="421.7240328946903" x2="293.39887372091044" y2="423.911665707044"></line><circle r="4" fill="green" cx="286.2257919052545" cy="421.7240328946903"></circle><circle r="4" fill="black" cx="409" cy="596"></circle><circle r="4" fill="red" cx="311.5307475191066" cy="442.0510846388246"></circle><line stroke-width="3" stroke="red" x1="313.48259560821776" y1="441.12266496252494" x2="311.5307475191066" y2="442.0510846388246"></line><circle r="4" fill="blue" cx="312.84044603378686" cy="439.8637013685588"></circle><line stroke-width="3" stroke="blue" x1="313.48259560821776" y1="441.12266496252494" x2="312.84044603378686" y2="439.8637013685588"></line><circle r="4" fill="green" cx="313.48259560821776" cy="441.12266496252494"></circle><circle r="4" fill="black" cx="409" cy="596"></circle><circle r="4" fill="red" cx="310.8296236333818" cy="473.89008702390225"></circle><line stroke-width="3" stroke="red" x1="322.75034014796785" y1="467.7655694383386" x2="310.8296236333818" y2="473.89008702390225"></line><circle r="4" fill="blue" cx="318.6130455228725" cy="460.10299339497027"></circle><line stroke-width="3" stroke="blue" x1="322.75034014796785" y1="467.7655694383386" x2="318.6130455228725" y2="460.10299339497027"></line><circle r="4" fill="green" cx="322.75034014796785" cy="467.7655694383386"></circle><circle r="4" fill="black" cx="409" cy="596"></circle><circle r="4" fill="red" cx="308.51125701103797" cy="431.2354680067047"></circle><line stroke-width="3" stroke="red" x1="307.73576329665883" y1="433.49839656608356" x2="308.51125701103797" y2="431.2354680067047"></line><circle r="4" fill="blue" cx="308.88908927071765" cy="433.88845479216513"></circle><line stroke-width="3" stroke="blue" x1="307.73576329665883" y1="433.49839656608356" x2="308.88908927071765" y2="433.88845479216513"></line><circle r="4" fill="green" cx="307.73576329665883" cy="433.49839656608356"></circle><circle r="4" fill="black" cx="409" cy="596"></circle><circle r="4" fill="red" cx="335.44426875343606" cy="410.089917824676"></circle><line stroke-width="3" stroke="red" x1="322.6934668102603" y1="404.2160012920713" x2="335.44426875343606" y2="410.089917824676"></line><circle r="4" fill="blue" cx="321.2267648532375" cy="413.1346896090018"></circle><line stroke-width="3" stroke="blue" x1="322.6934668102603" y1="404.2160012920713" x2="321.2267648532375" y2="413.1346896090018"></line><circle r="4" fill="green" cx="322.6934668102603" cy="404.2160012920713"></circle><circle r="4" fill="black" cx="409" cy="596"></circle><circle r="4" fill="red" cx="316.74524249333666" cy="436.62012664226364"></circle><line stroke-width="3" stroke="red" x1="315.9659005714611" y1="434.3474165913897" x2="316.74524249333666" y2="436.62012664226364"></line><circle r="4" fill="blue" cx="314.96875134698405" cy="435.0038214364476"></circle><line stroke-width="3" stroke="blue" x1="315.9659005714611" y1="434.3474165913897" x2="314.96875134698405" y2="435.0038214364476"></line><circle r="4" fill="green" cx="315.9659005714611" cy="434.3474165913897"></circle><circle r="4" fill="black" cx="409" cy="596"></circle><circle r="4" fill="red" cx="278.323079688901" cy="433.9167190398155"></circle><line stroke-width="3" stroke="red" x1="284.4824857303935" y1="448.9330225925049" x2="278.323079688901" y2="433.9167190398155"></line><circle r="4" fill="blue" cx="290.9663978534754" cy="443.916529857059"></circle><line stroke-width="3" stroke="blue" x1="284.4824857303935" y1="448.9330225925049" x2="290.9663978534754" y2="443.916529857059"></line><circle r="4" fill="green" cx="284.4824857303935" cy="448.9330225925049"></circle><circle r="4" fill="black" cx="409" cy="596"></circle><circle r="4" fill="red" cx="308.13354599432046" cy="439.4209057643811"></circle><line stroke-width="3" stroke="red" x1="309.96088054933944" y1="440.4344287144225" x2="308.13354599432046" y2="439.4209057643811"></line><circle r="4" fill="blue" cx="310.2525099148263" cy="439.1462933523349"></circle><line stroke-width="3" stroke="blue" x1="309.96088054933944" y1="440.4344287144225" x2="310.2525099148263" y2="439.1462933523349"></line><circle r="4" fill="green" cx="309.96088054933944" cy="440.4344287144225"></circle><circle r="4" fill="black" cx="409" cy="596"></circle><circle r="4" fill="red" cx="336.0987805139509" cy="465.9433522022299"></circle><line stroke-width="3" stroke="red" x1="340.4545813680957" y1="450.1291623302804" x2="336.0987805139509" y2="465.9433522022299"></line><circle r="4" fill="blue" cx="332.50471998253" cy="448.11876974115773"></circle><line stroke-width="3" stroke="blue" x1="340.4545813680957" y1="450.1291623302804" x2="332.50471998253" y2="448.11876974115773"></line><circle r="4" fill="green" cx="340.4545813680957" cy="450.1291623302804"></circle><circle r="4" fill="black" cx="409" cy="596"></circle><circle r="4" fill="red" cx="312.2988672222518" cy="430.3762137762414"></circle><line stroke-width="3" stroke="red" x1="310.49189946993397" y1="431.12938769911915" x2="312.2988672222518" y2="430.3762137762414"></line><circle r="4" fill="blue" cx="311.0359598260031" cy="432.30108531262397"></circle><line stroke-width="3" stroke="blue" x1="310.49189946993397" y1="431.12938769911915" x2="311.0359598260031" y2="432.30108531262397"></line><circle r="4" fill="green" cx="310.49189946993397" cy="431.12938769911915"></circle><circle r="4" fill="black" cx="409" cy="596"></circle><circle r="4" fill="red" cx="311.4468815874128" cy="394.09893779449567"></circle><line stroke-width="3" stroke="red" x1="298.6153918418621" y1="401.49529464319687" x2="311.4468815874128" y2="394.09893779449567"></line><circle r="4" fill="blue" cx="303.45001370317016" cy="409.69656181353025"></circle><line stroke-width="3" stroke="blue" x1="298.6153918418621" y1="401.49529464319687" x2="303.45001370317016" y2="409.69656181353025"></line><circle r="4" fill="green" cx="298.6153918418621" cy="401.49529464319687"></circle><circle r="4" fill="black" cx="409" cy="596"></circle><circle r="4" fill="red" cx="314.69932557402655" cy="440.3279661047486"></circle><line stroke-width="3" stroke="red" x1="315.47830591737466" y1="438.3101231433305" x2="314.69932557402655" y2="440.3279661047486"></line><circle r="4" fill="blue" cx="314.44084288034804" cy="437.90346725674084"></circle><line stroke-width="3" stroke="blue" x1="315.47830591737466" y1="438.3101231433305" x2="314.44084288034804" y2="437.90346725674084"></line><circle r="4" fill="green" cx="315.47830591737466" cy="438.3101231433305"></circle><circle r="4" fill="black" cx="409" cy="596"></circle><circle r="4" fill="red" cx="286.9439382800842" cy="465.64738718777096"></circle><line stroke-width="3" stroke="red" x1="301.1528551248281" y1="471.40502404819404" x2="286.9439382800842" y2="465.64738718777096"></line><circle r="4" fill="blue" cx="302.41360382985937" cy="461.5122647340355"></circle><line stroke-width="3" stroke="blue" x1="301.1528551248281" y1="471.40502404819404" x2="302.41360382985937" y2="461.5122647340355"></line><circle r="4" fill="green" cx="301.1528551248281" cy="471.40502404819404"></circle><circle r="4" fill="black" cx="409" cy="596"></circle><circle r="4" fill="red" cx="307.37632518115817" cy="435.065656233415"></circle><line stroke-width="3" stroke="red" x1="308.01261591553816" y1="437.163463182453" x2="307.37632518115817" y2="435.065656233415"></line><circle r="4" fill="blue" cx="308.9416189185181" cy="436.6134558788245"></circle><line stroke-width="3" stroke="blue" x1="308.01261591553816" y1="437.163463182453" x2="308.9416189185181" y2="436.6134558788245"></line><circle r="4" fill="green" cx="308.01261591553816" cy="437.163463182453"></circle><circle r="4" fill="black" cx="409" cy="596"></circle><circle r="4" fill="red" cx="348.64433911732027" cy="436.2790055253384"></circle><line stroke-width="3" stroke="red" x1="341.30623811772625" y1="420.09938773468" x2="348.64433911732027" y2="436.2790055253384"></line><circle r="4" fill="blue" cx="334.39257495013663" cy="425.97640491199945"></circle><line stroke-width="3" stroke="blue" x1="341.30623811772625" y1="420.09938773468" x2="334.39257495013663" y2="425.97640491199945"></line><circle r="4" fill="green" cx="341.30623811772625" cy="420.09938773468"></circle><circle r="4" fill="black" cx="409" cy="596"></circle><circle r="4" fill="red" cx="315.30704311034054" cy="432.91806609032756"></circle><line stroke-width="3" stroke="red" x1="313.67603050079754" y1="431.914884590069" x2="315.30704311034054" y2="432.91806609032756"></line><circle r="4" fill="blue" cx="313.36899981086356" cy="433.07035831487076"></circle><line stroke-width="3" stroke="blue" x1="313.67603050079754" y1="431.914884590069" x2="313.36899981086356" y2="433.07035831487076"></line><circle r="4" fill="green" cx="313.67603050079754" cy="431.914884590069"></circle><circle r="4" fill="black" cx="409" cy="596"></circle><circle r="4" fill="red" cx="284.050962982163" cy="404.23743342357454"></circle><line stroke-width="3" stroke="red" x1="279.8911330801624" y1="421.8757639702853" x2="284.050962982163" y2="404.23743342357454"></line><circle r="4" fill="blue" cx="288.6857623838347" cy="423.64825434053137"></circle><line stroke-width="3" stroke="blue" x1="279.8911330801624" y1="421.8757639702853" x2="288.6857623838347" y2="423.64825434053137"></line><circle r="4" fill="green" cx="279.8911330801624" cy="421.8757639702853"></circle><circle r="4" fill="black" cx="409" cy="596"></circle><circle r="4" fill="red" cx="311.2232337789368" cy="440.9344489580191"></circle><line stroke-width="3" stroke="red" x1="312.8926479704305" y1="440.33366260388044" x2="311.2232337789368" y2="440.9344489580191"></line><circle r="4" fill="blue" cx="312.4350793096672" cy="439.24563171159"></circle><line stroke-width="3" stroke="blue" x1="312.8926479704305" y1="440.33366260388044" x2="312.4350793096672" y2="439.24563171159"></line><circle r="4" fill="green" cx="312.8926479704305" cy="440.33366260388044"></circle><circle r="4" fill="black" cx="409" cy="596"></circle><circle r="4" fill="red" cx="313.8777902307342" cy="481.91378323167964"></circle><line stroke-width="3" stroke="red" x1="327.65832818479987" y1="473.0679187170728" x2="313.8777902307342" y2="481.91378323167964"></line><circle r="4" fill="blue" cx="322.038167108545" cy="464.31254575249295"></circle><line stroke-width="3" stroke="blue" x1="327.65832818479987" y1="473.0679187170728" x2="322.038167108545" y2="464.31254575249295"></line><circle r="4" fill="green" cx="327.65832818479987" cy="473.0679187170728"></circle><circle r="4" fill="black" cx="409" cy="596"></circle><circle r="4" fill="red" cx="309.3585236157356" cy="431.7948385261323"></circle><line stroke-width="3" stroke="red" x1="308.5842685263603" y1="433.5901402931428" x2="309.3585236157356" y2="431.7948385261323"></line><circle r="4" fill="blue" cx="309.5157101994099" cy="434.00655892725587"></circle><line stroke-width="3" stroke="blue" x1="308.5842685263603" y1="433.5901402931428" x2="309.5157101994099" y2="434.00655892725587"></line><circle r="4" fill="green" cx="308.5842685263603" cy="433.5901402931428"></circle><circle r="4" fill="black" cx="409" cy="596"></circle><circle r="4" fill="red" cx="337.9564849076838" cy="401.847379158792"></circle><line stroke-width="3" stroke="red" x1="322.15340114309475" y1="396.29822159724955" x2="337.9564849076838" y2="401.847379158792"></line><circle r="4" fill="blue" cx="321.1563999861755" cy="407.2512086545513"></circle><line stroke-width="3" stroke="blue" x1="322.15340114309475" y1="396.29822159724955" x2="321.1563999861755" y2="407.2512086545513"></line><circle r="4" fill="green" cx="322.15340114309475" cy="396.29822159724955"></circle><circle r="4" fill="black" cx="409" cy="596"></circle><circle r="4" fill="red" cx="315.8560692477723" cy="436.9044824306843"></circle><line stroke-width="3" stroke="red" x1="315.3443807070903" y1="434.97191665370644" x2="315.8560692477723" y2="436.9044824306843"></line><circle r="4" fill="blue" cx="314.48085024548465" cy="435.42849839967755"></circle><line stroke-width="3" stroke="blue" x1="315.3443807070903" y1="434.97191665370644" x2="314.48085024548465" y2="435.42849839967755"></line><circle r="4" fill="green" cx="315.3443807070903" cy="434.97191665370644"></circle><circle r="4" fill="black" cx="409" cy="596"></circle><circle r="4" fill="red" cx="271.45120954931826" cy="437.5652145787041"></circle><line stroke-width="3" stroke="red" x1="280.1269550673017" y1="454.95951152897356" x2="271.45120954931826" y2="437.5652145787041"></line><circle r="4" fill="blue" cx="287.478287342205" cy="448.1120620149155"></circle><line stroke-width="3" stroke="blue" x1="280.1269550673017" y1="454.95951152897356" x2="287.478287342205" y2="448.1120620149155"></line><circle r="4" fill="green" cx="280.1269550673017" cy="454.95951152897356"></circle><circle r="4" fill="black" cx="409" cy="596"></circle><circle r="4" fill="red" cx="308.5663958907855" cy="438.4905275965358"></circle><line stroke-width="3" stroke="red" x1="310.0190022478094" y1="439.47534960759657" x2="308.5663958907855" y2="438.4905275965358"></line><circle r="4" fill="blue" cx="310.3357789737024" cy="438.4409524045356"></circle><line stroke-width="3" stroke="blue" x1="310.0190022478094" y1="439.47534960759657" x2="310.3357789737024" y2="438.4409524045356"></line><circle r="4" fill="green" cx="310.0190022478094" cy="439.47534960759657"></circle><circle r="4" fill="black" cx="409" cy="596"></circle><circle r="4" fill="red" cx="343.52015352235384" cy="469.2465657724731"></circle><line stroke-width="3" stroke="red" x1="347.39407237666853" y1="449.6122676987007" x2="343.52015352235384" y2="469.2465657724731"></line><circle r="4" fill="blue" cx="337.68249450686795" cy="448.1481718580519"></circle><line stroke-width="3" stroke="blue" x1="347.39407237666853" y1="449.6122676987007" x2="337.68249450686795" y2="448.1481718580519"></line><circle r="4" fill="green" cx="347.39407237666853" cy="449.6122676987007"></circle><circle r="4" fill="black" cx="409" cy="596"></circle><circle r="4" fill="red" cx="312.5428488702684" cy="431.40346832359603"></circle><line stroke-width="3" stroke="red" x1="311.0035808738212" y1="431.8722728092917" x2="312.5428488702684" y2="431.40346832359603"></line><circle r="4" fill="blue" cx="311.3851006898911" cy="432.88043306784186"></circle><line stroke-width="3" stroke="blue" x1="311.0035808738212" y1="431.8722728092917" x2="311.3851006898911" y2="432.88043306784186"></line><circle r="4" fill="green" cx="311.0035808738212" cy="431.8722728092917"></circle><circle r="4" fill="black" cx="409" cy="596"></circle><circle r="4" fill="red" cx="307.79232877723643" cy="385.44022002270776"></circle><line stroke-width="3" stroke="red" x1="293.02769720960464" y1="395.933165356428" x2="307.79232877723643" y2="385.44022002270776"></line><circle r="4" fill="blue" cx="299.5307146023951" cy="405.2547288318522"></circle><line stroke-width="3" stroke="blue" x1="293.02769720960464" y1="395.933165356428" x2="299.5307146023951" y2="405.2547288318522"></line><circle r="4" fill="green" cx="293.02769720960464" cy="395.933165356428"></circle></svg>