<svg xmlns="http://www.w3.org/2000/svg" id="s" viewBox="0 0 800 800">
  <g transform="matrix(1.000000,0.000000,0.000000,1.000000,0.000000,0.000000)" id="s"><circle r="4" fill="black" cx="165" cy="555"></circle><circle r="4" fill="red" cx="272.9162914305065" cy="271.43589028725444"></circle><line stroke-width="3" stroke="red" stroke-linecap="round" x1="256.9162914305065" y1="291.43589028725444" x2="272.9162914305065" y2="271.43589028725444"></line><circle r="4" fill="blue" cx="284.24669976101256" cy="313.30021695165925"></circle><line stroke-width="3" stroke="blue" stroke-linecap="round" x1="256.9162914305065" y1="291.43589028725444" x2="284.24669976101256" y2="313.30021695165925"></line><circle r="4" fill="green" cx="256.9162914305065" cy="291.43589028725444"></circle><circle r="4" fill="red" cx="266.74387873953305" cy="247.833549879602"></circle><line stroke-width="3" stroke="red" stroke-linecap="round" x1="275.04696921410783" y1="269.4703079735474" x2="266.74387873953305" y2="247.833549879602"></line><circle r="4" fill="blue" cx="304.6140408969028" cy="267.51146837005274"></circle><line stroke-width="3" stroke="blue" stroke-linecap="round" x1="275.04696921410783" y1="269.4703079735474" x2="304.6140408969028" y2="267.51146837005274"></line><circle r="4" fill="green" cx="275.04696921410783" cy="269.4703079735474"></circle><circle r="4" fill="red" cx="253.00000000000077" cy="291.0000000000002"></circle><line stroke-width="3" stroke="red" stroke-linecap="round" x1="217.99999999999997" y1="291" x2="253.00000000000077" y2="291.0000000000002"></line><circle r="4" fill="blue" cx="218.00000000000037" cy="326.0000000000006"></circle><line stroke-width="3" stroke="blue" stroke-linecap="round" x1="217.99999999999997" y1="291" x2="218.00000000000037" y2="326.0000000000006"></line><circle r="4" fill="green" cx="217.99999999999997" cy="291"></circle><circle r="4" fill="red" cx="245.4918729123245" cy="236.6163776825185"></circle><line stroke-width="3" stroke="red" stroke-linecap="round" x1="266.1830409480127" y1="245.38813018061077" x2="245.4918729123245" y2="236.6163776825185"></line><circle r="4" fill="blue" cx="278.1698198253621" cy="227.26898324832877"></circle><line stroke-width="3" stroke="blue" stroke-linecap="round" x1="266.1830409480127" y1="245.38813018061077" x2="278.1698198253621" y2="227.26898324832877"></line><circle r="4" fill="green" cx="266.1830409480127" cy="245.38813018061077"></circle><circle r="4" fill="red" cx="215.12195121950407" cy="287.6695916695042"></circle><line stroke-width="3" stroke="red" stroke-linecap="round" x1="185.2439024390149" y1="260.3391833389967" x2="215.12195121950407" y2="287.6695916695042"></line><circle r="4" fill="blue" cx="147.89634146340418" cy="282.20351000340236"></circle><line stroke-width="3" stroke="blue" stroke-linecap="round" x1="185.2439024390149" y1="260.3391833389967" x2="147.89634146340418" y2="282.20351000340236"></line><circle r="4" fill="green" cx="185.2439024390149" cy="260.3391833389967"></circle><circle r="4" fill="red" cx="227.01753034960421" cy="241.75306909326858"></circle><line stroke-width="3" stroke="red" stroke-linecap="round" x1="243.32593795297544" y1="235.40921484537827" x2="227.01753034960421" y2="241.75306909326858"></line><circle r="4" fill="blue" cx="234.65693160377234" cy="217.24068556095705"></circle><line stroke-width="3" stroke="blue" stroke-linecap="round" x1="243.32593795297544" y1="235.40921484537827" x2="234.65693160377234" y2="217.24068556095705"></line><circle r="4" fill="green" cx="243.32593795297544" cy="235.40921484537827"></circle><circle r="4" fill="red" cx="186.3408209058889" cy="256.0113152238571"></circle><line stroke-width="3" stroke="red" stroke-linecap="round" x1="189.99871498253697" y1="215.60730811244682" x2="186.3408209058889" y2="256.0113152238571"></line><circle r="4" fill="blue" cx="134.78581435536182" cy="200.1022992231864"></circle><line stroke-width="3" stroke="blue" stroke-linecap="round" x1="189.99871498253697" y1="215.60730811244682" x2="134.78581435536182" y2="200.1022992231864"></line><circle r="4" fill="green" cx="189.99871498253697" cy="215.60730811244682"></circle><circle r="4" fill="red" cx="222.58319871303522" cy="255.51870195707662"></circle><line stroke-width="3" stroke="red" stroke-linecap="round" x1="225.08475284646028" y1="242.23663756694336" x2="222.58319871303522" y2="255.51870195707662"></line><circle r="4" fill="blue" cx="206.9345406837396" cy="235.84056521544827"></circle><line stroke-width="3" stroke="blue" stroke-linecap="round" x1="225.08475284646028" y1="242.23663756694336" x2="206.9345406837396" y2="235.84056521544827"></line><circle r="4" fill="green" cx="225.08475284646028" cy="242.23663756694336"></circle><circle r="4" fill="red" cx="195.55326074785285" cy="213.76025975173442"></circle><line stroke-width="3" stroke="red" stroke-linecap="round" x1="241.78988523094839" y1="191.37641200058346" x2="195.55326074785285" y2="213.76025975173442"></line><circle r="4" fill="blue" cx="211.20190027860602" cy="138.57647775653538"></circle><line stroke-width="3" stroke="blue" stroke-linecap="round" x1="241.78988523094839" y1="191.37641200058346" x2="211.20190027860602" y2="138.57647775653538"></line><circle r="4" fill="green" cx="241.78988523094839" cy="191.37641200058346"></circle><circle r="4" fill="red" cx="231.30522902476656" cy="266.651928425875"></circle><line stroke-width="3" stroke="red" stroke-linecap="round" x1="222.07724682134918" y1="256.9252290752455" x2="231.30522902476656" y2="266.651928425875"></line><circle r="4" fill="blue" cx="208.78551357331096" cy="263.30118416073554"></circle><line stroke-width="3" stroke="blue" stroke-linecap="round" x1="222.07724682134918" y1="256.9252290752455" x2="208.78551357331096" y2="263.30118416073554"></line><circle r="4" fill="green" cx="222.07724682134918" cy="256.9252290752455"></circle><circle r="4" fill="red" cx="248.50250639112477" cy="194.55994157581205"></circle><line stroke-width="3" stroke="red" stroke-linecap="round" x1="311.8579989770093" y1="216.6816006532359" x2="248.50250639112477" y2="194.55994157581205"></line><circle r="4" fill="blue" cx="342.0876977537197" cy="159.81253982678209"></circle><line stroke-width="3" stroke="blue" stroke-linecap="round" x1="311.8579989770093" y1="216.6816006532359" x2="342.0876977537197" y2="159.81253982678209"></line><circle r="4" fill="green" cx="311.8579989770093" cy="216.6816006532359"></circle><circle r="4" fill="red" cx="243.98603217950784" cy="268.62278254324576"></circle><line stroke-width="3" stroke="red" stroke-linecap="round" x1="232.1722498876382" y1="267.8196943175238" x2="243.98603217950784" y2="268.62278254324576"></line><circle r="4" fill="blue" cx="231.07481343091825" cy="279.3979980245948"></circle><line stroke-width="3" stroke="blue" stroke-linecap="round" x1="232.1722498876382" y1="267.8196943175238" x2="231.07481343091825" y2="279.3979980245948"></line><circle r="4" fill="green" cx="232.1722498876382" cy="267.8196943175238"></circle><circle r="4" fill="red" cx="314.1912263353002" cy="223.9120123062134"></circle><line stroke-width="3" stroke="red" stroke-linecap="round" x1="344.66975452722016" y1="287.2036312427852" x2="314.1912263353002" y2="223.9120123062134"></line><circle r="4" fill="blue" cx="431.1590439989834" cy="275.28323947901987"></circle><line stroke-width="3" stroke="blue" stroke-linecap="round" x1="344.66975452722016" y1="287.2036312427852" x2="431.1590439989834" y2="275.28323947901987"></line><circle r="4" fill="green" cx="344.66975452722016" cy="287.2036312427852"></circle><circle r="4" fill="red" cx="251.32194927274946" cy="262.60779211853895"></circle><line stroke-width="3" stroke="red" stroke-linecap="round" x1="245.2942565354834" y1="268.85683961939225" x2="251.32194927274946" y2="262.60779211853895"></line><circle r="4" fill="blue" cx="253.8337075292359" cy="276.7168551509776"></circle><line stroke-width="3" stroke="blue" stroke-linecap="round" x1="245.2942565354834" y1="268.85683961939225" x2="253.8337075292359" y2="276.7168551509776"></line><circle r="4" fill="green" cx="245.2942565354834" cy="268.85683961939225"></circle><circle r="4" fill="red" cx="338.94615569118145" cy="293.5423780636087"></circle><line stroke-width="3" stroke="red" stroke-linecap="round" x1="297.4276229653807" y1="356.8800709877881" x2="338.94615569118145" y2="293.5423780636087"></line><circle r="4" fill="blue" cx="383.97987348188195" cy="416.9702497874464"></circle><line stroke-width="3" stroke="blue" stroke-linecap="round" x1="297.4276229653807" y1="356.8800709877881" x2="383.97987348188195" y2="416.9702497874464"></line><circle r="4" fill="green" cx="297.4276229653807" cy="356.8800709877881"></circle><circle r="4" fill="red" cx="249.97859296076496" cy="254.65830476442787"></circle><line stroke-width="3" stroke="red" stroke-linecap="round" x1="252.10276256301617" y1="262.0064496400095" x2="249.97859296076496" y2="254.65830476442787"></line><circle r="4" fill="blue" cx="262.1441525590841" cy="262.03687613414746"></circle><line stroke-width="3" stroke="blue" stroke-linecap="round" x1="252.10276256301617" y1="262.0064496400095" x2="262.1441525590841" y2="262.03687613414746"></line><circle r="4" fill="green" cx="252.10276256301617" cy="262.0064496400095"></circle><circle r="4" fill="red" cx="285.77771729044434" cy="356.37047492563073"></circle><line stroke-width="3" stroke="red" stroke-linecap="round" x1="182.749114587128" y1="363.5166907994704" x2="285.77771729044434" y2="356.37047492563073"></line><circle r="4" fill="blue" cx="192.5145644796291" cy="468.64068071771396"></circle><line stroke-width="3" stroke="blue" stroke-linecap="round" x1="182.749114587128" y1="363.5166907994704" x2="192.5145644796291" y2="468.64068071771396"></line><circle r="4" fill="green" cx="182.749114587128" cy="363.5166907994704"></circle><circle r="4" fill="red" cx="243.15698049225654" cy="250.45993156199506"></circle><line stroke-width="3" stroke="red" stroke-linecap="round" x1="249.86596659389582" y1="253.8364700731969" x2="243.15698049225654" y2="250.45993156199506"></line><circle r="4" fill="blue" cx="254.4800754066369" cy="248.11754021278915"></circle><line stroke-width="3" stroke="blue" stroke-linecap="round" x1="249.86596659389582" y1="253.8364700731969" x2="254.4800754066369" y2="248.11754021278915"></line><circle r="4" fill="green" cx="249.86596659389582" cy="253.8364700731969"></circle><circle r="4" fill="red" cx="173.3478494431426" cy="354.101300688676"></circle><line stroke-width="3" stroke="red" stroke-linecap="round" x1="77.77106800176027" y1="278.11368402229886" x2="173.3478494431426" y2="354.101300688676"></line><circle r="4" fill="blue" cx="-26.067561575939408" cy="351.4096551346204"></circle><line stroke-width="3" stroke="blue" stroke-linecap="round" x1="77.77106800176027" y1="278.11368402229886" x2="-26.067561575939408" y2="351.4096551346204"></line><circle r="4" fill="green" cx="77.77106800176027" cy="278.11368402229886"></circle><circle r="4" fill="red" cx="236.7601503939002" cy="251.73529288236912"></circle><line stroke-width="3" stroke="red" stroke-linecap="round" x1="242.46374907621586" y1="250.01089342439985" x2="236.7601503939002" y2="251.73529288236912"></line><circle r="4" fill="blue" cx="240.1073220106556" cy="243.80167265601148"></circle><line stroke-width="3" stroke="blue" stroke-linecap="round" x1="242.46374907621586" y1="250.01089342439985" x2="240.1073220106556" y2="243.80167265601148"></line><circle r="4" fill="green" cx="242.46374907621586" cy="250.01089342439985"></circle><circle r="4" fill="red" cx="79.7925079360959" cy="264.89078172905033"></circle><line stroke-width="3" stroke="red" stroke-linecap="round" x1="79.28691961184153" y1="142.78876638756935" x2="79.7925079360959" y2="264.89078172905033"></line><circle r="4" fill="blue" cx="-87.56797725117612" cy="107.49204949459276"></circle><line stroke-width="3" stroke="blue" stroke-linecap="round" x1="79.28691961184153" y1="142.78876638756935" x2="-87.56797725117612" y2="107.49204949459276"></line><circle r="4" fill="green" cx="79.28691961184153" cy="142.78876638756935"></circle><circle r="4" fill="red" cx="234.83177508193043" cy="256.18733626782426"></circle><line stroke-width="3" stroke="red" stroke-linecap="round" x1="236.09260472781173" y1="251.85091321938788" x2="234.83177508193043" y2="256.18733626782426"></line><circle r="4" fill="blue" cx="230.16679409743256" cy="249.31857350795232"></circle><line stroke-width="3" stroke="blue" stroke-linecap="round" x1="236.09260472781173" y1="251.85091321938788" x2="230.16679409743256" y2="249.31857350795232"></line><circle r="4" fill="green" cx="236.09260472781173" cy="251.85091321938788"></circle><circle r="4" fill="red" cx="95.12234334431417" cy="136.10696420556621"></circle><line stroke-width="3" stroke="red" stroke-linecap="round" x1="224.98252821848445" y1="59.43564177249942" x2="95.12234334431417" y2="136.10696420556621"></line><circle r="4" fill="blue" cx="120.20960075170275" cy="-92.90582712864133"></circle><line stroke-width="3" stroke="blue" stroke-linecap="round" x1="224.98252821848445" y1="59.43564177249942" x2="120.20960075170275" y2="-92.90582712864133"></line><circle r="4" fill="green" cx="224.98252821848445" cy="59.43564177249942"></circle><circle r="4" fill="red" cx="237.42669390016187" cy="260.07043447191245"></circle><line stroke-width="3" stroke="red" stroke-linecap="round" x1="234.61689566377666" y1="256.6410183860927" x2="237.42669390016187" y2="260.07043447191245"></line><circle r="4" fill="blue" cx="229.93052856574374" cy="258.4452558127073"></circle><line stroke-width="3" stroke="blue" stroke-linecap="round" x1="234.61689566377666" y1="256.6410183860927" x2="229.93052856574374" y2="258.4452558127073"></line><circle r="4" fill="green" cx="234.61689566377666" cy="256.6410183860927"></circle><circle r="4" fill="red" cx="245.63054470870895" cy="67.62694151766587"></circle><line stroke-width="3" stroke="red" stroke-linecap="round" x1="438.30071122194875" y1="121.13451406102807" x2="245.63054470870895" y2="67.62694151766587"></line><circle r="4" fill="blue" cx="511.4199015411572" cy="-55.846358231530374"></circle><line stroke-width="3" stroke="blue" stroke-linecap="round" x1="438.30071122194875" y1="121.13451406102807" x2="511.4199015411572" y2="-55.846358231530374"></line><circle r="4" fill="green" cx="438.30071122194875" cy="121.13451406102807"></circle><circle r="4" fill="red" cx="241.64513277435856" cy="261.0133759358988"></circle><line stroke-width="3" stroke="red" stroke-linecap="round" x1="237.6827295245637" y1="260.4766356833038" x2="241.64513277435856" y2="261.0133759358988"></line><circle r="4" fill="blue" cx="236.9492630110218" cy="264.28165792434106"></circle><line stroke-width="3" stroke="blue" stroke-linecap="round" x1="237.6827295245637" y1="260.4766356833038" x2="236.9492630110218" y2="264.28165792434106"></line><circle r="4" fill="green" cx="237.6827295245637" cy="260.4766356833038"></circle><circle r="4" fill="red" cx="447.1863505708961" cy="142.3749704989495"></circle><line stroke-width="3" stroke="red" stroke-linecap="round" x1="554.564387868249" y1="326.251009613835" x2="447.1863505708961" y2="142.3749704989495"></line><circle r="4" fill="blue" cx="805.8347494285401" cy="272.7884302728111"></circle><line stroke-width="3" stroke="blue" stroke-linecap="round" x1="554.564387868249" y1="326.251009613835" x2="805.8347494285401" y2="272.7884302728111"></line><circle r="4" fill="green" cx="554.564387868249" cy="326.251009613835"></circle><circle r="4" fill="red" cx="244.30987555234873" cy="259.1918902990438"></circle><line stroke-width="3" stroke="red" stroke-linecap="round" x1="242.07936748756143" y1="261.12082174987876" x2="244.30987555234873" y2="259.1918902990438"></line><circle r="4" fill="blue" cx="244.7152916972052" cy="263.91692402171304"></circle><line stroke-width="3" stroke="blue" stroke-linecap="round" x1="242.07936748756143" y1="261.12082174987876" x2="244.7152916972052" y2="263.91692402171304"></line><circle r="4" fill="green" cx="242.07936748756143" cy="261.12082174987876"></circle><circle r="4" fill="red" cx="539.4845685524951" cy="346.4583361779529"></circle><line stroke-width="3" stroke="red" stroke-linecap="round" x1="434.9395586532535" y1="545.1729473216616" x2="539.4845685524951" y2="346.4583361779529"></line><circle r="4" fill="blue" cx="706.487131843017" cy="707.9843268577476"></circle><line stroke-width="3" stroke="blue" stroke-linecap="round" x1="434.9395586532535" y1="545.1729473216616" x2="706.487131843017" y2="707.9843268577476"></line><circle r="4" fill="green" cx="434.9395586532535" cy="545.1729473216616"></circle><circle r="4" fill="red" cx="244.1057023587614" cy="256.5313070836575"></circle><line stroke-width="3" stroke="red" stroke-linecap="round" x1="244.59228393465506" y1="259.01087704508734" x2="244.1057023587614" y2="256.5313070836575"></line><circle r="4" fill="blue" cx="247.98066691115176" cy="259.2513458812472"></circle><line stroke-width="3" stroke="blue" stroke-linecap="round" x1="244.59228393465506" y1="259.01087704508734" x2="247.98066691115176" y2="259.2513458812472"></line><circle r="4" fill="green" cx="244.59228393465506" cy="259.01087704508734"></circle><circle r="4" fill="red" cx="400.50384613541024" cy="546.021003594872"></circle><line stroke-width="3" stroke="red" stroke-linecap="round" x1="99.21507579367915" y1="588.5210996398181" x2="400.50384613541024" y2="546.021003594872"></line><circle r="4" fill="blue" cx="157.2923247433897" cy="902.2715923053556"></circle><line stroke-width="3" stroke="blue" stroke-linecap="round" x1="99.21507579367915" y1="588.5210996398181" x2="157.2923247433897" y2="902.2715923053556"></line><circle r="4" fill="green" cx="99.21507579367915" cy="588.5210996398181"></circle><circle r="4" fill="red" cx="241.93479959387014" cy="254.9859243217349"></circle><line stroke-width="3" stroke="red" stroke-linecap="round" x1="244.09345572941962" y1="256.25685278190844" x2="241.93479959387014" y2="254.9859243217349"></line><circle r="4" fill="blue" cx="245.83020541818976" cy="254.4708536292363"></circle><line stroke-width="3" stroke="blue" stroke-linecap="round" x1="244.09345572941962" y1="256.25685278190844" x2="245.83020541818976" y2="254.4708536292363"></line><circle r="4" fill="green" cx="244.09345572941962" cy="256.25685278190844"></circle><circle r="4" fill="red" cx="68.91379774300822" cy="562.1611023576087"></circle><line stroke-width="3" stroke="red" stroke-linecap="round" x1="-233.6346452796099" y1="353.4436984821658" x2="68.91379774300822" y2="562.1611023576087"></line><circle r="4" fill="blue" cx="-518.8512389595505" cy="594.7927896611772"></circle><line stroke-width="3" stroke="blue" stroke-linecap="round" x1="-233.6346452796099" y1="353.4436984821658" x2="-518.8512389595505" y2="594.7927896611772"></line><circle r="4" fill="green" cx="-233.6346452796099" cy="353.4436984821658"></circle><circle r="4" fill="red" cx="239.73564570391218" cy="255.261047229438"></circle><line stroke-width="3" stroke="red" stroke-linecap="round" x1="241.71488833088915" y1="254.82147215256182" x2="239.73564570391218" y2="255.261047229438"></line><circle r="4" fill="blue" cx="241.11420001374216" cy="252.71333893336822"></circle><line stroke-width="3" stroke="blue" stroke-linecap="round" x1="241.71488833088915" y1="254.82147215256182" x2="241.11420001374216" y2="252.71333893336822"></line><circle r="4" fill="green" cx="241.71488833088915" cy="254.82147215256182"></circle><circle r="4" fill="red" cx="-231.37354407660592" cy="313.3154158103912"></circle><line stroke-width="3" stroke="red" stroke-linecap="round" x1="-266.92986325322033" y1="-53.31995523093576" x2="-231.37354407660592" y2="313.3154158103912"></line><circle r="4" fill="blue" cx="-767.9445832015169" cy="-125.26711517990279"></circle><line stroke-width="3" stroke="blue" stroke-linecap="round" x1="-266.92986325322033" y1="-53.31995523093576" x2="-767.9445832015169" y2="-125.26711517990279"></line><circle r="4" fill="green" cx="-266.92986325322033" cy="-53.31995523093576"></circle><circle r="4" fill="red" cx="238.94515310874863" cy="256.68957451303913"></circle><line stroke-width="3" stroke="red" stroke-linecap="round" x1="239.50669927128268" y1="255.28397835264227" x2="238.94515310874863" y2="256.68957451303913"></line><circle r="4" fill="blue" cx="237.5859234207108" cy="254.3102884379682"></circle><line stroke-width="3" stroke="blue" stroke-linecap="round" x1="239.50669927128268" y1="255.28397835264227" x2="237.5859234207108" y2="254.3102884379682"></line><circle r="4" fill="green" cx="239.50669927128268" cy="255.28397835264227"></circle><circle r="4" fill="red" cx="-222.17984108260288" cy="-76.62227127843761"></circle><line stroke-width="3" stroke="red" stroke-linecap="round" x1="138.6939714021966" y1="-333.42239244985467" x2="-222.17984108260288" y2="-76.62227127843761"></line><circle r="4" fill="blue" cx="-212.22863714471987" cy="-769.5941948350504"></circle><line stroke-width="3" stroke="blue" stroke-linecap="round" x1="138.6939714021966" y1="-333.42239244985467" x2="-212.22863714471987" y2="-769.5941948350504"></line><circle r="4" fill="green" cx="138.6939714021966" cy="-333.42239244985467"></circle><circle r="4" fill="red" cx="239.6992774644478" cy="258.0336784867803"></circle><line stroke-width="3" stroke="red" stroke-linecap="round" x1="238.85839808127943" y1="256.8347260050708" x2="239.6992774644478" y2="258.0336784867803"></line><circle r="4" fill="blue" cx="237.22000503657983" cy="257.324052937847"></circle><line stroke-width="3" stroke="blue" stroke-linecap="round" x1="238.85839808127943" y1="256.8347260050708" x2="237.22000503657983" y2="257.324052937847"></line><circle r="4" fill="green" cx="238.85839808127943" cy="256.8347260050708"></circle><circle r="4" fill="red" cx="201.7604861107303" cy="-313.035337346357"></circle><line stroke-width="3" stroke="red" stroke-linecap="round" x1="783.848016311171" y1="-191.66199693933814" x2="201.7604861107303" y2="-313.035337346357"></line><circle r="4" fill="blue" cx="949.7071639992239" cy="-738.1608813149388"></circle><line stroke-width="3" stroke="blue" stroke-linecap="round" x1="783.848016311171" y1="-191.66199693933814" x2="949.7071639992239" y2="-738.1608813149388"></line><circle r="4" fill="green" cx="783.848016311171" cy="-191.66199693933814"></circle><circle r="4" fill="red" cx="241.09358889679598" cy="258.4424053793179"></circle><line stroke-width="3" stroke="red" stroke-linecap="round" x1="239.7729622960907" y1="258.17392820640856" x2="241.09358889679598" y2="258.4424053793179"></line><circle r="4" fill="blue" cx="239.40608275793912" cy="259.41583291492003"></circle><line stroke-width="3" stroke="blue" stroke-linecap="round" x1="239.7729622960907" y1="258.17392820640856" x2="239.40608275793912" y2="259.41583291492003"></line><circle r="4" fill="green" cx="239.7729622960907" cy="258.17392820640856"></circle><circle r="4" fill="red" cx="815.9308054336274" cy="-129.67963032578848"></circle><line stroke-width="3" stroke="red" stroke-linecap="round" x1="1183.3205594387227" y1="400.6756910308777" x2="815.9308054336274" y2="-129.67963032578848"></line><circle r="4" fill="blue" cx="1908.0619340854294" cy="188.79477965782897"></circle><line stroke-width="3" stroke="blue" stroke-linecap="round" x1="1183.3205594387227" y1="400.6756910308777" x2="1908.0619340854294" y2="188.79477965782897"></line><circle r="4" fill="green" cx="1183.3205594387227" cy="400.6756910308777"></circle><circle r="4" fill="red" cx="242.05015049068982" cy="257.9009856549753"></circle><line stroke-width="3" stroke="red" stroke-linecap="round" x1="241.2367900228522" y1="258.48791306650895" x2="242.05015049068982" y2="257.9009856549753"></line><circle r="4" fill="blue" cx="242.03883831373136" cy="259.4733702378229"></circle><line stroke-width="3" stroke="blue" stroke-linecap="round" x1="241.2367900228522" y1="258.48791306650895" x2="242.03883831373136" y2="259.4733702378229"></line><circle r="4" fill="green" cx="241.2367900228522" cy="258.48791306650895"></circle><circle r="4" fill="red" cx="1144.5685857788" cy="464.4482178357299"></circle><line stroke-width="3" stroke="red" stroke-linecap="round" x1="892.2660511647563" y1="1082.6417603429104" x2="1144.5685857788" y2="464.4482178357299"></line><circle r="4" fill="blue" cx="1737.0401483649166" cy="1516.2087387113415"></circle><line stroke-width="3" stroke="blue" stroke-linecap="round" x1="892.2660511647563" y1="1082.6417603429104" x2="1737.0401483649166" y2="1516.2087387113415"></line><circle r="4" fill="green" cx="892.2660511647563" cy="1082.6417603429104"></circle><circle r="4" fill="red" cx="242.06465801519911" cy="257.0161568094479"></circle><line stroke-width="3" stroke="red" stroke-linecap="round" x1="242.1511493961186" y1="257.84758486689987" x2="242.06465801519911" y2="257.0161568094479"></line><circle r="4" fill="blue" cx="243.28731281149865" cy="258.0048817723229"></circle><line stroke-width="3" stroke="blue" stroke-linecap="round" x1="242.1511493961186" y1="257.84758486689987" x2="243.28731281149865" y2="258.0048817723229"></line><circle r="4" fill="green" cx="242.1511493961186" cy="257.84758486689987"></circle><circle r="4" fill="red" cx="791.1351456572033" cy="1092.2199344725414"></circle><line stroke-width="3" stroke="red" stroke-linecap="round" x1="-83.90281034722148" y1="1281.3871990833725" x2="791.1351456572033" y2="1092.2199344725414"></line><circle r="4" fill="blue" cx="174.59811888173857" cy="2211.8920867822862"></circle><line stroke-width="3" stroke="blue" stroke-linecap="round" x1="-83.90281034722148" y1="1281.3871990833725" x2="174.59811888173857" y2="2211.8920867822862"></line><circle r="4" fill="green" cx="-83.90281034722148" cy="1281.3871990833725"></circle><circle r="4" fill="red" cx="241.38035477923563" cy="256.4551185977084"></circle><line stroke-width="3" stroke="red" stroke-linecap="round" x1="242.06912993358742" y1="256.9250839413567" x2="241.38035477923563" y2="256.4551185977084"></line><circle r="4" fill="blue" cx="242.71134717074216" cy="256.3741103018101"></circle><line stroke-width="3" stroke="blue" stroke-linecap="round" x1="242.06912993358742" y1="256.9250839413567" x2="242.71134717074216" y2="256.3741103018101"></line><circle r="4" fill="green" cx="242.06912993358742" cy="256.9250839413567"></circle><circle r="4" fill="red" cx="-180.45468378468058" cy="1208.4006672451862"></circle><line stroke-width="3" stroke="red" stroke-linecap="round" x1="-1129.2936176110181" y1="643.2826736843351" x2="-180.45468378468058" y2="1208.4006672451862"></line><circle r="4" fill="blue" cx="-1901.538893557708" cy="1426.419781601976"></circle><line stroke-width="3" stroke="blue" stroke-linecap="round" x1="-1129.2936176110181" y1="643.2826736843351" x2="-1901.538893557708" y2="1426.419781601976"></line><circle r="4" fill="green" cx="-1129.2936176110181" cy="643.2826736843351"></circle><circle r="4" fill="red" cx="240.62943320234214" cy="256.4956712258965"></circle><line stroke-width="3" stroke="red" stroke-linecap="round" x1="241.31128312270565" y1="256.3956704461091" x2="240.62943320234214" y2="256.4956712258965"></line><circle r="4" fill="blue" cx="241.1746300154577" cy="255.68449866377713"></circle><line stroke-width="3" stroke="blue" stroke-linecap="round" x1="241.31128312270565" y1="256.3956704461091" x2="241.1746300154577" y2="255.68449866377713"></line><circle r="4" fill="green" cx="241.31128312270565" cy="256.3956704461091"></circle><circle r="4" fill="red" cx="-1133.8339786449324" cy="522.2940022462419"></circle><line stroke-width="3" stroke="red" stroke-linecap="round" x1="-1340.7961851238397" y1="-571.6511382253022" x2="-1133.8339786449324" y2="522.2940022462419"></line><circle r="4" fill="blue" cx="-2835.694554136824" cy="-685.4515145795657"></circle><line stroke-width="3" stroke="blue" stroke-linecap="round" x1="-1340.7961851238397" y1="-571.6511382253022" x2="-2835.694554136824" y2="-685.4515145795657"></line><circle r="4" fill="green" cx="-1340.7961851238397" cy="-571.6511382253022"></circle><circle r="4" fill="red" cx="240.31782104968383" cy="256.95010229583"></circle><line stroke-width="3" stroke="red" stroke-linecap="round" x1="240.55143638056546" y1="256.49800377802325" x2="240.31782104968383" y2="256.95010229583"></line><circle r="4" fill="blue" cx="239.93363452570168" cy="256.131825777496"></circle><line stroke-width="3" stroke="blue" stroke-linecap="round" x1="240.55143638056546" y1="256.49800377802325" x2="239.93363452570168" y2="256.131825777496"></line><circle r="4" fill="green" cx="240.55143638056546" cy="256.49800377802325"></circle><circle r="4" fill="red" cx="-1215.568337825555" cy="-650.7775883978632"></circle><line stroke-width="3" stroke="red" stroke-linecap="round" x1="-224.92388248728935" y1="-1495.770031719561" x2="-1215.568337825555" y2="-650.7775883978632"></line><circle r="4" fill="blue" cx="-1379.6233080959964" cy="-2734.1800728874264"></circle><line stroke-width="3" stroke="blue" stroke-linecap="round" x1="-224.92388248728935" y1="-1495.770031719561" x2="-1379.6233080959964" y2="-2734.1800728874264"></line><circle r="4" fill="green" cx="-224.92388248728935" cy="-1495.770031719561"></circle><circle r="4" fill="red" cx="240.53022082845013" cy="257.41204722190565"></circle><line stroke-width="3" stroke="red" stroke-linecap="round" x1="240.283986776931" y1="256.9961290420356" x2="240.53022082845013" y2="257.41204722190565"></line><circle r="4" fill="blue" cx="239.71562609253448" cy="257.12040908993356"></circle><line stroke-width="3" stroke="blue" stroke-linecap="round" x1="240.283986776931" y1="256.9961290420356" x2="239.71562609253448" y2="257.12040908993356"></line><circle r="4" fill="green" cx="240.283986776931" cy="256.9961290420356"></circle><circle r="4" fill="red" cx="-33.588349548516135" cy="-1447.4134132439945"></circle><line stroke-width="3" stroke="red" stroke-linecap="round" x1="1713.7525122116133" y1="-1201.7126513866244" x2="-33.588349548516135" y2="-1447.4134132439945"></line><circle r="4" fill="blue" cx="2049.507619645492" cy="-2877.0100366855104"></circle><line stroke-width="3" stroke="blue" stroke-linecap="round" x1="1713.7525122116133" y1="-1201.7126513866244" x2="2049.507619645492" y2="-2877.0100366855104"></line><circle r="4" fill="green" cx="1713.7525122116133" cy="-1201.7126513866244"></circle><circle r="4" fill="red" cx="240.98803625462477" cy="257.57925062731584"></circle><line stroke-width="3" stroke="red" stroke-linecap="round" x1="240.5506945828466" y1="257.4601337724598" x2="240.98803625462477" y2="257.57925062731584"></line><circle r="4" fill="blue" cx="240.38791896873354" cy="257.86254843683236"></circle><line stroke-width="3" stroke="blue" stroke-linecap="round" x1="240.5506945828466" y1="257.4601337724598" x2="240.38791896873354" y2="257.86254843683236"></line><circle r="4" fill="green" cx="240.5506945828466" cy="257.4601337724598"></circle><circle r="4" fill="red" cx="1825.4876730543256" cy="-1022.0965614984077"></circle><line stroke-width="3" stroke="red" stroke-linecap="round" x1="3054.939425013992" y1="495.835466028067" x2="1825.4876730543256" y2="-1022.0965614984077"></line><circle r="4" fill="blue" cx="5129.22453152652" cy="-288.53382274271394"></circle><line stroke-width="3" stroke="blue" stroke-linecap="round" x1="3054.939425013992" y1="495.835466028067" x2="5129.22453152652" y2="-288.53382274271394"></line><circle r="4" fill="green" cx="3054.939425013992" cy="495.835466028067"></circle><circle r="4" fill="red" cx="241.3278872307078" cy="257.42209295165287"></circle><line stroke-width="3" stroke="red" stroke-linecap="round" x1="241.03494497268747" y1="257.59759076907443" x2="241.3278872307078" y2="257.42209295165287"></line><circle r="4" fill="blue" cx="241.27476632324965" cy="257.94199185360725"></circle><line stroke-width="3" stroke="blue" stroke-linecap="round" x1="241.03494497268747" y1="257.59759076907443" x2="241.27476632324965" y2="257.94199185360725"></line><circle r="4" fill="green" cx="241.03494497268747" cy="257.59759076907443"></circle><circle r="4" fill="red" cx="2958.6595883526606" cy="695.2912498625035"></circle><line stroke-width="3" stroke="red" stroke-linecap="round" x1="2388.447030164985" y1="2603.5763958029615" x2="2958.6595883526606" y2="695.2912498625035"></line><circle r="4" fill="blue" cx="4996.15764264457" cy="3733.3293272219535"></circle><line stroke-width="3" stroke="blue" stroke-linecap="round" x1="2388.447030164985" y1="2603.5763958029615" x2="4996.15764264457" y2="3733.3293272219535"></line><circle r="4" fill="green" cx="2388.447030164985" cy="2603.5763958029615"></circle><circle r="4" fill="red" cx="241.36052814982742" cy="257.12971677221935"></circle><line stroke-width="3" stroke="red" stroke-linecap="round" x1="241.36365246076792" y1="257.4067449656308" x2="241.36052814982742" y2="257.12971677221935"></line><circle r="4" fill="blue" cx="241.74221714301783" cy="257.48484984576106"></circle><line stroke-width="3" stroke="blue" stroke-linecap="round" x1="241.36365246076792" y1="257.4067449656308" x2="241.74221714301783" y2="257.48484984576106"></line><circle r="4" fill="green" cx="241.36365246076792" cy="257.4067449656308"></circle><circle r="4" fill="red" cx="2093.4230100209984" cy="2652.9935147433157"></circle><line stroke-width="3" stroke="red" stroke-linecap="round" x1="-429.6236892830443" y1="3399.828593292513" x2="2093.4230100209984" y2="2652.9935147433157"></line><circle r="4" fill="blue" cx="590.9416933317509" cy="6141.859535848996"></circle><line stroke-width="3" stroke="blue" stroke-linecap="round" x1="-429.6236892830443" y1="3399.828593292513" x2="590.9416933317509" y2="6141.859535848996"></line><circle r="4" fill="green" cx="-429.6236892830443" cy="3399.828593292513"></circle><circle r="4" fill="red" cx="241.14714227370973" cy="256.9284188671217"></circle><line stroke-width="3" stroke="red" stroke-linecap="round" x1="241.36489320571104" y1="257.09969168704134" x2="241.14714227370973" y2="256.9284188671217"></line><circle r="4" fill="blue" cx="241.5989410109271" cy="256.93216074327717"></circle><line stroke-width="3" stroke="blue" stroke-linecap="round" x1="241.36489320571104" y1="257.09969168704134" x2="241.5989410109271" y2="256.93216074327717"></line><circle r="4" fill="green" cx="241.36489320571104" cy="257.09969168704134"></circle><circle r="4" fill="red" cx="-734.2051443728096" cy="3200.324167392023"></circle><line stroke-width="3" stroke="red" stroke-linecap="round" x1="-3684.9531727184726" y1="1696.699870046864" x2="-734.2051443728096" y2="3200.324167392023"></line><circle r="4" fill="blue" cx="-5739.686473824064" cy="4206.560695384106"></circle><line stroke-width="3" stroke="blue" stroke-linecap="round" x1="-3684.9531727184726" y1="1696.699870046864" x2="-5739.686473824064" y2="4206.560695384106"></line><circle r="4" fill="green" cx="-3684.9531727184726" cy="1696.699870046864"></circle><circle r="4" fill="red" cx="240.8924071891304" cy="256.924603849077"></circle><line stroke-width="3" stroke="red" stroke-linecap="round" x1="241.1256920753116" y1="256.9071680274608" x2="240.8924071891304" y2="256.924603849077"></line><circle r="4" fill="blue" cx="241.10186566909408" cy="256.6687706735986"></circle><line stroke-width="3" stroke="blue" stroke-linecap="round" x1="241.1256920753116" y1="256.9071680274608" x2="241.10186566909408" y2="256.6687706735986"></line><circle r="4" fill="green" cx="241.1256920753116" cy="256.9071680274608"></circle><circle r="4" fill="red" cx="-3732.075911620803" cy="1334.232285007262"></circle><line stroke-width="3" stroke="red" stroke-linecap="round" x1="-4646.530008773232" y1="-1909.2214667874719" x2="-3732.075911620803" y2="1334.232285007262"></line><circle r="4" fill="blue" cx="-9078.77578065626" cy="-1945.8009857057375"></circle><line stroke-width="3" stroke="blue" stroke-linecap="round" x1="-4646.530008773232" y1="-1909.2214667874719" x2="-9078.77578065626" y2="-1945.8009857057375"></line><circle r="4" fill="green" cx="-4646.530008773232" cy="-1909.2214667874719"></circle><circle r="4" fill="red" cx="240.77297783615276" cy="257.06778353167215"></circle><line stroke-width="3" stroke="red" stroke-linecap="round" x1="240.86600726628274" y1="256.923585811012" x2="240.77297783615276" y2="257.06778353167215"></line><circle r="4" fill="blue" cx="240.66895813698426" cy="256.78827525397134"></circle><line stroke-width="3" stroke="blue" stroke-linecap="round" x1="240.86600726628274" y1="256.923585811012" x2="240.66895813698426" y2="256.78827525397134"></line><circle r="4" fill="green" cx="240.86600726628274" cy="256.923585811012"></circle><circle r="4" fill="red" cx="-4299.977301848811" cy="-2172.449849085082"></circle><line stroke-width="3" stroke="red" stroke-linecap="round" x1="-1619.6063691491527" y1="-4912.688026936819" x2="-4299.977301848811" y2="-2172.449849085082"></line><circle r="4" fill="blue" cx="-5364.197785325658" cy="-8396.541550296277"></circle><line stroke-width="3" stroke="blue" stroke-linecap="round" x1="-1619.6063691491527" y1="-4912.688026936819" x2="-5364.197785325658" y2="-8396.541550296277"></line><circle r="4" fill="green" cx="-1619.6063691491527" cy="-4912.688026936819"></circle><circle r="4" fill="red" cx="240.8301861087903" cy="257.2254725148583"></circle><line stroke-width="3" stroke="red" stroke-linecap="round" x1="240.76011434582202" y1="257.0822332385333" x2="240.8301861087903" y2="257.2254725148583"></line><circle r="4" fill="blue" cx="240.5643749502756" cy="257.11030490612444"></circle><line stroke-width="3" stroke="blue" stroke-linecap="round" x1="240.76011434582202" y1="257.0822332385333" x2="240.5643749502756" y2="257.11030490612444"></line><circle r="4" fill="green" cx="240.76011434582202" cy="257.0822332385333"></circle><circle r="4" fill="red" cx="-1042.8847479814503" cy="-4806.513294068563"></circle><line stroke-width="3" stroke="red" stroke-linecap="round" x1="4169.2714209333435" y1="-4425.308453809173" x2="-1042.8847479814503" y2="-4806.513294068563"></line><circle r="4" fill="blue" cx="4690.195618025956" cy="-9525.689137257285"></circle><line stroke-width="3" stroke="blue" stroke-linecap="round" x1="4169.2714209333435" y1="-4425.308453809173" x2="4690.195618025956" y2="-9525.689137257285"></line><circle r="4" fill="green" cx="4169.2714209333435" cy="-4425.308453809173"></circle><circle r="4" fill="red" cx="240.97947287055894" cy="257.2912896002015"></circle><line stroke-width="3" stroke="red" stroke-linecap="round" x1="240.8355889814612" y1="257.2418497410764" x2="240.97947287055894" y2="257.2912896002015"></line><circle r="4" fill="blue" cx="240.76802840457668" cy="257.37123705596656"></circle><line stroke-width="3" stroke="blue" stroke-linecap="round" x1="240.8355889814612" y1="257.2418497410764" x2="240.76802840457668" y2="257.37123705596656"></line><circle r="4" fill="green" cx="240.8355889814612" cy="257.2418497410764"></circle><circle r="4" fill="red" cx="4548.298547223194" cy="-3908.637698309669"></circle><line stroke-width="3" stroke="red" stroke-linecap="round" x1="8590.926697239656" y1="399.50925975589234" x2="4548.298547223194" y2="-3908.637698309669"></line><circle r="4" fill="blue" cx="14478.097472827478" cy="-2379.899836242628"></circle><line stroke-width="3" stroke="blue" stroke-linecap="round" x1="8590.926697239656" y1="399.50925975589234" x2="14478.097472827478" y2="-2379.899836242628"></line><circle r="4" fill="green" cx="8590.926697239656" cy="399.50925975589234"></circle><circle r="4" fill="red" cx="241.09911275644038" cy="257.24709848644915"></circle><line stroke-width="3" stroke="red" stroke-linecap="round" x1="240.9947312203474" y1="257.29843301650067" x2="241.09911275644038" y2="257.24709848644915"></line><circle r="4" fill="blue" cx="241.0648809037355" cy="257.4178666752629"></circle><line stroke-width="3" stroke="blue" stroke-linecap="round" x1="240.9947312203474" y1="257.29843301650067" x2="241.0648809037355" y2="257.4178666752629"></line><circle r="4" fill="green" cx="240.9947312203474" cy="257.29843301650067"></circle><circle r="4" fill="red" cx="8363.160937899205" cy="1018.2413827852142"></circle><line stroke-width="3" stroke="red" stroke-linecap="round" x1="7217.076933879913" y1="6866.28168214976" x2="8363.160937899205" y2="1018.2413827852142"></line><circle r="4" fill="blue" cx="15208.543399624245" cy="9727.106619272934"></circle><line stroke-width="3" stroke="blue" stroke-linecap="round" x1="7217.076933879913" y1="6866.28168214976" x2="15208.543399624245" y2="9727.106619272934"></line><circle r="4" fill="green" cx="7217.076933879913" cy="6866.28168214976"></circle><circle r="4" fill="red" cx="241.11929781331673" cy="257.1511268674671"></circle><line stroke-width="3" stroke="red" stroke-linecap="round" x1="241.11166607303886" y1="257.2428418862119" x2="241.11929781331673" y2="257.1511268674671"></line><circle r="4" fill="blue" cx="241.23699651865567" cy="257.2773659679874"></circle><line stroke-width="3" stroke="blue" stroke-linecap="round" x1="241.11166607303886" y1="257.2428418862119" x2="241.23699651865567" y2="257.2773659679874"></line><circle r="4" fill="green" cx="241.11166607303886" cy="257.2428418862119"></circle><circle r="4" fill="red" cx="6362.410300722612" cy="7074.945397840944"></circle><line stroke-width="3" stroke="red" stroke-linecap="round" x1="-856.240997762261" y1="9833.245959012424" x2="6362.410300722612" y2="7074.945397840944"></line><circle r="4" fill="blue" cx="2913.033033991869" cy="17860.67603396331"></circle><line stroke-width="3" stroke="blue" stroke-linecap="round" x1="-856.240997762261" y1="9833.245959012424" x2="2913.033033991869" y2="17860.67603396331"></line><circle r="4" fill="green" cx="-856.240997762261" cy="9833.245959012424"></circle><circle r="4" fill="red" cx="241.05358402403394" cy="257.0796395541681"></circle><line stroke-width="3" stroke="red" stroke-linecap="round" x1="241.12171262597366" y1="257.1412944666089" x2="241.05358402403394" y2="257.0796395541681"></line><circle r="4" fill="blue" cx="241.20596532260302" cy="257.0912440920201"></circle><line stroke-width="3" stroke="blue" stroke-linecap="round" x1="241.12171262597366" y1="257.1412944666089" x2="241.20596532260302" y2="257.0912440920201"></line><circle r="4" fill="green" cx="241.12171262597366" cy="257.1412944666089"></circle><circle r="4" fill="red" cx="-1808.4939178109416" cy="9296.214632504769"></circle><line stroke-width="3" stroke="red" stroke-linecap="round" x1="-10914.065747036131" y1="5382.491687502785" x2="-1808.4939178109416" y2="9296.214632504769"></line><circle r="4" fill="blue" cx="-16262.24805600464" cy="13340.49602555453"></circle><line stroke-width="3" stroke="blue" stroke-linecap="round" x1="-10914.065747036131" y1="5382.491687502785" x2="-16262.24805600464" y2="13340.49602555453"></line><circle r="4" fill="green" cx="-10914.065747036131" cy="5382.491687502785"></circle><circle r="4" fill="red" cx="240.9677212214215" cy="257.07253252032035"></circle><line stroke-width="3" stroke="red" stroke-linecap="round" x1="241.0470101232393" y1="257.07211740909963" x2="240.9677212214215" y2="257.07253252032035"></line><circle r="4" fill="blue" cx="241.04644286528108" cy="256.9927067898918"></circle><line stroke-width="3" stroke="blue" stroke-linecap="round" x1="241.0470101232393" y1="257.07211740909963" x2="241.04644286528108" y2="256.9927067898918"></line><circle r="4" fill="green" cx="241.0470101232393" cy="257.07211740909963"></circle><circle r="4" fill="red" cx="-11153.912860865268" cy="4303.426273484789"></circle><line stroke-width="3" stroke="red" stroke-linecap="round" x1="-14750.733231086042" y1="-5251.714101343332" x2="-11153.912860865268" y2="4303.426273484789"></line><circle r="4" fill="blue" cx="-27808.027636053692" cy="-4456.61695523437"></circle><line stroke-width="3" stroke="blue" stroke-linecap="round" x1="-14750.733231086042" y1="-5251.714101343332" x2="-27808.027636053692" y2="-4456.61695523437"></line><circle r="4" fill="green" cx="-14750.733231086042" cy="-5251.714101343332"></circle><circle r="4" fill="red" cx="240.92291999345355" cy="257.1171572501085"></circle><line stroke-width="3" stroke="red" stroke-linecap="round" x1="240.95884220116557" y1="257.07158998828885" x2="240.92291999345355" y2="257.1171572501085"></line><circle r="4" fill="blue" cx="240.89657360756388" cy="257.0223067151512"></circle><line stroke-width="3" stroke="blue" stroke-linecap="round" x1="240.95884220116557" y1="257.07158998828885" x2="240.89657360756388" y2="257.0223067151512"></line><circle r="4" fill="green" cx="240.95884220116557" cy="257.07158998828885"></circle><circle r="4" fill="red" cx="-13804.039014518527" cy="-6113.090051691754"></circle><line stroke-width="3" stroke="red" stroke-linecap="round" x1="-6678.461491567146" y1="-14890.783762809051" x2="-13804.039014518527" y2="-6113.090051691754"></line><circle r="4" fill="blue" cx="-18673.3591578147" cy="-24590.124449864605"></circle><line stroke-width="3" stroke="blue" stroke-linecap="round" x1="-6678.461491567146" y1="-14890.783762809051" x2="-18673.3591578147" y2="-24590.124449864605"></line><circle r="4" fill="green" cx="-6678.461491567146" cy="-14890.783762809051"></circle><circle r="4" fill="red" cx="240.93728549171817" cy="257.17063479950156"></circle><line stroke-width="3" stroke="red" stroke-linecap="round" x1="240.91812501889984" y1="257.1216421808768" x2="240.93728549171817" y2="257.17063479950156"></line><circle r="4" fill="blue" cx="240.85117560529005" cy="257.1264372177071"></circle><line stroke-width="3" stroke="blue" stroke-linecap="round" x1="240.91812501889984" y1="257.1216421808768" x2="240.85117560529005" y2="257.1264372177071"></line><circle r="4" fill="green" cx="240.91812501889984" cy="257.1216421808768"></circle><circle r="4" fill="red" cx="-4951.156725527924" cy="-14689.637067276504"></circle><line stroke-width="3" stroke="red" stroke-linecap="round" x1="10498.09481507438" y1="-14608.87762061993" x2="-4951.156725527924" y2="-14689.637067276504"></line><circle r="4" fill="blue" cx="10608.454247757565" cy="-30034.449172400648"></circle><line stroke-width="3" stroke="blue" stroke-linecap="round" x1="10498.09481507438" y1="-14608.87762061993" x2="10608.454247757565" y2="-30034.449172400648"></line><circle r="4" fill="green" cx="10498.09481507438" cy="-14608.87762061993"></circle><circle r="4" fill="red" cx="240.98561152696564" cy="257.19583310361156"></circle><line stroke-width="3" stroke="red" stroke-linecap="round" x1="240.93859564590025" y1="257.1761764990004" x2="240.98561152696564" y2="257.19583310361156"></line><circle r="4" fill="blue" cx="240.91173449437954" cy="257.2174287425382"></circle><line stroke-width="3" stroke="blue" stroke-linecap="round" x1="240.93859564590025" y1="257.1761764990004" x2="240.91173449437954" y2="257.2174287425382"></line><circle r="4" fill="green" cx="240.93859564590025" cy="257.1761764990004"></circle><circle r="4" fill="red" cx="11757.985031704271" cy="-13134.423859886454"></circle><line stroke-width="3" stroke="red" stroke-linecap="round" x1="24860.194254384085" y1="-1020.1351762205322" x2="11757.985031704271" y2="-13134.423859886454"></line><circle r="4" fill="blue" cx="41414.61707229457" cy="-10570.237091504297"></circle><line stroke-width="3" stroke="blue" stroke-linecap="round" x1="24860.194254384085" y1="-1020.1351762205322" x2="41414.61707229457" y2="-10570.237091504297"></line><circle r="4" fill="green" cx="24860.194254384085" cy="-1020.1351762205322"></circle><circle r="4" fill="red" cx="241.02737999852343" cy="257.18395948211156"></circle><line stroke-width="3" stroke="red" stroke-linecap="round" x1="240.9905377948817" y1="257.1985463163109" x2="241.02737999852343" y2="257.18395948211156"></line><circle r="4" fill="blue" cx="241.01047100162756" cy="257.2396656179899"></circle><line stroke-width="3" stroke="blue" stroke-linecap="round" x1="240.9905377948817" y1="257.1985463163109" x2="241.01047100162756" y2="257.2396656179899"></line><circle r="4" fill="green" cx="240.9905377948817" cy="257.1985463163109"></circle><circle r="4" fill="red" cx="24362.360243407424" cy="884.7577594464019"></circle><line stroke-width="3" stroke="red" stroke-linecap="round" x1="22620.340557637042" y1="18683.600421564894" x2="24362.360243407424" y2="884.7577594464019"></line><circle r="4" fill="blue" cx="46942.82244594331" cy="25644.53148828568"></circle><line stroke-width="3" stroke="blue" stroke-linecap="round" x1="22620.340557637042" y1="18683.600421564894" x2="46942.82244594331" y2="25644.53148828568"></line><circle r="4" fill="green" cx="22620.340557637042" cy="18683.600421564894"></circle><circle r="4" fill="red" cx="241.03720241626536" cy="257.152674391531"></circle><line stroke-width="3" stroke="red" stroke-linecap="round" x1="241.03175066988393" y1="257.1828394024101" x2="241.03720241626536" y2="257.152674391531"></line><circle r="4" fill="blue" cx="241.07297177311492" cy="257.197136022673"></circle><line stroke-width="3" stroke="blue" stroke-linecap="round" x1="241.03175066988393" y1="257.1828394024101" x2="241.07297177311492" y2="257.197136022673"></line><circle r="4" fill="green" cx="241.03175066988393" cy="257.1828394024101"></circle><circle r="4" fill="red" cx="20162.700159597687" cy="19484.834553145844"></circle><line stroke-width="3" stroke="red" stroke-linecap="round" x1="-317.057290881894" y1="29243.39457831787" x2="20162.700159597687" y2="19484.834553145844"></line><circle r="4" fill="blue" cx="13018.214219403619" cy="52584.521216887966"></circle><line stroke-width="3" stroke="blue" stroke-linecap="round" x1="-317.057290881894" y1="29243.39457831787" x2="13018.214219403619" y2="52584.521216887966"></line><circle r="4" fill="green" cx="-317.057290881894" cy="29243.39457831787"></circle><circle r="4" fill="red" cx="241.01726311294098" cy="257.12751794024473"></circle><line stroke-width="3" stroke="red" stroke-linecap="round" x1="241.03832580215575" y1="257.1494771567969" x2="241.01726311294098" y2="257.12751794024473"></line><circle r="4" fill="blue" cx="241.06833351990514" cy="257.1348532685399"></circle><line stroke-width="3" stroke="blue" stroke-linecap="round" x1="241.03832580215575" y1="257.1494771567969" x2="241.06833351990514" y2="257.1348532685399"></line><circle r="4" fill="green" cx="241.03832580215575" cy="257.1494771567969"></circle><circle r="4" fill="red" cx="-3270.0184418098797" cy="27824.826840591926"></circle><line stroke-width="3" stroke="red" stroke-linecap="round" x1="-31165.83580444625" y1="17928.94714154109" x2="-3270.0184418098797" y2="27824.826840591926"></line><circle r="4" fill="blue" cx="-44688.757452676786" cy="42923.13094483304"></circle><line stroke-width="3" stroke="blue" stroke-linecap="round" x1="-31165.83580444625" y1="17928.94714154109" x2="-44688.757452676786" y2="42923.13094483304"></line><circle r="4" fill="green" cx="-31165.83580444625" cy="17928.94714154109"></circle><circle r="4" fill="red" cx="240.98850411468413" cy="257.12319671732615"></circle><line stroke-width="3" stroke="red" stroke-linecap="round" x1="241.01528003989625" y1="257.124878708746" x2="240.98850411468413" y2="257.12319671732615"></line><circle r="4" fill="blue" cx="241.0175785155119" cy="257.0985959708905"></circle><line stroke-width="3" stroke="blue" stroke-linecap="round" x1="241.01528003989625" y1="257.124878708746" x2="241.0175785155119" y2="257.0985959708905"></line><circle r="4" fill="green" cx="241.01528003989625" cy="257.124878708746"></circle><circle r="4" fill="red" cx="-32172.940725347995" cy="14736.899642906497"></circle><line stroke-width="3" stroke="red" stroke-linecap="round" x1="-45426.815624343646" y1="-13227.98108868759" x2="-32172.940725347995" y2="14736.899642906497"></line><circle r="4" fill="blue" cx="-83641.39608976134" cy="-8173.865976751422"></circle><line stroke-width="3" stroke="blue" stroke-linecap="round" x1="-45426.815624343646" y1="-13227.98108868759" x2="-83641.39608976134" y2="-8173.865976751422"></line><circle r="4" fill="green" cx="-45426.815624343646" cy="-13227.98108868759"></circle><circle r="4" fill="red" cx="240.97198283585664" cy="257.1369309840592"></circle><line stroke-width="3" stroke="red" stroke-linecap="round" x1="240.98553667344825" y1="257.1226811870765" x2="240.97198283585664" y2="257.1369309840592"></line><circle r="4" fill="blue" cx="240.96606403494016" cy="257.1049490762645"></circle><line stroke-width="3" stroke="blue" stroke-linecap="round" x1="240.98553667344825" y1="257.1226811870765" x2="240.96606403494016" y2="257.1049490762645"></line><circle r="4" fill="green" cx="240.98553667344825" cy="257.1226811870765"></circle><circle r="4" fill="red" cx="-42880.39109181428" cy="-16008.454173211896"></circle><line stroke-width="3" stroke="red" stroke-linecap="round" x1="-24354.10059078012" y1="-43827.514184574844" x2="-42880.39109181428" y2="-16008.454173211896"></line><circle r="4" fill="blue" cx="-62369.41406485016" cy="-70510.80745577466"></circle><line stroke-width="3" stroke="blue" stroke-linecap="round" x1="-24354.10059078012" y1="-43827.514184574844" x2="-62369.41406485016" y2="-70510.80745577466"></line><circle r="4" fill="green" cx="-24354.10059078012" cy="-43827.514184574844"></circle><circle r="4" fill="red" cx="240.97515491176213" cy="257.1549514432276"></circle><line stroke-width="3" stroke="red" stroke-linecap="round" x1="240.9702237297994" y1="257.13830461557154" x2="240.97515491176213" y2="257.1549514432276"></line><circle r="4" fill="blue" cx="240.947475499937" cy="257.1383546757692"></circle><line stroke-width="3" stroke="blue" stroke-linecap="round" x1="240.9702237297994" y1="257.13830461557154" x2="240.947475499937" y2="257.1383546757692"></line><circle r="4" fill="green" cx="240.9702237297994" cy="257.13830461557154"></circle><circle r="4" fill="red" cx="-19213.355320378385" cy="-43576.03845728279"></circle><line stroke-width="3" stroke="red" stroke-linecap="round" x1="26286.743290191513" y1="-46487.86506706204" x2="-19213.355320378385" y2="-43576.03845728279"></line><circle r="4" fill="blue" cx="22307.672778545653" cy="-92841.75879912439"></circle><line stroke-width="3" stroke="blue" stroke-linecap="round" x1="26286.743290191513" y1="-46487.86506706204" x2="22307.672778545653" y2="-92841.75879912439"></line><circle r="4" fill="green" cx="26286.743290191513" cy="-46487.86506706204"></circle><circle r="4" fill="red" cx="240.99067661810113" cy="257.16439612002165"></circle><line stroke-width="3" stroke="red" stroke-linecap="round" x1="240.9754233749968" y1="257.15681474749186" x2="240.99067661810113" y2="257.16439612002165"></line><circle r="4" fill="blue" cx="240.96506327464954" cy="257.16984500834224"></circle><line stroke-width="3" stroke="blue" stroke-linecap="round" x1="240.9754233749968" y1="257.15681474749186" x2="240.96506327464954" y2="257.16984500834224"></line><circle r="4" fill="green" cx="240.9754233749968" cy="257.15681474749186"></circle><circle r="4" fill="red" cx="30406.841372997333" cy="-42316.52178669395"></circle><line stroke-width="3" stroke="red" stroke-linecap="round" x1="72355.52102050564" y1="-8605.917617583167" x2="30406.841372997333" y2="-42316.52178669395"></line><circle r="4" fill="blue" cx="118421.74987099718" cy="-40670.09751998563"></circle><line stroke-width="3" stroke="blue" stroke-linecap="round" x1="72355.52102050564" y1="-8605.917617583167" x2="118421.74987099718" y2="-40670.09751998563"></line><circle r="4" fill="green" cx="72355.52102050564" cy="-8605.917617583167"></circle></g>
</svg>