<svg width="316" height="177" viewBox="0 0 316 177" fill="none" xmlns="http://www.w3.org/2000/svg">
<path d="M3.39 61.39C3.85 61.39 4.30667 61.2367 4.76 60.93L5.16 61.48C4.94 61.6733 4.66667 61.8267 4.34 61.94C4.01333 62.0533 3.69667 62.11 3.39 62.11C2.61 62.11 2 61.8667 1.56 61.38C1.12667 60.8867 0.91 60.2233 0.91 59.39C0.91 58.8633 1.00667 58.39 1.2 57.97C1.4 57.55 1.68667 57.22 2.06 56.98C2.43333 56.74 2.87667 56.62 3.39 56.62C4.07 56.62 4.65667 56.8267 5.15 57.24L4.74 57.79C4.28 57.4833 3.82667 57.33 3.38 57.33C2.90667 57.33 2.52667 57.5067 2.24 57.86C1.96 58.2067 1.82 58.7167 1.82 59.39C1.82 60.0633 1.96 60.5667 2.24 60.9C2.52667 61.2267 2.91 61.39 3.39 61.39ZM9.00609 56.62C9.73276 56.62 10.2894 56.8667 10.6761 57.36C11.0694 57.8467 11.2661 58.5133 11.2661 59.36C11.2661 60.1867 11.0661 60.8533 10.6661 61.36C10.2728 61.86 9.71609 62.11 8.99609 62.11C8.26943 62.11 7.70943 61.8667 7.31609 61.38C6.92276 60.8867 6.72609 60.2167 6.72609 59.37C6.72609 58.5367 6.92276 57.87 7.31609 57.37C7.71609 56.87 8.27943 56.62 9.00609 56.62ZM9.00609 57.31C8.54609 57.31 8.20276 57.48 7.97609 57.82C7.74943 58.16 7.63609 58.6767 7.63609 59.37C7.63609 60.0633 7.74609 60.58 7.96609 60.92C8.19276 61.2533 8.53609 61.42 8.99609 61.42C9.45609 61.42 9.79609 61.2533 10.0161 60.92C10.2428 60.58 10.3561 60.06 10.3561 59.36C10.3561 58.6667 10.2428 58.1533 10.0161 57.82C9.79609 57.48 9.45943 57.31 9.00609 57.31ZM12.9922 56.73H13.7122L13.7822 57.47C13.9889 57.2033 14.2489 56.9967 14.5622 56.85C14.8822 56.6967 15.2022 56.62 15.5222 56.62C16.5089 56.62 17.0022 57.14 17.0022 58.18V62H16.1622V58.8C16.1622 58.4067 16.1389 58.1067 16.0922 57.9C16.0522 57.6933 15.9689 57.54 15.8422 57.44C15.7155 57.34 15.5222 57.29 15.2622 57.29C14.9755 57.29 14.7055 57.3767 14.4522 57.55C14.1989 57.7233 13.9922 57.93 13.8322 58.17V62H12.9922V56.73ZM20.7883 61.42C21.1883 61.42 21.5049 61.3433 21.7383 61.19C21.9716 61.0367 22.0883 60.8333 22.0883 60.58C22.0883 60.4067 22.0583 60.2667 21.9983 60.16C21.9383 60.0467 21.8183 59.9467 21.6383 59.86C21.4583 59.7667 21.1849 59.6733 20.8183 59.58C20.2049 59.4267 19.7516 59.2433 19.4583 59.03C19.1649 58.81 19.0183 58.4867 19.0183 58.06C19.0183 57.62 19.2016 57.27 19.5683 57.01C19.9349 56.75 20.4183 56.62 21.0183 56.62C21.7516 56.62 22.3916 56.8133 22.9383 57.2L22.5583 57.78C22.3383 57.6267 22.1083 57.51 21.8683 57.43C21.6283 57.3433 21.3516 57.3 21.0383 57.3C20.2783 57.3 19.8983 57.53 19.8983 57.99C19.8983 58.15 19.9383 58.28 20.0183 58.38C20.1049 58.48 20.2416 58.57 20.4283 58.65C20.6216 58.7233 20.9083 58.8133 21.2883 58.92C21.8616 59.0733 22.2883 59.27 22.5683 59.51C22.8549 59.7433 22.9983 60.0867 22.9983 60.54C22.9983 61.0667 22.7849 61.46 22.3583 61.72C21.9316 61.98 21.4083 62.11 20.7883 62.11C19.9616 62.11 19.2749 61.8733 18.7283 61.4L19.1983 60.85C19.4116 61.0233 19.6549 61.1633 19.9283 61.27C20.2016 61.37 20.4883 61.42 20.7883 61.42ZM29.1744 61.73C28.9944 61.85 28.7744 61.9433 28.5144 62.01C28.261 62.0767 28.0077 62.11 27.7544 62.11C27.201 62.11 26.7677 61.9667 26.4544 61.68C26.141 61.3867 25.9844 61.0033 25.9844 60.53V57.39H24.7744V56.73H25.9844V55.54L26.8244 55.44V56.73H28.6544L28.5444 57.39H26.8244V60.52C26.8244 60.82 26.9044 61.0433 27.0644 61.19C27.2244 61.3367 27.481 61.41 27.8344 61.41C28.1944 61.41 28.531 61.3267 28.8444 61.16L29.1744 61.73ZM41.5166 56.97C41.3166 57.0367 41.0999 57.08 40.8666 57.1C40.6332 57.1133 40.3366 57.12 39.9766 57.12C40.5899 57.4 40.8966 57.8433 40.8966 58.45C40.8966 58.9833 40.7199 59.4167 40.3666 59.75C40.0132 60.0767 39.5299 60.24 38.9166 60.24C38.6032 60.24 38.3399 60.2033 38.1266 60.13C38.0466 60.19 37.9799 60.2667 37.9266 60.36C37.8799 60.4533 37.8566 60.5467 37.8566 60.64C37.8566 60.94 38.0899 61.09 38.5566 61.09H39.5066C39.8532 61.09 40.1666 61.1533 40.4466 61.28C40.7332 61.4 40.9566 61.57 41.1166 61.79C41.2832 62.01 41.3666 62.2533 41.3666 62.52C41.3666 63.0333 41.1466 63.4267 40.7066 63.7C40.2732 63.98 39.6566 64.12 38.8566 64.12C38.0432 64.12 37.4699 63.9933 37.1366 63.74C36.8032 63.4867 36.6366 63.0833 36.6366 62.53H37.3966C37.3966 62.75 37.4366 62.9233 37.5166 63.05C37.6032 63.1833 37.7499 63.28 37.9566 63.34C38.1699 63.4067 38.4699 63.44 38.8566 63.44C39.4232 63.44 39.8399 63.3667 40.1066 63.22C40.3799 63.0733 40.5166 62.8567 40.5166 62.57C40.5166 62.33 40.4066 62.1433 40.1866 62.01C39.9666 61.8833 39.6832 61.82 39.3366 61.82H38.3966C37.9632 61.82 37.6332 61.7267 37.4066 61.54C37.1799 61.3467 37.0666 61.1067 37.0666 60.82C37.0666 60.6533 37.1166 60.49 37.2166 60.33C37.3166 60.1633 37.4599 60.02 37.6466 59.9C37.3466 59.7467 37.1232 59.5533 36.9766 59.32C36.8366 59.08 36.7666 58.79 36.7666 58.45C36.7666 58.0967 36.8532 57.7833 37.0266 57.51C37.2066 57.23 37.4532 57.0133 37.7666 56.86C38.0866 56.7 38.4532 56.62 38.8666 56.62C39.4666 56.62 39.9232 56.5867 40.2366 56.52C40.5499 56.4533 40.8932 56.34 41.2666 56.18L41.5166 56.97ZM38.8566 57.24C38.4499 57.24 38.1432 57.35 37.9366 57.57C37.7299 57.7833 37.6266 58.0767 37.6266 58.45C37.6266 58.8233 37.7299 59.1233 37.9366 59.35C38.1499 59.57 38.4632 59.68 38.8766 59.68C39.2499 59.68 39.5332 59.5733 39.7266 59.36C39.9266 59.14 40.0266 58.8333 40.0266 58.44C40.0266 57.64 39.6366 57.24 38.8566 57.24ZM46.5327 56.62C46.746 56.62 46.9927 56.6567 47.2727 56.73L47.1527 58.52H46.4727V57.39H46.4227C45.6093 57.39 45.0327 57.97 44.6927 59.13V61.35H45.7627V62H43.0227V61.35H43.8527V57.38H43.0227V56.73H44.4827L44.6427 57.98C44.856 57.5267 45.1093 57.1867 45.4027 56.96C45.7027 56.7333 46.0793 56.62 46.5327 56.62ZM52.7488 60.85C52.7488 61.0567 52.7821 61.21 52.8488 61.31C52.9154 61.4033 53.0254 61.4733 53.1788 61.52L52.9688 62.12C52.4554 62.0533 52.1354 61.8033 52.0088 61.37C51.8221 61.61 51.5854 61.7933 51.2988 61.92C51.0188 62.0467 50.7054 62.11 50.3588 62.11C49.8321 62.11 49.4154 61.9633 49.1088 61.67C48.8088 61.3767 48.6588 60.9833 48.6588 60.49C48.6588 59.95 48.8688 59.5333 49.2887 59.24C49.7154 58.9467 50.3254 58.8 51.1188 58.8H51.8988V58.37C51.8988 57.9967 51.7921 57.73 51.5788 57.57C51.3654 57.4033 51.0554 57.32 50.6488 57.32C50.2488 57.32 49.7921 57.41 49.2788 57.59L49.0488 56.95C49.6688 56.73 50.2454 56.62 50.7788 56.62C51.4188 56.62 51.9054 56.77 52.2388 57.07C52.5788 57.37 52.7488 57.7867 52.7488 58.32V60.85ZM50.5688 61.48C50.8288 61.48 51.0754 61.4133 51.3088 61.28C51.5488 61.1467 51.7454 60.9633 51.8988 60.73V59.38H51.1388C50.5788 59.38 50.1754 59.4733 49.9288 59.66C49.6821 59.8467 49.5588 60.12 49.5588 60.48C49.5588 61.1467 49.8954 61.48 50.5688 61.48ZM57.3248 56.62C58.5982 56.62 59.2348 57.5333 59.2348 59.36C59.2348 60.1933 59.0615 60.86 58.7148 61.36C58.3682 61.86 57.8648 62.11 57.2048 62.11C56.6315 62.11 56.1648 61.91 55.8048 61.51V64.02L54.9648 64.12V56.73H55.6848L55.7548 57.47C55.9482 57.1967 56.1782 56.9867 56.4448 56.84C56.7182 56.6933 57.0115 56.62 57.3248 56.62ZM57.1248 57.3C56.8582 57.3 56.6115 57.38 56.3848 57.54C56.1648 57.7 55.9715 57.9 55.8048 58.14V60.75C55.9448 60.9567 56.1182 61.12 56.3248 61.24C56.5382 61.3533 56.7682 61.41 57.0148 61.41C57.4548 61.41 57.7815 61.2433 57.9948 60.91C58.2148 60.57 58.3248 60.0533 58.3248 59.36C58.3248 58.6667 58.2282 58.15 58.0348 57.81C57.8415 57.47 57.5382 57.3 57.1248 57.3ZM61.8009 57.46C62.0076 57.1933 62.2609 56.9867 62.5609 56.84C62.8609 56.6933 63.1709 56.62 63.4909 56.62C64.4776 56.62 64.9709 57.14 64.9709 58.18V62H64.1309V58.19C64.1309 57.8767 64.0576 57.65 63.9109 57.51C63.7643 57.3633 63.5309 57.29 63.2109 57.29C62.9376 57.29 62.6743 57.3767 62.4209 57.55C62.1676 57.7233 61.9609 57.9267 61.8009 58.16V62H60.9609V54.62L61.8009 54.53V57.46ZM76.8931 58.3H73.0131V57.58H76.8931V58.3ZM76.8931 60.2H73.0131V59.48H76.8931V60.2Z" fill="#AE3EC8"/>
<path d="M3.39 150.39C3.85 150.39 4.30667 150.237 4.76 149.93L5.16 150.48C4.94 150.673 4.66667 150.827 4.34 150.94C4.01333 151.053 3.69667 151.11 3.39 151.11C2.61 151.11 2 150.867 1.56 150.38C1.12667 149.887 0.91 149.223 0.91 148.39C0.91 147.863 1.00667 147.39 1.2 146.97C1.4 146.55 1.68667 146.22 2.06 145.98C2.43333 145.74 2.87667 145.62 3.39 145.62C4.07 145.62 4.65667 145.827 5.15 146.24L4.74 146.79C4.28 146.483 3.82667 146.33 3.38 146.33C2.90667 146.33 2.52667 146.507 2.24 146.86C1.96 147.207 1.82 147.717 1.82 148.39C1.82 149.063 1.96 149.567 2.24 149.9C2.52667 150.227 2.91 150.39 3.39 150.39ZM9.00609 145.62C9.73276 145.62 10.2894 145.867 10.6761 146.36C11.0694 146.847 11.2661 147.513 11.2661 148.36C11.2661 149.187 11.0661 149.853 10.6661 150.36C10.2728 150.86 9.71609 151.11 8.99609 151.11C8.26943 151.11 7.70943 150.867 7.31609 150.38C6.92276 149.887 6.72609 149.217 6.72609 148.37C6.72609 147.537 6.92276 146.87 7.31609 146.37C7.71609 145.87 8.27943 145.62 9.00609 145.62ZM9.00609 146.31C8.54609 146.31 8.20276 146.48 7.97609 146.82C7.74943 147.16 7.63609 147.677 7.63609 148.37C7.63609 149.063 7.74609 149.58 7.96609 149.92C8.19276 150.253 8.53609 150.42 8.99609 150.42C9.45609 150.42 9.79609 150.253 10.0161 149.92C10.2428 149.58 10.3561 149.06 10.3561 148.36C10.3561 147.667 10.2428 147.153 10.0161 146.82C9.79609 146.48 9.45943 146.31 9.00609 146.31ZM12.9922 145.73H13.7122L13.7822 146.47C13.9889 146.203 14.2489 145.997 14.5622 145.85C14.8822 145.697 15.2022 145.62 15.5222 145.62C16.5089 145.62 17.0022 146.14 17.0022 147.18V151H16.1622V147.8C16.1622 147.407 16.1389 147.107 16.0922 146.9C16.0522 146.693 15.9689 146.54 15.8422 146.44C15.7155 146.34 15.5222 146.29 15.2622 146.29C14.9755 146.29 14.7055 146.377 14.4522 146.55C14.1989 146.723 13.9922 146.93 13.8322 147.17V151H12.9922V145.73ZM20.7883 150.42C21.1883 150.42 21.5049 150.343 21.7383 150.19C21.9716 150.037 22.0883 149.833 22.0883 149.58C22.0883 149.407 22.0583 149.267 21.9983 149.16C21.9383 149.047 21.8183 148.947 21.6383 148.86C21.4583 148.767 21.1849 148.673 20.8183 148.58C20.2049 148.427 19.7516 148.243 19.4583 148.03C19.1649 147.81 19.0183 147.487 19.0183 147.06C19.0183 146.62 19.2016 146.27 19.5683 146.01C19.9349 145.75 20.4183 145.62 21.0183 145.62C21.7516 145.62 22.3916 145.813 22.9383 146.2L22.5583 146.78C22.3383 146.627 22.1083 146.51 21.8683 146.43C21.6283 146.343 21.3516 146.3 21.0383 146.3C20.2783 146.3 19.8983 146.53 19.8983 146.99C19.8983 147.15 19.9383 147.28 20.0183 147.38C20.1049 147.48 20.2416 147.57 20.4283 147.65C20.6216 147.723 20.9083 147.813 21.2883 147.92C21.8616 148.073 22.2883 148.27 22.5683 148.51C22.8549 148.743 22.9983 149.087 22.9983 149.54C22.9983 150.067 22.7849 150.46 22.3583 150.72C21.9316 150.98 21.4083 151.11 20.7883 151.11C19.9616 151.11 19.2749 150.873 18.7283 150.4L19.1983 149.85C19.4116 150.023 19.6549 150.163 19.9283 150.27C20.2016 150.37 20.4883 150.42 20.7883 150.42ZM29.1744 150.73C28.9944 150.85 28.7744 150.943 28.5144 151.01C28.261 151.077 28.0077 151.11 27.7544 151.11C27.201 151.11 26.7677 150.967 26.4544 150.68C26.141 150.387 25.9844 150.003 25.9844 149.53V146.39H24.7744V145.73H25.9844V144.54L26.8244 144.44V145.73H28.6544L28.5444 146.39H26.8244V149.52C26.8244 149.82 26.9044 150.043 27.0644 150.19C27.2244 150.337 27.481 150.41 27.8344 150.41C28.1944 150.41 28.531 150.327 28.8444 150.16L29.1744 150.73ZM36.9766 145.73H37.6966L37.7666 146.47C37.9732 146.203 38.2332 145.997 38.5466 145.85C38.8666 145.697 39.1866 145.62 39.5066 145.62C40.4932 145.62 40.9866 146.14 40.9866 147.18V151H40.1466V147.8C40.1466 147.407 40.1232 147.107 40.0766 146.9C40.0366 146.693 39.9532 146.54 39.8266 146.44C39.6999 146.34 39.5066 146.29 39.2466 146.29C38.9599 146.29 38.6899 146.377 38.4366 146.55C38.1832 146.723 37.9766 146.93 37.8166 147.17V151H36.9766V145.73ZM44.9827 145.62C45.7093 145.62 46.266 145.867 46.6527 146.36C47.046 146.847 47.2427 147.513 47.2427 148.36C47.2427 149.187 47.0427 149.853 46.6427 150.36C46.2493 150.86 45.6927 151.11 44.9727 151.11C44.246 151.11 43.686 150.867 43.2927 150.38C42.8993 149.887 42.7027 149.217 42.7027 148.37C42.7027 147.537 42.8993 146.87 43.2927 146.37C43.6927 145.87 44.256 145.62 44.9827 145.62ZM44.9827 146.31C44.5227 146.31 44.1793 146.48 43.9527 146.82C43.726 147.16 43.6127 147.677 43.6127 148.37C43.6127 149.063 43.7227 149.58 43.9427 149.92C44.1693 150.253 44.5127 150.42 44.9727 150.42C45.4327 150.42 45.7727 150.253 45.9927 149.92C46.2193 149.58 46.3327 149.06 46.3327 148.36C46.3327 147.667 46.2193 147.153 45.9927 146.82C45.7727 146.48 45.436 146.31 44.9827 146.31ZM52.9688 143.61V151H52.2288L52.1488 150.31C51.9554 150.577 51.7321 150.777 51.4788 150.91C51.2254 151.043 50.9521 151.11 50.6588 151.11C49.9921 151.11 49.4888 150.867 49.1488 150.38C48.8154 149.893 48.6488 149.223 48.6488 148.37C48.6488 147.843 48.7321 147.373 48.8988 146.96C49.0654 146.54 49.3021 146.213 49.6088 145.98C49.9221 145.74 50.2888 145.62 50.7088 145.62C51.2888 145.62 51.7621 145.83 52.1288 146.25V143.51L52.9688 143.61ZM50.9288 146.3C50.4888 146.3 50.1488 146.473 49.9088 146.82C49.6754 147.167 49.5588 147.683 49.5588 148.37C49.5588 149.05 49.6654 149.567 49.8788 149.92C50.0988 150.267 50.4154 150.44 50.8288 150.44C51.3288 150.44 51.7621 150.16 52.1288 149.6V146.98C51.9821 146.76 51.8054 146.593 51.5988 146.48C51.3921 146.36 51.1688 146.3 50.9288 146.3ZM55.6348 148.66C55.6548 149.24 55.8048 149.677 56.0848 149.97C56.3715 150.263 56.7315 150.41 57.1648 150.41C57.4248 150.41 57.6615 150.373 57.8748 150.3C58.0948 150.22 58.3282 150.1 58.5748 149.94L58.9648 150.5C58.7182 150.693 58.4348 150.843 58.1148 150.95C57.8015 151.057 57.4848 151.11 57.1648 151.11C56.4048 151.11 55.8115 150.863 55.3848 150.37C54.9648 149.87 54.7548 149.203 54.7548 148.37C54.7548 147.843 54.8482 147.373 55.0348 146.96C55.2215 146.54 55.4882 146.213 55.8348 145.98C56.1815 145.74 56.5848 145.62 57.0448 145.62C57.7115 145.62 58.2348 145.853 58.6148 146.32C59.0015 146.78 59.1948 147.41 59.1948 148.21C59.1948 148.363 59.1882 148.513 59.1748 148.66H55.6348ZM57.0548 146.31C56.6482 146.31 56.3182 146.457 56.0648 146.75C55.8115 147.037 55.6682 147.46 55.6348 148.02H58.3748C58.3682 147.467 58.2482 147.043 58.0148 146.75C57.7815 146.457 57.4615 146.31 57.0548 146.31ZM64.8409 144.11H65.7109L63.4109 151H62.5109L60.2109 144.11H61.1409L62.9809 150.01L64.8409 144.11ZM70.737 149.85C70.737 150.057 70.7704 150.21 70.837 150.31C70.9037 150.403 71.0137 150.473 71.167 150.52L70.957 151.12C70.4437 151.053 70.1237 150.803 69.997 150.37C69.8104 150.61 69.5737 150.793 69.287 150.92C69.007 151.047 68.6937 151.11 68.347 151.11C67.8204 151.11 67.4037 150.963 67.097 150.67C66.797 150.377 66.647 149.983 66.647 149.49C66.647 148.95 66.857 148.533 67.277 148.24C67.7037 147.947 68.3137 147.8 69.107 147.8H69.887V147.37C69.887 146.997 69.7804 146.73 69.567 146.57C69.3537 146.403 69.0437 146.32 68.637 146.32C68.237 146.32 67.7804 146.41 67.267 146.59L67.037 145.95C67.657 145.73 68.2337 145.62 68.767 145.62C69.407 145.62 69.8937 145.77 70.227 146.07C70.567 146.37 70.737 146.787 70.737 147.32V149.85ZM68.557 150.48C68.817 150.48 69.0637 150.413 69.297 150.28C69.537 150.147 69.7337 149.963 69.887 149.73V148.38H69.127C68.567 148.38 68.1637 148.473 67.917 148.66C67.6704 148.847 67.547 149.12 67.547 149.48C67.547 150.147 67.8837 150.48 68.557 150.48ZM75.0131 149.7C75.0131 150.173 75.3031 150.41 75.8831 150.41C76.1565 150.41 76.4498 150.35 76.7631 150.23L76.9831 150.84C76.6498 151.02 76.2331 151.11 75.7331 151.11C75.2598 151.11 74.8798 150.98 74.5931 150.72C74.3131 150.46 74.1731 150.107 74.1731 149.66V144.28H72.5531V143.61H75.0131V149.7ZM79.7892 149.47C79.7892 149.81 79.8592 150.06 79.9992 150.22C80.1459 150.373 80.3726 150.45 80.6792 150.45C80.9592 150.45 81.2292 150.37 81.4892 150.21C81.7492 150.05 81.9559 149.85 82.1092 149.61V145.73H82.9492V151H82.2292L82.1592 150.29C81.9526 150.55 81.6959 150.753 81.3892 150.9C81.0892 151.04 80.7826 151.11 80.4692 151.11C79.9692 151.11 79.5892 150.977 79.3292 150.71C79.0759 150.443 78.9492 150.06 78.9492 149.56V145.73H79.7892V149.47ZM85.6153 148.66C85.6353 149.24 85.7853 149.677 86.0653 149.97C86.352 150.263 86.712 150.41 87.1453 150.41C87.4053 150.41 87.642 150.373 87.8553 150.3C88.0753 150.22 88.3086 150.1 88.5553 149.94L88.9453 150.5C88.6986 150.693 88.4153 150.843 88.0953 150.95C87.782 151.057 87.4653 151.11 87.1453 151.11C86.3853 151.11 85.792 150.863 85.3653 150.37C84.9453 149.87 84.7353 149.203 84.7353 148.37C84.7353 147.843 84.8286 147.373 85.0153 146.96C85.202 146.54 85.4686 146.213 85.8153 145.98C86.162 145.74 86.5653 145.62 87.0253 145.62C87.692 145.62 88.2153 145.853 88.5953 146.32C88.982 146.78 89.1753 147.41 89.1753 148.21C89.1753 148.363 89.1686 148.513 89.1553 148.66H85.6153ZM87.0353 146.31C86.6286 146.31 86.2986 146.457 86.0453 146.75C85.792 147.037 85.6486 147.46 85.6153 148.02H88.3553C88.3486 147.467 88.2286 147.043 87.9953 146.75C87.762 146.457 87.442 146.31 87.0353 146.31ZM91.5514 149.24L91.0014 151H90.1414L92.3914 144.11H93.4914L95.7314 151H94.8314L94.2814 149.24H91.5514ZM94.0514 148.52L92.9214 144.85L91.7814 148.52H94.0514ZM100.048 143.51C100.548 143.51 101.024 143.603 101.478 143.79L101.208 144.42C100.874 144.273 100.498 144.2 100.078 144.2C99.3442 144.2 98.9775 144.49 98.9775 145.07V146.14H100.758L100.668 146.81H98.9775V151H98.1275V146.81H96.8775V146.14H98.1275V145.09C98.1275 144.617 98.3075 144.237 98.6675 143.95C99.0342 143.657 99.4942 143.51 100.048 143.51ZM107.124 150.73C106.944 150.85 106.724 150.943 106.464 151.01C106.21 151.077 105.957 151.11 105.704 151.11C105.15 151.11 104.717 150.967 104.404 150.68C104.09 150.387 103.934 150.003 103.934 149.53V146.39H102.724V145.73H103.934V144.54L104.774 144.44V145.73H106.604L106.494 146.39H104.774V149.52C104.774 149.82 104.854 150.043 105.014 150.19C105.174 150.337 105.43 150.41 105.784 150.41C106.144 150.41 106.48 150.327 106.794 150.16L107.124 150.73ZM109.6 148.66C109.62 149.24 109.77 149.677 110.05 149.97C110.336 150.263 110.696 150.41 111.13 150.41C111.39 150.41 111.626 150.373 111.84 150.3C112.06 150.22 112.293 150.1 112.54 149.94L112.93 150.5C112.683 150.693 112.4 150.843 112.08 150.95C111.766 151.057 111.45 151.11 111.13 151.11C110.37 151.11 109.776 150.863 109.35 150.37C108.93 149.87 108.72 149.203 108.72 148.37C108.72 147.843 108.813 147.373 109 146.96C109.186 146.54 109.453 146.213 109.8 145.98C110.146 145.74 110.55 145.62 111.01 145.62C111.676 145.62 112.2 145.853 112.58 146.32C112.966 146.78 113.16 147.41 113.16 148.21C113.16 148.363 113.153 148.513 113.14 148.66H109.6ZM111.02 146.31C110.613 146.31 110.283 146.457 110.03 146.75C109.776 147.037 109.633 147.46 109.6 148.02H112.34C112.333 147.467 112.213 147.043 111.98 146.75C111.746 146.457 111.426 146.31 111.02 146.31ZM118.486 145.62C118.699 145.62 118.946 145.657 119.226 145.73L119.106 147.52H118.426V146.39H118.376C117.562 146.39 116.986 146.97 116.646 148.13V150.35H117.716V151H114.976V150.35H115.806V146.38H114.976V145.73H116.436L116.596 146.98C116.809 146.527 117.062 146.187 117.356 145.96C117.656 145.733 118.032 145.62 118.486 145.62ZM122.922 144C123.655 144 124.212 144.307 124.592 144.92C124.979 145.527 125.172 146.403 125.172 147.55C125.172 148.703 124.979 149.587 124.592 150.2C124.212 150.807 123.655 151.11 122.922 151.11C122.189 151.11 121.629 150.807 121.242 150.2C120.862 149.587 120.672 148.703 120.672 147.55C120.672 146.403 120.862 145.527 121.242 144.92C121.629 144.307 122.189 144 122.922 144ZM122.922 144.68C122.009 144.68 121.552 145.637 121.552 147.55C121.552 149.47 122.009 150.43 122.922 150.43C123.835 150.43 124.292 149.47 124.292 147.55C124.292 145.637 123.835 144.68 122.922 144.68ZM122.922 146.9C123.109 146.9 123.265 146.963 123.392 147.09C123.519 147.217 123.582 147.37 123.582 147.55C123.582 147.737 123.519 147.893 123.392 148.02C123.265 148.147 123.109 148.21 122.922 148.21C122.735 148.21 122.579 148.147 122.452 148.02C122.332 147.893 122.272 147.737 122.272 147.55C122.272 147.37 122.332 147.217 122.452 147.09C122.579 146.963 122.735 146.9 122.922 146.9ZM127.438 144.95C127.438 144.997 127.458 145.287 127.498 145.82C127.538 146.353 127.558 146.93 127.558 147.55V151H126.748V144.11H127.928L130.398 150.19L130.378 149.83C130.311 149.01 130.278 148.253 130.278 147.56V144.11H131.088V151H129.868L127.438 144.95ZM134.924 145.62C135.651 145.62 136.207 145.867 136.594 146.36C136.987 146.847 137.184 147.513 137.184 148.36C137.184 149.187 136.984 149.853 136.584 150.36C136.191 150.86 135.634 151.11 134.914 151.11C134.187 151.11 133.627 150.867 133.234 150.38C132.841 149.887 132.644 149.217 132.644 148.37C132.644 147.537 132.841 146.87 133.234 146.37C133.634 145.87 134.197 145.62 134.924 145.62ZM134.924 146.31C134.464 146.31 134.121 146.48 133.894 146.82C133.667 147.16 133.554 147.677 133.554 148.37C133.554 149.063 133.664 149.58 133.884 149.92C134.111 150.253 134.454 150.42 134.914 150.42C135.374 150.42 135.714 150.253 135.934 149.92C136.161 149.58 136.274 149.06 136.274 148.36C136.274 147.667 136.161 147.153 135.934 146.82C135.714 146.48 135.377 146.31 134.924 146.31ZM142.91 143.61V151H142.17L142.09 150.31C141.897 150.577 141.673 150.777 141.42 150.91C141.167 151.043 140.893 151.11 140.6 151.11C139.933 151.11 139.43 150.867 139.09 150.38C138.757 149.893 138.59 149.223 138.59 148.37C138.59 147.843 138.673 147.373 138.84 146.96C139.007 146.54 139.243 146.213 139.55 145.98C139.863 145.74 140.23 145.62 140.65 145.62C141.23 145.62 141.703 145.83 142.07 146.25V143.51L142.91 143.61ZM140.87 146.3C140.43 146.3 140.09 146.473 139.85 146.82C139.617 147.167 139.5 147.683 139.5 148.37C139.5 149.05 139.607 149.567 139.82 149.92C140.04 150.267 140.357 150.44 140.77 150.44C141.27 150.44 141.703 150.16 142.07 149.6V146.98C141.923 146.76 141.747 146.593 141.54 146.48C141.333 146.36 141.11 146.3 140.87 146.3ZM145.576 148.66C145.596 149.24 145.746 149.677 146.026 149.97C146.313 150.263 146.673 150.41 147.106 150.41C147.366 150.41 147.603 150.373 147.816 150.3C148.036 150.22 148.27 150.1 148.516 149.94L148.906 150.5C148.66 150.693 148.376 150.843 148.056 150.95C147.743 151.057 147.426 151.11 147.106 151.11C146.346 151.11 145.753 150.863 145.326 150.37C144.906 149.87 144.696 149.203 144.696 148.37C144.696 147.843 144.79 147.373 144.976 146.96C145.163 146.54 145.43 146.213 145.776 145.98C146.123 145.74 146.526 145.62 146.986 145.62C147.653 145.62 148.176 145.853 148.556 146.32C148.943 146.78 149.136 147.41 149.136 148.21C149.136 148.363 149.13 148.513 149.116 148.66H145.576ZM146.996 146.31C146.59 146.31 146.26 146.457 146.006 146.75C145.753 147.037 145.61 147.46 145.576 148.02H148.316C148.31 147.467 148.19 147.043 147.956 146.75C147.723 146.457 147.403 146.31 146.996 146.31ZM160.838 147.3H156.958V146.58H160.838V147.3ZM160.838 149.2H156.958V148.48H160.838V149.2ZM170.021 147.5C170.021 148.18 170.097 148.773 170.251 149.28C170.404 149.78 170.631 150.237 170.931 150.65C171.237 151.057 171.644 151.487 172.151 151.94L171.721 152.4C171.134 151.927 170.654 151.46 170.281 151C169.914 150.54 169.631 150.027 169.431 149.46C169.237 148.893 169.141 148.24 169.141 147.5C169.141 146.76 169.237 146.107 169.431 145.54C169.631 144.973 169.914 144.46 170.281 144C170.654 143.54 171.134 143.073 171.721 142.6L172.151 143.06C171.637 143.513 171.227 143.943 170.921 144.35C170.621 144.757 170.394 145.213 170.241 145.72C170.094 146.22 170.021 146.813 170.021 147.5Z" fill="#AE3EC8"/>
<path d="M279.87 147.5C279.87 146.813 279.793 146.22 279.64 145.72C279.493 145.213 279.267 144.757 278.96 144.35C278.66 143.943 278.253 143.513 277.74 143.06L278.17 142.6C278.757 143.073 279.233 143.54 279.6 144C279.973 144.46 280.257 144.973 280.45 145.54C280.65 146.107 280.75 146.76 280.75 147.5C280.75 148.24 280.65 148.893 280.45 149.46C280.257 150.027 279.973 150.54 279.6 151C279.233 151.46 278.757 151.927 278.17 152.4L277.74 151.94C278.247 151.487 278.65 151.057 278.95 150.65C279.257 150.237 279.487 149.78 279.64 149.28C279.793 148.773 279.87 148.18 279.87 147.5ZM292.932 147.3H289.052V146.58H292.932V147.3ZM292.932 149.2H289.052V148.48H292.932V149.2ZM299.118 147.44V148.3L295.318 150.67L294.868 150.05L298.398 147.87L294.868 145.7L295.278 145.06L299.118 147.44ZM306.54 151L308.48 148.22L306.77 145.73H307.77L308.99 147.69L310.22 145.73H311.19L309.48 148.18L311.42 151H310.4L308.95 148.74L307.5 151H306.54ZM314.967 145.89C315.2 145.89 315.393 145.97 315.547 146.13C315.7 146.283 315.777 146.47 315.777 146.69C315.777 146.917 315.7 147.11 315.547 147.27C315.393 147.43 315.2 147.51 314.967 147.51C314.74 147.51 314.55 147.43 314.397 147.27C314.243 147.11 314.167 146.917 314.167 146.69C314.167 146.47 314.243 146.283 314.397 146.13C314.55 145.97 314.74 145.89 314.967 145.89ZM314.967 149.34C315.193 149.34 315.383 149.42 315.537 149.58C315.697 149.733 315.777 149.923 315.777 150.15C315.777 150.39 315.713 150.653 315.587 150.94L314.767 152.8H314.007L314.487 150.82C314.387 150.747 314.307 150.65 314.247 150.53C314.193 150.41 314.167 150.283 314.167 150.15C314.167 149.923 314.243 149.733 314.397 149.58C314.55 149.42 314.74 149.34 314.967 149.34Z" fill="#AE3EC8"/>
<path d="M207.99 56.89C208.223 56.89 208.417 56.97 208.57 57.13C208.723 57.2833 208.8 57.47 208.8 57.69C208.8 57.9167 208.723 58.11 208.57 58.27C208.417 58.43 208.223 58.51 207.99 58.51C207.763 58.51 207.573 58.43 207.42 58.27C207.267 58.11 207.19 57.9167 207.19 57.69C207.19 57.47 207.267 57.2833 207.42 57.13C207.573 56.97 207.763 56.89 207.99 56.89ZM207.99 60.34C208.217 60.34 208.407 60.42 208.56 60.58C208.72 60.7333 208.8 60.9233 208.8 61.15C208.8 61.39 208.737 61.6533 208.61 61.94L207.79 63.8H207.03L207.51 61.82C207.41 61.7467 207.33 61.65 207.27 61.53C207.217 61.41 207.19 61.2833 207.19 61.15C207.19 60.9233 207.267 60.7333 207.42 60.58C207.573 60.42 207.763 60.34 207.99 60.34Z" fill="#AE3EC8"/>
<rect x="90.5" y="0.5" width="111" height="109" rx="1.5" fill="white" stroke="#AE3EC8"/>
<path d="M90.5 112V106" stroke="#AE3EC8"/>
<rect x="90.5" y="109.5" width="20" height="6" rx="1.5" fill="#AE3EC8" stroke="#AE3EC8"/>
<path d="M95.89 111.5C95.7167 111.57 95.4617 111.605 95.125 111.605C95.2983 111.682 95.4267 111.773 95.51 111.88C95.5967 111.987 95.64 112.123 95.64 112.29C95.64 112.46 95.5933 112.613 95.5 112.75C95.4067 112.883 95.275 112.988 95.105 113.065C94.935 113.142 94.7383 113.18 94.515 113.18C94.405 113.18 94.3017 113.17 94.205 113.15C94.1783 113.163 94.1567 113.185 94.14 113.215C94.1267 113.242 94.12 113.27 94.12 113.3C94.12 113.35 94.1383 113.39 94.175 113.42C94.215 113.447 94.2933 113.46 94.41 113.46H94.85C95.05 113.46 95.2267 113.493 95.38 113.56C95.5333 113.627 95.6517 113.718 95.735 113.835C95.8183 113.952 95.86 114.083 95.86 114.23C95.86 114.507 95.7383 114.722 95.495 114.875C95.255 115.032 94.9033 115.11 94.44 115.11C94.11 115.11 93.85 115.075 93.66 115.005C93.4733 114.938 93.3417 114.843 93.265 114.72C93.1917 114.597 93.155 114.442 93.155 114.255H93.855C93.855 114.338 93.87 114.403 93.9 114.45C93.9333 114.497 93.9933 114.532 94.08 114.555C94.1667 114.578 94.2933 114.59 94.46 114.59C94.6933 114.59 94.8533 114.563 94.94 114.51C95.03 114.457 95.075 114.382 95.075 114.285C95.075 114.205 95.0417 114.14 94.975 114.09C94.9117 114.043 94.8167 114.02 94.69 114.02H94.27C93.9967 114.02 93.7917 113.972 93.655 113.875C93.5183 113.775 93.45 113.648 93.45 113.495C93.45 113.395 93.475 113.302 93.525 113.215C93.5783 113.125 93.6517 113.05 93.745 112.99C93.5783 112.9 93.4583 112.795 93.385 112.675C93.3117 112.552 93.275 112.403 93.275 112.23C93.275 112.033 93.325 111.862 93.425 111.715C93.525 111.568 93.665 111.457 93.845 111.38C94.025 111.3 94.23 111.26 94.46 111.26C94.7267 111.267 94.9533 111.242 95.14 111.185C95.3267 111.125 95.5167 111.037 95.71 110.92L95.89 111.5ZM94.48 111.775C94.3533 111.775 94.2533 111.815 94.18 111.895C94.11 111.975 94.075 112.083 94.075 112.22C94.075 112.363 94.1117 112.475 94.185 112.555C94.2583 112.635 94.3567 112.675 94.48 112.675C94.61 112.675 94.71 112.637 94.78 112.56C94.85 112.48 94.885 112.363 94.885 112.21C94.885 111.92 94.75 111.775 94.48 111.775ZM98.373 111.265C98.533 111.265 98.6797 111.292 98.813 111.345L98.668 112.455H98.168V111.965C98.0214 111.992 97.8914 112.072 97.778 112.205C97.6647 112.338 97.5764 112.507 97.513 112.71V113.47H98.038V114H96.373V113.47H96.723V111.87H96.373V111.345H97.328L97.468 111.94C97.5647 111.713 97.6864 111.545 97.833 111.435C97.9797 111.322 98.1597 111.265 98.373 111.265ZM101.581 113.235C101.581 113.332 101.594 113.403 101.621 113.45C101.648 113.497 101.693 113.532 101.756 113.555L101.591 114.075C101.431 114.058 101.298 114.023 101.191 113.97C101.084 113.913 101.001 113.832 100.941 113.725C100.841 113.842 100.714 113.932 100.561 113.995C100.408 114.055 100.244 114.085 100.071 114.085C99.7978 114.085 99.5794 114.008 99.4161 113.855C99.2528 113.698 99.1711 113.497 99.1711 113.25C99.1711 112.963 99.2844 112.742 99.5111 112.585C99.7378 112.425 100.056 112.345 100.466 112.345H100.821V112.25C100.821 111.977 100.646 111.84 100.296 111.84C100.206 111.84 100.093 111.853 99.9561 111.88C99.8228 111.903 99.6928 111.937 99.5661 111.98L99.3861 111.455C99.5561 111.392 99.7328 111.343 99.9161 111.31C100.103 111.273 100.271 111.255 100.421 111.255C101.194 111.255 101.581 111.568 101.581 112.195V113.235ZM100.341 113.52C100.431 113.52 100.521 113.495 100.611 113.445C100.704 113.392 100.774 113.32 100.821 113.23V112.795H100.626C100.199 112.795 99.9861 112.928 99.9861 113.195C99.9861 113.298 100.016 113.378 100.076 113.435C100.139 113.492 100.228 113.52 100.341 113.52ZM103.814 111.255C104.147 111.255 104.392 111.378 104.549 111.625C104.706 111.868 104.784 112.215 104.784 112.665C104.784 112.938 104.742 113.183 104.659 113.4C104.579 113.613 104.462 113.782 104.309 113.905C104.156 114.025 103.974 114.085 103.764 114.085C103.507 114.085 103.297 113.993 103.134 113.81V115.025L102.344 115.11V111.345H103.044L103.079 111.64C103.182 111.51 103.297 111.413 103.424 111.35C103.554 111.287 103.684 111.255 103.814 111.255ZM103.569 111.84C103.402 111.84 103.257 111.943 103.134 112.15V113.27C103.191 113.35 103.249 113.41 103.309 113.45C103.372 113.487 103.444 113.505 103.524 113.505C103.671 113.505 103.781 113.44 103.854 113.31C103.931 113.177 103.969 112.965 103.969 112.675C103.969 112.362 103.936 112.145 103.869 112.025C103.802 111.902 103.702 111.84 103.569 111.84ZM106.132 111.61C106.356 111.373 106.616 111.255 106.912 111.255C107.146 111.255 107.326 111.325 107.452 111.465C107.579 111.602 107.642 111.797 107.642 112.05V114H106.852V112.27C106.852 112.11 106.834 111.998 106.797 111.935C106.761 111.872 106.694 111.84 106.597 111.84C106.517 111.84 106.439 111.868 106.362 111.925C106.289 111.978 106.212 112.058 106.132 112.165V114H105.342V110.29L106.132 110.21V111.61Z" fill="white"/>
<rect x="178.5" y="75.5" width="12" height="18" rx="1.5" fill="white" fill-opacity="0.1" stroke="#AE3EC8"/>
<path d="M185.15 82.4492C185.297 82.5697 185.406 82.7129 185.478 82.8789C185.552 83.0417 185.59 83.2158 185.59 83.4014C185.59 83.5837 185.567 83.7448 185.521 83.8848C185.476 84.0247 185.408 84.1582 185.316 84.2852C185.16 84.5 184.892 84.7539 184.511 85.0469L182.787 86.3994L185.395 86.2529L185.683 85.75H186.088L185.844 87H181.747V86.585L183.412 85.2324L183.842 84.8955C184.184 84.6221 184.442 84.3405 184.618 84.0508C184.709 83.8978 184.755 83.7464 184.755 83.5967C184.755 83.307 184.665 83.0758 184.486 82.9033C184.311 82.7308 184.05 82.6445 183.705 82.6445C183.292 82.6445 182.89 82.8008 182.499 83.1133C182.401 83.1914 182.326 83.2614 182.274 83.3232L181.947 82.9863C182.217 82.6185 182.624 82.3451 183.168 82.166C183.376 82.0977 183.612 82.0635 183.876 82.0635C184.143 82.0635 184.385 82.0977 184.604 82.166C184.822 82.2344 185.004 82.3288 185.15 82.4492Z" fill="#AE3EC8"/>
<path d="M178.5 97V91" stroke="#AE3EC8"/>
<rect x="178" y="93" width="9" height="7" rx="2" fill="#AE3EC8"/>
<path d="M183.145 96.83H183.55V97.15H183.095L182.99 98H182.635L182.745 97.15H182.02L181.905 98H181.55L181.66 97.15H181.265V96.83H181.7L181.855 95.72H181.45V95.39H181.895L182.01 94.555H182.365L182.25 95.39H182.98L183.095 94.555H183.45L183.335 95.39H183.735V95.72H183.29L183.145 96.83ZM182.785 96.83L182.94 95.72H182.205L182.06 96.83H182.785Z" fill="white"/>
<rect x="101.5" y="75.5" width="12" height="18" rx="1.5" fill="white" fill-opacity="0.1" stroke="#AE3EC8"/>
<path d="M108.223 82.1709V82.5762L107.485 82.6885V86.4824L108.223 86.5947V87H105.947V86.5947L106.694 86.4824V82.6885L105.947 82.5762V82.1709H108.223Z" fill="#AE3EC8"/>
<path d="M101.5 97V91" stroke="#AE3EC8"/>
<rect x="101" y="93" width="9" height="7" rx="2" fill="#AE3EC8"/>
<path d="M106.145 96.83H106.55V97.15H106.095L105.99 98H105.635L105.745 97.15H105.02L104.905 98H104.55L104.66 97.15H104.265V96.83H104.7L104.855 95.72H104.45V95.39H104.895L105.01 94.555H105.365L105.25 95.39H105.98L106.095 94.555H106.45L106.335 95.39H106.735V95.72H106.29L106.145 96.83ZM105.785 96.83L105.94 95.72H105.205L105.06 96.83H105.785Z" fill="white"/>
<rect x="139.5" y="17.5" width="12" height="18" rx="1.5" fill="white" fill-opacity="0.1" stroke="#AE3EC8"/>
<path d="M143.509 28.4189C143.271 28.2008 143.082 27.9437 142.942 27.6475C142.802 27.3512 142.732 27.0534 142.732 26.7539C142.732 26.4544 142.768 26.1924 142.84 25.9678C142.911 25.7399 143.007 25.5299 143.128 25.3379C143.252 25.1426 143.396 24.9668 143.562 24.8105C143.732 24.651 143.911 24.5143 144.1 24.4004C144.497 24.1693 144.889 24.0537 145.276 24.0537C145.667 24.0537 146.022 24.109 146.341 24.2197C146.66 24.3304 146.938 24.4883 147.176 24.6934C147.68 25.1393 147.933 25.7301 147.933 26.4658C147.933 27.221 147.661 27.8558 147.117 28.3701C146.6 28.8649 146.012 29.1123 145.354 29.1123C144.629 29.1123 144.013 28.8812 143.509 28.4189ZM143.553 26.4756C143.553 26.7523 143.597 27.016 143.685 27.2666C143.772 27.514 143.896 27.7321 144.056 27.9209C144.404 28.3343 144.834 28.541 145.345 28.541C145.836 28.541 146.251 28.3848 146.59 28.0723C146.945 27.7402 147.122 27.3024 147.122 26.7588C147.122 26.1859 146.963 25.696 146.644 25.2891C146.299 24.8496 145.851 24.6299 145.301 24.6299C144.793 24.6299 144.376 24.7975 144.051 25.1328C143.719 25.4779 143.553 25.9255 143.553 26.4756Z" fill="#AE3EC8"/>
<path d="M139.5 39V33" stroke="#AE3EC8"/>
<rect x="139" y="35" width="9" height="7" rx="2" fill="#AE3EC8"/>
<path d="M144.145 38.83H144.55V39.15H144.095L143.99 40H143.635L143.745 39.15H143.02L142.905 40H142.55L142.66 39.15H142.265V38.83H142.7L142.855 37.72H142.45V37.39H142.895L143.01 36.555H143.365L143.25 37.39H143.98L144.095 36.555H144.45L144.335 37.39H144.735V37.72H144.29L144.145 38.83ZM143.785 38.83L143.94 37.72H143.205L143.06 38.83H143.785Z" fill="white"/>
<path d="M181.725 73.2159C181.844 73.368 182.064 73.3947 182.216 73.2755C182.368 73.1562 182.395 72.9362 182.275 72.7841L181.725 73.2159ZM153.042 35.6525C152.85 35.6293 152.676 35.766 152.653 35.9579L152.273 39.085C152.25 39.2769 152.387 39.4513 152.579 39.4746C152.771 39.4978 152.945 39.3611 152.968 39.1692L153.305 36.3896L156.085 36.7265C156.277 36.7498 156.451 36.6131 156.475 36.4212C156.498 36.2293 156.361 36.0548 156.169 36.0316L153.042 35.6525ZM182.275 72.7841L153.275 35.7841L152.725 36.2159L181.725 73.2159L182.275 72.7841Z" fill="#AE3EC8"/>
<path d="M108.042 73.3475C107.85 73.3707 107.676 73.234 107.653 73.0421L107.274 69.915C107.25 69.7231 107.387 69.5487 107.579 69.5254C107.771 69.5022 107.945 69.6389 107.968 69.8308L108.305 72.6104L111.085 72.2735C111.277 72.2502 111.451 72.3869 111.475 72.5788C111.498 72.7707 111.361 72.9452 111.169 72.9684L108.042 73.3475ZM136.725 35.7841C136.844 35.632 137.064 35.6053 137.216 35.7245C137.368 35.8438 137.395 36.0638 137.275 36.2159L136.725 35.7841ZM107.725 72.7841L136.725 35.7841L137.275 36.2159L108.275 73.2159L107.725 72.7841Z" fill="#AE3EC8"/>
<path d="M176.247 91.2475C176.384 91.1108 176.384 90.8892 176.247 90.7525L174.02 88.5251C173.883 88.3884 173.662 88.3884 173.525 88.5251C173.388 88.6618 173.388 88.8834 173.525 89.0201L175.505 91L173.525 92.9799C173.388 93.1166 173.388 93.3382 173.525 93.4749C173.662 93.6116 173.883 93.6116 174.02 93.4749L176.247 91.2475ZM116 90.65C115.807 90.65 115.65 90.8067 115.65 91C115.65 91.1933 115.807 91.35 116 91.35V90.65ZM176 90.65L116 90.65V91.35L176 91.35V90.65Z" fill="#AE3EC8"/>
<path d="M176.5 173V167" stroke="#AE3EC8"/>
<rect x="176.5" y="170.5" width="20" height="6" rx="1.5" fill="#AE3EC8" stroke="#AE3EC8"/>
<path d="M181.89 172.5C181.717 172.57 181.462 172.605 181.125 172.605C181.298 172.682 181.427 172.773 181.51 172.88C181.597 172.987 181.64 173.123 181.64 173.29C181.64 173.46 181.593 173.613 181.5 173.75C181.407 173.883 181.275 173.988 181.105 174.065C180.935 174.142 180.738 174.18 180.515 174.18C180.405 174.18 180.302 174.17 180.205 174.15C180.178 174.163 180.157 174.185 180.14 174.215C180.127 174.242 180.12 174.27 180.12 174.3C180.12 174.35 180.138 174.39 180.175 174.42C180.215 174.447 180.293 174.46 180.41 174.46H180.85C181.05 174.46 181.227 174.493 181.38 174.56C181.533 174.627 181.652 174.718 181.735 174.835C181.818 174.952 181.86 175.083 181.86 175.23C181.86 175.507 181.738 175.722 181.495 175.875C181.255 176.032 180.903 176.11 180.44 176.11C180.11 176.11 179.85 176.075 179.66 176.005C179.473 175.938 179.342 175.843 179.265 175.72C179.192 175.597 179.155 175.442 179.155 175.255H179.855C179.855 175.338 179.87 175.403 179.9 175.45C179.933 175.497 179.993 175.532 180.08 175.555C180.167 175.578 180.293 175.59 180.46 175.59C180.693 175.59 180.853 175.563 180.94 175.51C181.03 175.457 181.075 175.382 181.075 175.285C181.075 175.205 181.042 175.14 180.975 175.09C180.912 175.043 180.817 175.02 180.69 175.02H180.27C179.997 175.02 179.792 174.972 179.655 174.875C179.518 174.775 179.45 174.648 179.45 174.495C179.45 174.395 179.475 174.302 179.525 174.215C179.578 174.125 179.652 174.05 179.745 173.99C179.578 173.9 179.458 173.795 179.385 173.675C179.312 173.552 179.275 173.403 179.275 173.23C179.275 173.033 179.325 172.862 179.425 172.715C179.525 172.568 179.665 172.457 179.845 172.38C180.025 172.3 180.23 172.26 180.46 172.26C180.727 172.267 180.953 172.242 181.14 172.185C181.327 172.125 181.517 172.037 181.71 171.92L181.89 172.5ZM180.48 172.775C180.353 172.775 180.253 172.815 180.18 172.895C180.11 172.975 180.075 173.083 180.075 173.22C180.075 173.363 180.112 173.475 180.185 173.555C180.258 173.635 180.357 173.675 180.48 173.675C180.61 173.675 180.71 173.637 180.78 173.56C180.85 173.48 180.885 173.363 180.885 173.21C180.885 172.92 180.75 172.775 180.48 172.775ZM184.373 172.265C184.533 172.265 184.68 172.292 184.813 172.345L184.668 173.455H184.168V172.965C184.021 172.992 183.891 173.072 183.778 173.205C183.665 173.338 183.576 173.507 183.513 173.71V174.47H184.038V175H182.373V174.47H182.723V172.87H182.373V172.345H183.328L183.468 172.94C183.565 172.713 183.686 172.545 183.833 172.435C183.98 172.322 184.16 172.265 184.373 172.265ZM187.581 174.235C187.581 174.332 187.594 174.403 187.621 174.45C187.648 174.497 187.693 174.532 187.756 174.555L187.591 175.075C187.431 175.058 187.298 175.023 187.191 174.97C187.084 174.913 187.001 174.832 186.941 174.725C186.841 174.842 186.714 174.932 186.561 174.995C186.408 175.055 186.244 175.085 186.071 175.085C185.798 175.085 185.579 175.008 185.416 174.855C185.253 174.698 185.171 174.497 185.171 174.25C185.171 173.963 185.284 173.742 185.511 173.585C185.738 173.425 186.056 173.345 186.466 173.345H186.821V173.25C186.821 172.977 186.646 172.84 186.296 172.84C186.206 172.84 186.093 172.853 185.956 172.88C185.823 172.903 185.693 172.937 185.566 172.98L185.386 172.455C185.556 172.392 185.733 172.343 185.916 172.31C186.103 172.273 186.271 172.255 186.421 172.255C187.194 172.255 187.581 172.568 187.581 173.195V174.235ZM186.341 174.52C186.431 174.52 186.521 174.495 186.611 174.445C186.704 174.392 186.774 174.32 186.821 174.23V173.795H186.626C186.199 173.795 185.986 173.928 185.986 174.195C185.986 174.298 186.016 174.378 186.076 174.435C186.139 174.492 186.228 174.52 186.341 174.52ZM189.814 172.255C190.147 172.255 190.392 172.378 190.549 172.625C190.706 172.868 190.784 173.215 190.784 173.665C190.784 173.938 190.742 174.183 190.659 174.4C190.579 174.613 190.462 174.782 190.309 174.905C190.156 175.025 189.974 175.085 189.764 175.085C189.507 175.085 189.297 174.993 189.134 174.81V176.025L188.344 176.11V172.345H189.044L189.079 172.64C189.182 172.51 189.297 172.413 189.424 172.35C189.554 172.287 189.684 172.255 189.814 172.255ZM189.569 172.84C189.402 172.84 189.257 172.943 189.134 173.15V174.27C189.191 174.35 189.249 174.41 189.309 174.45C189.372 174.487 189.444 174.505 189.524 174.505C189.671 174.505 189.781 174.44 189.854 174.31C189.931 174.177 189.969 173.965 189.969 173.675C189.969 173.362 189.936 173.145 189.869 173.025C189.802 172.902 189.702 172.84 189.569 172.84ZM192.132 172.61C192.356 172.373 192.616 172.255 192.912 172.255C193.146 172.255 193.326 172.325 193.452 172.465C193.579 172.602 193.642 172.797 193.642 173.05V175H192.852V173.27C192.852 173.11 192.834 172.998 192.797 172.935C192.761 172.872 192.694 172.84 192.597 172.84C192.517 172.84 192.439 172.868 192.362 172.925C192.289 172.978 192.212 173.058 192.132 173.165V175H191.342V171.29L192.132 171.21V172.61Z" fill="white"/>
<rect x="176.5" y="122.5" width="97" height="48" rx="1.5" fill="white" stroke="#AE3EC8"/>
<rect x="246.5" y="139.5" width="12" height="18" rx="1.5" fill="white" fill-opacity="0.1" stroke="#AE3EC8"/>
<path d="M250.56 152L252.5 149.22L250.79 146.73H251.79L253.01 148.69L254.24 146.73H255.21L253.5 149.18L255.44 152H254.42L252.97 149.74L251.52 152H250.56Z" fill="#AE3EC8"/>
<path d="M246.5 161V155" stroke="#AE3EC8"/>
<rect x="246" y="157" width="15" height="7" rx="2" fill="#AE3EC8"/>
<path d="M250.74 162H250.255L249.3 159.365H249.75L250.51 161.62L251.26 159.365H251.7L250.74 162ZM254.388 161.425C254.388 161.528 254.405 161.605 254.438 161.655C254.471 161.702 254.526 161.737 254.603 161.76L254.498 162.06C254.241 162.027 254.081 161.902 254.018 161.685C253.925 161.805 253.806 161.897 253.663 161.96C253.523 162.023 253.366 162.055 253.193 162.055C252.93 162.055 252.721 161.982 252.568 161.835C252.418 161.688 252.343 161.492 252.343 161.245C252.343 160.975 252.448 160.767 252.658 160.62C252.871 160.473 253.176 160.4 253.573 160.4H253.963V160.185C253.963 159.998 253.91 159.865 253.803 159.785C253.696 159.702 253.541 159.66 253.338 159.66C253.138 159.66 252.91 159.705 252.653 159.795L252.538 159.475C252.848 159.365 253.136 159.31 253.403 159.31C253.723 159.31 253.966 159.385 254.133 159.535C254.303 159.685 254.388 159.893 254.388 160.16V161.425ZM253.298 161.74C253.428 161.74 253.551 161.707 253.668 161.64C253.788 161.573 253.886 161.482 253.963 161.365V160.69H253.583C253.303 160.69 253.101 160.737 252.978 160.83C252.855 160.923 252.793 161.06 252.793 161.24C252.793 161.573 252.961 161.74 253.298 161.74ZM257.276 159.31C257.383 159.31 257.506 159.328 257.646 159.365L257.586 160.26H257.246V159.695H257.221C256.814 159.695 256.526 159.985 256.356 160.565V161.675H256.891V162H255.521V161.675H255.936V159.69H255.521V159.365H256.251L256.331 159.99C256.438 159.763 256.564 159.593 256.711 159.48C256.861 159.367 257.049 159.31 257.276 159.31Z" fill="white"/>
<rect x="187.5" y="139.5" width="12" height="18" rx="1.5" fill="white" fill-opacity="0.1" stroke="#AE3EC8"/>
<path d="M191.509 150.419C191.271 150.201 191.082 149.944 190.942 149.647C190.802 149.351 190.732 149.053 190.732 148.754C190.732 148.454 190.768 148.192 190.84 147.968C190.911 147.74 191.007 147.53 191.128 147.338C191.252 147.143 191.396 146.967 191.562 146.811C191.732 146.651 191.911 146.514 192.1 146.4C192.497 146.169 192.889 146.054 193.276 146.054C193.667 146.054 194.022 146.109 194.341 146.22C194.66 146.33 194.938 146.488 195.176 146.693C195.68 147.139 195.933 147.73 195.933 148.466C195.933 149.221 195.661 149.856 195.117 150.37C194.6 150.865 194.012 151.112 193.354 151.112C192.629 151.112 192.013 150.881 191.509 150.419ZM191.553 148.476C191.553 148.752 191.597 149.016 191.685 149.267C191.772 149.514 191.896 149.732 192.056 149.921C192.404 150.334 192.834 150.541 193.345 150.541C193.836 150.541 194.251 150.385 194.59 150.072C194.945 149.74 195.122 149.302 195.122 148.759C195.122 148.186 194.963 147.696 194.644 147.289C194.299 146.85 193.851 146.63 193.301 146.63C192.793 146.63 192.376 146.798 192.051 147.133C191.719 147.478 191.553 147.925 191.553 148.476Z" fill="#AE3EC8"/>
<path d="M187.5 161V155" stroke="#AE3EC8"/>
<rect x="187" y="157" width="9" height="7" rx="2" fill="#AE3EC8"/>
<path d="M192.145 160.83H192.55V161.15H192.095L191.99 162H191.635L191.745 161.15H191.02L190.905 162H190.55L190.66 161.15H190.265V160.83H190.7L190.855 159.72H190.45V159.39H190.895L191.01 158.555H191.365L191.25 159.39H191.98L192.095 158.555H192.45L192.335 159.39H192.735V159.72H192.29L192.145 160.83ZM191.785 160.83L191.94 159.72H191.205L191.06 160.83H191.785Z" fill="white"/>
<path d="M246.354 149.354C246.549 149.158 246.549 148.842 246.354 148.646L243.172 145.464C242.976 145.269 242.66 145.269 242.464 145.464C242.269 145.66 242.269 145.976 242.464 146.172L245.293 149L242.464 151.828C242.269 152.024 242.269 152.34 242.464 152.536C242.66 152.731 242.976 152.731 243.172 152.536L246.354 149.354ZM199.5 149.5H246V148.5H199.5V149.5Z" fill="#AE3EC8"/>
</svg>
