<svg xmlns="http://www.w3.org/2000/svg" direction="ltr" width="691.55" height="183.86" viewBox="16434.70 -1783.7302262380117 691.55 183.86" stroke-linecap="round" stroke-linejoin="round"><defs/><g transform="matrix(1, 0, 0, 1, 16467.32, -1687.3833)" opacity="1"><path d="M0,0 Q0,2.6126 0,3.7583 T0,6.0517 0,8.6347 L0,10.07 " stroke="#ae3ec9" fill="none" stroke-linecap="round" stroke-width="3.5" stroke-dasharray="none" stroke-dashoffset="0"/></g><g transform="matrix(1, 0, 0, 1, 16466.70, -1698.9767)" opacity="1"><path d="M2.1806,-0.1319 Q2.2131,0.4056 1.99,0.8967 T1.3472,1.7198 0.39,2.1489 -0.6501,2.0856 -1.5449,1.5446 -2.0858,0.6497 -2.1488,-0.3941 -1.7195,-1.3475 -0.8963,-1.9923 0.13,-2.1806 1.13,-1.8693 1.86,-1.13 2.18,-0.1319 Z" fill="#ae3ec9" stroke-linecap="round"/></g><g transform="matrix(1, 0, 0, 1, 16471.52, -1689.8877)" opacity="1"><path d="M0,0 Q0,2.888 0,4.1525 T0,6.2064 0,7.5342 0,8.4721 0,9.1465 0,9.6213 0,10.0583 0,10.5945 0,11.159 0,11.6904 0,12.1368 0,12.4092 0,12.3896 0,11.9566 0,11.2761 0.04,10.4914 0.19,9.5755 0.45,8.6733 0.84,7.7943 1.26,7.0015 1.60,6.4077 1.88,5.9866 2.12,5.7215 2.36,5.472 2.64,5.189 2.96,4.8606 3.40,4.4516 4.23,3.82 5.38,3.0002 6.50,2.267 7.62,1.6863 8.62,1.2792 9.35,1.0529 9.91,0.9272 10.40,0.904 10.81,0.9889 11.20,1.3404 11.56,1.9267 11.82,2.5235 12.03,3.0551 12.22,3.4861 12.36,3.861 12.44,4.2182 12.48,4.55 12.50,5.0054 12.52,5.5784 12.53,6.0634 12.53,6.4662 12.53,6.8589 12.53,7.2126 12.53,7.4692 12.53,7.6628 12.53,7.8215 12.53,8.0097 12.53,8.2875 12.54,8.8462 12.54,9.7188 12.54,10.5457 12.54,11.4629 12.54,12.7402 L12.54,13.45 " stroke="#ae3ec9" fill="none" stroke-linecap="round" stroke-width="3.5" stroke-dasharray="none" stroke-dashoffset="0"/></g><g transform="matrix(1, 0, 0, 1, 16486.80, -1696.9366)" opacity="1"><path d="M0,0 Q1.5951,-1.9683 2.20,-2.604 T4.0264,-4.0729 6.47,-5.5845 9.36,-7.0087 12.57,-8.4178 15.74,-9.6717 19.00,-10.7795 22.14,-11.755 24.89,-12.5881 27.35,-13.3309 29.51,-14.0125 31.66,-14.6934 33.9,-15.3917 35.71,-15.9063 37.38,-16.2967 39.17,-16.6181 41.02,-16.7967 42.95,-16.8959 44.93,-16.951 47.34,-16.9817 50.40,-16.9987 53.25,-17.0082 55.92,-17.0134 58.74,-16.9053 61.30,-16.5208 63.62,-15.8318 65.78,-14.8668 67.74,-13.813 69.44,-12.6853 70.87,-11.5788 71.90,-10.7552 72.74,-10.1108 73.45,-9.5395 73.96,-9.0888 74.31,-8.7805 74.51,-8.5604 74.68,-8.3292 74.89,-7.9474 75.15,-7.4798 75.49,-6.8934 75.89,-6.1521 76.28,-5.4336 76.65,-4.7855 77.20,-4.0855 77.89,-3.27 78.45,-2.548 78.93,-1.9824 79.37,-1.5015 79.74,-1.1587 80.02,-0.9327 80.19,-0.7515 80.26,-0.622 80.04,-0.55 79.52,-0.51 78.74,-0.4878 77.82,-0.4754 76.79,-0.4686 75.40,-0.4648 73.86,-0.4627 72.54,-0.4615 71.29,-0.4608 69.77,-0.4603 L68.93,-0.46 " stroke="#ae3ec9" fill="none" stroke-linecap="round" stroke-width="3.5" stroke-dasharray="none" stroke-dashoffset="0"/></g><g transform="matrix(1, 0, 0, 1, 16567.54, -1697.397)" opacity="1"><path d="M0,0 Q0,-1.2307 0,-1.726 T0,-2.5831 0,-3.3548 0,-4.0258 0,-4.5097 0,-4.892 0,-5.2088 0,-5.507 0,-5.7771 0,-6.0761 0,-6.3933 0,-6.6473 0,-6.8373 0,-6.994 0,-7.1589 0,-7.326 0,-7.4699 0,-7.6299 0,-7.8232 0,-8.0462 0,-8.5699 0,-9.4763 L0,-9.98 " stroke="#ae3ec9" fill="none" stroke-linecap="round" stroke-width="3.5" stroke-dasharray="none" stroke-dashoffset="0"/></g><g transform="matrix(1, 0, 0, 1, 16572.98, -1693.9043)" opacity="1"><path d="M0,0 Q-0.8931,0.1866 -1.1568,0.314 T-1.6092,0.5832 -1.9317,0.8684 -2.1486,1.1201 -2.3136,1.3378 -2.4675,1.5876 -2.6241,1.9885 -2.7734,2.5979 -2.9163,3.3564 -3.0868,4.1866 -3.2437,4.8879 -3.3709,5.402 -3.4683,5.8121 -3.5223,6.1178 -3.5524,6.3498 -3.5691,6.5654 -3.5784,6.8385 -3.5835,7.3123 -3.5553,7.88 -3.4685,8.3554 -3.3314,8.7551 -3.1597,9.0794 -2.9777,9.3818 -2.7499,9.6765 -2.5211,9.9069 -2.2518,10.1104 -1.8511,10.3279 -1.3841,10.5532 -0.858,10.8028 -0.299,11.0348 0.21,11.1926 0.69,11.3025 1.29,11.4103 2.11,11.539 2.97,11.6661 3.85,11.7878 4.70,11.9043 5.42,11.9779 6.07,12.0188 6.67,12.0416 7.20,12.0542 7.70,12.0479 8.14,11.94 8.55,11.6001 8.93,11.1135 9.26,10.5832 9.54,9.9909 9.77,9.3307 9.98,8.3995 10.15,7.3556 10.25,6.4823 10.30,5.7015 10.33,5.0277 10.34,4.46 10.35,4.0112 10.36,3.6908 10.36,3.4505 10.36,3.2548 10.36,3.0927 10.36,2.976 10.36,2.8845 10.34,2.7847 10.26,2.6538 10.12,2.5166 9.93,2.4092 9.71,2.3163 9.51,2.2335 9.28,2.1431 8.94,2.0529 8.59,2.0027 8.24,1.9349 7.84,1.8572 7.46,1.814 7.09,1.7767 6.69,1.7159 6.22,1.6555 5.76,1.622 5.36,1.6033 5.02,1.573 4.39,1.4761 3.32,1.3115 L2.73,1.22 " stroke="#ae3ec9" fill="none" stroke-linecap="round" stroke-width="3.5" stroke-dasharray="none" stroke-dashoffset="0"/></g><g transform="matrix(1, 0, 0, 1, 16589.10, -1691.5797)" opacity="1"><path d="M0,0 Q0,1.5862 0,2.1758 T0,3.3995 0.02,4.5083 0.14,5.4888 0.33,6.4601 0.51,7.302 0.71,7.9676 0.87,8.4574 1.00,8.8162 1.10,9.1089 1.18,9.3493 1.27,9.5251 1.34,9.645 1.41,9.725 1.48,9.7805 1.59,9.8403 1.77,9.9246 2.01,10.0203 2.33,10.1112 2.67,10.1818 3.10,10.221 3.62,10.2428 4.03,10.2549 4.34,10.2616 4.63,10.2653 4.95,10.2674 5.31,10.2686 5.60,10.2692 5.90,10.2696 6.19,10.2698 6.49,10.261 6.83,10.1783 7.18,10.0014 7.53,9.7786 7.84,9.5304 8.13,9.2659 8.38,8.95 8.66,8.5079 8.97,7.9579 9.24,7.3635 9.50,6.7621 9.75,6.1236 10.02,5.3467 10.26,4.5928 10.43,4.014 10.55,3.5301 10.62,3.1035 10.66,2.7199 10.68,2.3334 10.69,1.9586 10.70,1.5905 10.70,1.1771 10.70,0.8096 10.70,0.5276 10.73,0.3199 10.77,0.1711 10.80,0.0129 10.79,-0.466 10.74,-1.3492 L10.72,-1.84 " stroke="#ae3ec9" fill="none" stroke-linecap="round" stroke-width="3.5" stroke-dasharray="none" stroke-dashoffset="0"/></g><g transform="matrix(1, 0, 0, 1, 16607.34, -1707.865)" opacity="1"><path d="M0,0 Q0,2.9991 0,4.059 T0,6.0144 0,7.9963 0,9.9707 0,11.8143 0,13.5452 -0.1133,15.0958 -0.2896,16.4484 -0.3875,17.6354 -0.4419,18.7438 -0.4722,19.8284 -0.5001,20.9821 -0.5467,21.9076 -0.6015,22.5218 -0.6408,23.0631 -0.6627,23.5527 -0.6748,23.9025 -0.7527,24.4657 -0.9181,25.4069 L-1.01,25.93 " stroke="#ae3ec9" fill="none" stroke-linecap="round" stroke-width="3.5" stroke-dasharray="none" stroke-dashoffset="0"/></g><g transform="matrix(1, 0, 0, 1, 16591.02, -1697.8656)" opacity="1"><path d="M0,0 Q1.3241,0 1.77,0 T2.5642,0 3.24,0 3.86,0 4.47,0 5.17,0 5.95,0 6.95,0 8.13,0 9.40,0 10.73,0 11.97,0 13.11,0 14.20,0 15.17,0 16.05,0 16.85,0.0244 17.59,0.0847 18.34,0.1559 19.13,0.2444 20.12,0.3491 21.21,0.4628 22.20,0.5593 23.16,0.6462 24.15,0.7412 25.08,0.8451 26.11,0.9739 27.45,1.1257 L28.2,1.21 " stroke="#ae3ec9" fill="none" stroke-linecap="round" stroke-width="3.5" stroke-dasharray="none" stroke-dashoffset="0"/></g><g transform="matrix(1, 0, 0, 1, 16571.22, -1675.4099)" opacity="1"><path d="M0,0 Q-0.7464,1.3996 -1.2404,2.135 T-2.1533,3.4613 -2.8783,4.4315 -3.6477,5.2995 -4.5707,6.2217 -5.5745,7.154 -6.6566,8.1208 -7.9333,9.149 -9.3248,10.2203 -10.6267,11.2532 -11.9344,12.2959 -13.2276,13.2819 -14.455,14.1586 -15.5969,14.9012 -16.6024,15.5094 -17.5766,16.0228 -18.6733,16.4637 -19.7449,16.8242 -20.9535,17.2289 -22.7403,17.8159 -24.7085,18.4264 -26.382,18.9478 -28.085,19.4664 -29.8289,20.0012 -31.2557,20.4583 -32.6883,20.8812 -34.2352,21.3183 -35.4748,21.6678 -36.7456,22.0065 -38.1583,22.3168 -39.4164,22.5515 -40.6754,22.7863 -42.1659,23.0212 -43.574,23.2251 -44.7008,23.3939 -45.9134,23.5254 -47.1271,23.5986 -48.3902,23.6392 -49.7431,23.6618 -50.9391,23.6743 -52.328,23.5791 -53.8573,23.3662 -55.1759,23.0813 -56.5307,22.6964 -57.8833,22.3003 -59.0992,21.9225 -60.2859,21.4593 -61.3518,20.9798 -62.3063,20.5045 -63.2899,19.916 -64.2408,19.2624 -65.0868,18.6504 -65.9347,18.0571 -66.8745,17.4408 -67.6767,16.945 -68.3247,16.5296 -68.9246,16.1388 -69.418,15.8061 -69.8987,15.479 -70.3903,15.1507 -70.8567,14.8194 -71.3824,14.4553 -72.0101,13.9953 -72.601,13.5375 -73.0915,13.161 -73.5063,12.8473 -73.8945,12.5641 -74.2324,12.2957 -74.4668,12.0843 -74.6593,11.9291 -74.8373,11.8029 -74.9807,11.6927 -75.087,11.5827 -75.175,11.4637 -75.3438,11.2955 -75.5954,11.0553 -75.8774,10.7597 -76.1962,10.4222 -76.5489,10.0524 -76.9004,9.6915 -77.2512,9.3354 -77.5839,8.9997 -77.931,8.66 -78.2838,8.3112 -78.5442,8.0441 -78.8156,7.8068 -79.1175,7.5261 -79.4363,7.179 -79.7534,6.844 -80.0429,6.5223 -80.4393,6.0592 -81.1949,5.3131 -82.3359,4.2826 L-82.97,3.71 " stroke="#ae3ec9" fill="none" stroke-linecap="round" stroke-width="3.5" stroke-dasharray="none" stroke-dashoffset="0"/></g><g transform="matrix(1, 0, 0, 1, 16488.26, -1671.6982)" opacity="1"><path d="M0,0 Q-0.0711,1.5195 -0.0953,2.0795 T-0.1707,3.0416 -0.2726,3.7874 -0.3714,4.3839 -0.4463,4.8243 -0.4968,5.1467 -0.5493,5.3726 -0.6007,5.5292 -0.6359,5.7228 -0.6555,6.3636 -0.6713,7.5183 L-0.68,8.16 " stroke="#ae3ec9" fill="none" stroke-linecap="round" stroke-width="3.5" stroke-dasharray="none" stroke-dashoffset="0"/></g><g transform="matrix(1, 0, 0, 1, 16489.07, -1672.3587)" opacity="1"><path d="M0,0 Q1.404,0 1.86,0 T2.6483,0 3.24,0 3.75,0 4.18,0 4.58,0 5.00,0 5.43,0.0378 5.86,0.0987 6.24,0.1526 6.65,0.2203 7.07,0.2779 7.43,0.3233 7.75,0.3885 8.08,0.4514 8.46,0.5241 9.16,0.6622 10.27,0.8601 L10.89,0.97 " stroke="#ae3ec9" fill="none" stroke-linecap="round" stroke-width="3.5" stroke-dasharray="none" stroke-dashoffset="0"/></g><g transform="matrix(1, 0, 0, 1, 16695.06, -1731.2088)" opacity="1"><path d="M0,0 Q1.9061,0 2.58,0 T3.7688,0 4.75,-0.0422 5.60,-0.159 6.27,-0.3794 6.85,-0.6996 7.36,-1.1196 7.79,-1.5819 8.07,-2.0676 8.27,-2.6685 8.43,-3.3245 8.52,-3.9601 8.57,-4.6532 8.60,-5.3471 8.62,-5.9304 8.62,-6.5367 8.63,-7.258 8.58,-8.0386 8.35,-8.8323 7.97,-9.5378 7.60,-10.0542 7.31,-10.4189 7.07,-10.686 6.82,-10.861 6.54,-10.9583 6.24,-11.0124 5.96,-11.0424 5.69,-11.0347 5.26,-10.806 4.73,-10.3146 4.27,-9.7638 3.82,-9.2445 3.31,-8.7027 2.80,-8.1483 2.34,-7.6159 1.82,-6.9646 1.31,-6.2739 0.88,-5.6945 0.51,-5.1949 0.20,-4.7773 -0.0962,-4.3897 -0.4111,-3.9344 -0.675,-3.457 -0.8616,-3.014 -1.0031,-2.6146 -1.0817,-2.2482 -1.1254,-1.9069 -1.1496,-1.5773 -1.1631,-1.1519 -1.1706,-0.5779 -1.1015,0.1187 -0.9142,0.8124 -0.688,1.3934 -0.4578,1.854 -0.2677,2.2054 -0.1243,2.4763 0.06,2.7778 0.28,3.1031 0.49,3.3706 0.80,3.6391 1.23,3.9394 1.72,4.2285 2.19,4.4891 2.65,4.7339 3.25,4.9654 3.91,5.1563 4.63,5.3379 5.38,5.5121 5.98,5.6556 6.45,5.7686 6.85,5.8448 7.22,5.9248 7.55,5.9938 7.82,6.0321 8.03,6.0534 8.25,6.0652 8.50,6.0718 8.74,6.0754 9.00,5.9975 9.32,5.7453 9.68,5.1676 10.15,4.2564 L10.42,3.75 " stroke="#ae3ec9" fill="none" stroke-linecap="round" stroke-width="3.5" stroke-dasharray="none" stroke-dashoffset="0"/></g><g transform="matrix(1, 0, 0, 1, 16712.99, -1726.1024)" opacity="1"><path d="M2.1806,-0.1319 Q2.2131,0.4056 1.99,0.8967 T1.3472,1.7198 0.39,2.1489 -0.6501,2.0856 -1.5449,1.5446 -2.0858,0.6497 -2.1488,-0.3941 -1.7195,-1.3475 -0.8963,-1.9923 0.13,-2.1806 1.13,-1.8693 1.86,-1.13 2.18,-0.1319 Z" fill="#ae3ec9" stroke-linecap="round"/></g><g transform="matrix(1, 0, 0, 1, 16725.81, -1737.4232)" opacity="1"><path d="M0,0 Q-1.6706,0.7109 -2.1903,0.9617 T-3.1121,1.4653 -3.8176,1.9361 -4.3274,2.3133 -4.6574,2.5984 -4.8829,2.839 -5.046,3.0327 -5.1411,3.1693 -5.1939,3.3695 -5.2233,3.6408 -5.2396,4.0647 -5.2487,4.6247 -5.2537,5.1358 -5.2565,5.5997 -5.2692,6.0531 -5.314,6.4782 -5.3655,6.81 -5.3942,7.0522 -5.4101,7.22 -5.4189,7.34 -5.4239,7.4911 -5.4266,7.6661 -5.3459,7.8478 -5.1189,8.0865 -4.7195,8.4502 -4.2154,8.9233 -3.7865,9.3506 -3.3904,9.708 -2.9948,9.9977 -2.6794,10.2164 -2.4486,10.3757 -2.2582,10.4665 -2.0879,10.5169 -1.9422,10.545 -1.7902,10.5605 -1.6279,10.5692 -1.4445,10.5384 -1.2159,10.3836 -0.9756,10.1088 -0.7465,9.7916 -0.517,9.4488 -0.2406,8.9384 0.09,8.3215 0.44,7.6544 0.84,6.8749 1.27,6.0729 1.68,5.2941 2.02,4.6302 2.30,4.1414 2.52,3.792 2.66,3.5401 2.74,3.3423 2.79,3.1791 2.81,3.0573 2.83,2.943 2.84,2.7662 2.84,2.5124 2.84,2.1736 2.84,1.7633 2.84,1.3708 2.84,1.0172 2.84,0.6852 2.84,0.3985 2.84,0.1881 2.87,0.0535 3.04,0.1541 3.39,0.5611 3.93,1.2537 4.71,2.3273 5.55,3.5504 6.36,4.8232 7.09,6.0747 7.66,7.1367 8.10,8.0935 8.52,9.1383 8.91,10.3853 9.16,11.536 9.38,12.7841 9.62,14.3329 9.83,16.0333 10.01,17.6491 10.16,18.9314 10.26,20.1993 10.31,21.5125 10.34,22.5511 10.35,23.5014 10.36,24.536 10.37,25.4886 10.37,26.4312 10.37,27.3348 10.33,28.1213 10.15,28.8961 9.89,29.622 9.62,30.1521 9.37,30.5111 9.11,30.8283 8.79,31.0845 8.37,31.2291 7.90,31.3095 7.16,31.3542 6.17,31.379 5.14,31.3928 4.14,31.4004 3.20,31.4047 2.34,31.387 1.48,31.3173 0.47,31.1452 -0.4831,30.8919 -1.1882,30.5978 -1.7822,30.2966 -2.2611,30.0382 -2.616,29.8124 -2.891,29.6092 -3.0839,29.3652 -3.231,29.083 -3.3505,28.855 -3.4169,28.6817 -3.4672,28.5232 -3.5284,28.3507 -3.5824,27.7684 -3.6259,26.6702 L-3.65,26.06 " stroke="#ae3ec9" fill="none" stroke-linecap="round" stroke-width="3.5" stroke-dasharray="none" stroke-dashoffset="0"/></g><g transform="matrix(1, 0, 0, 1, 16741.48, -1729.8411)" opacity="1"><path d="M2.1806,-0.1319 Q2.2131,0.4056 1.99,0.8967 T1.3472,1.7198 0.39,2.1489 -0.6501,2.0856 -1.5449,1.5446 -2.0858,0.6497 -2.1488,-0.3941 -1.7195,-1.3475 -0.8963,-1.9923 0.13,-2.1806 1.13,-1.8693 1.86,-1.13 2.18,-0.1319 Z" fill="#ae3ec9" stroke-linecap="round"/></g><g transform="matrix(1, 0, 0, 1, 16799.31, -1696.6813)" opacity="1"><path d="M0,0 Q0,2.3238 0,3.3982 T0,5.3584 0,7.0275 0,8.446 0,9.5674 0,10.3817 0,11.0896 0,11.8185 0,12.4701 0,13.1121 0,13.9131 0,14.8715 0,16.0194 0,17.3815 0,18.9811 L0,19.87 " stroke="#ae3ec9" fill="none" stroke-linecap="round" stroke-width="3.5" stroke-dasharray="none" stroke-dashoffset="0"/></g><g transform="matrix(1, 0, 0, 1, 16799.31, -1695.9974)" opacity="1"><path d="M0,0 Q1.2574,1.9416 1.85,2.6988 T2.9348,4.0723 3.91,5.2509 4.79,6.2524 5.55,7.1178 6.22,7.8274 6.70,8.3062 7.02,8.6678 7.29,8.9842 7.52,9.2578 7.68,9.4854 7.81,9.6674 7.90,9.8174 8.03,10.1518 8.24,10.6575 8.50,11.1607 8.83,11.698 9.15,12.1876 9.42,12.553 9.62,12.8694 9.73,13.1607 9.83,13.3648 9.92,13.4959 10.00,13.5977 10.08,13.6831 10.17,13.8528 10.36,14.2359 10.72,14.902 11.23,15.7275 11.86,16.6617 12.57,17.674 13.12,18.492 13.49,19.0465 13.83,19.5035 14.14,19.8818 14.34,20.0121 14.46,19.538 14.52,18.4103 14.56,16.6529 14.58,14.4567 14.59,12.1344 14.60,9.9398 14.60,7.9738 14.60,6.2859 14.60,5.0925 14.60,4.2406 14.60,3.5494 14.60,2.8543 14.60,2.0526 14.60,1.2384 14.61,0.326 14.61,-0.7763 14.64,-2.0953 14.71,-3.7825 L14.75,-4.72 " stroke="#ae3ec9" fill="none" stroke-linecap="round" stroke-width="3.5" stroke-dasharray="none" stroke-dashoffset="0"/></g><g transform="matrix(1, 0, 0, 1, 16820.12, -1685.6683)" opacity="1"><path d="M0,0 Q0.3199,1.444 0.45,1.9452 T0.7376,2.7893 0.99,3.3694 1.21,3.7673 1.42,4.104 1.61,4.3844 1.74,4.5801 1.84,4.7423 2.01,4.9101 2.21,5.0789 2.49,5.2593 2.82,5.4418 3.18,5.5898 3.53,5.721 3.80,5.8316 4.03,5.9153 4.25,5.9618 4.45,5.9877 4.64,6.002 4.79,6.01 4.95,6.0145 5.20,6.0169 5.47,6.0183 5.69,6.019 5.88,6.0195 6.06,6.0197 6.22,6.0043 6.32,5.9646 6.39,5.9092 6.46,5.8252 6.54,5.694 6.68,5.3857 6.86,4.8611 7.11,4.0208 7.41,2.9874 7.67,1.9556 7.94,0.7557 8.28,-0.72 L8.47,-1.54 " stroke="#ae3ec9" fill="none" stroke-linecap="round" stroke-width="3.5" stroke-dasharray="none" stroke-dashoffset="0"/></g><g transform="matrix(1, 0, 0, 1, 16834.64, -1686.3887)" opacity="1"><path d="M0,0 Q0,1.3018 0,1.6858 T0,2.2986 0,2.668 0,2.9133 0,3.114 0,3.2833 0,3.4351 0,3.5772 0,3.6518 0,3.2867 0.09,2.2507 0.28,1.1063 0.52,0.1371 0.81,-0.7169 1.07,-1.3314 1.32,-1.7707 1.55,-2.0969 1.78,-2.3249 2.10,-2.536 2.57,-2.8044 3.20,-3.1134 3.85,-3.3696 4.46,-3.5875 4.98,-3.7952 5.37,-3.9351 5.66,-4.0483 5.93,-4.149 6.17,-4.2072 6.35,-4.2396 6.51,-4.2442 6.64,-4.1712 6.78,-3.973 7.02,-3.4829 7.29,-2.7418 7.49,-2.0101 7.70,-1.3036 7.90,-0.5978 8.02,0.0921 8.11,0.671 8.20,1.0793 8.26,1.384 8.29,1.6399 8.30,1.851 8.31,2.0527 8.32,2.2981 8.32,2.5411 8.32,2.7317 8.32,2.8775 8.32,2.9964 8.32,3.0935 8.32,3.1653 8.32,3.1585 8.32,2.9792 8.33,2.5997 8.35,2.0955 8.47,1.5066 8.64,0.8949 8.85,0.2996 9.25,-0.4311 9.72,-1.186 10.06,-1.7431 10.35,-2.1438 10.59,-2.4265 10.78,-2.6236 10.93,-2.7553 11.08,-2.8285 11.24,-2.8802 11.40,-2.9468 11.60,-3.026 11.81,-3.1077 12.02,-3.1754 12.21,-3.213 12.41,-3.2339 12.60,-3.2455 12.76,-3.2519 12.88,-3.2555 12.97,-3.2575 13.07,-3.2586 13.19,-3.2592 13.37,-3.2485 13.56,-3.2114 13.75,-3.0286 13.99,-2.6538 14.27,-2.0412 14.61,-1.1831 14.95,-0.3531 15.19,0.297 15.32,0.7959 15.39,1.2198 15.43,1.5909 15.46,1.9371 15.47,2.296 15.48,2.5977 15.48,3.1297 15.48,4.0427 L15.49,4.55 " stroke="#ae3ec9" fill="none" stroke-linecap="round" stroke-width="3.5" stroke-dasharray="none" stroke-dashoffset="0"/></g><g transform="matrix(1, 0, 0, 1, 16860.01, -1703.062)" opacity="1"><path d="M0,0 Q0,1.3729 0,1.8455 T0,2.6917 0,3.4485 0,4.1845 0,4.7823 0,5.3145 0,5.9101 0,6.7098 0,7.6585 0,8.7766 0,10.151 0,11.6435 0,13.2237 0,14.706 0,15.9985 0,17.1655 0,18.1272 0,18.8394 0,19.4239 0,19.9242 0,20.3067 0,20.6503 0,21.0478 0,21.6464 0,22.2922 0,22.7889 0,23.2226 0,23.5902 -0.0133,23.8412 -0.0496,23.8384 -0.0853,23.6059 -0.1296,23.31 -0.2031,22.999 -0.2684,22.6595 -0.3046,22.1488 -0.3248,21.4095 -0.336,20.5922 -0.3422,19.7248 -0.3457,18.9163 -0.3232,18.2714 -0.1751,17.5932 0.02,16.9409 0.18,16.4673 0.31,16.1242 0.39,15.909 0.47,15.7851 0.54,15.7162 0.68,15.6779 0.88,15.6566 1.07,15.6448 1.30,15.6382 1.66,15.5968 2.10,15.536 2.57,15.5022 3.01,15.4835 3.49,15.473 4.08,15.4672 4.60,15.464 4.99,15.4622 5.28,15.4612 5.50,15.4607 5.65,15.487 5.75,15.5617 5.86,15.6898 5.96,15.8321 6.08,15.9889 6.23,16.1827 6.36,16.3659 6.47,16.5632 6.59,16.7973 6.69,17.0429 6.74,17.2748 6.77,17.4793 6.78,17.6929 6.79,17.9937 6.80,18.4008 6.77,18.827 6.72,19.2282 6.65,19.5867 6.54,19.8747 6.40,20.1103 6.20,20.3546 5.97,20.5702 5.77,20.6945 5.63,20.7814 5.49,20.8652 5.32,20.9295 5.16,20.9808 4.97,21.0471 4.72,21.1062 4.37,21.1745 3.97,21.2614 3.29,21.3585 2.16,21.488 L1.54,21.56 " stroke="#ae3ec9" fill="none" stroke-linecap="round" stroke-width="3.5" stroke-dasharray="none" stroke-dashoffset="0"/></g><g transform="matrix(1, 0, 0, 1, 16873.02, -1682.8826)" opacity="1"><path d="M0,0 Q1.1908,0 1.54,0 T2.1274,0 2.51,0 2.76,0 2.95,0 3.13,0 3.32,0 3.55,-0.0355 3.83,-0.153 4.25,-0.3361 4.70,-0.5178 5.12,-0.6765 5.59,-0.8336 6.01,-0.9942 6.35,-1.1212 6.59,-1.1917 6.77,-1.2465 6.90,-1.308 7.01,-1.3733 7.11,-1.4541 7.21,-1.5456 7.32,-1.6475 7.41,-1.7708 7.46,-1.9015 7.49,-2.0164 7.51,-2.1246 7.51,-2.2336 7.52,-2.4497 7.46,-2.8275 7.31,-3.1885 7.13,-3.4469 6.91,-3.6793 6.64,-3.9462 6.37,-4.1967 6.16,-4.3626 5.99,-4.4547 5.82,-4.5059 5.67,-4.5344 5.54,-4.5502 5.42,-4.559 5.32,-4.5639 5.20,-4.5666 5.07,-4.5681 4.77,-4.569 4.36,-4.5694 3.98,-4.5697 3.52,-4.5698 2.96,-4.5699 2.42,-4.5699 2.00,-4.57 1.68,-4.57 1.44,-4.57 1.28,-4.57 1.15,-4.57 1.02,-4.5034 0.87,-4.3908 0.66,-4.3082 0.43,-4.2135 0.21,-4.0786 -0.0232,-3.8615 -0.2795,-3.5721 -0.5152,-3.2912 -0.7173,-3.0396 -0.8784,-2.8421 -0.9947,-2.7012 -1.0592,-2.5674 -1.1351,-2.4019 -1.2173,-2.2078 -1.2629,-2.0244 -1.3038,-1.747 -1.3754,-1.3484 -1.4486,-0.9293 -1.4892,-0.4497 -1.5118,0.09 -1.5243,0.5543 -1.5313,0.899 -1.5352,1.166 -1.5373,1.4277 -1.5385,1.682 -1.5392,1.8766 -1.5395,2.0647 -1.5397,2.2448 -1.5399,2.5159 -1.5288,2.891 -1.4916,3.1993 -1.3776,3.5129 -1.1698,3.8804 -0.9433,4.1957 -0.7308,4.4575 -0.5438,4.6719 -0.4022,4.8288 -0.2746,4.9337 -0.1148,5.0298 0.04,5.1188 0.25,5.2148 0.58,5.346 1.03,5.4722 1.50,5.5978 1.90,5.7188 2.29,5.8348 2.69,5.9304 3.05,5.9836 3.37,6.0131 3.63,6.0295 3.93,6.0386 4.27,6.0437 4.61,6.0465 4.94,6.048 5.26,6.0911 5.59,6.1639 5.89,6.2111 6.14,6.2372 6.33,6.2518 6.49,6.2599 6.60,6.2644 6.75,6.2669 6.91,6.2683 7.09,6.269 7.41,6.2695 7.84,6.2697 8.33,6.2476 8.83,6.1843 9.27,6.0846 9.66,5.9804 9.98,5.8714 10.24,5.773 10.43,5.7028 10.78,5.3861 11.38,4.7522 L11.72,4.4 " stroke="#ae3ec9" fill="none" stroke-linecap="round" stroke-width="3.5" stroke-dasharray="none" stroke-dashoffset="0"/></g><g transform="matrix(1, 0, 0, 1, 16890.25, -1687.3165)" opacity="1"><path d="M0,0 Q0.5021,1.3774 0.67,1.8334 T0.9502,2.5805 1.14,3.0824 1.27,3.4612 1.38,3.7606 1.47,3.9847 1.61,4.2603 1.77,4.6445 1.91,5.0668 2.08,5.4614 2.25,5.8585 2.40,6.2435 2.48,6.533 2.52,6.7494 2.54,6.9074 2.56,7.064 2.57,7.2489 2.57,7.5982 2.57,8.1655 2.57,8.814 2.57,9.4098 2.57,9.8764 2.57,10.2512 2.57,10.555 2.57,10.755 2.58,10.6994 2.58,10.4886 2.58,10.2538 2.58,10.0077 2.58,9.7133 2.58,9.3719 2.58,9.1045 2.58,8.8115 2.58,8.3932 2.58,7.9408 2.58,7.6005 2.58,7.3693 2.58,7.203 2.58,7.0595 2.59,6.8264 2.64,6.5303 2.70,6.2903 2.78,6.0324 2.90,5.6604 3.05,5.2648 3.19,4.9472 3.31,4.6907 3.38,4.4683 3.43,4.2891 3.52,4.1295 3.65,3.9964 3.77,3.9025 3.94,3.7525 4.21,3.5337 4.50,3.3143 4.75,3.1125 5.01,2.8803 5.26,2.6669 5.48,2.5439 5.68,2.4755 5.84,2.4064 5.98,2.3369 6.13,2.2983 6.29,2.2768 6.52,2.2649 6.82,2.2427 7.10,2.1904 7.35,2.1369 7.59,2.1072 7.80,2.0907 7.97,2.0815 8.18,2.0764 8.40,2.0735 8.61,2.072 9.13,2.1355 10.08,2.2798 L10.62,2.36 " stroke="#ae3ec9" fill="none" stroke-linecap="round" stroke-width="3.5" stroke-dasharray="none" stroke-dashoffset="0"/></g><g transform="matrix(1, 0, 0, 1, 16992.71, -1698.1836)" opacity="1"><path d="M0,0 Q0,2.3238 0,3.3982 T0,5.3584 0,7.0275 0,8.446 0,9.5674 0,10.3817 0,11.0896 0,11.8185 0,12.4701 0,13.1121 0,13.9131 0,14.8715 0,16.0194 0,17.3815 0,18.9811 L0,19.87 " stroke="#ae3ec9" fill="none" stroke-linecap="round" stroke-width="3.5" stroke-dasharray="none" stroke-dashoffset="0"/></g><g transform="matrix(1, 0, 0, 1, 16992.71, -1697.4997)" opacity="1"><path d="M0,0 Q1.2574,1.9416 1.85,2.6988 T2.9348,4.0723 3.91,5.2509 4.79,6.2524 5.55,7.1178 6.22,7.8274 6.70,8.3062 7.02,8.6678 7.29,8.9842 7.52,9.2578 7.68,9.4854 7.81,9.6674 7.90,9.8174 8.03,10.1518 8.24,10.6575 8.50,11.1607 8.83,11.698 9.15,12.1876 9.42,12.553 9.62,12.8694 9.73,13.1607 9.83,13.3648 9.92,13.4959 10.00,13.5977 10.08,13.6831 10.17,13.8528 10.36,14.2359 10.72,14.902 11.23,15.7275 11.86,16.6617 12.57,17.674 13.12,18.492 13.49,19.0465 13.83,19.5035 14.14,19.8818 14.34,20.0121 14.46,19.538 14.52,18.4103 14.56,16.6529 14.58,14.4567 14.59,12.1344 14.60,9.9398 14.60,7.9738 14.60,6.2859 14.60,5.0925 14.60,4.2406 14.60,3.5494 14.60,2.8543 14.60,2.0526 14.60,1.2384 14.61,0.326 14.61,-0.7763 14.64,-2.0953 14.71,-3.7825 L14.75,-4.72 " stroke="#ae3ec9" fill="none" stroke-linecap="round" stroke-width="3.5" stroke-dasharray="none" stroke-dashoffset="0"/></g><g transform="matrix(1, 0, 0, 1, 17013.51, -1687.1706)" opacity="1"><path d="M0,0 Q0.3199,1.444 0.45,1.9452 T0.7376,2.7893 0.99,3.3694 1.21,3.7673 1.42,4.104 1.61,4.3844 1.74,4.5801 1.84,4.7423 2.01,4.9101 2.21,5.0789 2.49,5.2593 2.82,5.4418 3.18,5.5898 3.53,5.721 3.80,5.8316 4.03,5.9153 4.25,5.9618 4.45,5.9877 4.64,6.002 4.79,6.01 4.95,6.0145 5.20,6.0169 5.47,6.0183 5.69,6.019 5.88,6.0195 6.06,6.0197 6.22,6.0043 6.32,5.9646 6.39,5.9092 6.46,5.8252 6.54,5.694 6.68,5.3857 6.86,4.8611 7.11,4.0208 7.41,2.9874 7.67,1.9556 7.94,0.7557 8.28,-0.72 L8.47,-1.54 " stroke="#ae3ec9" fill="none" stroke-linecap="round" stroke-width="3.5" stroke-dasharray="none" stroke-dashoffset="0"/></g><g transform="matrix(1, 0, 0, 1, 17028.03, -1687.891)" opacity="1"><path d="M0,0 Q0,1.3018 0,1.6858 T0,2.2986 0,2.668 0,2.9133 0,3.114 0,3.2833 0,3.4351 0,3.5772 0,3.6518 0,3.2867 0.09,2.2507 0.28,1.1063 0.52,0.1371 0.81,-0.7169 1.07,-1.3314 1.32,-1.7707 1.55,-2.0969 1.78,-2.3249 2.10,-2.536 2.57,-2.8044 3.20,-3.1134 3.85,-3.3696 4.46,-3.5875 4.98,-3.7952 5.37,-3.9351 5.66,-4.0483 5.93,-4.149 6.17,-4.2072 6.35,-4.2396 6.51,-4.2442 6.64,-4.1712 6.78,-3.973 7.02,-3.4829 7.29,-2.7418 7.49,-2.0101 7.70,-1.3036 7.90,-0.5978 8.02,0.0921 8.11,0.671 8.20,1.0793 8.26,1.384 8.29,1.6399 8.30,1.851 8.31,2.0527 8.32,2.2981 8.32,2.5411 8.32,2.7317 8.32,2.8775 8.32,2.9964 8.32,3.0935 8.32,3.1653 8.32,3.1585 8.32,2.9792 8.33,2.5997 8.35,2.0955 8.47,1.5066 8.64,0.8949 8.85,0.2996 9.25,-0.4311 9.72,-1.186 10.06,-1.7431 10.35,-2.1438 10.59,-2.4265 10.78,-2.6236 10.93,-2.7553 11.08,-2.8285 11.24,-2.8802 11.40,-2.9468 11.60,-3.026 11.81,-3.1077 12.02,-3.1754 12.21,-3.213 12.41,-3.2339 12.60,-3.2455 12.76,-3.2519 12.88,-3.2555 12.97,-3.2575 13.07,-3.2586 13.19,-3.2592 13.37,-3.2485 13.56,-3.2114 13.75,-3.0286 13.99,-2.6538 14.27,-2.0412 14.61,-1.1831 14.95,-0.3531 15.19,0.297 15.32,0.7959 15.39,1.2198 15.43,1.5909 15.46,1.9371 15.47,2.296 15.48,2.5977 15.48,3.1297 15.48,4.0427 L15.49,4.55 " stroke="#ae3ec9" fill="none" stroke-linecap="round" stroke-width="3.5" stroke-dasharray="none" stroke-dashoffset="0"/></g><g transform="matrix(1, 0, 0, 1, 17053.41, -1704.5643)" opacity="1"><path d="M0,0 Q0,1.3729 0,1.8455 T0,2.6917 0,3.4485 0,4.1845 0,4.7823 0,5.3145 0,5.9101 0,6.7098 0,7.6585 0,8.7766 0,10.151 0,11.6435 0,13.2237 0,14.706 0,15.9985 0,17.1655 0,18.1272 0,18.8394 0,19.4239 0,19.9242 0,20.3067 0,20.6503 0,21.0478 0,21.6464 0,22.2922 0,22.7889 0,23.2226 0,23.5902 -0.0133,23.8412 -0.0496,23.8384 -0.0853,23.6059 -0.1296,23.31 -0.2031,22.999 -0.2684,22.6595 -0.3046,22.1488 -0.3248,21.4095 -0.336,20.5922 -0.3422,19.7248 -0.3457,18.9163 -0.3232,18.2714 -0.1751,17.5932 0.02,16.9409 0.18,16.4673 0.31,16.1242 0.39,15.909 0.47,15.7851 0.54,15.7162 0.68,15.6779 0.88,15.6566 1.07,15.6448 1.30,15.6382 1.66,15.5968 2.10,15.536 2.57,15.5022 3.01,15.4835 3.49,15.473 4.08,15.4672 4.60,15.464 4.99,15.4622 5.28,15.4612 5.50,15.4607 5.65,15.487 5.75,15.5617 5.86,15.6898 5.96,15.8321 6.08,15.9889 6.23,16.1827 6.36,16.3659 6.47,16.5632 6.59,16.7973 6.69,17.0429 6.74,17.2748 6.77,17.4793 6.78,17.6929 6.79,17.9937 6.80,18.4008 6.77,18.827 6.72,19.2282 6.65,19.5867 6.54,19.8747 6.40,20.1103 6.20,20.3546 5.97,20.5702 5.77,20.6945 5.63,20.7814 5.49,20.8652 5.32,20.9295 5.16,20.9808 4.97,21.0471 4.72,21.1062 4.37,21.1745 3.97,21.2614 3.29,21.3585 2.16,21.488 L1.54,21.56 " stroke="#ae3ec9" fill="none" stroke-linecap="round" stroke-width="3.5" stroke-dasharray="none" stroke-dashoffset="0"/></g><g transform="matrix(1, 0, 0, 1, 17066.41, -1684.3849)" opacity="1"><path d="M0,0 Q1.1908,0 1.54,0 T2.1274,0 2.51,0 2.76,0 2.95,0 3.13,0 3.32,0 3.55,-0.0355 3.83,-0.153 4.25,-0.3361 4.70,-0.5178 5.12,-0.6765 5.59,-0.8336 6.01,-0.9942 6.35,-1.1212 6.59,-1.1917 6.77,-1.2465 6.90,-1.308 7.01,-1.3733 7.11,-1.4541 7.21,-1.5456 7.32,-1.6475 7.41,-1.7708 7.46,-1.9015 7.49,-2.0164 7.51,-2.1246 7.51,-2.2336 7.52,-2.4497 7.46,-2.8275 7.31,-3.1885 7.13,-3.4469 6.91,-3.6793 6.64,-3.9462 6.37,-4.1967 6.16,-4.3626 5.99,-4.4547 5.82,-4.5059 5.67,-4.5344 5.54,-4.5502 5.42,-4.559 5.32,-4.5639 5.20,-4.5666 5.07,-4.5681 4.77,-4.569 4.36,-4.5694 3.98,-4.5697 3.52,-4.5698 2.96,-4.5699 2.42,-4.5699 2.00,-4.57 1.68,-4.57 1.44,-4.57 1.28,-4.57 1.15,-4.57 1.02,-4.5034 0.87,-4.3908 0.66,-4.3082 0.43,-4.2135 0.21,-4.0786 -0.0232,-3.8615 -0.2795,-3.5721 -0.5152,-3.2912 -0.7173,-3.0396 -0.8784,-2.8421 -0.9947,-2.7012 -1.0592,-2.5674 -1.1351,-2.4019 -1.2173,-2.2078 -1.2629,-2.0244 -1.3038,-1.747 -1.3754,-1.3484 -1.4486,-0.9293 -1.4892,-0.4497 -1.5118,0.09 -1.5243,0.5543 -1.5313,0.899 -1.5352,1.166 -1.5373,1.4277 -1.5385,1.682 -1.5392,1.8766 -1.5395,2.0647 -1.5397,2.2448 -1.5399,2.5159 -1.5288,2.891 -1.4916,3.1993 -1.3776,3.5129 -1.1698,3.8804 -0.9433,4.1957 -0.7308,4.4575 -0.5438,4.6719 -0.4022,4.8288 -0.2746,4.9337 -0.1148,5.0298 0.04,5.1188 0.25,5.2148 0.58,5.346 1.03,5.4722 1.50,5.5978 1.90,5.7188 2.29,5.8348 2.69,5.9304 3.05,5.9836 3.37,6.0131 3.63,6.0295 3.93,6.0386 4.27,6.0437 4.61,6.0465 4.94,6.048 5.26,6.0911 5.59,6.1639 5.89,6.2111 6.14,6.2372 6.33,6.2518 6.49,6.2599 6.60,6.2644 6.75,6.2669 6.91,6.2683 7.09,6.269 7.41,6.2695 7.84,6.2697 8.33,6.2476 8.83,6.1843 9.27,6.0846 9.66,5.9804 9.98,5.8714 10.24,5.773 10.43,5.7028 10.78,5.3861 11.38,4.7522 L11.72,4.4 " stroke="#ae3ec9" fill="none" stroke-linecap="round" stroke-width="3.5" stroke-dasharray="none" stroke-dashoffset="0"/></g><g transform="matrix(1, 0, 0, 1, 17083.64, -1688.8188)" opacity="1"><path d="M0,0 Q0.5021,1.3774 0.67,1.8334 T0.9502,2.5805 1.14,3.0824 1.27,3.4612 1.38,3.7606 1.47,3.9847 1.61,4.2603 1.77,4.6445 1.91,5.0668 2.08,5.4614 2.25,5.8585 2.40,6.2435 2.48,6.533 2.52,6.7494 2.54,6.9074 2.56,7.064 2.57,7.2489 2.57,7.5982 2.57,8.1655 2.57,8.814 2.57,9.4098 2.57,9.8764 2.57,10.2512 2.57,10.555 2.57,10.755 2.58,10.6994 2.58,10.4886 2.58,10.2538 2.58,10.0077 2.58,9.7133 2.58,9.3719 2.58,9.1045 2.58,8.8115 2.58,8.3932 2.58,7.9408 2.58,7.6005 2.58,7.3693 2.58,7.203 2.58,7.0595 2.59,6.8264 2.64,6.5303 2.70,6.2903 2.78,6.0324 2.90,5.6604 3.05,5.2648 3.19,4.9472 3.31,4.6907 3.38,4.4683 3.43,4.2891 3.52,4.1295 3.65,3.9964 3.77,3.9025 3.94,3.7525 4.21,3.5337 4.50,3.3143 4.75,3.1125 5.01,2.8803 5.26,2.6669 5.48,2.5439 5.68,2.4755 5.84,2.4064 5.98,2.3369 6.13,2.2983 6.29,2.2768 6.52,2.2649 6.82,2.2427 7.10,2.1904 7.35,2.1369 7.59,2.1072 7.80,2.0907 7.97,2.0815 8.18,2.0764 8.40,2.0735 8.61,2.072 9.13,2.1355 10.08,2.2798 L10.62,2.36 " stroke="#ae3ec9" fill="none" stroke-linecap="round" stroke-width="3.5" stroke-dasharray="none" stroke-dashoffset="0"/></g><g transform="matrix(1, 0, 0, 1, 16874.83, -1702.0863)" opacity="1"><path d="M0,0 Q0.1066,-2.2527 0.37,-3.3095 T0.9197,-5.1048 1.75,-6.6688 2.86,-8.2311 4.21,-9.7479 5.97,-11.5061 8.01,-13.4162 10.20,-15.4217 12.23,-17.2782 13.92,-18.743 15.92,-20.2879 18.14,-21.795 20.28,-23.028 22.60,-24.1197 25.38,-25.1306 28.61,-26.0523 32.73,-26.831 37.00,-27.4215 40.75,-27.7718 44.42,-27.9665 47.75,-28.0747 51.11,-28.1348 54.28,-28.1682 57.09,-28.1868 59.53,-28.1971 61.44,-28.2028 63.38,-28.206 65.48,-28.2078 67.29,-28.1932 68.88,-28.0807 70.61,-27.8227 72.31,-27.5394 73.94,-27.2242 75.41,-26.8713 76.75,-26.4997 78.05,-26.1111 79.18,-25.7129 80.36,-25.1629 81.68,-24.3907 83.28,-23.3285 85.05,-22.1118 86.98,-20.8025 89.06,-19.3729 91.04,-18.0076 93.08,-16.6402 95.03,-15.3516 96.77,-14.1846 98.27,-13.1784 99.40,-12.3927 100.36,-11.7161 101.14,-11.2158 101.77,-10.7645 102.35,-10.3115 102.81,-9.9576 103.19,-9.6743 103.57,-9.3503 103.98,-8.9258 104.36,-8.5434 104.65,-8.2531 105.16,-7.6808 105.83,-6.9118 106.35,-6.3423 106.79,-5.8703 107.19,-5.4569 107.47,-5.1384 107.66,-4.8859 107.81,-4.6855 107.90,-4.5276 107.92,-4.4265 107.61,-4.3703 106.92,-4.339 106.06,-4.3217 105.18,-4.3121 104.24,-4.3067 103.14,-4.3037 102.10,-4.3021 101.39,-4.3011 100.91,-4.3006 100.51,-4.3004 100.17,-4.3002 99.91,-4.3001 99.67,-4.3001 99.41,-4.3 98.97,-4.3 98.41,-4.3 97.96,-4.3 97.08,-4.3 95.57,-4.3 L94.74,-4.3 " stroke="#ae3ec9" fill="none" stroke-linecap="round" stroke-width="3.5" stroke-dasharray="none" stroke-dashoffset="0"/></g><g transform="matrix(1, 0, 0, 1, 16980.89, -1706.3835)" opacity="1"><path d="M2.1806,-0.1319 Q2.2131,0.4056 1.99,0.8967 T1.3472,1.7198 0.39,2.1489 -0.6501,2.0856 -1.5449,1.5446 -2.0858,0.6497 -2.1488,-0.3941 -1.7195,-1.3475 -0.8963,-1.9923 0.13,-2.1806 1.13,-1.8693 1.86,-1.13 2.18,-0.1319 Z" fill="#ae3ec9" stroke-linecap="round"/></g><g transform="matrix(1, 0, 0, 1, 16980.89, -1706.3835)" opacity="1"><path d="M0,0 Q0.0222,-2.226 0.05,-2.9045 T0.1195,-4.0755 0.18,-4.8617 0.24,-5.3563 0.28,-5.6979 0.30,-5.9898 0.31,-6.3276 0.32,-6.7419 0.32,-7.1409 0.32,-7.4937 0.35,-7.8453 0.41,-8.1606 0.45,-8.4069 0.47,-8.5838 0.48,-8.7154 0.49,-8.8307 0.58,-9.2525 0.80,-10.0023 1.18,-11.1343 1.75,-12.8092 L2.07,-13.74 " stroke="#ae3ec9" fill="none" stroke-linecap="round" stroke-width="3.5" stroke-dasharray="none" stroke-dashoffset="0"/></g><g transform="matrix(1, 0, 0, 1, 16984.76, -1672.0064)" opacity="1"><path d="M0,0 Q-1.3685,0.4799 -1.9598,0.7176 T-2.944,1.1785 -3.6753,1.6013 -4.6127,2.1294 -5.86,2.885 -7.4351,3.8514 -9.3545,5.0104 -11.2208,6.1699 -13.2088,7.4096 -15.2465,8.6916 -17.2408,9.9572 -19.342,11.2358 -21.2317,12.304 -22.866,13.1709 -24.4895,14.0013 -26.047,14.7894 -27.4724,15.4917 -28.8598,16.1685 -30.1506,16.7801 -31.2478,17.3088 -32.3596,17.8092 -33.535,18.2716 -34.6835,18.673 -36.206,19.1226 -37.9184,19.5302 -39.4475,19.8278 -41.4014,20.1331 -43.7712,20.3961 -45.9189,20.5533 -47.6878,20.6407 -49.2905,20.6893 -50.9298,20.7163 -52.4628,20.7312 -53.8678,20.7396 -55.2373,20.7442 -56.8358,20.7468 -58.3927,20.7482 -60.0821,20.749 -62.2006,20.7494 -64.253,20.7497 -66.2,20.7498 -68.1616,20.7499 -70.107,20.7322 -71.7412,20.669 -73.2846,20.5339 -74.9088,20.3011 -76.3111,20.0118 -77.6524,19.6867 -79.0176,19.3749 -80.2472,19.1039 -81.5325,18.7645 -83.0354,18.3382 -84.4637,17.9213 -85.8172,17.4742 -87.0248,17.0169 -87.9646,16.6451 -88.7445,16.3429 -89.2979,16.1372 -89.6343,16.0029 -89.8501,15.8906 -90.0078,15.7948 -90.1154,15.7105 -90.1908,15.6325 -90.2815,15.5381 -90.4008,15.4167 -90.6759,15.1427 -91.2776,14.5417 -92.0384,13.7812 -92.71,13.1497 -93.281,12.6478 -93.7671,12.2267 -94.1549,11.9149 -94.4482,11.7017 -94.6578,11.5588 -94.8054,11.446 -94.9185,11.3634 -95.0214,11.3041 -95.1763,11.1934 -95.389,11.0408 -95.6316,10.8672 -96.0663,10.533 -96.6322,10.1118 -97.1466,9.6933 -97.6435,9.2164 -98.0796,8.7315 -98.433,8.3154 -98.7094,8.0086 -98.9207,7.7871 -99.0759,7.6218 -99.1621,7.5166 -99.3011,7.7291 -99.4784,8.2782 -99.6701,8.91 -99.8656,9.5409 -99.9786,10.0403 -100.0414,10.4223 -100.0763,10.7279 -100.0957,10.9376 -100.1065,11.092 -100.1236,11.2333 -100.1709,11.3918 -100.2727,11.6953 -100.3892,12.1484 -100.5184,12.6823 -100.688,13.5477 -100.8885,14.8155 L-101,15.52 " stroke="#ae3ec9" fill="none" stroke-linecap="round" stroke-width="3.5" stroke-dasharray="none" stroke-dashoffset="0"/></g><g transform="matrix(1, 0, 0, 1, 16886.20, -1665.6872)" opacity="1"><path d="M0,0 Q2.2038,0 3.01,0 T4.4552,0 5.63,0.0111 6.62,0.0662 7.47,0.1834 8.22,0.3263 8.79,0.4412 9.21,0.5118 9.52,0.551 9.76,0.5728 9.99,0.5849 10.35,0.5916 10.82,0.5953 11.58,0.684 12.75,0.8807 L13.41,0.99 " stroke="#ae3ec9" fill="none" stroke-linecap="round" stroke-width="3.5" stroke-dasharray="none" stroke-dashoffset="0"/></g><g transform="matrix(1, 0, 0, 1, 16916.77, -1742.7894)" opacity="1"><path d="M0,0 Q2.3371,0 3.09,0 T4.3259,0 5.28,0 6.11,0 6.72,0 7.33,0 7.95,0 8.48,0 9.28,-0.04 10.52,-0.13 L11.21,-0.18 " stroke="#ae3ec9" fill="none" stroke-linecap="round" stroke-width="3.5" stroke-dasharray="none" stroke-dashoffset="0"/></g><g transform="matrix(1, 0, 0, 1, 16922.11, -1747.6405)" opacity="1"><path d="M0,0 Q0,2.6259 0,3.8642 T0,6.6513 L0,8.2 " stroke="#ae3ec9" fill="none" stroke-linecap="round" stroke-width="3.5" stroke-dasharray="none" stroke-dashoffset="0"/></g><g transform="matrix(1, 0, 0, 1, 16934.79, -1751.7302)" opacity="1"><path d="M0,0 Q0,2.457 0,3.3863 T0,5.0164 0,6.4376 0,7.6383 0.04,8.5032 0.13,9.1394 0.22,9.5862 0.29,9.9278 0.33,10.1709 0.36,10.386 0.37,10.7588 0.38,11.428 0.38,12.2575 0.41,13.4583 0.47,15.2271 L0.51,16.21 " stroke="#ae3ec9" fill="none" stroke-linecap="round" stroke-width="3.5" stroke-dasharray="none" stroke-dashoffset="0"/></g><g transform="matrix(1, 0, 0, 1, 16924.39, -1640.0047)" opacity="1"><path d="M0,0 Q1.0975,0 1.44,0 T1.991,0 2.35,0 2.63,0 3.17,0 4.11,0 L4.64,0 " stroke="#ae3ec9" fill="none" stroke-linecap="round" stroke-width="3.5" stroke-dasharray="none" stroke-dashoffset="0"/></g><g transform="matrix(1, 0, 0, 1, 16935.97, -1645.5534)" opacity="1"><path d="M0,0 Q0,2.6081 0,3.626 T0,5.3917 0,6.8394 0,8.1348 0,9.1413 0,9.8583 0,10.3722 0,10.7333 0,11.0096 0,11.2275 0,11.4241 0,11.6178 0,12.1497 0,13.1398 L0,13.69 " stroke="#ae3ec9" fill="none" stroke-linecap="round" stroke-width="3.5" stroke-dasharray="none" stroke-dashoffset="0"/></g></svg>