<svg xmlns="http://www.w3.org/2000/svg" direction="ltr" width="566.46" height="228.58" viewBox="16754.09 -2169.14234642965 566.46 228.58" stroke-linecap="round" stroke-linejoin="round" ><defs/><g transform="matrix(1, 0, 0, 1, 16786.09, -2096.7215)" opacity="1"><path d="M0,0 Q0.5954,1.0175 0.79,1.3357 T1.1512,1.873 1.41,2.236 1.65,2.5333 1.96,2.8717 2.39,3.3042 2.99,3.8421 3.67,4.4344 4.32,5.01 4.90,5.5499 5.35,6.0053 5.74,6.3473 6.08,6.584 6.31,6.7155 6.48,6.8041 6.63,6.8845 6.76,6.9825 6.88,7.128 7.06,7.3488 7.31,7.7137 7.77,8.4385 8.37,9.3367 8.98,10.1268 9.57,10.8191 10.04,11.3371 10.43,11.7316 10.75,11.9508 10.99,11.8194 11.24,11.3887 11.56,10.7406 11.90,9.9317 12.25,9.0912 12.65,8.2753 13.06,7.5443 13.41,6.8848 13.81,6.0629 14.20,5.1819 14.52,4.4901 14.82,3.9502 15.07,3.5636 15.26,3.2621 15.45,2.9324 15.66,2.5114 15.82,2.0554 16.03,1.5243 16.34,0.6826 16.76,-0.5018 L17,-1.16 " stroke="#ae3ec9" fill="none" stroke-linecap="round" stroke-width="3.5" stroke-dasharray="none" stroke-dashoffset="0"/></g><g transform="matrix(1, 0, 0, 1, 16811.40, -2092.53)" opacity="1"><path d="M0,0 Q1.2885,0 1.71,0 T2.4883,0 3.13,0 3.66,0 4.18,-0.0133 4.70,-0.0607 5.21,-0.207 5.83,-0.5127 6.54,-0.9558 7.31,-1.4309 8.02,-1.8881 8.65,-2.3377 9.18,-2.7097 9.60,-3.0053 9.94,-3.2473 10.14,-3.4218 10.25,-3.5521 10.31,-3.6578 10.34,-3.7521 10.33,-3.8978 10.12,-4.1387 9.78,-4.4036 9.44,-4.6508 8.98,-4.9437 8.44,-5.2264 7.94,-5.428 7.55,-5.5822 7.13,-5.6834 6.69,-5.7396 6.37,-5.7709 6.10,-5.7883 5.80,-5.7979 5.51,-5.8033 5.23,-5.8063 4.90,-5.8079 4.48,-5.7755 4.05,-5.682 3.73,-5.5456 3.46,-5.4209 3.22,-5.3072 3.00,-5.164 2.76,-4.9645 2.51,-4.7448 2.26,-4.5183 2.01,-4.2747 1.78,-4.0304 1.52,-3.6815 1.22,-3.2054 0.93,-2.7542 0.70,-2.4191 0.56,-2.1663 0.48,-1.9724 0.44,-1.8092 0.41,-1.6429 0.40,-1.355 0.39,-0.984 0.39,-0.4624 0.39,0.2274 0.39,0.9683 0.39,1.6577 0.39,2.1608 0.39,2.5426 0.39,2.8413 0.39,3.1184 0.43,3.3679 0.51,3.5688 0.63,3.7671 0.80,3.9394 1.02,4.1041 1.40,4.2911 1.82,4.4661 2.30,4.6456 2.84,4.803 3.33,4.9305 3.91,5.0725 4.59,5.2313 5.19,5.3551 5.69,5.424 6.13,5.5044 6.50,5.5913 6.79,5.6396 7.02,5.6664 7.24,5.6813 7.50,5.6896 7.85,5.6942 8.32,5.6968 8.94,5.6982 9.53,5.699 10.12,5.6995 10.72,5.6997 11.26,5.6998 11.85,5.6999 12.45,5.6822 13.19,5.4102 14.25,4.838 L14.85,4.52 " stroke="#ae3ec9" fill="none" stroke-linecap="round" stroke-width="3.5" stroke-dasharray="none" stroke-dashoffset="0"/></g><g transform="matrix(1, 0, 0, 1, 16840.30, -2095.9111)" opacity="1"><path d="M0,0 Q-1.1819,0.0622 -1.5436,0.1106 T-2.1485,0.2281 -2.5912,0.4444 -3.0417,0.7846 -3.4586,1.1402 -3.8169,1.5467 -4.2581,2.0969 -4.6855,2.6537 -5.0052,3.1497 -5.2473,3.5741 -5.4395,3.9277 -5.6286,4.2642 -5.818,4.6245 -6.0033,5.089 -6.1662,5.5871 -6.299,6.0016 -6.4194,6.3163 -6.5307,6.6179 -6.6148,6.9232 -6.6616,7.1706 -6.6875,7.4169 -6.702,7.6915 -6.6966,8.0841 -6.6382,8.5199 -6.5012,8.8665 -6.3007,9.1835 -6.0983,9.4685 -5.9391,9.698 -5.7906,9.85 -5.6282,9.9344 -5.4446,9.9813 -5.2248,10.0474 -5.0183,10.1241 -4.7258,10.1667 -4.3233,10.2082 -3.8775,10.2734 -3.4654,10.3341 -3.1787,10.3678 -2.8927,10.4288 -2.616,10.5048 -2.4201,10.5471 -2.2512,10.5706 -2.0974,10.5837 -1.9541,10.5909 -1.7946,10.595 -1.5882,10.5972 -1.3357,10.5984 -1.091,10.5991 -0.8706,10.5995 -0.6615,10.5997 -0.4365,10.5999 -0.1937,10.5999 0.05,10.6 0.32,10.5644 0.64,10.4558 0.96,10.2955 1.35,10.0753 1.81,9.8175 2.41,9.3499 3.29,8.5786 L3.78,8.15 " stroke="#ae3ec9" fill="none" stroke-linecap="round" stroke-width="3.5" stroke-dasharray="none" stroke-dashoffset="0"/></g><g transform="matrix(1, 0, 0, 1, 16850.07, -2104.068)" opacity="1"><path d="M0,0 Q0.2533,-1.2707 0.41,-1.6771 T0.7303,-2.356 1.07,-2.8354 1.50,-3.2218 2.01,-3.5764 2.78,-3.9735 3.61,-4.3229 4.26,-4.5638 4.94,-4.7576 5.60,-4.9208 6.12,-5.0493 6.52,-5.1207 6.83,-5.1604 7.06,-5.1824 7.25,-5.1947 7.42,-5.2015 7.60,-5.2053 7.86,-5.2074 8.21,-5.1663 8.62,-4.9925 9.16,-4.5915 9.75,-4.1154 10.22,-3.7442 10.63,-3.4136 10.96,-3.0921 11.18,-2.8068 11.30,-2.5638 11.44,-2.2667 11.62,-1.8971 11.76,-1.4563 11.93,-0.787 12.12,0.0292 12.27,0.8182 12.36,1.5877 12.41,2.3396 12.43,3.1551 12.45,3.9881 12.45,4.8376 12.46,5.8184 12.41,6.7899 12.27,7.6852 12.05,8.5427 11.74,9.4012 11.38,10.2427 10.93,11.1057 10.42,11.9584 10.00,12.6056 9.67,13.0763 9.34,13.5645 8.94,14.0912 8.53,14.5483 8.08,15.0667 7.44,15.7369 6.66,16.4447 5.95,17.0669 5.39,17.6037 4.97,18.0375 4.67,18.3541 4.43,18.5833 4.20,18.7462 3.99,18.9145 3.76,19.0747 3.51,19.2103 3.29,19.3279 3.09,19.4555 2.88,19.5886 2.67,19.6825 2.50,19.768 2.36,19.8511 2.27,19.8995 2.50,19.8708 3.22,19.7794 4.18,19.6397 5.23,19.4488 6.23,19.2983 7.11,19.1546 7.99,19.0082 9.06,18.9201 10.16,18.8712 11.18,18.844 12.33,18.8289 13.54,18.8205 14.57,18.8158 15.59,18.8132 16.93,18.8112 L17.68,18.81 " stroke="#ae3ec9" fill="none" stroke-linecap="round" stroke-width="3.5" stroke-dasharray="none" stroke-dashoffset="0"/></g><g transform="matrix(1, 0, 0, 1, 16884.01, -2119.8939)" opacity="1"><path d="M0,0 Q-0.6398,2.346 -0.8953,3.1089 T-1.3817,4.4045 -1.8741,5.5555 -2.4121,6.7594 -2.9532,7.8926 -3.5316,9.0334 -4.113,10.1804 -4.5982,11.2421 -5.0477,12.3209 -5.5197,13.4313 -5.9508,14.3793 -6.3126,15.2083 -6.6269,16.091 -6.8793,16.8681 -7.0818,17.5221 -7.3254,18.2965 -7.5829,19.1422 -7.7505,20.1476 -7.888,21.2017 -8.02,22.2095 -8.1044,23.285 -8.1513,24.3025 -8.1774,25.3588 -8.1919,26.4968 -8.1999,27.4957 -8.2044,28.3996 -8.2069,29.355 -8.2083,30.3258 -8.1779,31.3052 -8.0944,32.247 -7.9858,33.037 -7.7655,33.8825 -7.4521,34.8034 -7.1246,35.6994 -6.7538,36.7038 -6.3567,37.7796 -5.9694,38.7839 -5.5342,39.6997 -5.048,40.5929 -4.6113,41.3647 -4.2686,41.9513 -3.9804,42.4284 -3.6825,42.8645 -3.3971,43.2268 -3.154,43.5126 -2.8923,43.798 -2.6291,44.1121 -2.4162,44.3889 -2.1913,44.6493 -1.9286,44.934 -1.4871,45.421 -0.814,46.1788 L-0.44,46.6 " stroke="#ae3ec9" fill="none" stroke-linecap="round" stroke-width="3.5" stroke-dasharray="none" stroke-dashoffset="0"/></g><g transform="matrix(1, 0, 0, 1, 16893.38, -2111.4652)" opacity="1"><path d="M0,0 Q2.2349,-0.1333 2.95,-0.1703 T4.4839,-0.2279 6.04,-0.26 7.38,-0.2777 8.41,-0.2876 9.22,-0.2931 9.90,-0.2962 10.45,-0.269 10.85,-0.2139 11.16,-0.1722 11.41,-0.149 11.60,-0.085 11.74,0.0238 11.87,0.1377 12.06,0.3275 12.31,0.5708 12.57,0.9037 12.88,1.4086 13.14,1.9046 13.34,2.2736 13.51,2.5963 13.65,2.9156 13.74,3.1997 13.79,3.462 13.82,3.9854 13.84,4.7428 13.84,5.5213 13.85,6.6182 13.85,7.7875 13.85,8.735 13.85,9.5659 13.84,10.2675 13.79,10.8107 13.68,11.1991 13.41,11.5661 13.09,11.8788 12.74,12.1526 12.29,12.4225 11.70,12.6302 11.06,12.8145 10.55,12.9947 10.08,13.1214 9.67,13.1919 9.33,13.251 9.05,13.3239 8.84,13.3844 8.69,13.418 8.58,13.4366 8.56,13.447 8.96,13.4528 9.75,13.456 10.71,13.4889 11.74,13.6138 12.60,13.8143 13.42,14.0901 14.14,14.3966 14.73,14.6891 15.26,14.9939 15.66,15.2698 15.98,15.572 16.25,15.9755 16.50,16.4951 16.71,17.0616 16.88,17.6496 17.01,18.214 17.08,18.6477 17.12,18.9753 17.15,19.2662 17.16,19.5211 17.17,19.7361 17.17,19.92 17.17,20.0577 17.17,20.212 17.17,20.4222 17.06,20.6567 16.86,20.8426 16.65,20.9747 16.23,21.1992 15.63,21.5195 15.09,21.8241 14.59,22.0822 14.15,22.2589 13.67,22.4016 13.02,22.5675 12.12,22.733 11.04,22.9116 10.00,23.0775 9.08,23.1808 8.34,23.2382 7.71,23.2701 7.16,23.2878 6.74,23.2977 6.43,23.3032 6.21,23.3062 6.05,23.3079 5.93,23.3088 5.83,23.3093 5.68,23.3096 5.41,23.3098 4.93,23.3099 4.21,23.3099 3.39,23.31 2.61,23.31 1.95,23.31 1.32,23.2967 0.78,23.2471 0.37,23.1595 0.04,23.0464 -0.2017,22.9303 -0.3542,22.8213 -0.4745,22.7163 -0.6191,22.538 -0.8239,22.2345 -1.1465,21.786 -1.5946,21.1968 -2.0813,20.6384 -2.5761,20.1593 -3.2554,19.5553 -4.2226,18.7291 L-4.76,18.27 " stroke="#ae3ec9" fill="none" stroke-linecap="round" stroke-width="3.5" stroke-dasharray="none" stroke-dashoffset="0"/></g><g transform="matrix(1, 0, 0, 1, 16922.58, -2089.0016)" opacity="1"><path d="M0,0 Q0,1.0797 -0.0267,1.4441 T-0.097,2.0776 -0.1872,2.5896 -0.3506,3.1918 -0.6347,3.8619 -0.9903,4.5142 -1.3501,5.141 -1.6566,5.6671 -1.878,6.106 -2.0122,6.4344 -2.1001,6.7012 -2.3955,7.225 -2.9705,8.096 L-3.29,8.58 " stroke="#ae3ec9" fill="none" stroke-linecap="round" stroke-width="3.5" stroke-dasharray="none" stroke-dashoffset="0"/></g><g transform="matrix(1, 0, 0, 1, 16956.83, -2124.5756)" opacity="1"><path d="M0,0 Q1.0086,1.4129 1.41,2.0232 T2.2051,3.2259 2.82,4.2518 3.36,5.1819 3.91,6.2118 4.47,7.3507 5.04,8.4812 5.50,9.4137 5.86,10.2385 6.13,10.9456 6.35,11.5851 6.55,12.3249 6.75,13.0447 6.89,13.7202 7.04,14.5199 7.18,15.4174 7.26,16.1672 7.31,16.7261 7.33,17.4409 7.35,18.2892 7.36,19.076 7.36,20.0175 7.36,21.1716 7.32,22.3128 7.21,23.2601 6.92,24.2442 6.48,25.3598 6.05,26.4351 5.65,27.4192 5.24,28.4793 4.80,29.6748 4.41,30.759 3.99,31.9746 3.54,33.31 3.09,34.5696 2.66,35.7094 2.28,36.6383 1.91,37.4633 1.59,38.1438 1.25,38.853 0.86,39.5959 0.52,40.2175 0.13,40.8384 -0.2741,41.5212 -0.6499,42.1693 -0.9943,42.6939 -1.4411,43.3542 -2.0896,44.3221 L-2.45,44.86 " stroke="#ae3ec9" fill="none" stroke-linecap="round" stroke-width="3.5" stroke-dasharray="none" stroke-dashoffset="0"/></g><g transform="matrix(1, 0, 0, 1, 17039.57, -2106.4711)" opacity="1"><path d="M0,0 Q0,2.8658 0,4.2708 T0,6.6564 0,8.4841 0,9.9263 0,11.0409 0,11.9025 0,12.559 0,13.2614 0,14.2716 0,15.4417 0,16.6561 0,18.0952 0,19.6746 0,21.4908 L0,22.5 " stroke="#ae3ec9" fill="none" stroke-linecap="round" stroke-width="3.5" stroke-dasharray="none" stroke-dashoffset="0"/></g><g transform="matrix(1, 0, 0, 1, 17039.92, -2105.9249)" opacity="1"><path d="M0,0 Q1.9905,-1.0486 2.71,-1.4043 T4.16,-2.0156 5.38,-2.4485 6.37,-2.7247 7.21,-2.9203 7.95,-3.0846 8.68,-3.1892 9.35,-3.2473 9.98,-3.2796 10.63,-3.2976 11.17,-3.3075 11.58,-3.3131 12.04,-3.3161 12.52,-3.3179 12.87,-3.3188 13.19,-3.3038 13.48,-3.2332 13.69,-3.1052 13.88,-2.9385 14.07,-2.7192 14.22,-2.4708 14.33,-2.1816 14.44,-1.781 14.56,-1.294 14.62,-0.8502 14.66,-0.4324 14.68,0.0063 14.69,0.51 14.70,1.0276 14.65,1.5463 14.43,2.1655 13.98,2.8362 13.41,3.5332 12.87,4.1227 12.41,4.537 12.00,4.8893 11.67,5.2251 11.42,5.5161 11.22,5.72 11.05,5.8355 10.79,5.8997 10.35,5.9887 9.68,6.0915 8.84,6.1975 7.91,6.323 6.57,6.475 4.89,6.646 3.52,6.7966 2.53,6.9248 1.52,7.0071 0.22,7.0732 L-0.5,7.11 " stroke="#ae3ec9" fill="none" stroke-linecap="round" stroke-width="3.5" stroke-dasharray="none" stroke-dashoffset="0"/></g><g transform="matrix(1, 0, 0, 1, 17067.51, -2107.3322)" opacity="1"><path d="M0,0 Q-1.1063,0.5465 -1.5515,0.8405 T-2.2995,1.3535 -2.9529,2.0051 -3.6269,2.8603 -4.2481,3.6999 -4.7777,4.4131 -5.1653,4.9182 -5.4073,5.3167 -5.5418,5.6336 -5.6165,5.8586 -5.6581,6.0392 -5.6811,6.1862 -5.6584,6.3234 -5.548,6.4996 -5.3512,6.7086 -5.0308,6.9025 -4.5483,7.108 -4.0026,7.3466 -3.4794,7.6058 -2.9243,7.8476 -2.3759,8.0442 -1.9423,8.1889 -1.5858,8.2694 -1.2256,8.3141 -0.8699,8.3389 -0.5456,8.3527 -0.2054,8.3604 0.13,8.3647 0.47,8.367 0.85,8.3684 1.36,8.3691 1.88,8.3695 2.36,8.3697 2.81,8.3698 3.16,8.3699 3.49,8.37 3.78,8.37 4.02,8.37 4.25,8.37 4.52,8.37 4.80,8.37 5.04,8.3345 5.28,8.1881 5.57,7.8468 5.86,7.4372 6.13,7.023 6.42,6.5196 6.69,5.9911 6.91,5.5441 7.06,5.209 7.16,4.9495 7.25,4.7387 7.33,4.5615 7.38,4.392 7.40,4.1556 7.42,3.8399 7.43,3.5423 7.43,3.2702 7.43,3.0213 7.43,2.8363 7.43,2.6913 7.40,2.5752 7.32,2.464 7.21,2.3445 7.06,2.2359 6.86,2.1177 6.61,1.9743 6.31,1.8524 5.93,1.7758 5.56,1.6955 5.19,1.6086 4.82,1.5559 4.50,1.5266 4.23,1.5104 4.02,1.5013 3.87,1.4963 3.75,1.4935 3.65,1.4919 3.52,1.4911 3.03,1.4906 2.10,1.4902 L1.59,1.49 " stroke="#ae3ec9" fill="none" stroke-linecap="round" stroke-width="3.5" stroke-dasharray="none" stroke-dashoffset="0"/></g><g transform="matrix(1, 0, 0, 1, 17069.10, -2105.8461)" opacity="1"><path d="M2.1806,-0.1319 Q2.2131,0.4056 1.99,0.8967 T1.3472,1.7198 0.39,2.1489 -0.6501,2.0856 -1.5449,1.5446 -2.0858,0.6497 -2.1488,-0.3941 -1.7195,-1.3475 -0.8963,-1.9923 0.13,-2.1806 1.13,-1.8693 1.86,-1.13 2.18,-0.1319 Z" fill="#ae3ec9" stroke-linecap="round"/></g><g transform="matrix(1, 0, 0, 1, 17084.25, -2128.2793)" opacity="1"><path d="M0,0 Q0,2.8525 0,3.9472 T0,5.7745 0,7.2965 0,8.8532 0,10.5313 0,12.3724 0,14.0553 0,15.7147 0,17.3254 0,18.7315 0,19.9993 0,21.0171 0,21.9403 0,23.1465 0,24.8008 L0,25.72 " stroke="#ae3ec9" fill="none" stroke-linecap="round" stroke-width="3.5" stroke-dasharray="none" stroke-dashoffset="0"/></g><g transform="matrix(1, 0, 0, 1, 17100.68, -2109.6769)" opacity="1"><path d="M0,0 Q-0.8575,0.4932 -1.0958,0.6502 T-1.4664,0.9167 -1.6902,1.1092 -1.85,1.2562 -1.9589,1.4023 -2.0216,1.5501 -2.092,1.6945 -2.1888,1.8813 -2.2938,2.094 -2.381,2.2988 -2.4294,2.4749 -2.4919,2.6326 -2.5621,2.8092 -2.6012,3.0184 -2.6229,3.219 -2.6349,3.5038 -2.6416,3.882 -2.6453,4.2455 -2.6918,4.6274 -2.7621,4.9662 -2.8012,5.2278 -2.8229,5.4709 -2.8349,5.6793 -2.8416,5.844 -2.8453,6.0222 -2.8474,6.2189 -2.7908,6.4349 -2.6572,6.6438 -2.5162,6.8043 -2.3535,6.9357 -2.1254,7.0309 -1.8808,7.0838 -1.6383,7.1132 -1.3969,7.1296 -1.1783,7.1386 -0.948,7.1437 -0.7023,7.1465 -0.4503,7.1481 -0.1369,7.1489 0.20,7.1494 0.52,7.1497 0.79,7.1498 0.98,7.1499 1.12,7.1499 1.24,7.15 1.36,7.15 1.52,7.15 1.67,7.1144 1.84,7.0147 2.08,6.8904 2.29,6.7747 2.46,6.6838 2.58,6.6088 2.69,6.5094 2.82,6.3608 3.02,6.065 3.27,5.634 3.55,5.1013 3.83,4.5964 4.08,4.1515 4.31,3.7087 4.48,3.3627 4.58,3.0838 4.64,2.8689 4.67,2.6939 4.68,2.5166 4.71,2.2116 4.77,1.8221 4.84,1.4502 4.89,1.1013 4.92,0.8208 4.94,0.5761 4.94,0.3757 4.98,0.2576 5.03,0.2476 5.10,0.3442 5.27,0.58 5.60,1.0066 6.11,1.6235 6.82,2.4128 7.63,3.2846 8.38,4.1423 9.08,4.9588 9.68,5.6991 10.11,6.2638 10.43,6.6575 10.74,7.0141 11.13,7.6921 11.64,8.8092 L11.93,9.43 " stroke="#ae3ec9" fill="none" stroke-linecap="round" stroke-width="3.5" stroke-dasharray="none" stroke-dashoffset="0"/></g><g transform="matrix(1, 0, 0, 1, 17118.24, -2111.6304)" opacity="1"><path d="M0,0 Q0,0.9108 0,1.2172 T0,1.7672 0,2.3594 0.07,3.1172 0.23,3.9249 0.39,4.6692 0.60,5.4804 0.86,6.3444 1.06,6.9845 1.19,7.4246 1.29,7.798 1.38,8.0988 1.43,8.3326 1.46,8.5314 1.48,8.7907 1.48,9.1369 1.49,9.4671 1.49,9.6506 1.49,9.6192 1.49,9.4329 1.49,9.2206 1.49,9.0448 1.49,8.8561 1.49,8.6334 1.49,8.3209 1.5,7.9717 1.5,7.6821 1.56,7.3413 1.76,6.7942 1.98,6.1725 2.14,5.6893 2.26,5.3564 2.36,5.107 2.46,4.9061 2.51,4.7568 2.55,4.6383 2.65,4.4813 2.76,4.2986 2.88,4.1081 3.08,3.8091 3.32,3.4674 3.54,3.1731 3.79,2.8673 4.02,2.5797 4.19,2.3755 4.35,2.2197 4.49,2.1043 4.62,2.0402 4.76,2.0046 5.00,1.9848 5.40,1.9738 5.82,1.9676 6.42,1.9642 7.23,1.9624 8.01,1.9613 8.69,1.9607 9.18,1.9604 9.52,1.9602 9.74,1.9601 9.92,1.9601 10.13,1.96 10.33,1.96 10.75,2.1888 11.52,2.7038 L11.95,2.99 " stroke="#ae3ec9" fill="none" stroke-linecap="round" stroke-width="3.5" stroke-dasharray="none" stroke-dashoffset="0"/></g><g transform="matrix(1, 0, 0, 1, 17148.87, -2134.5716)" opacity="1"><path d="M0,0 Q-0.4843,1.995 -0.7588,2.8203 T-1.297,4.3108 -1.8493,5.6101 -2.5427,7.1696 -3.3413,8.9137 -4.1138,10.4916 -4.723,11.7972 -5.2393,12.9092 -5.7795,14.0714 -6.1951,15.1371 -6.5661,16.1514 -6.9299,17.1372 -7.1899,17.996 -7.3899,18.7709 -7.5921,19.5391 -7.76,20.2882 -7.9088,20.9999 -8.0471,21.6886 -8.1239,22.2335 -8.1666,22.6785 -8.1903,23.0502 -8.2035,23.4877 -8.2108,24.0886 -8.2149,24.8268 -8.2172,25.548 -8.2184,26.3309 -8.2191,27.228 -8.2195,28.0464 -8.182,28.91 -8.0745,29.7608 -7.8348,30.6602 -7.515,31.5665 -7.1706,32.4034 -6.8638,33.1994 -6.6244,33.9506 -6.3403,34.7168 -6.0847,35.4024 -5.8738,36.07 -5.6166,36.7787 -5.3626,37.4369 -5.1415,37.9892 -4.9431,38.4205 -4.7285,38.8624 -4.5137,39.3056 -4.3254,39.663 -4.1386,39.9994 -3.9704,40.2907 -3.7992,40.5014 -3.4152,40.9073 -2.7498,41.6418 L-2.38,42.05 " stroke="#ae3ec9" fill="none" stroke-linecap="round" stroke-width="3.5" stroke-dasharray="none" stroke-dashoffset="0"/></g><g transform="matrix(1, 0, 0, 1, 16934.82, -2117.4095)" opacity="1"><path d="M0,0 Q-1.0663,1.5462 -1.4004,2.0647 T-1.9356,2.9135 -2.2752,3.4917 -2.4906,3.8997 -2.6303,4.2331 -2.7457,4.5538 -2.8631,4.8676 -2.9706,5.1686 -3.077,5.4625 -3.1805,5.7546 -3.2603,5.9814 -3.369,6.2407 -3.5227,6.6136 -3.757,7.2185 -4.0094,7.9501 -4.2051,8.6343 -4.3917,9.2722 -4.5376,9.8177 -4.6186,10.2519 -4.6992,10.5799 -4.7218,10.8176 -4.5699,10.9653 -4.2012,11.1429 -3.7097,11.3238 -3.2055,11.4243 -2.5877,11.4801 -1.8912,11.5112 -1.2864,11.5284 -0.6593,11.538 0.14,11.5433 0.93,11.5463 1.71,11.5479 2.58,11.5355 3.44,11.4731 4.28,11.3962 5.15,11.3534 6.11,11.3297 7.07,11.3165 8.16,11.3092 9.67,11.3033 L10.52,11.3 " stroke="#ae3ec9" fill="none" stroke-linecap="round" stroke-width="3.5" stroke-dasharray="none" stroke-dashoffset="0"/></g><g transform="matrix(1, 0, 0, 1, 16945.34, -2115.6973)" opacity="1"><path d="M0,0 Q0,3.6789 0,4.901 T0,7.0844 0,8.6931 0,9.7225 0,10.4012 0,10.905 0,11.2449 0,11.4893 0,11.9073 -0.0333,12.5683 -0.1185,13.2755 -0.288,14.1417 -0.531,15.1984 -0.7527,16.1055 -0.9026,16.7384 -0.9859,17.2101 -1.0321,17.5566 -1.1023,17.8758 -1.1857,18.1931 -1.232,18.5116 -1.3133,18.9552 -1.414,19.4727 -1.4811,19.9825 -1.5606,20.4412 -1.6359,20.805 -1.6777,21.0827 -1.7009,21.277 -1.7138,21.4205 -1.721,21.9113 -1.725,22.8171 -1.7272,23.907 -1.729,25.2845 L-1.73,26.05 " stroke="#ae3ec9" fill="none" stroke-linecap="round" stroke-width="3.5" stroke-dasharray="none" stroke-dashoffset="0"/></g><g transform="matrix(1, 0, 0, 1, 17170.54, -2127.5909)" opacity="1"><path d="M0,0 Q-2.5148,0 -3.4335,0 T-5.0226,0 -6.1855,0 -7.005,0 -7.5693,0 -7.9628,0 -8.2237,0 -8.402,0 -8.5322,0 -8.7023,0 -8.9656,0 -9.243,0 -9.4972,0 -9.7472,0 -9.9751,0 -10.1572,0 -10.2806,0.0156 -10.3514,0.0531 -10.3908,0.105 -10.4127,0.2005 -10.4248,0.338 -10.4316,0.4878 -10.4353,0.8109 -10.4374,1.3548 -10.4386,2.2324 -10.4392,3.6665 -10.4662,5.2387 -10.5612,6.8343 -10.6673,8.3431 -10.7263,9.5769 -10.759,10.5669 -10.7772,11.2214 -10.7873,11.6917 -10.7085,12.0153 -10.4048,12.1907 -9.9961,12.2281 -9.5758,12.1223 -9.1733,11.9836 -8.8431,11.9064 -8.544,11.8636 -8.2379,11.8398 -7.8678,11.8265 -7.4134,11.8192 -6.7076,11.8951 -5.7001,12.175 -4.6559,12.6082 -3.7558,13.0644 -3.0379,13.4557 -2.4412,13.8042 -1.9142,14.1644 -1.5235,14.4624 -1.2643,14.6724 -1.0802,14.8801 -0.9335,15.1489 -0.7698,15.4937 -0.5788,15.9253 -0.3483,16.4583 -0.078,17.0589 0.17,17.5992 0.35,18.0172 0.46,18.325 0.51,18.5494 0.55,18.7407 0.56,18.9004 0.57,19.0246 0.58,19.1425 0.56,19.3302 0.43,19.5878 0.13,19.8421 -0.3674,20.1299 -1.2327,20.5654 -2.3956,21.0828 -3.5061,21.5326 -4.4609,21.9291 -5.3002,22.2472 -6.0155,22.4817 -6.5618,22.6542 -7.0586,22.7501 -7.5657,22.8034 -7.9675,22.833 -8.2774,22.8494 -8.534,22.8586 -9.0543,22.8636 -9.9643,22.8677 L-10.47,22.87 " stroke="#ae3ec9" fill="none" stroke-linecap="round" stroke-width="3.5" stroke-dasharray="none" stroke-dashoffset="0"/></g><g transform="matrix(1, 0, 0, 1, 17183.28, -2104.3474)" opacity="1"><path d="M0,0 Q-0.1155,2.3904 -0.3165,3.3611 T-0.6935,5.0379 -1.094,6.3873 -1.5366,7.7237 -2.0273,9.2833 L-2.3,10.15 " stroke="#ae3ec9" fill="none" stroke-linecap="round" stroke-width="3.5" stroke-dasharray="none" stroke-dashoffset="0"/></g><g transform="matrix(1, 0, 0, 1, 17205.64, -2124.7052)" opacity="1"><path d="M0,0 Q-2.1549,0 -2.8558,0 T-4.0484,0 -4.8333,0 -5.3139,0.0156 -5.6632,0.413 -6.0817,1.5757 -6.6563,3.266 -7.2689,5.1272 -7.8203,6.8324 -8.2245,8.1398 -8.4846,9.0552 -8.6736,9.6505 -8.792,10.0568 -8.8578,10.3781 -8.8943,10.6456 -8.9146,10.8475 -8.9259,11.0152 -8.9322,11.3084 -8.9356,11.7734 -8.9376,12.4695 -8.9387,13.465 -8.9393,14.498 -8.9396,15.4431 -8.9398,16.2348 -8.9399,16.848 -8.9399,17.3177 -8.94,17.6519 -8.94,17.911 -8.9244,18.0994 -8.7292,18.3218 -8.2253,18.6254 -7.5165,18.9296 -6.736,19.1852 -5.958,19.3873 -5.2747,19.5218 -4.695,19.5965 -4.2085,19.6381 -3.7204,19.6611 -3.2559,19.674 -2.9023,19.6811 -2.3192,19.685 -1.3687,19.5962 -0.203,19.2135 1.20,18.5077 2.70,17.6668 4.25,16.6774 5.83,15.6389 7.14,14.7441 8.27,13.9158 9.18,13.2312 9.79,12.7553 10.27,12.4019 10.60,12.1434 10.78,11.9442 10.89,11.7446 10.94,11.4671 10.98,11.0352 10.99,10.5352 11.00,9.7531 11.01,8.6499 11.01,7.628 11.01,6.6492 11.01,5.7165 11.01,4.9027 11.01,4.2395 11.01,3.7865 11.00,3.4926 10.96,3.327 10.90,3.2195 10.81,3.122 10.66,3.0456 10.41,2.9764 10.09,2.8847 9.66,2.8071 8.99,2.7084 8.23,2.598 7.58,2.4834 6.99,2.3508 6.44,2.2038 5.92,1.9777 5.41,1.7255 4.92,1.4987 4.45,1.2749 3.98,1.0483 3.57,0.8669 3.27,0.7616 3.01,0.6698 2.78,0.5833 2.59,0.5329 2.44,0.4894 2.31,0.4341 2.16,0.3679 1.97,0.2866 1.75,0.1904 1.47,0.048 0.89,-0.1866 -0.0454,-0.5102 L-0.57,-0.69 " stroke="#ae3ec9" fill="none" stroke-linecap="round" stroke-width="3.5" stroke-dasharray="none" stroke-dashoffset="0"/></g><g transform="matrix(1, 0, 0, 1, 17224.58, -2099.9298)" opacity="1"><path d="M2.1806,-0.1319 Q2.2131,0.4056 1.99,0.8967 T1.3472,1.7198 0.39,2.1489 -0.6501,2.0856 -1.5449,1.5446 -2.0858,0.6497 -2.1488,-0.3941 -1.7195,-1.3475 -0.8963,-1.9923 0.13,-2.1806 1.13,-1.8693 1.86,-1.13 2.18,-0.1319 Z" fill="#ae3ec9" stroke-linecap="round"/></g><g transform="matrix(1, 0, 0, 1, 17240.42, -2124.3241)" opacity="1"><path d="M0,0 Q-0.4265,1.8972 -0.6561,2.7087 T-1.04,4.0289 -1.3221,5.0091 -1.5655,6.0314 -1.783,7.1327 -1.9905,8.1112 -2.1858,8.946 -2.3565,9.7586 -2.4825,10.4102 -2.5702,10.9188 -2.6745,11.417 -2.7703,11.9026 -2.8435,12.348 -3.0063,13.0065 -3.2234,13.89 -3.4263,14.7631 -3.6234,15.577 -3.7596,16.1582 -3.8353,16.5655 -3.8774,16.9185 -3.9008,17.1991 -3.9138,17.4105 -3.921,17.608 -3.925,17.8088 -3.9272,18.1048 -3.8729,18.5981 -3.6806,19.1854 -3.3226,19.8051 -2.8705,20.4559 -2.4082,21.0576 -2.0069,21.5363 -1.6973,21.8889 -1.4408,22.136 -1.2183,22.28 -1.0124,22.36 -0.8358,22.4044 -0.68,22.4291 -0.5045,22.4428 -0.2959,22.4505 -0.0778,22.4547 0.13,22.4571 0.44,22.4584 0.83,22.4591 1.18,22.4595 1.76,22.4597 2.50,22.4598 3.08,22.4599 3.53,22.3955 4.01,22.202 4.52,21.9368 5.02,21.5783 5.45,21.177 5.82,20.8095 6.22,20.3965 6.62,20.0026 6.94,19.6949 7.20,19.4017 7.43,19.1388 7.60,18.9483 7.70,18.7958 7.75,18.6688 7.78,18.5605 7.79,18.4647 7.80,18.3516 7.81,18.0621 7.81,17.4813 7.81,16.7165 7.70,15.8805 7.45,15.0094 7.16,14.1144 6.86,13.1994 6.47,12.2822 6.01,11.4992 5.56,10.9775 5.09,10.632 4.54,10.4001 3.98,10.2712 3.45,10.1996 3.01,10.1598 2.70,10.1377 2.47,10.1254 2.30,10.1185 2.17,10.1147 2.04,10.1126 1.93,10.1115 1.83,10.1108 1.72,10.1105 1.57,10.1103 1.29,10.1101 0.89,10.1101 0.47,10.11 -0.2646,10.11 -1.3865,10.11 L-2.01,10.11 " stroke="#ae3ec9" fill="none" stroke-linecap="round" stroke-width="3.5" stroke-dasharray="none" stroke-dashoffset="0"/></g><g transform="matrix(1, 0, 0, 1, 17261.35, -2122.5561)" opacity="1"><path d="M0,0 Q-0.1111,1.4485 -0.1908,2.0731 T-0.4215,3.1558 -0.7474,4.0396 -1.0462,4.7663 -1.2612,5.2878 -1.4673,5.7064 -1.6462,6.0346 -1.7634,6.2614 -1.8819,6.4896 -2.0277,6.7386 -2.2575,7.0236 -2.6585,7.5041 -3.1612,8.1576 -3.6628,8.7963 -4.0592,9.3022 -4.3306,9.69 -4.5258,10.0343 -4.6343,10.3101 -4.5969,10.5011 -4.2272,10.625 -3.562,10.6939 -2.7636,10.6988 -1.9,10.6349 -0.967,10.5661 0.12,10.4723 1.24,10.3446 2.36,10.2071 3.41,10.084 4.23,10.0156 5.05,9.9775 5.87,9.9142 6.48,9.8235 6.96,9.7597 7.36,9.7243 7.66,9.7046 7.87,9.6937 8.08,9.6876 8.57,9.6087 9.43,9.436 L9.92,9.34 " stroke="#ae3ec9" fill="none" stroke-linecap="round" stroke-width="3.5" stroke-dasharray="none" stroke-dashoffset="0"/></g><g transform="matrix(1, 0, 0, 1, 17271.71, -2124.3597)" opacity="1"><path d="M0,0 Q0,1.6617 0,2.139 T0,2.897 0,3.3515 0,3.6397 0,3.8775 0,4.1452 0,4.525 0,5.0759 0,5.8775 0,6.8161 0,7.8486 0,8.8623 0,9.6766 0,10.3423 0,10.8078 0,11.3198 -0.0666,12.1196 -0.1703,13.0217 -0.2279,14.0007 -0.26,15.0156 -0.2777,15.8329 -0.2876,16.4581 -0.2931,16.9144 -0.2962,17.2079 -0.2979,17.4177 -0.2988,17.5831 -0.2993,17.7239 -0.2996,17.8488 -0.2998,17.9493 -0.2999,18.0363 -0.2999,18.1312 -0.3,18.4506 -0.3,19.1235 -0.3,20.2505 -0.3,21.87 L-0.3,22.77 " stroke="#ae3ec9" fill="none" stroke-linecap="round" stroke-width="3.5" stroke-dasharray="none" stroke-dashoffset="0"/></g><g transform="matrix(1, 0, 0, 1, 17279.97, -2137.1423)" opacity="1"><path d="M0,0 Q1.3285,0.9064 1.77,1.2982 T2.4915,1.9655 3.02,2.6739 3.52,3.5741 3.97,4.472 4.34,5.2531 4.72,6.1093 5.11,7.0115 5.45,7.7684 5.85,8.5844 6.23,9.3578 6.52,10.0141 6.73,10.7099 6.88,11.3786 7.03,12.0768 7.19,12.7825 7.39,13.6078 7.59,14.5663 7.75,15.381 7.90,16.1981 8.05,17.0765 8.23,18.1155 8.38,19.5415 8.47,21.107 8.52,22.5879 8.54,23.9396 8.56,25.1594 8.56,26.2971 8.57,27.4292 8.57,28.6558 8.57,29.8929 8.53,30.9468 8.42,31.8191 8.26,32.6104 8.03,33.3522 7.80,33.9799 7.62,34.4265 7.48,34.7657 7.36,35.0387 7.24,35.3303 7.06,35.71 6.81,36.1988 6.31,37.1546 5.66,38.41 4.94,39.8318 4.19,41.3105 3.59,42.4144 3.11,43.2655 2.74,43.9162 2.47,44.3955 2.31,44.7485 2.18,44.9758 2.06,45.1265 1.88,45.3658 1.62,45.6676 1.17,46.1863 0.46,47.0693 L0.07,47.56 " stroke="#ae3ec9" fill="none" stroke-linecap="round" stroke-width="3.5" stroke-dasharray="none" stroke-dashoffset="0"/></g><g transform="matrix(1, 0, 0, 1, 16793.82, -2015.5175)" opacity="1"><path d="M0,0 Q0.5954,-0.5865 0.90,-0.7494 T1.5392,-1.003 2.23,-1.1438 3.08,-1.0955 4.04,-0.8576 5.21,-0.5076 6.50,-0.071 7.64,0.3848 8.54,0.8115 9.16,1.1263 9.62,1.3279 9.97,1.4799 10.19,1.6443 10.32,1.849 10.39,2.0783 10.43,2.3123 10.45,2.72 10.36,3.2999 10.01,3.9331 9.47,4.6271 8.65,5.5681 7.58,6.7197 6.45,7.9195 5.27,9.1993 4.12,10.4748 3.06,11.6057 2.20,12.4074 1.55,12.935 0.95,13.3882 0.46,13.8 0.14,14.0844 -0.1227,14.2513 -0.3014,14.344 -0.2341,14.3955 0.16,14.4242 0.82,14.4401 1.75,14.4489 2.93,14.4539 4.20,14.4566 5.50,14.4892 7.16,14.7206 9.25,15.1402 11.12,15.5733 12.50,15.9317 13.50,16.2287 14.17,16.4692 14.64,16.6517 14.97,16.8176 15.19,17.0097 15.34,17.2675 15.42,17.7507 15.46,18.4524 15.48,19.36 15.50,20.4996 15.51,21.5328 15.51,22.6001 15.51,23.6309 15.50,24.3369 15.44,24.8693 15.36,25.285 15.25,25.5783 15.06,25.8167 14.64,26.0603 14.04,26.309 13.32,26.5627 12.38,26.797 10.99,27.0871 9.32,27.4016 7.67,27.6608 6.17,27.8515 4.61,28.0308 3.05,28.2037 1.84,28.2998 0.83,28.3532 -0.0223,28.3829 -0.7477,28.3994 -1.3819,28.4085 -2.2497,28.3181 -3.5483,28.1072 L-4.27,27.99 " stroke="#ae3ec9" fill="none" stroke-linecap="round" stroke-width="3.5" stroke-dasharray="none" stroke-dashoffset="0"/></g><g transform="matrix(1, 0, 0, 1, 16868.36, -2010.1694)" opacity="1"><path d="M0,0 Q0,2.0527 0,2.7897 T0,4.1161 0,5.2131 0,6.0937 0,6.8029 0,7.5992 0,8.5859 0,9.7252 0,10.9736 0,12.1828 0,13.2945 0,14.19 0,14.8232 0,15.3038 0,15.6509 0,15.886 0,16.0611 0,16.2183 0,16.3635 -0.0267,16.5152 -0.0704,16.6684 -0.0969,16.8313 -0.1116,17.0151 -0.1198,17.1728 -0.1243,17.316 -0.1268,17.4799 -0.1282,17.6799 -0.129,18.0709 -0.1295,18.6703 -0.1741,19.3744 -0.27,20.4433 -0.3857,21.9903 L-0.45,22.85 " stroke="#ae3ec9" fill="none" stroke-linecap="round" stroke-width="3.5" stroke-dasharray="none" stroke-dashoffset="0"/></g><g transform="matrix(1, 0, 0, 1, 16887.28, -2010.3052)" opacity="1"><path d="M0,0 Q-0.0444,2.1816 -0.0568,2.9343 T-0.076,4.4786 -0.0867,6.0054 -0.0926,7.3315 -0.0959,8.8371 -0.0977,10.5756 -0.0987,12.0038 -0.0993,13.1484 -0.1374,14.1244 -0.2452,14.9289 -0.354,15.6047 -0.4144,16.1203 -0.448,16.5 -0.4667,16.7955 -0.477,17.0152 -0.4828,17.1973 -0.486,17.3451 -0.4878,17.4961 -0.4888,17.7267 -0.4893,18.1325 -0.4896,18.649 -0.4898,19.0849 -0.4899,19.4382 -0.4899,19.75 -0.49,19.9944 -0.49,20.1857 -0.49,20.3365 -0.49,20.4669 -0.49,20.6016 -0.49,21.1229 -0.49,22.1495 L-0.49,22.72 " stroke="#ae3ec9" fill="none" stroke-linecap="round" stroke-width="3.5" stroke-dasharray="none" stroke-dashoffset="0"/></g><g transform="matrix(1, 0, 0, 1, 16896.45, -1987.5815)" opacity="1"><path d="M0,0 Q0.862,-0.5732 1.15,-0.7524 T1.6769,-1.0601 2.11,-1.2956 2.49,-1.4619 2.81,-1.5655 3.05,-1.6519 3.25,-1.7177 3.41,-1.7543 3.62,-1.8035 3.87,-1.8597 4.11,-1.8909 4.36,-1.9083 4.60,-1.9179 4.86,-1.9233 5.14,-1.9263 5.42,-1.9279 5.71,-1.9288 5.97,-1.9294 6.21,-1.9296 6.47,-1.9298 6.70,-1.8921 6.90,-1.8045 7.07,-1.7003 7.23,-1.5736 7.41,-1.412 7.59,-1.2512 7.74,-1.0685 7.88,-0.7959 7.96,-0.5089 8.01,-0.245 8.03,0.0371 8.05,0.3516 8.06,0.673 8.06,1.0693 8.06,1.4895 7.96,1.9229 7.75,2.3993 7.48,2.8461 7.14,3.2699 6.80,3.6387 6.37,3.9814 5.94,4.274 5.60,4.5011 5.26,4.7139 4.88,4.901 4.52,5.0538 4.13,5.221 3.68,5.4138 3.20,5.6165 2.72,5.8291 2.28,6.0406 1.88,6.2314 1.47,6.4596 1.07,6.7797 0.71,7.1264 0.42,7.4257 0.17,7.7075 -0.0538,7.9774 -0.2298,8.1985 -0.361,8.4058 -0.4738,8.5787 -0.5299,8.677 -0.4389,8.7317 -0.155,8.762 0.29,8.7789 0.77,8.7883 1.30,8.7935 2.00,8.7964 2.82,8.798 3.69,8.7989 4.49,8.7994 5.20,8.7997 5.90,8.7998 6.63,8.7999 7.26,8.7999 7.76,8.8311 8.26,8.8839 8.83,8.9177 9.63,8.972 10.76,9.0672 L11.39,9.12 " stroke="#ae3ec9" fill="none" stroke-linecap="round" stroke-width="3.5" stroke-dasharray="none" stroke-dashoffset="0"/></g><g transform="matrix(1, 0, 0, 1, 16964.29, -2011.3708)" opacity="1"><path d="M0,0 Q0,1.5818 0,2.0634 T0,2.9305 0,3.8056 0,5.1494 0,6.998 0,9.3293 0,11.8355 0.03,14.3568 0.21,16.8464 0.57,18.994 1.04,21.267 L1.31,22.53 " stroke="#ae3ec9" fill="none" stroke-linecap="round" stroke-width="3.5" stroke-dasharray="none" stroke-dashoffset="0"/></g><g transform="matrix(1, 0, 0, 1, 16977.42, -2010.7654)" opacity="1"><path d="M0,0 Q-1.1863,1.5195 -1.6137,2.1972 T-2.4274,3.4914 -3.1372,4.7215 -3.6672,5.7317 -4.0883,6.5418 -4.4556,7.2341 -4.7575,7.7855 -5.0252,8.2718 -5.2162,8.6264 -5.3289,8.8768 -5.3916,9.0937 -5.4264,9.292 -5.4458,9.7265 -5.4566,10.5012 -5.4625,11.3693 -5.4658,12.176 -5.4677,13.0886 -5.4421,14.0756 -5.3745,14.8729 -5.277,15.4514 -5.1828,15.8351 -5.1082,16.0883 -4.9913,16.2646 -4.8463,16.4247 -4.6502,16.6003 -4.4035,16.7935 -4.2042,17.0074 -4.0291,17.2329 -3.8251,17.4649 -3.6051,17.7004 -3.3962,17.8846 -3.218,18.0292 -3.0234,18.1828 -2.7975,18.3104 -2.5898,18.3947 -2.4122,18.4748 -2.2512,18.5815 -2.0596,18.703 -1.8376,18.8105 -1.6299,18.8903 -1.43,18.9346 -1.2012,18.9725 -0.9474,19.0358 -0.702,19.0999 -0.4812,19.1355 -0.2407,19.1953 -0.0005,19.2685 0.23,19.3091 0.51,19.3651 0.76,19.4383 1.01,19.488 1.25,19.5155 1.47,19.5308 1.71,19.5394 1.97,19.5441 2.21,19.5467 2.47,19.5482 2.74,19.549 3.11,19.5494 3.70,19.5497 4.30,19.5498 4.74,19.5144 5.08,19.4369 5.36,19.3427 5.59,19.226 5.83,19.0301 6.12,18.7101 6.50,18.3213 7.06,17.8009 7.66,17.194 8.27,16.5258 8.88,15.8234 9.32,15.2687 9.69,14.7717 10.04,14.26 10.36,13.7912 10.67,13.3308 10.97,12.8795 11.21,12.5087 11.37,12.2405 11.48,12.0292 11.56,11.8207 11.60,11.6138 11.62,11.3922 11.63,11.0957 11.64,10.7777 11.64,10.5122 11.64,10.2535 11.64,10.0209 11.64,9.8517 11.64,9.691 11.64,9.4506 11.64,9.0171 11.64,8.4986 11.65,7.9905 11.65,7.4038 11.65,6.6357 11.60,5.8556 11.52,5.3022 11.41,4.908 11.27,4.5823 11.13,4.3036 11.00,4.1065 10.86,3.9503 10.66,3.7591 10.41,3.5107 10.21,3.2749 9.97,3.0461 9.66,2.779 9.35,2.4995 9.07,2.2509 8.83,2.0684 8.61,1.9225 8.38,1.8147 8.06,1.7549 7.71,1.7016 7.41,1.6298 7.15,1.5677 6.87,1.5132 6.52,1.4273 6.11,1.293 5.70,1.1495 5.26,1.012 4.75,0.8511 4.25,0.7173 3.84,0.6297 3.50,0.5387 3.14,0.4593 2.46,0.3352 1.37,0.1197 L0.77,0 " stroke="#ae3ec9" fill="none" stroke-linecap="round" stroke-width="3.5" stroke-dasharray="none" stroke-dashoffset="0"/></g><g transform="matrix(1, 0, 0, 1, 16993.04, -1989.139)" opacity="1"><path d="M0,0 Q1.1374,-0.1466 1.49,-0.1874 T2.0873,-0.2507 2.47,-0.286 2.75,-0.3055 3.03,-0.3164 3.28,-0.3224 3.49,-0.3258 3.69,-0.3277 3.88,-0.3287 4.09,-0.3293 4.37,-0.3296 4.66,-0.3298 4.91,-0.3299 5.09,-0.3299 5.24,-0.2922 5.35,-0.2112 5.50,-0.0574 5.68,0.1658 5.84,0.4054 6.04,0.7318 6.25,1.0842 6.41,1.3645 6.51,1.6046 6.56,1.8225 6.59,2.008 6.60,2.1644 6.61,2.3357 6.62,2.5265 6.62,2.7391 6.62,2.9639 6.62,3.2065 6.62,3.5657 6.54,4.0119 6.33,4.4243 6.07,4.7823 5.81,5.0856 5.56,5.363 5.30,5.6038 5.07,5.7799 4.77,5.9332 4.34,6.1228 3.88,6.3282 3.44,6.5067 3.04,6.6637 2.64,6.8042 2.24,6.9445 1.91,7.0625 1.69,7.1369 1.56,7.1783 1.66,7.2013 2.02,7.2829 2.48,7.4527 3.06,7.7114 3.72,8.0418 4.27,8.3853 4.78,8.7473 5.26,9.0973 5.66,9.3829 5.96,9.5949 6.19,9.7682 6.36,9.9001 6.48,10.0467 6.57,10.2303 6.72,10.5234 6.89,10.9329 7.04,11.3115 7.26,11.8018 7.52,12.4586 7.72,13.0435 7.87,13.4907 8.00,13.8769 8.08,14.2004 8.12,14.4424 8.14,14.6368 8.15,14.8204 8.16,14.9757 8.16,15.1287 8.16,15.3048 8.13,15.4448 8.02,15.5227 7.82,15.617 7.47,15.7627 6.98,15.9148 6.42,16.066 5.91,16.1877 5.36,16.3087 4.78,16.4292 4.24,16.4962 3.78,16.5334 3.44,16.5541 3.10,16.5656 2.69,16.572 2.32,16.5756 1.91,16.5775 1.48,16.5786 1.09,16.5792 0.68,16.5796 0.02,16.4554 -1.0083,16.1755 L-1.58,16.02 " stroke="#ae3ec9" fill="none" stroke-linecap="round" stroke-width="3.5" stroke-dasharray="none" stroke-dashoffset="0"/></g><g transform="matrix(1, 0, 0, 1, 17053.40, -2010.2382)" opacity="1"><path d="M0,0 Q0,3.0435 0,4.1869 T0,6.0233 0,7.2415 0,8.105 0,8.7137 0,9.3052 0,10.1204 0,11.2977 0,12.7183 -0.0444,14.1053 -0.1247,15.3692 -0.1804,16.4759 -0.2446,17.7307 -0.3445,19.4465 L-0.4,20.4 " stroke="#ae3ec9" fill="none" stroke-linecap="round" stroke-width="3.5" stroke-dasharray="none" stroke-dashoffset="0"/></g><g transform="matrix(1, 0, 0, 1, 17064.78, -2011.8451)" opacity="1"><path d="M0,0 Q0,1.6928 0,2.2431 T0,3.2281 0,4.0132 0,4.6827 0,5.2924 0,5.9289 0,6.6403 0,7.3422 0,8.1876 0,9.1062 0,10.0009 0,10.9203 0,11.7066 0,12.4479 -0.0133,13.1308 -0.0629,13.6325 -0.1194,14.0824 -0.1508,14.5834 -0.2348,15.2706 -0.3482,16.019 -0.4779,16.8547 -0.6699,18.0989 -0.9014,19.7388 L-1.03,20.65 " stroke="#ae3ec9" fill="none" stroke-linecap="round" stroke-width="3.5" stroke-dasharray="none" stroke-dashoffset="0"/></g><g transform="matrix(1, 0, 0, 1, 17077.94, -2011.4238)" opacity="1"><path d="M0,0 Q-0.08,2.0749 -0.1022,2.8025 T-0.1368,4.0521 -0.156,5.0709 -0.1666,6.0591 -0.1726,7.0548 -0.1759,8.019 -0.1777,9.0925 -0.1787,10.2488 -0.1793,11.4934 -0.1796,12.8893 -0.1798,14.3825 -0.1799,15.8876 -0.1799,17.1394 -0.2666,18.3704 -0.4236,19.621 -0.5331,20.7358 -0.6917,21.9528 -0.9606,23.4552 L-1.11,24.29 " stroke="#ae3ec9" fill="none" stroke-linecap="round" stroke-width="3.5" stroke-dasharray="none" stroke-dashoffset="0"/></g><g transform="matrix(1, 0, 0, 1, 17084.24, -1987.7061)" opacity="1"><path d="M0,0 Q0,1.2752 0,1.6539 T0,2.3075 0,2.9995 0,3.7106 0,4.3324 0,4.9511 0,5.4971 0,6.1715 0,7.1883 0,8.5329 L0,9.28 " stroke="#ae3ec9" fill="none" stroke-linecap="round" stroke-width="3.5" stroke-dasharray="none" stroke-dashoffset="0"/></g><g transform="matrix(1, 0, 0, 1, 17155.09, -1987.638)" opacity="1"><path d="M0,0 Q0.7909,-0.6976 1.01,-0.9047 T1.3581,-1.2492 1.56,-1.4695 1.71,-1.5986 1.85,-1.6703 1.97,-1.7101 2.09,-1.7323 2.24,-1.7446 2.38,-1.7514 2.62,-1.7552 3.02,-1.7574 3.49,-1.7585 4.03,-1.6925 4.66,-1.4915 5.20,-1.2553 5.61,-1.0619 5.90,-0.8967 6.07,-0.7426 6.16,-0.5815 6.21,-0.4009 6.24,-0.2028 6.26,-0.0083 6.12,0.2376 5.82,0.5274 5.53,0.7752 5.23,0.9528 4.73,1.1604 4.13,1.3846 3.65,1.5203 3.24,1.6312 2.68,1.5107 1.84,1.0989 L1.38,0.87 " stroke="#ae3ec9" fill="none" stroke-linecap="round" stroke-width="3.5" stroke-dasharray="none" stroke-dashoffset="0"/></g><g transform="matrix(1, 0, 0, 1, 17156.46, -1986.7652)" opacity="1"><path d="M0,0 Q0,-2.1416 -0.0555,-2.9321 T-0.1419,-4.2441 -0.2099,-5.2753 -0.3299,-6.2438 -0.521,-7.2996 -0.7316,-8.435 -0.9997,-9.7946 -1.3308,-11.3321 -1.6637,-12.7085 -2.0108,-14.1043 -2.3037,-15.3754 -2.5798,-16.4304 -2.842,-17.2944 -3.1321,-18.1478 -3.5614,-19.2934 L-3.8,-19.93 " stroke="#ae3ec9" fill="none" stroke-linecap="round" stroke-width="3.5" stroke-dasharray="none" stroke-dashoffset="0"/></g><g transform="matrix(1, 0, 0, 1, 17152.68, -2007.0471)" opacity="1"><path d="M0,0 Q-1.2841,-0.862 -1.6697,-1.1303 T-2.2874,-1.5812 -2.6485,-1.9361 -2.8491,-2.2711 -2.9606,-2.6105 -3.0225,-3.039 -3.0569,-3.4682 -3.0761,-3.8267 -3.0867,-4.1303 -3.0926,-4.3656 -3.0959,-4.5764 -3.0977,-4.7535 -3.0987,-4.9341 -3.0993,-5.1167 -3.0996,-5.2603 -3.082,-5.3757 -2.9856,-5.4887 -2.8209,-5.6115 -2.6206,-5.7086 -2.3582,-5.7781 -2.0035,-5.9078 -1.5799,-6.0887 -1.1667,-6.2515 -0.7861,-6.3708 -0.4368,-6.4371 -0.1561,-6.4739 0.07,-6.4944 0.31,-6.5058 0.53,-6.5121 0.74,-6.5156 0.94,-6.5176 1.17,-6.5186 1.43,-6.5015 1.64,-6.4253 1.81,-6.2274 1.95,-5.9687 2.03,-5.7427 2.07,-5.5549 2.10,-5.3883 2.11,-5.238 2.12,-5.1056 2.12,-4.9676 2.12,-4.7954 2.12,-4.5908 2.12,-4.275 2.12,-3.844 2.12,-3.449 2.12,-3.0673 2.12,-2.6864 2.13,-2.3703 2.13,-2.1125 2.07,-1.9292 1.97,-1.8274 1.48,-1.6486 0.50,-1.3281 L-0.04,-1.15 " stroke="#ae3ec9" fill="none" stroke-linecap="round" stroke-width="3.5" stroke-dasharray="none" stroke-dashoffset="0"/></g><g transform="matrix(1, 0, 0, 1, 17152.45, -2012.5842)" opacity="1"><path d="M0,0 Q0,-1.8839 0,-2.4717 T0,-3.4418 0,-4.0653 -0.0156,-4.4561 -0.0553,-4.6889 -0.0952,-4.8382 -0.1195,-5.1523 -0.1331,-5.7222 -0.1406,-6.4388 -0.1914,-7.2746 -0.2752,-8.0746 -0.384,-8.7879 -0.4977,-9.4397 -0.5609,-9.9375 -0.5961,-10.3052 -0.6311,-10.565 -0.6817,-10.7094 -0.7276,-10.8207 -0.7553,-11.027 -0.7707,-11.4216 -0.7793,-11.9407 -0.7841,-12.4847 -0.7867,-12.9425 -0.7882,-13.2679 -0.789,-13.5088 -0.7894,-13.6804 -0.7897,-14.3089 -0.8987,-15.5401 -1.1438,-17.0571 L-1.28,-17.9 " stroke="#ae3ec9" fill="none" stroke-linecap="round" stroke-width="3.5" stroke-dasharray="none" stroke-dashoffset="0"/></g><g transform="matrix(1, 0, 0, 1, 17151.17, -2030.4797)" opacity="1"><path d="M0,0 Q-1.1863,-0.7331 -1.5648,-0.9524 T-2.1958,-1.3134 -2.642,-1.5896 -2.9877,-1.8075 -3.2464,-1.9797 -3.4346,-2.1176 -3.5681,-2.2253 -3.6911,-2.4051 -3.8417,-2.7205 -3.9676,-3.1291 -4.0953,-3.6049 -4.2218,-4.0537 -4.2921,-4.3675 -4.3311,-4.6063 -4.1662,-4.7835 -3.7703,-4.8841 -3.3236,-4.94 -2.8377,-4.9711 -2.4011,-4.9884 -2.0718,-4.998 -1.7889,-5.0033 -1.5383,-5.0063 -1.3191,-5.0079 -1.1018,-5.0089 -0.8788,-5.0094 -0.6483,-5.0096 -0.4025,-5.0098 -0.1903,-5.0099 0.01,-5.0099 0.20,-5.01 0.39,-4.9967 0.62,-4.9493 0.83,-4.8785 1.03,-4.7592 1.23,-4.6085 1.41,-4.4848 1.56,-4.3671 1.65,-4.2529 1.69,-4.1561 1.72,-4.069 1.74,-3.9295 1.74,-3.7364 1.75,-3.5225 1.75,-3.2526 1.75,-2.8649 1.75,-2.4562 1.59,-1.8892 1.23,-1.0026 L1.04,-0.51 " stroke="#ae3ec9" fill="none" stroke-linecap="round" stroke-width="3.5" stroke-dasharray="none" stroke-dashoffset="0"/></g><g transform="matrix(1, 0, 0, 1, 16983.72, -2113.691)" opacity="1"><path d="M0,0 Q0.9953,-1.1286 1.52,-1.5643 T2.5482,-2.3688 3.44,-3.0114 4.21,-3.5506 4.94,-4.0569 5.62,-4.4892 6.42,-4.8895 7.29,-5.2385 8.17,-5.5679 9.08,-5.9288 9.93,-6.2759 10.92,-6.6709 11.91,-7.0726 12.81,-7.418 13.70,-7.7521 14.5,-8.0467 15.17,-8.2392 15.76,-8.3462 16.35,-8.4056 17.11,-8.4387 18.07,-8.457 18.99,-8.4672 19.84,-8.4307 20.71,-8.286 21.53,-8.0412 22.25,-7.7696 22.87,-7.5321 23.51,-7.2712 24.11,-7.0041 24.67,-6.7823 25.27,-6.5369 25.86,-6.2984 26.41,-6.0747 26.90,-5.8371 27.32,-5.634 27.78,-5.4301 28.33,-5.179 28.87,-4.8995 29.37,-4.602 29.80,-4.3234 30.13,-4.122 30.42,-3.9434 30.75,-3.7619 31.13,-3.5656 31.49,-3.3743 31.79,-3.2058 32.07,-3.0277 32.30,-2.8843 32.58,-2.7224 32.93,-2.5392 33.29,-2.3707 33.68,-2.1527 34.14,-1.876 34.60,-1.5979 35.05,-1.3033 35.44,-1.0108 35.75,-0.7639 36.03,-0.5822 36.25,-0.4657 36.40,-0.3676 36.50,-0.2909 36.59,-0.2461 36.69,-0.2212 36.85,-0.1673 37.01,-0.0974 37.18,-0.0208 37.34,0.0595 37.49,0.1353 37.59,0.2107 37.54,0.2548 37.35,0.2927 37.03,0.3648 36.63,0.476 36.17,0.6155 35.66,0.7419 35.16,0.8677 34.64,1.0309 34.17,1.1771 33.77,1.2873 33.36,1.4018 32.95,1.5187 32.60,1.6259 32.31,1.7122 32.09,1.7601 31.92,1.7867 31.72,1.8015 31.48,1.843 30.86,1.9461 29.75,2.0965 L29.14,2.18 " stroke="#e599f7" fill="none" stroke-linecap="round" stroke-width="3.5" stroke-dasharray="none" stroke-dashoffset="0"/></g><g transform="matrix(1, 0, 0, 1, 17021.93, -2115.2601)" opacity="1"><path d="M0,0 Q-0.3155,-2.1905 -0.432,-2.999 T-0.6755,-4.4212 -0.9952,-5.8025 -1.429,-7.53 L-1.67,-8.49 " stroke="#e599f7" fill="none" stroke-linecap="round" stroke-width="3.5" stroke-dasharray="none" stroke-dashoffset="0"/></g><g transform="matrix(1, 0, 0, 1, 17024.01, -2095.9469)" opacity="1"><path d="M0,0 Q-0.6531,0.5998 -0.8568,0.7887 T-1.2181,1.1247 -1.5988,1.4381 -2.1281,1.8099 -2.7576,2.2165 -3.5473,2.6824 -4.4172,3.1901 -5.2137,3.6299 -6.0474,4.0476 -6.8639,4.4752 -7.5531,4.8572 -8.1449,5.1939 -8.7336,5.5432 -9.3274,5.8883 -9.9239,6.2312 -10.5242,6.575 -11.1022,6.906 -11.721,7.2566 -12.3404,7.5891 -13.0156,7.9205 -13.724,8.2158 -14.3954,8.4331 -15.1061,8.5873 -15.8098,8.6729 -16.5741,8.7205 -17.5987,8.8114 -18.7345,8.9263 -19.8699,8.9901 -21.0074,9.0256 -22.2526,9.0453 -23.4356,9.0563 -24.4239,9.0624 -25.4796,9.0658 -26.4328,9.0676 -27.1825,9.0687 -27.9389,9.0426 -28.7258,8.9326 -29.4008,8.7715 -30.0403,8.6131 -30.7466,8.4273 -31.4523,8.2375 -32.0445,8.0853 -32.4668,7.9585 -32.7415,7.8481 -33.0518,7.6912 -33.4509,7.473 -33.8837,7.1762 -34.3553,6.8269 -34.8905,6.435 -35.4968,6.0107 -36.0714,5.6238 -36.5373,5.2756 -36.854,4.9932 -37.0521,4.8007 -37.2134,4.6938 -37.394,4.5988 -37.5789,4.4638 -37.8926,4.1422 -38.3669,3.6836 -38.8259,3.2688 -39.312,2.8606 -39.7754,2.4938 -40.1307,2.1922 -40.4236,1.9602 -40.6286,1.8068 -40.7781,1.6572 -40.9256,1.4829 -41.0697,1.3217 -41.2565,1.1343 -41.4802,0.9125 -41.6778,0.6825 -41.8543,0.4837 -42.0123,0.3488 -42.1401,0.2382 -42.2312,0.1724 -42.284,0.238 -42.3133,0.4521 -42.3296,0.7444 -42.3387,1.0113 -42.3437,1.244 -42.3465,1.4821 -42.3481,1.6967 -42.3489,1.8937 -42.3494,2.1386 -42.3497,2.4791 -42.3498,2.875 -42.3499,3.2438 -42.3499,3.5442 -42.35,3.8289 -42.35,4.0938 -42.35,4.3076 -42.35,4.4775 -42.35,4.6097 -42.35,4.732 -42.35,4.8911 -42.35,5.1416 -42.3189,5.7741 -42.2489,6.8514 L-42.21,7.45 " stroke="#e599f7" fill="none" stroke-linecap="round" stroke-width="3.5" stroke-dasharray="none" stroke-dashoffset="0"/></g><g transform="matrix(1, 0, 0, 1, 16981.97, -2097.7329)" opacity="1"><path d="M0,0 Q1.2574,0 1.67,0 T2.5104,0 3.26,0 3.87,0 4.40,0 4.83,0 5.19,0 5.53,0 5.83,0 6.11,0 6.49,0 6.97,0 7.72,0 8.92,0 L9.6,0 " stroke="#e599f7" fill="none" stroke-linecap="round" stroke-width="3.5" stroke-dasharray="none" stroke-dashoffset="0"/></g><g transform="matrix(1, 0, 0, 1, 16819.25, -2008.2907)" opacity="1"><path d="M0,0 Q0.9953,-1.1286 1.52,-1.5643 T2.5482,-2.3688 3.44,-3.0114 4.21,-3.5506 4.94,-4.0569 5.62,-4.4892 6.42,-4.8895 7.29,-5.2385 8.17,-5.5679 9.08,-5.9288 9.93,-6.2759 10.92,-6.6709 11.91,-7.0726 12.81,-7.418 13.70,-7.7521 14.5,-8.0467 15.17,-8.2392 15.76,-8.3462 16.35,-8.4056 17.11,-8.4387 18.07,-8.457 18.99,-8.4672 19.84,-8.4307 20.71,-8.286 21.53,-8.0412 22.25,-7.7696 22.87,-7.5321 23.51,-7.2712 24.11,-7.0041 24.67,-6.7823 25.27,-6.5369 25.86,-6.2984 26.41,-6.0747 26.90,-5.8371 27.32,-5.634 27.78,-5.4301 28.33,-5.179 28.87,-4.8995 29.37,-4.602 29.80,-4.3234 30.13,-4.122 30.42,-3.9434 30.75,-3.7619 31.13,-3.5656 31.49,-3.3743 31.79,-3.2058 32.07,-3.0277 32.30,-2.8843 32.58,-2.7224 32.93,-2.5392 33.29,-2.3707 33.68,-2.1527 34.14,-1.876 34.60,-1.5979 35.05,-1.3033 35.44,-1.0108 35.75,-0.7639 36.03,-0.5822 36.25,-0.4657 36.40,-0.3676 36.50,-0.2909 36.59,-0.2461 36.69,-0.2212 36.85,-0.1673 37.01,-0.0974 37.18,-0.0208 37.34,0.0595 37.49,0.1353 37.59,0.2107 37.54,0.2548 37.35,0.2927 37.03,0.3648 36.63,0.476 36.17,0.6155 35.66,0.7419 35.16,0.8677 34.64,1.0309 34.17,1.1771 33.77,1.2873 33.36,1.4018 32.95,1.5187 32.60,1.6259 32.31,1.7122 32.09,1.7601 31.92,1.7867 31.72,1.8015 31.48,1.843 30.86,1.9461 29.75,2.0965 L29.14,2.18 " stroke="#e599f7" fill="none" stroke-linecap="round" stroke-width="3.5" stroke-dasharray="none" stroke-dashoffset="0"/></g><g transform="matrix(1, 0, 0, 1, 16857.46, -2009.8598)" opacity="1"><path d="M0,0 Q-0.3155,-2.1905 -0.432,-2.999 T-0.6755,-4.4212 -0.9952,-5.8025 -1.429,-7.53 L-1.67,-8.49 " stroke="#e599f7" fill="none" stroke-linecap="round" stroke-width="3.5" stroke-dasharray="none" stroke-dashoffset="0"/></g><g transform="matrix(1, 0, 0, 1, 16859.54, -1990.5466)" opacity="1"><path d="M0,0 Q-0.6531,0.5998 -0.8568,0.7887 T-1.2181,1.1247 -1.5988,1.4381 -2.1281,1.8099 -2.7576,2.2165 -3.5473,2.6824 -4.4172,3.1901 -5.2137,3.6299 -6.0474,4.0476 -6.8639,4.4752 -7.5531,4.8572 -8.1449,5.1939 -8.7336,5.5432 -9.3274,5.8883 -9.9239,6.2312 -10.5242,6.575 -11.1022,6.906 -11.721,7.2566 -12.3404,7.5891 -13.0156,7.9205 -13.724,8.2158 -14.3954,8.4331 -15.1061,8.5873 -15.8098,8.6729 -16.5741,8.7205 -17.5987,8.8114 -18.7345,8.9263 -19.8699,8.9901 -21.0074,9.0256 -22.2526,9.0453 -23.4356,9.0563 -24.4239,9.0624 -25.4796,9.0658 -26.4328,9.0676 -27.1825,9.0687 -27.9389,9.0426 -28.7258,8.9326 -29.4008,8.7715 -30.0403,8.6131 -30.7466,8.4273 -31.4523,8.2375 -32.0445,8.0853 -32.4668,7.9585 -32.7415,7.8481 -33.0518,7.6912 -33.4509,7.473 -33.8837,7.1762 -34.3553,6.8269 -34.8905,6.435 -35.4968,6.0107 -36.0714,5.6238 -36.5373,5.2756 -36.854,4.9932 -37.0521,4.8007 -37.2134,4.6938 -37.394,4.5988 -37.5789,4.4638 -37.8926,4.1422 -38.3669,3.6836 -38.8259,3.2688 -39.312,2.8606 -39.7754,2.4938 -40.1307,2.1922 -40.4236,1.9602 -40.6286,1.8068 -40.7781,1.6572 -40.9256,1.4829 -41.0697,1.3217 -41.2565,1.1343 -41.4802,0.9125 -41.6778,0.6825 -41.8543,0.4837 -42.0123,0.3488 -42.1401,0.2382 -42.2312,0.1724 -42.284,0.238 -42.3133,0.4521 -42.3296,0.7444 -42.3387,1.0113 -42.3437,1.244 -42.3465,1.4821 -42.3481,1.6967 -42.3489,1.8937 -42.3494,2.1386 -42.3497,2.4791 -42.3498,2.875 -42.3499,3.2438 -42.3499,3.5442 -42.35,3.8289 -42.35,4.0938 -42.35,4.3076 -42.35,4.4775 -42.35,4.6097 -42.35,4.732 -42.35,4.8911 -42.35,5.1416 -42.3189,5.7741 -42.2489,6.8514 L-42.21,7.45 " stroke="#e599f7" fill="none" stroke-linecap="round" stroke-width="3.5" stroke-dasharray="none" stroke-dashoffset="0"/></g><g transform="matrix(1, 0, 0, 1, 16817.50, -1992.3326)" opacity="1"><path d="M0,0 Q1.2574,0 1.67,0 T2.5104,0 3.26,0 3.87,0 4.40,0 4.83,0 5.19,0 5.53,0 5.83,0 6.11,0 6.49,0 6.97,0 7.72,0 8.92,0 L9.6,0 " stroke="#e599f7" fill="none" stroke-linecap="round" stroke-width="3.5" stroke-dasharray="none" stroke-dashoffset="0"/></g><g transform="matrix(1, 0, 0, 1, 16914.27, -2008.5808)" opacity="1"><path d="M0,0 Q0.9953,-1.1286 1.52,-1.5643 T2.5482,-2.3688 3.44,-3.0114 4.21,-3.5506 4.94,-4.0569 5.62,-4.4892 6.42,-4.8895 7.29,-5.2385 8.17,-5.5679 9.08,-5.9288 9.93,-6.2759 10.92,-6.6709 11.91,-7.0726 12.81,-7.418 13.70,-7.7521 14.5,-8.0467 15.17,-8.2392 15.76,-8.3462 16.35,-8.4056 17.11,-8.4387 18.07,-8.457 18.99,-8.4672 19.84,-8.4307 20.71,-8.286 21.53,-8.0412 22.25,-7.7696 22.87,-7.5321 23.51,-7.2712 24.11,-7.0041 24.67,-6.7823 25.27,-6.5369 25.86,-6.2984 26.41,-6.0747 26.90,-5.8371 27.32,-5.634 27.78,-5.4301 28.33,-5.179 28.87,-4.8995 29.37,-4.602 29.80,-4.3234 30.13,-4.122 30.42,-3.9434 30.75,-3.7619 31.13,-3.5656 31.49,-3.3743 31.79,-3.2058 32.07,-3.0277 32.30,-2.8843 32.58,-2.7224 32.93,-2.5392 33.29,-2.3707 33.68,-2.1527 34.14,-1.876 34.60,-1.5979 35.05,-1.3033 35.44,-1.0108 35.75,-0.7639 36.03,-0.5822 36.25,-0.4657 36.40,-0.3676 36.50,-0.2909 36.59,-0.2461 36.69,-0.2212 36.85,-0.1673 37.01,-0.0974 37.18,-0.0208 37.34,0.0595 37.49,0.1353 37.59,0.2107 37.54,0.2548 37.35,0.2927 37.03,0.3648 36.63,0.476 36.17,0.6155 35.66,0.7419 35.16,0.8677 34.64,1.0309 34.17,1.1771 33.77,1.2873 33.36,1.4018 32.95,1.5187 32.60,1.6259 32.31,1.7122 32.09,1.7601 31.92,1.7867 31.72,1.8015 31.48,1.843 30.86,1.9461 29.75,2.0965 L29.14,2.18 " stroke="#e599f7" fill="none" stroke-linecap="round" stroke-width="3.5" stroke-dasharray="none" stroke-dashoffset="0"/></g><g transform="matrix(1, 0, 0, 1, 16952.47, -2010.1499)" opacity="1"><path d="M0,0 Q-0.3155,-2.1905 -0.432,-2.999 T-0.6755,-4.4212 -0.9952,-5.8025 -1.429,-7.53 L-1.67,-8.49 " stroke="#e599f7" fill="none" stroke-linecap="round" stroke-width="3.5" stroke-dasharray="none" stroke-dashoffset="0"/></g><g transform="matrix(1, 0, 0, 1, 16954.56, -1990.8367)" opacity="1"><path d="M0,0 Q-0.6531,0.5998 -0.8568,0.7887 T-1.2181,1.1247 -1.5988,1.4381 -2.1281,1.8099 -2.7576,2.2165 -3.5473,2.6824 -4.4172,3.1901 -5.2137,3.6299 -6.0474,4.0476 -6.8639,4.4752 -7.5531,4.8572 -8.1449,5.1939 -8.7336,5.5432 -9.3274,5.8883 -9.9239,6.2312 -10.5242,6.575 -11.1022,6.906 -11.721,7.2566 -12.3404,7.5891 -13.0156,7.9205 -13.724,8.2158 -14.3954,8.4331 -15.1061,8.5873 -15.8098,8.6729 -16.5741,8.7205 -17.5987,8.8114 -18.7345,8.9263 -19.8699,8.9901 -21.0074,9.0256 -22.2526,9.0453 -23.4356,9.0563 -24.4239,9.0624 -25.4796,9.0658 -26.4328,9.0676 -27.1825,9.0687 -27.9389,9.0426 -28.7258,8.9326 -29.4008,8.7715 -30.0403,8.6131 -30.7466,8.4273 -31.4523,8.2375 -32.0445,8.0853 -32.4668,7.9585 -32.7415,7.8481 -33.0518,7.6912 -33.4509,7.473 -33.8837,7.1762 -34.3553,6.8269 -34.8905,6.435 -35.4968,6.0107 -36.0714,5.6238 -36.5373,5.2756 -36.854,4.9932 -37.0521,4.8007 -37.2134,4.6938 -37.394,4.5988 -37.5789,4.4638 -37.8926,4.1422 -38.3669,3.6836 -38.8259,3.2688 -39.312,2.8606 -39.7754,2.4938 -40.1307,2.1922 -40.4236,1.9602 -40.6286,1.8068 -40.7781,1.6572 -40.9256,1.4829 -41.0697,1.3217 -41.2565,1.1343 -41.4802,0.9125 -41.6778,0.6825 -41.8543,0.4837 -42.0123,0.3488 -42.1401,0.2382 -42.2312,0.1724 -42.284,0.238 -42.3133,0.4521 -42.3296,0.7444 -42.3387,1.0113 -42.3437,1.244 -42.3465,1.4821 -42.3481,1.6967 -42.3489,1.8937 -42.3494,2.1386 -42.3497,2.4791 -42.3498,2.875 -42.3499,3.2438 -42.3499,3.5442 -42.35,3.8289 -42.35,4.0938 -42.35,4.3076 -42.35,4.4775 -42.35,4.6097 -42.35,4.732 -42.35,4.8911 -42.35,5.1416 -42.3189,5.7741 -42.2489,6.8514 L-42.21,7.45 " stroke="#e599f7" fill="none" stroke-linecap="round" stroke-width="3.5" stroke-dasharray="none" stroke-dashoffset="0"/></g><g transform="matrix(1, 0, 0, 1, 16912.52, -1992.6227)" opacity="1"><path d="M0,0 Q1.2574,0 1.67,0 T2.5104,0 3.26,0 3.87,0 4.40,0 4.83,0 5.19,0 5.53,0 5.83,0 6.11,0 6.49,0 6.97,0 7.72,0 8.92,0 L9.6,0 " stroke="#e599f7" fill="none" stroke-linecap="round" stroke-width="3.5" stroke-dasharray="none" stroke-dashoffset="0"/></g><g transform="matrix(1, 0, 0, 1, 16983.72, -2113.691)" opacity="1"><path d="M0,0 Q0.9953,-1.1286 1.52,-1.5643 T2.5482,-2.3688 3.44,-3.0114 4.21,-3.5506 4.94,-4.0569 5.62,-4.4892 6.42,-4.8895 7.29,-5.2385 8.17,-5.5679 9.08,-5.9288 9.93,-6.2759 10.92,-6.6709 11.91,-7.0726 12.81,-7.418 13.70,-7.7521 14.5,-8.0467 15.17,-8.2392 15.76,-8.3462 16.35,-8.4056 17.11,-8.4387 18.07,-8.457 18.99,-8.4672 19.84,-8.4307 20.71,-8.286 21.53,-8.0412 22.25,-7.7696 22.87,-7.5321 23.51,-7.2712 24.11,-7.0041 24.67,-6.7823 25.27,-6.5369 25.86,-6.2984 26.41,-6.0747 26.90,-5.8371 27.32,-5.634 27.78,-5.4301 28.33,-5.179 28.87,-4.8995 29.37,-4.602 29.80,-4.3234 30.13,-4.122 30.42,-3.9434 30.75,-3.7619 31.13,-3.5656 31.49,-3.3743 31.79,-3.2058 32.07,-3.0277 32.30,-2.8843 32.58,-2.7224 32.93,-2.5392 33.29,-2.3707 33.68,-2.1527 34.14,-1.876 34.60,-1.5979 35.05,-1.3033 35.44,-1.0108 35.75,-0.7639 36.03,-0.5822 36.25,-0.4657 36.40,-0.3676 36.50,-0.2909 36.59,-0.2461 36.69,-0.2212 36.85,-0.1673 37.01,-0.0974 37.18,-0.0208 37.34,0.0595 37.49,0.1353 37.59,0.2107 37.54,0.2548 37.35,0.2927 37.03,0.3648 36.63,0.476 36.17,0.6155 35.66,0.7419 35.16,0.8677 34.64,1.0309 34.17,1.1771 33.77,1.2873 33.36,1.4018 32.95,1.5187 32.60,1.6259 32.31,1.7122 32.09,1.7601 31.92,1.7867 31.72,1.8015 31.48,1.843 30.86,1.9461 29.75,2.0965 L29.14,2.18 " stroke="#e599f7" fill="none" stroke-linecap="round" stroke-width="3.5" stroke-dasharray="none" stroke-dashoffset="0"/></g><g transform="matrix(1, 0, 0, 1, 17024.01, -2095.9469)" opacity="1"><path d="M0,0 Q-0.6531,0.5998 -0.8568,0.7887 T-1.2181,1.1247 -1.5988,1.4381 -2.1281,1.8099 -2.7576,2.2165 -3.5473,2.6824 -4.4172,3.1901 -5.2137,3.6299 -6.0474,4.0476 -6.8639,4.4752 -7.5531,4.8572 -8.1449,5.1939 -8.7336,5.5432 -9.3274,5.8883 -9.9239,6.2312 -10.5242,6.575 -11.1022,6.906 -11.721,7.2566 -12.3404,7.5891 -13.0156,7.9205 -13.724,8.2158 -14.3954,8.4331 -15.1061,8.5873 -15.8098,8.6729 -16.5741,8.7205 -17.5987,8.8114 -18.7345,8.9263 -19.8699,8.9901 -21.0074,9.0256 -22.2526,9.0453 -23.4356,9.0563 -24.4239,9.0624 -25.4796,9.0658 -26.4328,9.0676 -27.1825,9.0687 -27.9389,9.0426 -28.7258,8.9326 -29.4008,8.7715 -30.0403,8.6131 -30.7466,8.4273 -31.4523,8.2375 -32.0445,8.0853 -32.4668,7.9585 -32.7415,7.8481 -33.0518,7.6912 -33.4509,7.473 -33.8837,7.1762 -34.3553,6.8269 -34.8905,6.435 -35.4968,6.0107 -36.0714,5.6238 -36.5373,5.2756 -36.854,4.9932 -37.0521,4.8007 -37.2134,4.6938 -37.394,4.5988 -37.5789,4.4638 -37.8926,4.1422 -38.3669,3.6836 -38.8259,3.2688 -39.312,2.8606 -39.7754,2.4938 -40.1307,2.1922 -40.4236,1.9602 -40.6286,1.8068 -40.7781,1.6572 -40.9256,1.4829 -41.0697,1.3217 -41.2565,1.1343 -41.4802,0.9125 -41.6778,0.6825 -41.8543,0.4837 -42.0123,0.3488 -42.1401,0.2382 -42.2312,0.1724 -42.284,0.238 -42.3133,0.4521 -42.3296,0.7444 -42.3387,1.0113 -42.3437,1.244 -42.3465,1.4821 -42.3481,1.6967 -42.3489,1.8937 -42.3494,2.1386 -42.3497,2.4791 -42.3498,2.875 -42.3499,3.2438 -42.3499,3.5442 -42.35,3.8289 -42.35,4.0938 -42.35,4.3076 -42.35,4.4775 -42.35,4.6097 -42.35,4.732 -42.35,4.8911 -42.35,5.1416 -42.3189,5.7741 -42.2489,6.8514 L-42.21,7.45 " stroke="#e599f7" fill="none" stroke-linecap="round" stroke-width="3.5" stroke-dasharray="none" stroke-dashoffset="0"/></g><g transform="matrix(1, 0, 0, 1, 16981.97, -2097.7329)" opacity="1"><path d="M0,0 Q1.2574,0 1.67,0 T2.5104,0 3.26,0 3.87,0 4.40,0 4.83,0 5.19,0 5.53,0 5.83,0 6.11,0 6.49,0 6.97,0 7.72,0 8.92,0 L9.6,0 " stroke="#e599f7" fill="none" stroke-linecap="round" stroke-width="3.5" stroke-dasharray="none" stroke-dashoffset="0"/></g><g transform="matrix(1, 0, 0, 1, 17004.20, -2018.4922)" opacity="1"><path d="M0,0 Q0.9953,-1.1286 1.52,-1.5643 T2.5482,-2.3688 3.44,-3.0114 4.21,-3.5506 4.94,-4.0569 5.62,-4.4892 6.42,-4.8895 7.29,-5.2385 8.17,-5.5679 9.08,-5.9288 9.93,-6.2759 10.92,-6.6709 11.91,-7.0726 12.81,-7.418 13.70,-7.7521 14.5,-8.0467 15.17,-8.2392 15.76,-8.3462 16.35,-8.4056 17.11,-8.4387 18.07,-8.457 18.99,-8.4672 19.84,-8.4307 20.71,-8.286 21.53,-8.0412 22.25,-7.7696 22.87,-7.5321 23.51,-7.2712 24.11,-7.0041 24.67,-6.7823 25.27,-6.5369 25.86,-6.2984 26.41,-6.0747 26.90,-5.8371 27.32,-5.634 27.78,-5.4301 28.33,-5.179 28.87,-4.8995 29.37,-4.602 29.80,-4.3234 30.13,-4.122 30.42,-3.9434 30.75,-3.7619 31.13,-3.5656 31.49,-3.3743 31.79,-3.2058 32.07,-3.0277 32.30,-2.8843 32.58,-2.7224 32.93,-2.5392 33.29,-2.3707 33.68,-2.1527 34.14,-1.876 34.60,-1.5979 35.05,-1.3033 35.44,-1.0108 35.75,-0.7639 36.03,-0.5822 36.25,-0.4657 36.40,-0.3676 36.50,-0.2909 36.59,-0.2461 36.69,-0.2212 36.85,-0.1673 37.01,-0.0974 37.18,-0.0208 37.34,0.0595 37.49,0.1353 37.59,0.2107 37.54,0.2548 37.35,0.2927 37.03,0.3648 36.63,0.476 36.17,0.6155 35.66,0.7419 35.16,0.8677 34.64,1.0309 34.17,1.1771 33.77,1.2873 33.36,1.4018 32.95,1.5187 32.60,1.6259 32.31,1.7122 32.09,1.7601 31.92,1.7867 31.72,1.8015 31.48,1.843 30.86,1.9461 29.75,2.0965 L29.14,2.18 " stroke="#e599f7" fill="none" stroke-linecap="round" stroke-width="3.5" stroke-dasharray="none" stroke-dashoffset="0"/></g><g transform="matrix(1, 0, 0, 1, 17042.41, -2020.0613)" opacity="1"><path d="M0,0 Q-0.3155,-2.1905 -0.432,-2.999 T-0.6755,-4.4212 -0.9952,-5.8025 -1.429,-7.53 L-1.67,-8.49 " stroke="#e599f7" fill="none" stroke-linecap="round" stroke-width="3.5" stroke-dasharray="none" stroke-dashoffset="0"/></g><g transform="matrix(1, 0, 0, 1, 17044.50, -2000.7481)" opacity="1"><path d="M0,0 Q-0.6531,0.5998 -0.8568,0.7887 T-1.2181,1.1247 -1.5988,1.4381 -2.1281,1.8099 -2.7576,2.2165 -3.5473,2.6824 -4.4172,3.1901 -5.2137,3.6299 -6.0474,4.0476 -6.8639,4.4752 -7.5531,4.8572 -8.1449,5.1939 -8.7336,5.5432 -9.3274,5.8883 -9.9239,6.2312 -10.5242,6.575 -11.1022,6.906 -11.721,7.2566 -12.3404,7.5891 -13.0156,7.9205 -13.724,8.2158 -14.3954,8.4331 -15.1061,8.5873 -15.8098,8.6729 -16.5741,8.7205 -17.5987,8.8114 -18.7345,8.9263 -19.8699,8.9901 -21.0074,9.0256 -22.2526,9.0453 -23.4356,9.0563 -24.4239,9.0624 -25.4796,9.0658 -26.4328,9.0676 -27.1825,9.0687 -27.9389,9.0426 -28.7258,8.9326 -29.4008,8.7715 -30.0403,8.6131 -30.7466,8.4273 -31.4523,8.2375 -32.0445,8.0853 -32.4668,7.9585 -32.7415,7.8481 -33.0518,7.6912 -33.4509,7.473 -33.8837,7.1762 -34.3553,6.8269 -34.8905,6.435 -35.4968,6.0107 -36.0714,5.6238 -36.5373,5.2756 -36.854,4.9932 -37.0521,4.8007 -37.2134,4.6938 -37.394,4.5988 -37.5789,4.4638 -37.8926,4.1422 -38.3669,3.6836 -38.8259,3.2688 -39.312,2.8606 -39.7754,2.4938 -40.1307,2.1922 -40.4236,1.9602 -40.6286,1.8068 -40.7781,1.6572 -40.9256,1.4829 -41.0697,1.3217 -41.2565,1.1343 -41.4802,0.9125 -41.6778,0.6825 -41.8543,0.4837 -42.0123,0.3488 -42.1401,0.2382 -42.2312,0.1724 -42.284,0.238 -42.3133,0.4521 -42.3296,0.7444 -42.3387,1.0113 -42.3437,1.244 -42.3465,1.4821 -42.3481,1.6967 -42.3489,1.8937 -42.3494,2.1386 -42.3497,2.4791 -42.3498,2.875 -42.3499,3.2438 -42.3499,3.5442 -42.35,3.8289 -42.35,4.0938 -42.35,4.3076 -42.35,4.4775 -42.35,4.6097 -42.35,4.732 -42.35,4.8911 -42.35,5.1416 -42.3189,5.7741 -42.2489,6.8514 L-42.21,7.45 " stroke="#e599f7" fill="none" stroke-linecap="round" stroke-width="3.5" stroke-dasharray="none" stroke-dashoffset="0"/></g><g transform="matrix(1, 0, 0, 1, 17002.46, -2002.5341)" opacity="1"><path d="M0,0 Q1.2574,0 1.67,0 T2.5104,0 3.26,0 3.87,0 4.40,0 4.83,0 5.19,0 5.53,0 5.83,0 6.11,0 6.49,0 6.97,0 7.72,0 8.92,0 L9.6,0 " stroke="#e599f7" fill="none" stroke-linecap="round" stroke-width="3.5" stroke-dasharray="none" stroke-dashoffset="0"/></g><g transform="matrix(1, 0, 0, 1, 17004.20, -2018.4922)" opacity="1"><path d="M0,0 Q0.9953,-1.1286 1.52,-1.5643 T2.5482,-2.3688 3.44,-3.0114 4.21,-3.5506 4.94,-4.0569 5.62,-4.4892 6.42,-4.8895 7.29,-5.2385 8.17,-5.5679 9.08,-5.9288 9.93,-6.2759 10.92,-6.6709 11.91,-7.0726 12.81,-7.418 13.70,-7.7521 14.5,-8.0467 15.17,-8.2392 15.76,-8.3462 16.35,-8.4056 17.11,-8.4387 18.07,-8.457 18.99,-8.4672 19.84,-8.4307 20.71,-8.286 21.53,-8.0412 22.25,-7.7696 22.87,-7.5321 23.51,-7.2712 24.11,-7.0041 24.67,-6.7823 25.27,-6.5369 25.86,-6.2984 26.41,-6.0747 26.90,-5.8371 27.32,-5.634 27.78,-5.4301 28.33,-5.179 28.87,-4.8995 29.37,-4.602 29.80,-4.3234 30.13,-4.122 30.42,-3.9434 30.75,-3.7619 31.13,-3.5656 31.49,-3.3743 31.79,-3.2058 32.07,-3.0277 32.30,-2.8843 32.58,-2.7224 32.93,-2.5392 33.29,-2.3707 33.68,-2.1527 34.14,-1.876 34.60,-1.5979 35.05,-1.3033 35.44,-1.0108 35.75,-0.7639 36.03,-0.5822 36.25,-0.4657 36.40,-0.3676 36.50,-0.2909 36.59,-0.2461 36.69,-0.2212 36.85,-0.1673 37.01,-0.0974 37.18,-0.0208 37.34,0.0595 37.49,0.1353 37.59,0.2107 37.54,0.2548 37.35,0.2927 37.03,0.3648 36.63,0.476 36.17,0.6155 35.66,0.7419 35.16,0.8677 34.64,1.0309 34.17,1.1771 33.77,1.2873 33.36,1.4018 32.95,1.5187 32.60,1.6259 32.31,1.7122 32.09,1.7601 31.92,1.7867 31.72,1.8015 31.48,1.843 30.86,1.9461 29.75,2.0965 L29.14,2.18 " stroke="#e599f7" fill="none" stroke-linecap="round" stroke-width="3.5" stroke-dasharray="none" stroke-dashoffset="0"/></g><g transform="matrix(1, 0, 0, 1, 17044.50, -2000.7481)" opacity="1"><path d="M0,0 Q-0.6531,0.5998 -0.8568,0.7887 T-1.2181,1.1247 -1.5988,1.4381 -2.1281,1.8099 -2.7576,2.2165 -3.5473,2.6824 -4.4172,3.1901 -5.2137,3.6299 -6.0474,4.0476 -6.8639,4.4752 -7.5531,4.8572 -8.1449,5.1939 -8.7336,5.5432 -9.3274,5.8883 -9.9239,6.2312 -10.5242,6.575 -11.1022,6.906 -11.721,7.2566 -12.3404,7.5891 -13.0156,7.9205 -13.724,8.2158 -14.3954,8.4331 -15.1061,8.5873 -15.8098,8.6729 -16.5741,8.7205 -17.5987,8.8114 -18.7345,8.9263 -19.8699,8.9901 -21.0074,9.0256 -22.2526,9.0453 -23.4356,9.0563 -24.4239,9.0624 -25.4796,9.0658 -26.4328,9.0676 -27.1825,9.0687 -27.9389,9.0426 -28.7258,8.9326 -29.4008,8.7715 -30.0403,8.6131 -30.7466,8.4273 -31.4523,8.2375 -32.0445,8.0853 -32.4668,7.9585 -32.7415,7.8481 -33.0518,7.6912 -33.4509,7.473 -33.8837,7.1762 -34.3553,6.8269 -34.8905,6.435 -35.4968,6.0107 -36.0714,5.6238 -36.5373,5.2756 -36.854,4.9932 -37.0521,4.8007 -37.2134,4.6938 -37.394,4.5988 -37.5789,4.4638 -37.8926,4.1422 -38.3669,3.6836 -38.8259,3.2688 -39.312,2.8606 -39.7754,2.4938 -40.1307,2.1922 -40.4236,1.9602 -40.6286,1.8068 -40.7781,1.6572 -40.9256,1.4829 -41.0697,1.3217 -41.2565,1.1343 -41.4802,0.9125 -41.6778,0.6825 -41.8543,0.4837 -42.0123,0.3488 -42.1401,0.2382 -42.2312,0.1724 -42.284,0.238 -42.3133,0.4521 -42.3296,0.7444 -42.3387,1.0113 -42.3437,1.244 -42.3465,1.4821 -42.3481,1.6967 -42.3489,1.8937 -42.3494,2.1386 -42.3497,2.4791 -42.3498,2.875 -42.3499,3.2438 -42.3499,3.5442 -42.35,3.8289 -42.35,4.0938 -42.35,4.3076 -42.35,4.4775 -42.35,4.6097 -42.35,4.732 -42.35,4.8911 -42.35,5.1416 -42.3189,5.7741 -42.2489,6.8514 L-42.21,7.45 " stroke="#e599f7" fill="none" stroke-linecap="round" stroke-width="3.5" stroke-dasharray="none" stroke-dashoffset="0"/></g><g transform="matrix(1, 0, 0, 1, 17002.46, -2002.5341)" opacity="1"><path d="M0,0 Q1.2574,0 1.67,0 T2.5104,0 3.26,0 3.87,0 4.40,0 4.83,0 5.19,0 5.53,0 5.83,0 6.11,0 6.49,0 6.97,0 7.72,0 8.92,0 L9.6,0 " stroke="#e599f7" fill="none" stroke-linecap="round" stroke-width="3.5" stroke-dasharray="none" stroke-dashoffset="0"/></g><g transform="matrix(1, 0, 0, 1, 17090.55, -2017.8843)" opacity="1"><path d="M0,0 Q0.9953,-1.1286 1.52,-1.5643 T2.5482,-2.3688 3.44,-3.0114 4.21,-3.5506 4.94,-4.0569 5.62,-4.4892 6.42,-4.8895 7.29,-5.2385 8.17,-5.5679 9.08,-5.9288 9.93,-6.2759 10.92,-6.6709 11.91,-7.0726 12.81,-7.418 13.70,-7.7521 14.5,-8.0467 15.17,-8.2392 15.76,-8.3462 16.35,-8.4056 17.11,-8.4387 18.07,-8.457 18.99,-8.4672 19.84,-8.4307 20.71,-8.286 21.53,-8.0412 22.25,-7.7696 22.87,-7.5321 23.51,-7.2712 24.11,-7.0041 24.67,-6.7823 25.27,-6.5369 25.86,-6.2984 26.41,-6.0747 26.90,-5.8371 27.32,-5.634 27.78,-5.4301 28.33,-5.179 28.87,-4.8995 29.37,-4.602 29.80,-4.3234 30.13,-4.122 30.42,-3.9434 30.75,-3.7619 31.13,-3.5656 31.49,-3.3743 31.79,-3.2058 32.07,-3.0277 32.30,-2.8843 32.58,-2.7224 32.93,-2.5392 33.29,-2.3707 33.68,-2.1527 34.14,-1.876 34.60,-1.5979 35.05,-1.3033 35.44,-1.0108 35.75,-0.7639 36.03,-0.5822 36.25,-0.4657 36.40,-0.3676 36.50,-0.2909 36.59,-0.2461 36.69,-0.2212 36.85,-0.1673 37.01,-0.0974 37.18,-0.0208 37.34,0.0595 37.49,0.1353 37.59,0.2107 37.54,0.2548 37.35,0.2927 37.03,0.3648 36.63,0.476 36.17,0.6155 35.66,0.7419 35.16,0.8677 34.64,1.0309 34.17,1.1771 33.77,1.2873 33.36,1.4018 32.95,1.5187 32.60,1.6259 32.31,1.7122 32.09,1.7601 31.92,1.7867 31.72,1.8015 31.48,1.843 30.86,1.9461 29.75,2.0965 L29.14,2.18 " stroke="#e599f7" fill="none" stroke-linecap="round" stroke-width="3.5" stroke-dasharray="none" stroke-dashoffset="0"/></g><g transform="matrix(1, 0, 0, 1, 17128.76, -2019.4533)" opacity="1"><path d="M0,0 Q-0.3155,-2.1905 -0.432,-2.999 T-0.6755,-4.4212 -0.9952,-5.8025 -1.429,-7.53 L-1.67,-8.49 " stroke="#e599f7" fill="none" stroke-linecap="round" stroke-width="3.5" stroke-dasharray="none" stroke-dashoffset="0"/></g><g transform="matrix(1, 0, 0, 1, 17130.84, -2000.1401)" opacity="1"><path d="M0,0 Q-0.6531,0.5998 -0.8568,0.7887 T-1.2181,1.1247 -1.5988,1.4381 -2.1281,1.8099 -2.7576,2.2165 -3.5473,2.6824 -4.4172,3.1901 -5.2137,3.6299 -6.0474,4.0476 -6.8639,4.4752 -7.5531,4.8572 -8.1449,5.1939 -8.7336,5.5432 -9.3274,5.8883 -9.9239,6.2312 -10.5242,6.575 -11.1022,6.906 -11.721,7.2566 -12.3404,7.5891 -13.0156,7.9205 -13.724,8.2158 -14.3954,8.4331 -15.1061,8.5873 -15.8098,8.6729 -16.5741,8.7205 -17.5987,8.8114 -18.7345,8.9263 -19.8699,8.9901 -21.0074,9.0256 -22.2526,9.0453 -23.4356,9.0563 -24.4239,9.0624 -25.4796,9.0658 -26.4328,9.0676 -27.1825,9.0687 -27.9389,9.0426 -28.7258,8.9326 -29.4008,8.7715 -30.0403,8.6131 -30.7466,8.4273 -31.4523,8.2375 -32.0445,8.0853 -32.4668,7.9585 -32.7415,7.8481 -33.0518,7.6912 -33.4509,7.473 -33.8837,7.1762 -34.3553,6.8269 -34.8905,6.435 -35.4968,6.0107 -36.0714,5.6238 -36.5373,5.2756 -36.854,4.9932 -37.0521,4.8007 -37.2134,4.6938 -37.394,4.5988 -37.5789,4.4638 -37.8926,4.1422 -38.3669,3.6836 -38.8259,3.2688 -39.312,2.8606 -39.7754,2.4938 -40.1307,2.1922 -40.4236,1.9602 -40.6286,1.8068 -40.7781,1.6572 -40.9256,1.4829 -41.0697,1.3217 -41.2565,1.1343 -41.4802,0.9125 -41.6778,0.6825 -41.8543,0.4837 -42.0123,0.3488 -42.1401,0.2382 -42.2312,0.1724 -42.284,0.238 -42.3133,0.4521 -42.3296,0.7444 -42.3387,1.0113 -42.3437,1.244 -42.3465,1.4821 -42.3481,1.6967 -42.3489,1.8937 -42.3494,2.1386 -42.3497,2.4791 -42.3498,2.875 -42.3499,3.2438 -42.3499,3.5442 -42.35,3.8289 -42.35,4.0938 -42.35,4.3076 -42.35,4.4775 -42.35,4.6097 -42.35,4.732 -42.35,4.8911 -42.35,5.1416 -42.3189,5.7741 -42.2489,6.8514 L-42.21,7.45 " stroke="#e599f7" fill="none" stroke-linecap="round" stroke-width="3.5" stroke-dasharray="none" stroke-dashoffset="0"/></g><g transform="matrix(1, 0, 0, 1, 17088.81, -2001.9261)" opacity="1"><path d="M0,0 Q1.2574,0 1.67,0 T2.5104,0 3.26,0 3.87,0 4.40,0 4.83,0 5.19,0 5.53,0 5.83,0 6.11,0 6.49,0 6.97,0 7.72,0 8.92,0 L9.6,0 " stroke="#e599f7" fill="none" stroke-linecap="round" stroke-width="3.5" stroke-dasharray="none" stroke-dashoffset="0"/></g><g transform="matrix(1, 0, 0, 1, 17090.55, -2017.8843)" opacity="1"><path d="M0,0 Q0.9953,-1.1286 1.52,-1.5643 T2.5482,-2.3688 3.44,-3.0114 4.21,-3.5506 4.94,-4.0569 5.62,-4.4892 6.42,-4.8895 7.29,-5.2385 8.17,-5.5679 9.08,-5.9288 9.93,-6.2759 10.92,-6.6709 11.91,-7.0726 12.81,-7.418 13.70,-7.7521 14.5,-8.0467 15.17,-8.2392 15.76,-8.3462 16.35,-8.4056 17.11,-8.4387 18.07,-8.457 18.99,-8.4672 19.84,-8.4307 20.71,-8.286 21.53,-8.0412 22.25,-7.7696 22.87,-7.5321 23.51,-7.2712 24.11,-7.0041 24.67,-6.7823 25.27,-6.5369 25.86,-6.2984 26.41,-6.0747 26.90,-5.8371 27.32,-5.634 27.78,-5.4301 28.33,-5.179 28.87,-4.8995 29.37,-4.602 29.80,-4.3234 30.13,-4.122 30.42,-3.9434 30.75,-3.7619 31.13,-3.5656 31.49,-3.3743 31.79,-3.2058 32.07,-3.0277 32.30,-2.8843 32.58,-2.7224 32.93,-2.5392 33.29,-2.3707 33.68,-2.1527 34.14,-1.876 34.60,-1.5979 35.05,-1.3033 35.44,-1.0108 35.75,-0.7639 36.03,-0.5822 36.25,-0.4657 36.40,-0.3676 36.50,-0.2909 36.59,-0.2461 36.69,-0.2212 36.85,-0.1673 37.01,-0.0974 37.18,-0.0208 37.34,0.0595 37.49,0.1353 37.59,0.2107 37.54,0.2548 37.35,0.2927 37.03,0.3648 36.63,0.476 36.17,0.6155 35.66,0.7419 35.16,0.8677 34.64,1.0309 34.17,1.1771 33.77,1.2873 33.36,1.4018 32.95,1.5187 32.60,1.6259 32.31,1.7122 32.09,1.7601 31.92,1.7867 31.72,1.8015 31.48,1.843 30.86,1.9461 29.75,2.0965 L29.14,2.18 " stroke="#e599f7" fill="none" stroke-linecap="round" stroke-width="3.5" stroke-dasharray="none" stroke-dashoffset="0"/></g><g transform="matrix(1, 0, 0, 1, 17130.84, -2000.1401)" opacity="1"><path d="M0,0 Q-0.6531,0.5998 -0.8568,0.7887 T-1.2181,1.1247 -1.5988,1.4381 -2.1281,1.8099 -2.7576,2.2165 -3.5473,2.6824 -4.4172,3.1901 -5.2137,3.6299 -6.0474,4.0476 -6.8639,4.4752 -7.5531,4.8572 -8.1449,5.1939 -8.7336,5.5432 -9.3274,5.8883 -9.9239,6.2312 -10.5242,6.575 -11.1022,6.906 -11.721,7.2566 -12.3404,7.5891 -13.0156,7.9205 -13.724,8.2158 -14.3954,8.4331 -15.1061,8.5873 -15.8098,8.6729 -16.5741,8.7205 -17.5987,8.8114 -18.7345,8.9263 -19.8699,8.9901 -21.0074,9.0256 -22.2526,9.0453 -23.4356,9.0563 -24.4239,9.0624 -25.4796,9.0658 -26.4328,9.0676 -27.1825,9.0687 -27.9389,9.0426 -28.7258,8.9326 -29.4008,8.7715 -30.0403,8.6131 -30.7466,8.4273 -31.4523,8.2375 -32.0445,8.0853 -32.4668,7.9585 -32.7415,7.8481 -33.0518,7.6912 -33.4509,7.473 -33.8837,7.1762 -34.3553,6.8269 -34.8905,6.435 -35.4968,6.0107 -36.0714,5.6238 -36.5373,5.2756 -36.854,4.9932 -37.0521,4.8007 -37.2134,4.6938 -37.394,4.5988 -37.5789,4.4638 -37.8926,4.1422 -38.3669,3.6836 -38.8259,3.2688 -39.312,2.8606 -39.7754,2.4938 -40.1307,2.1922 -40.4236,1.9602 -40.6286,1.8068 -40.7781,1.6572 -40.9256,1.4829 -41.0697,1.3217 -41.2565,1.1343 -41.4802,0.9125 -41.6778,0.6825 -41.8543,0.4837 -42.0123,0.3488 -42.1401,0.2382 -42.2312,0.1724 -42.284,0.238 -42.3133,0.4521 -42.3296,0.7444 -42.3387,1.0113 -42.3437,1.244 -42.3465,1.4821 -42.3481,1.6967 -42.3489,1.8937 -42.3494,2.1386 -42.3497,2.4791 -42.3498,2.875 -42.3499,3.2438 -42.3499,3.5442 -42.35,3.8289 -42.35,4.0938 -42.35,4.3076 -42.35,4.4775 -42.35,4.6097 -42.35,4.732 -42.35,4.8911 -42.35,5.1416 -42.3189,5.7741 -42.2489,6.8514 L-42.21,7.45 " stroke="#e599f7" fill="none" stroke-linecap="round" stroke-width="3.5" stroke-dasharray="none" stroke-dashoffset="0"/></g><g transform="matrix(1, 0, 0, 1, 17088.81, -2001.9261)" opacity="1"><path d="M0,0 Q1.2574,0 1.67,0 T2.5104,0 3.26,0 3.87,0 4.40,0 4.83,0 5.19,0 5.53,0 5.83,0 6.11,0 6.49,0 6.97,0 7.72,0 8.92,0 L9.6,0 " stroke="#e599f7" fill="none" stroke-linecap="round" stroke-width="3.5" stroke-dasharray="none" stroke-dashoffset="0"/></g></svg>