<svg width="671" height="472" viewBox="0 0 671 472" fill="none" xmlns="http://www.w3.org/2000/svg">
<rect x="156" y="78" width="490" height="312" fill="white" stroke="#F86A13" stroke-width="2"/>
<rect x="451" y="91" width="174" height="154" fill="white" stroke="#F86A13" stroke-width="2"/>
<path d="M197 119H211.413L222.5 130.543M222.5 130.543V200.957M222.5 130.543L233.587 119H248M222.5 200.957L211.413 212.5H197M222.5 200.957L233.587 212.5H248" stroke="#F86A13" stroke-width="10" stroke-linecap="round"/>
<path d="M197 119H211.413L222.5 130.543M222.5 130.543V200.957M222.5 130.543L233.587 119H248M222.5 200.957L211.413 212.5H197M222.5 200.957L233.587 212.5H248" stroke="white" stroke-width="6" stroke-linecap="round"/>
<path d="M285 119H299.413L310.5 130.543M310.5 130.543V200.957M310.5 130.543L321.587 119H336M310.5 200.957L299.413 212.5H285M310.5 200.957L321.587 212.5H336" stroke="#F86A13" stroke-width="10" stroke-linecap="round"/>
<path d="M285 119H299.413L310.5 130.543M310.5 130.543V200.957M310.5 130.543L321.587 119H336M310.5 200.957L299.413 212.5H285M310.5 200.957L321.587 212.5H336" stroke="white" stroke-width="6" stroke-linecap="round"/>
<path d="M373 119H387.413L398.5 130.543M398.5 130.543V200.957M398.5 130.543L409.587 119H424M398.5 200.957L387.413 212.5H373M398.5 200.957L409.587 212.5H424" stroke="#F86A13" stroke-width="10" stroke-linecap="round"/>
<path d="M373 119H387.413L398.5 130.543M398.5 130.543V200.957M398.5 130.543L409.587 119H424M398.5 200.957L387.413 212.5H373M398.5 200.957L409.587 212.5H424" stroke="white" stroke-width="6" stroke-linecap="round"/>
<path d="M214 256H228.413L239.5 267.543M239.5 267.543V337.957M239.5 267.543L250.587 256H265M239.5 337.957L228.413 349.5H214M239.5 337.957L250.587 349.5H265" stroke="#F86A13" stroke-width="10" stroke-linecap="round"/>
<path d="M214 256H228.413L239.5 267.543M239.5 267.543V337.957M239.5 267.543L250.587 256H265M239.5 337.957L228.413 349.5H214M239.5 337.957L250.587 349.5H265" stroke="white" stroke-width="6" stroke-linecap="round"/>
<path d="M336 256H350.413L361.5 267.543M361.5 267.543V337.957M361.5 267.543L372.587 256H387M361.5 337.957L350.413 349.5H336M361.5 337.957L372.587 349.5H387" stroke="#F86A13" stroke-width="10" stroke-linecap="round"/>
<path d="M336 256H350.413L361.5 267.543M361.5 267.543V337.957M361.5 267.543L372.587 256H387M361.5 337.957L350.413 349.5H336M361.5 337.957L372.587 349.5H387" stroke="white" stroke-width="6" stroke-linecap="round"/>
<path d="M512 264H526.413L537.5 275.543M537.5 275.543V345.957M537.5 275.543L548.587 264H563M537.5 345.957L526.413 357.5H512M537.5 345.957L548.587 357.5H563" stroke="#F86A13" stroke-width="10" stroke-linecap="round"/>
<path d="M512 264H526.413L537.5 275.543M537.5 275.543V345.957M537.5 275.543L548.587 264H563M537.5 345.957L526.413 357.5H512M537.5 345.957L548.587 357.5H563" stroke="white" stroke-width="6" stroke-linecap="round"/>
<path d="M475 119H489.413L500.5 130.543M500.5 130.543V200.957M500.5 130.543L511.587 119H526M500.5 200.957L489.413 212.5H475M500.5 200.957L511.587 212.5H526" stroke="#F86A13" stroke-width="10" stroke-linecap="round"/>
<path d="M475 119H489.413L500.5 130.543M500.5 130.543V200.957M500.5 130.543L511.587 119H526M500.5 200.957L489.413 212.5H475M500.5 200.957L511.587 212.5H526" stroke="white" stroke-width="6" stroke-linecap="round"/>
<path d="M475 119H489.413L500.5 130.543M500.5 130.543V200.957M500.5 130.543L511.587 119H526M500.5 200.957L489.413 212.5H475M500.5 200.957L511.587 212.5H526" stroke="#F86A13" stroke-width="10" stroke-linecap="round"/>
<path d="M475 119H489.413L500.5 130.543M500.5 130.543V200.957M500.5 130.543L511.587 119H526M500.5 200.957L489.413 212.5H475M500.5 200.957L511.587 212.5H526" stroke="white" stroke-width="6" stroke-linecap="round"/>
<path d="M552 119H566.413L577.5 130.543M577.5 130.543V200.957M577.5 130.543L588.587 119H603M577.5 200.957L566.413 212.5H552M577.5 200.957L588.587 212.5H603" stroke="#F86A13" stroke-width="10" stroke-linecap="round"/>
<path d="M552 119H566.413L577.5 130.543M577.5 130.543V200.957M577.5 130.543L588.587 119H603M577.5 200.957L566.413 212.5H552M577.5 200.957L588.587 212.5H603" stroke="white" stroke-width="6" stroke-linecap="round"/>
<path d="M197 119H211.413L222.5 130.543M222.5 130.543V200.957M222.5 130.543L233.587 119H248M222.5 200.957L211.413 212.5H197M222.5 200.957L233.587 212.5H248" stroke="#F86A13" stroke-width="3" stroke-linecap="round"/>
<path d="M14.11 103.522C16.135 103.522 17.83 103.777 19.195 104.287C20.56 104.797 21.8575 105.547 23.0875 106.537L20.905 109.08C19.93 108.255 18.895 107.67 17.8 107.325C16.72 106.965 15.5875 106.785 14.4025 106.785C12.7075 106.785 11.14 107.19 9.7 108C8.26 108.795 7.0975 110.122 6.2125 111.982C5.3425 113.827 4.9075 116.332 4.9075 119.497C4.9075 122.572 5.32 125.04 6.145 126.9C6.985 128.76 8.1175 130.102 9.5425 130.927C10.9675 131.752 12.5575 132.165 14.3125 132.165C16.0525 132.165 17.4775 131.902 18.5875 131.377C19.7125 130.852 20.6875 130.252 21.5125 129.577L23.5375 132.142C22.5925 133.057 21.3625 133.852 19.8475 134.527C18.3325 135.188 16.4725 135.518 14.2675 135.518C11.7625 135.518 9.49 134.902 7.45 133.672C5.425 132.442 3.82 130.642 2.635 128.272C1.45 125.887 0.8575 122.962 0.8575 119.497C0.8575 116.017 1.4575 113.092 2.6575 110.723C3.8725 108.352 5.485 106.56 7.495 105.345C9.52 104.13 11.725 103.522 14.11 103.522ZM46.4699 129.825C46.4699 130.77 46.6274 131.46 46.9424 131.895C47.2574 132.33 47.7449 132.652 48.4049 132.862L47.4824 135.518C46.4624 135.383 45.5699 135.06 44.8049 134.55C44.0399 134.025 43.4849 133.237 43.1399 132.188C42.2849 133.282 41.2199 134.115 39.9449 134.685C38.6699 135.24 37.2599 135.518 35.7149 135.518C33.3449 135.518 31.4774 134.85 30.1124 133.515C28.7474 132.18 28.0649 130.41 28.0649 128.205C28.0649 125.76 29.0174 123.885 30.9224 122.58C32.8274 121.275 35.5799 120.622 39.1799 120.622H42.6674V118.642C42.6674 116.932 42.1649 115.725 41.1599 115.02C40.1699 114.3 38.7899 113.94 37.0199 113.94C36.2399 113.94 35.3249 114.037 34.2749 114.232C33.2249 114.412 32.0849 114.72 30.8549 115.155L29.8649 112.297C31.3199 111.757 32.6849 111.375 33.9599 111.15C35.2349 110.925 36.4499 110.812 37.6049 110.812C40.5599 110.812 42.7724 111.502 44.2424 112.882C45.7274 114.247 46.4699 116.107 46.4699 118.462V129.825ZM36.6824 132.637C37.8524 132.637 38.9699 132.345 40.0349 131.76C41.0999 131.16 41.9774 130.335 42.6674 129.285V123.187H39.2474C36.6374 123.187 34.7924 123.637 33.7124 124.537C32.6474 125.437 32.1149 126.645 32.1149 128.16C32.1149 129.63 32.4899 130.747 33.2399 131.512C34.0049 132.262 35.1524 132.637 36.6824 132.637ZM56.7123 135V132.097H60.4023V114.21H56.7123V111.307H63.2823L63.9798 116.91C64.8948 114.96 66.0048 113.452 67.3098 112.388C68.6148 111.322 70.3398 110.79 72.4848 110.79C73.1448 110.79 73.7298 110.842 74.2398 110.947C74.7648 111.037 75.2973 111.157 75.8373 111.307L74.7348 114.682C74.2398 114.547 73.7898 114.45 73.3848 114.39C72.9798 114.315 72.5148 114.277 71.9898 114.277C70.1748 114.277 68.6148 114.922 67.3098 116.212C66.0048 117.502 64.9623 119.452 64.1823 122.062V132.097H68.9973V135H56.7123ZM72.1923 119.317V114.165L72.5748 111.307H75.8373L75.2973 119.317H72.1923ZM86.4398 124.492C86.5148 126.322 86.8673 127.822 87.4973 128.992C88.1273 130.147 88.9598 131.002 89.9948 131.557C91.0298 132.097 92.1548 132.367 93.3698 132.367C94.5848 132.367 95.6798 132.187 96.6548 131.827C97.6448 131.467 98.6573 130.935 99.6923 130.23L101.47 132.727C100.36 133.597 99.0923 134.28 97.6673 134.775C96.2573 135.27 94.8098 135.518 93.3248 135.518C91.0298 135.518 89.0723 135 87.4523 133.965C85.8323 132.93 84.5948 131.49 83.7398 129.645C82.8998 127.785 82.4798 125.632 82.4798 123.187C82.4798 120.787 82.9073 118.657 83.7623 116.797C84.6173 114.937 85.8173 113.475 87.3623 112.41C88.9073 111.345 90.7298 110.812 92.8298 110.812C94.8248 110.812 96.5423 111.285 97.9823 112.23C99.4223 113.16 100.525 114.495 101.29 116.235C102.07 117.96 102.46 120.022 102.46 122.422C102.46 122.827 102.452 123.21 102.437 123.57C102.422 123.915 102.4 124.222 102.37 124.492H86.4398ZM92.8748 113.917C91.1198 113.917 89.6498 114.54 88.4648 115.785C87.2948 117.03 86.6273 118.957 86.4623 121.567H98.8148C98.7698 119.032 98.2148 117.127 97.1498 115.852C96.0848 114.562 94.6598 113.917 92.8748 113.917ZM129.262 133.807C128.452 134.347 127.47 134.767 126.315 135.068C125.16 135.368 124.027 135.518 122.917 135.518C120.367 135.518 118.402 134.85 117.022 133.515C115.642 132.18 114.952 130.462 114.952 128.362V114.232H109.507V111.307H114.952V105.93L118.732 105.48V111.307H126.922L126.472 114.232H118.732V128.317C118.732 129.637 119.077 130.642 119.767 131.332C120.472 132.022 121.635 132.367 123.255 132.367C124.14 132.367 124.957 132.262 125.707 132.052C126.457 131.842 127.155 131.572 127.8 131.242L129.262 133.807Z" fill="#819700"/>
<path d="M256.11 3.5225C258.135 3.5225 259.83 3.7775 261.195 4.2875C262.56 4.7975 263.857 5.5475 265.088 6.5375L262.905 9.08C261.93 8.255 260.895 7.67 259.8 7.325C258.72 6.965 257.588 6.785 256.403 6.785C254.708 6.785 253.14 7.19 251.7 8C250.26 8.795 249.098 10.1225 248.213 11.9825C247.343 13.8275 246.908 16.3325 246.908 19.4975C246.908 22.5725 247.32 25.04 248.145 26.9C248.985 28.76 250.118 30.1025 251.543 30.9275C252.968 31.7525 254.558 32.165 256.313 32.165C258.053 32.165 259.478 31.9025 260.588 31.3775C261.713 30.8525 262.688 30.2525 263.513 29.5775L265.538 32.1425C264.593 33.0575 263.363 33.8525 261.848 34.5275C260.333 35.1875 258.473 35.5175 256.268 35.5175C253.763 35.5175 251.49 34.9025 249.45 33.6725C247.425 32.4425 245.82 30.6425 244.635 28.2725C243.45 25.8875 242.858 22.9625 242.858 19.4975C242.858 16.0175 243.458 13.0925 244.658 10.7225C245.873 8.3525 247.485 6.56 249.495 5.345C251.52 4.13 253.725 3.5225 256.11 3.5225ZM288.47 29.825C288.47 30.77 288.627 31.46 288.942 31.895C289.257 32.33 289.745 32.6525 290.405 32.8625L289.482 35.5175C288.462 35.3825 287.57 35.06 286.805 34.55C286.04 34.025 285.485 33.2375 285.14 32.1875C284.285 33.2825 283.22 34.115 281.945 34.685C280.67 35.24 279.26 35.5175 277.715 35.5175C275.345 35.5175 273.477 34.85 272.112 33.515C270.747 32.18 270.065 30.41 270.065 28.205C270.065 25.76 271.017 23.885 272.922 22.58C274.827 21.275 277.58 20.6225 281.18 20.6225H284.667V18.6425C284.667 16.9325 284.165 15.725 283.16 15.02C282.17 14.3 280.79 13.94 279.02 13.94C278.24 13.94 277.325 14.0375 276.275 14.2325C275.225 14.4125 274.085 14.72 272.855 15.155L271.865 12.2975C273.32 11.7575 274.685 11.375 275.96 11.15C277.235 10.925 278.45 10.8125 279.605 10.8125C282.56 10.8125 284.772 11.5025 286.242 12.8825C287.727 14.2475 288.47 16.1075 288.47 18.4625V29.825ZM278.682 32.6375C279.852 32.6375 280.97 32.345 282.035 31.76C283.1 31.16 283.977 30.335 284.667 29.285V23.1875H281.247C278.637 23.1875 276.792 23.6375 275.712 24.5375C274.647 25.4375 274.115 26.645 274.115 28.16C274.115 29.63 274.49 30.7475 275.24 31.5125C276.005 32.2625 277.152 32.6375 278.682 32.6375ZM298.712 35V32.0975H302.402V14.21H298.712V11.3075H305.282L305.98 16.91C306.895 14.96 308.005 13.4525 309.31 12.3875C310.615 11.3225 312.34 10.79 314.485 10.79C315.145 10.79 315.73 10.8425 316.24 10.9475C316.765 11.0375 317.297 11.1575 317.837 11.3075L316.735 14.6825C316.24 14.5475 315.79 14.45 315.385 14.39C314.98 14.315 314.515 14.2775 313.99 14.2775C312.175 14.2775 310.615 14.9225 309.31 16.2125C308.005 17.5025 306.962 19.4525 306.182 22.0625V32.0975H310.997V35H298.712ZM314.192 19.3175V14.165L314.575 11.3075H317.837L317.297 19.3175H314.192ZM328.44 24.4925C328.515 26.3225 328.867 27.8225 329.497 28.9925C330.127 30.1475 330.96 31.0025 331.995 31.5575C333.03 32.0975 334.155 32.3675 335.37 32.3675C336.585 32.3675 337.68 32.1875 338.655 31.8275C339.645 31.4675 340.657 30.935 341.692 30.23L343.47 32.7275C342.36 33.5975 341.092 34.28 339.667 34.775C338.257 35.27 336.81 35.5175 335.325 35.5175C333.03 35.5175 331.072 35 329.452 33.965C327.832 32.93 326.595 31.49 325.74 29.645C324.9 27.785 324.48 25.6325 324.48 23.1875C324.48 20.7875 324.907 18.6575 325.762 16.7975C326.617 14.9375 327.817 13.475 329.362 12.41C330.907 11.345 332.73 10.8125 334.83 10.8125C336.825 10.8125 338.542 11.285 339.982 12.23C341.422 13.16 342.525 14.495 343.29 16.235C344.07 17.96 344.46 20.0225 344.46 22.4225C344.46 22.8275 344.452 23.21 344.437 23.57C344.422 23.915 344.4 24.2225 344.37 24.4925H328.44ZM334.875 13.9175C333.12 13.9175 331.65 14.54 330.465 15.785C329.295 17.03 328.627 18.9575 328.462 21.5675H340.815C340.77 19.0325 340.215 17.1275 339.15 15.8525C338.085 14.5625 336.66 13.9175 334.875 13.9175ZM371.262 33.8075C370.452 34.3475 369.47 34.7675 368.315 35.0675C367.16 35.3675 366.027 35.5175 364.917 35.5175C362.367 35.5175 360.402 34.85 359.022 33.515C357.642 32.18 356.952 30.4625 356.952 28.3625V14.2325H351.507V11.3075H356.952V5.93L360.732 5.48V11.3075H368.922L368.472 14.2325H360.732V28.3175C360.732 29.6375 361.077 30.6425 361.767 31.3325C362.472 32.0225 363.635 32.3675 365.255 32.3675C366.14 32.3675 366.957 32.2625 367.707 32.0525C368.457 31.8425 369.155 31.5725 369.8 31.2425L371.262 33.8075ZM399.055 26.4275C399.055 28.1975 398.612 29.7725 397.727 31.1525C396.842 32.5175 395.56 33.59 393.88 34.37C392.2 35.135 390.152 35.5175 387.737 35.5175C385.472 35.5175 383.417 35.1725 381.572 34.4825C379.742 33.7925 378.175 32.8175 376.87 31.5575L379.187 28.9475C380.267 29.9525 381.505 30.755 382.9 31.355C384.295 31.94 385.93 32.2325 387.805 32.2325C389.065 32.2325 390.242 32.03 391.337 31.625C392.432 31.205 393.317 30.575 393.992 29.735C394.667 28.88 395.005 27.8 395.005 26.495C395.005 25.49 394.81 24.635 394.42 23.93C394.03 23.225 393.34 22.6025 392.35 22.0625C391.36 21.5075 389.98 20.9675 388.21 20.4425C386.17 19.8425 384.4 19.1675 382.9 18.4175C381.415 17.6525 380.26 16.715 379.435 15.605C378.625 14.495 378.22 13.1225 378.22 11.4875C378.22 9.9425 378.647 8.57 379.502 7.37C380.357 6.17 381.535 5.2325 383.035 4.5575C384.55 3.8675 386.29 3.5225 388.255 3.5225C390.4 3.5225 392.26 3.83 393.835 4.445C395.425 5.045 396.865 5.915 398.155 7.055L395.86 9.5975C394.75 8.6075 393.557 7.895 392.282 7.46C391.007 7.01 389.71 6.785 388.39 6.785C387.265 6.785 386.23 6.9575 385.285 7.3025C384.355 7.6325 383.605 8.135 383.035 8.81C382.48 9.47 382.202 10.3175 382.202 11.3525C382.202 12.2375 382.442 13.0025 382.922 13.6475C383.402 14.2925 384.212 14.885 385.352 15.425C386.492 15.95 388.045 16.505 390.01 17.09C391.615 17.555 393.1 18.14 394.465 18.845C395.845 19.535 396.955 20.48 397.795 21.68C398.635 22.865 399.055 24.4475 399.055 26.4275ZM418.41 11.3075V32.0075H425.092V35H407.317V32.0075H414.63V14.3H407.542V11.3075H418.41ZM415.395 0.214997C416.235 0.214997 416.902 0.469998 417.397 0.979998C417.907 1.49 418.162 2.1125 418.162 2.8475C418.162 3.6125 417.907 4.2575 417.397 4.7825C416.902 5.2925 416.235 5.5475 415.395 5.5475C414.6 5.5475 413.947 5.2925 413.437 4.7825C412.927 4.2575 412.672 3.6125 412.672 2.8475C412.672 2.1125 412.927 1.49 413.437 0.979998C413.947 0.469998 414.6 0.214997 415.395 0.214997ZM433.399 35V11.3075H436.617L436.909 14.5925C437.869 13.3775 439.069 12.4475 440.509 11.8025C441.964 11.1425 443.374 10.8125 444.739 10.8125C447.064 10.8125 448.752 11.4275 449.802 12.6575C450.867 13.8875 451.399 15.5975 451.399 17.7875V35H447.619V20.5775C447.619 18.9575 447.529 17.6525 447.349 16.6625C447.169 15.6575 446.794 14.93 446.224 14.48C445.654 14.015 444.769 13.7825 443.569 13.7825C442.639 13.7825 441.762 13.985 440.937 14.39C440.127 14.795 439.399 15.305 438.754 15.92C438.124 16.52 437.599 17.1275 437.179 17.7425V35H433.399ZM480.227 11.3075L469.562 21.9725L481.464 35H476.492L464.837 22.0625L475.322 11.3075H480.227ZM464.409 1.295V35H460.629V1.7675L464.409 1.295ZM495.419 32.39C497.234 32.39 498.667 32.0525 499.717 31.3775C500.782 30.6875 501.314 29.7725 501.314 28.6325C501.314 27.9125 501.179 27.29 500.909 26.765C500.654 26.24 500.122 25.7675 499.312 25.3475C498.502 24.9275 497.257 24.5075 495.577 24.0875C493.942 23.6825 492.517 23.2175 491.302 22.6925C490.102 22.1525 489.164 21.455 488.489 20.6C487.829 19.745 487.499 18.635 487.499 17.27C487.499 15.935 487.874 14.7875 488.624 13.8275C489.389 12.8525 490.447 12.11 491.797 11.6C493.147 11.075 494.714 10.8125 496.499 10.8125C498.404 10.8125 500.062 11.0675 501.472 11.5775C502.897 12.0725 504.104 12.6875 505.094 13.4225L503.429 15.9875C502.529 15.3725 501.539 14.87 500.459 14.48C499.379 14.075 498.074 13.8725 496.544 13.8725C494.684 13.8725 493.364 14.165 492.584 14.75C491.804 15.32 491.414 16.0625 491.414 16.9775C491.414 17.6675 491.602 18.245 491.977 18.71C492.367 19.16 493.019 19.5725 493.934 19.9475C494.849 20.3075 496.109 20.705 497.714 21.14C499.259 21.545 500.602 22.0325 501.742 22.6025C502.897 23.1725 503.797 23.9225 504.442 24.8525C505.087 25.7825 505.409 26.9825 505.409 28.4525C505.409 30.1325 504.929 31.4975 503.969 32.5475C503.009 33.5825 501.764 34.34 500.234 34.82C498.719 35.285 497.114 35.5175 495.419 35.5175C493.274 35.5175 491.444 35.21 489.929 34.595C488.429 33.965 487.169 33.2075 486.149 32.3225L488.309 29.825C489.239 30.59 490.304 31.2125 491.504 31.6925C492.719 32.1575 494.024 32.39 495.419 32.39Z" fill="#819700"/>
<path d="M256.11 439.522C258.135 439.522 259.83 439.777 261.195 440.287C262.56 440.797 263.857 441.547 265.088 442.537L262.905 445.08C261.93 444.255 260.895 443.67 259.8 443.325C258.72 442.965 257.588 442.785 256.403 442.785C254.708 442.785 253.14 443.19 251.7 444C250.26 444.795 249.098 446.122 248.213 447.982C247.343 449.827 246.908 452.332 246.908 455.497C246.908 458.572 247.32 461.04 248.145 462.9C248.985 464.76 250.118 466.102 251.543 466.927C252.968 467.752 254.558 468.165 256.313 468.165C258.053 468.165 259.478 467.902 260.588 467.377C261.713 466.852 262.688 466.252 263.513 465.577L265.538 468.142C264.593 469.057 263.363 469.852 261.848 470.527C260.333 471.188 258.473 471.518 256.268 471.518C253.763 471.518 251.49 470.902 249.45 469.672C247.425 468.442 245.82 466.642 244.635 464.272C243.45 461.887 242.858 458.962 242.858 455.497C242.858 452.017 243.458 449.092 244.658 446.723C245.873 444.352 247.485 442.56 249.495 441.345C251.52 440.13 253.725 439.522 256.11 439.522ZM280.527 446.812C282.762 446.812 284.63 447.322 286.13 448.342C287.645 449.347 288.777 450.772 289.527 452.617C290.292 454.462 290.675 456.637 290.675 459.142C290.675 461.557 290.285 463.695 289.505 465.555C288.725 467.415 287.577 468.877 286.062 469.942C284.562 470.993 282.702 471.518 280.482 471.518C278.262 471.518 276.395 471.008 274.88 469.987C273.365 468.967 272.217 467.535 271.437 465.69C270.672 463.83 270.29 461.662 270.29 459.187C270.29 456.742 270.68 454.59 271.46 452.73C272.24 450.87 273.387 449.422 274.902 448.388C276.432 447.337 278.307 446.812 280.527 446.812ZM280.527 449.895C278.487 449.895 276.942 450.652 275.892 452.167C274.857 453.667 274.34 456.007 274.34 459.187C274.34 462.307 274.85 464.625 275.87 466.14C276.905 467.655 278.442 468.412 280.482 468.412C282.522 468.412 284.052 467.655 285.072 466.14C286.107 464.625 286.625 462.292 286.625 459.142C286.625 455.992 286.115 453.667 285.095 452.167C284.075 450.652 282.552 449.895 280.527 449.895ZM298.487 471V447.307H301.705L301.997 450.592C302.957 449.377 304.157 448.447 305.597 447.802C307.052 447.142 308.462 446.812 309.827 446.812C312.152 446.812 313.84 447.427 314.89 448.657C315.955 449.887 316.487 451.597 316.487 453.787V471H312.707V456.577C312.707 454.957 312.617 453.652 312.437 452.662C312.257 451.657 311.882 450.93 311.312 450.48C310.742 450.015 309.857 449.782 308.657 449.782C307.727 449.782 306.85 449.985 306.025 450.39C305.215 450.795 304.487 451.305 303.842 451.92C303.212 452.52 302.687 453.127 302.267 453.742V471H298.487ZM344.28 469.807C343.47 470.347 342.487 470.767 341.332 471.068C340.177 471.368 339.045 471.518 337.935 471.518C335.385 471.518 333.42 470.85 332.04 469.515C330.66 468.18 329.97 466.462 329.97 464.362V450.232H324.525V447.307H329.97V441.93L333.75 441.48V447.307H341.94L341.49 450.232H333.75V464.317C333.75 465.637 334.095 466.642 334.785 467.332C335.49 468.022 336.652 468.367 338.272 468.367C339.157 468.367 339.975 468.262 340.725 468.052C341.475 467.842 342.172 467.572 342.817 467.242L344.28 469.807ZM369.417 465.825C369.417 466.77 369.575 467.46 369.89 467.895C370.205 468.33 370.692 468.652 371.352 468.862L370.43 471.518C369.41 471.383 368.517 471.06 367.752 470.55C366.987 470.025 366.432 469.237 366.087 468.188C365.232 469.282 364.167 470.115 362.892 470.685C361.617 471.24 360.207 471.518 358.662 471.518C356.292 471.518 354.425 470.85 353.06 469.515C351.695 468.18 351.012 466.41 351.012 464.205C351.012 461.76 351.965 459.885 353.87 458.58C355.775 457.275 358.527 456.622 362.127 456.622H365.615V454.642C365.615 452.932 365.112 451.725 364.107 451.02C363.117 450.3 361.737 449.94 359.967 449.94C359.187 449.94 358.272 450.037 357.222 450.232C356.172 450.412 355.032 450.72 353.802 451.155L352.812 448.297C354.267 447.757 355.632 447.375 356.907 447.15C358.182 446.925 359.397 446.812 360.552 446.812C363.507 446.812 365.72 447.502 367.19 448.882C368.675 450.247 369.417 452.107 369.417 454.462V465.825ZM359.63 468.637C360.8 468.637 361.917 468.345 362.982 467.76C364.047 467.16 364.925 466.335 365.615 465.285V459.187H362.195C359.585 459.187 357.74 459.637 356.66 460.537C355.595 461.437 355.062 462.645 355.062 464.16C355.062 465.63 355.437 466.747 356.187 467.512C356.952 468.262 358.1 468.637 359.63 468.637ZM391.427 447.307V468.007H398.11V471H380.335V468.007H387.647V450.3H380.56V447.307H391.427ZM388.412 436.215C389.252 436.215 389.92 436.47 390.415 436.98C390.925 437.49 391.18 438.112 391.18 438.847C391.18 439.612 390.925 440.257 390.415 440.782C389.92 441.292 389.252 441.547 388.412 441.547C387.617 441.547 386.965 441.292 386.455 440.782C385.945 440.257 385.69 439.612 385.69 438.847C385.69 438.112 385.945 437.49 386.455 436.98C386.965 436.47 387.617 436.215 388.412 436.215ZM406.417 471V447.307H409.635L409.927 450.592C410.887 449.377 412.087 448.447 413.527 447.802C414.982 447.142 416.392 446.812 417.757 446.812C420.082 446.812 421.77 447.427 422.82 448.657C423.885 449.887 424.417 451.597 424.417 453.787V471H420.637V456.577C420.637 454.957 420.547 453.652 420.367 452.662C420.187 451.657 419.812 450.93 419.242 450.48C418.672 450.015 417.787 449.782 416.587 449.782C415.657 449.782 414.78 449.985 413.955 450.39C413.145 450.795 412.417 451.305 411.772 451.92C411.142 452.52 410.617 453.127 410.197 453.742V471H406.417ZM436.369 460.492C436.444 462.322 436.797 463.822 437.427 464.992C438.057 466.147 438.889 467.002 439.924 467.557C440.959 468.097 442.084 468.367 443.299 468.367C444.514 468.367 445.609 468.187 446.584 467.827C447.574 467.467 448.587 466.935 449.622 466.23L451.399 468.727C450.289 469.597 449.022 470.28 447.597 470.775C446.187 471.27 444.739 471.518 443.254 471.518C440.959 471.518 439.002 471 437.382 469.965C435.762 468.93 434.524 467.49 433.669 465.645C432.829 463.785 432.409 461.632 432.409 459.187C432.409 456.787 432.837 454.657 433.692 452.797C434.547 450.937 435.747 449.475 437.292 448.41C438.837 447.345 440.659 446.812 442.759 446.812C444.754 446.812 446.472 447.285 447.912 448.23C449.352 449.16 450.454 450.495 451.219 452.235C451.999 453.96 452.389 456.022 452.389 458.422C452.389 458.827 452.382 459.21 452.367 459.57C452.352 459.915 452.329 460.222 452.299 460.492H436.369ZM442.804 449.917C441.049 449.917 439.579 450.54 438.394 451.785C437.224 453.03 436.557 454.957 436.392 457.567H448.744C448.699 455.032 448.144 453.127 447.079 451.852C446.014 450.562 444.589 449.917 442.804 449.917ZM460.607 471V468.097H464.297V450.21H460.607V447.307H467.177L467.874 452.91C468.789 450.96 469.899 449.452 471.204 448.388C472.509 447.322 474.234 446.79 476.379 446.79C477.039 446.79 477.624 446.842 478.134 446.947C478.659 447.037 479.192 447.157 479.732 447.307L478.629 450.682C478.134 450.547 477.684 450.45 477.279 450.39C476.874 450.315 476.409 450.277 475.884 450.277C474.069 450.277 472.509 450.922 471.204 452.212C469.899 453.502 468.857 455.452 468.077 458.062V468.097H472.892V471H460.607ZM476.087 455.317V450.165L476.469 447.307H479.732L479.192 455.317H476.087ZM506.984 462.427C506.984 464.197 506.542 465.772 505.657 467.152C504.772 468.517 503.489 469.59 501.809 470.37C500.129 471.135 498.082 471.518 495.667 471.518C493.402 471.518 491.347 471.173 489.502 470.482C487.672 469.792 486.104 468.817 484.799 467.557L487.117 464.947C488.197 465.952 489.434 466.755 490.829 467.355C492.224 467.94 493.859 468.232 495.734 468.232C496.994 468.232 498.172 468.03 499.267 467.625C500.362 467.205 501.247 466.575 501.922 465.735C502.597 464.88 502.934 463.8 502.934 462.495C502.934 461.49 502.739 460.635 502.349 459.93C501.959 459.225 501.269 458.602 500.279 458.062C499.289 457.507 497.909 456.967 496.139 456.442C494.099 455.842 492.329 455.167 490.829 454.417C489.344 453.652 488.189 452.715 487.364 451.605C486.554 450.495 486.149 449.122 486.149 447.487C486.149 445.942 486.577 444.57 487.432 443.37C488.287 442.17 489.464 441.232 490.964 440.557C492.479 439.867 494.219 439.522 496.184 439.522C498.329 439.522 500.189 439.83 501.764 440.445C503.354 441.045 504.794 441.915 506.084 443.055L503.789 445.597C502.679 444.607 501.487 443.895 500.212 443.46C498.937 443.01 497.639 442.785 496.319 442.785C495.194 442.785 494.159 442.957 493.214 443.302C492.284 443.632 491.534 444.135 490.964 444.81C490.409 445.47 490.132 446.317 490.132 447.353C490.132 448.237 490.372 449.002 490.852 449.647C491.332 450.292 492.142 450.885 493.282 451.425C494.422 451.95 495.974 452.505 497.939 453.09C499.544 453.555 501.029 454.14 502.394 454.845C503.774 455.535 504.884 456.48 505.724 457.68C506.564 458.865 506.984 460.447 506.984 462.427ZM526.339 447.307V468.007H533.022V471H515.247V468.007H522.559V450.3H515.472V447.307H526.339ZM523.324 436.215C524.164 436.215 524.832 436.47 525.327 436.98C525.837 437.49 526.092 438.112 526.092 438.847C526.092 439.612 525.837 440.257 525.327 440.782C524.832 441.292 524.164 441.547 523.324 441.547C522.529 441.547 521.877 441.292 521.367 440.782C520.857 440.257 520.602 439.612 520.602 438.847C520.602 438.112 520.857 437.49 521.367 436.98C521.877 436.47 522.529 436.215 523.324 436.215ZM541.329 471V447.307H544.547L544.839 450.592C545.799 449.377 546.999 448.447 548.439 447.802C549.894 447.142 551.304 446.812 552.669 446.812C554.994 446.812 556.682 447.427 557.732 448.657C558.797 449.887 559.329 451.597 559.329 453.787V471H555.549V456.577C555.549 454.957 555.459 453.652 555.279 452.662C555.099 451.657 554.724 450.93 554.154 450.48C553.584 450.015 552.699 449.782 551.499 449.782C550.569 449.782 549.692 449.985 548.867 450.39C548.057 450.795 547.329 451.305 546.684 451.92C546.054 452.52 545.529 453.127 545.109 453.742V471H541.329ZM588.157 447.307L577.492 457.972L589.394 471H584.422L572.767 458.062L583.252 447.307H588.157ZM572.339 437.295V471H568.559V437.767L572.339 437.295ZM603.349 468.39C605.164 468.39 606.596 468.052 607.646 467.377C608.711 466.687 609.244 465.772 609.244 464.632C609.244 463.912 609.109 463.29 608.839 462.765C608.584 462.24 608.051 461.767 607.241 461.347C606.431 460.927 605.186 460.507 603.506 460.087C601.871 459.682 600.446 459.217 599.231 458.692C598.031 458.152 597.094 457.455 596.419 456.6C595.759 455.745 595.429 454.635 595.429 453.27C595.429 451.935 595.804 450.787 596.554 449.827C597.319 448.852 598.376 448.11 599.726 447.6C601.076 447.075 602.644 446.812 604.429 446.812C606.334 446.812 607.991 447.067 609.401 447.577C610.826 448.072 612.034 448.687 613.024 449.422L611.359 451.987C610.459 451.372 609.469 450.87 608.389 450.48C607.309 450.075 606.004 449.872 604.474 449.872C602.614 449.872 601.294 450.165 600.514 450.75C599.734 451.32 599.344 452.062 599.344 452.977C599.344 453.667 599.531 454.245 599.906 454.71C600.296 455.16 600.949 455.572 601.864 455.947C602.779 456.307 604.039 456.705 605.644 457.14C607.189 457.545 608.531 458.032 609.671 458.603C610.826 459.172 611.726 459.922 612.371 460.852C613.016 461.782 613.339 462.982 613.339 464.452C613.339 466.132 612.859 467.497 611.899 468.547C610.939 469.582 609.694 470.34 608.164 470.82C606.649 471.285 605.044 471.518 603.349 471.518C601.204 471.518 599.374 471.21 597.859 470.595C596.359 469.965 595.099 469.207 594.079 468.322L596.239 465.825C597.169 466.59 598.234 467.212 599.434 467.693C600.649 468.157 601.954 468.39 603.349 468.39Z" fill="#819700"/>
<path d="M484 257L469.543 275.009L492.368 278.525L484 257ZM419 421C419 387.741 431.575 364.562 445.937 343.081C460.24 321.69 476.618 301.654 483.201 275.271L479.32 274.303C472.955 299.81 457.203 319.036 442.612 340.858C428.082 362.59 415 386.572 415 421H419Z" fill="#819700"/>
<path d="M651 401.5L650.372 424.585L670.679 413.586L651 401.5ZM628.001 454.936C643.338 450.965 652.658 445.064 657.681 438.203C662.752 431.278 663.231 423.671 661.513 416.84L657.634 417.816C659.129 423.76 658.673 430.078 654.454 435.84C650.188 441.667 641.864 447.215 626.999 451.064L628.001 454.936Z" fill="#819700"/>
<path d="M306.5 109L320.185 90.3975L297.232 87.8472L306.5 109ZM311.512 45.7791L306.5 90.8892L310.476 91.331L315.488 46.2209L311.512 45.7791Z" fill="#819700"/>
<path d="M399 109L407.509 87.5309L384.662 90.896L399 109ZM387.521 44.7914L394.398 91.4835L398.356 90.9007L391.479 44.2086L387.521 44.7914Z" fill="#819700"/>
<path d="M225.5 107L244.597 94.0135L223.802 83.9685L225.5 107ZM252.199 47.1301L231.528 89.922L235.13 91.6619L255.801 48.8699L252.199 47.1301Z" fill="#819700"/>
<path d="M206 163.5L189.404 147.441L183.794 169.844L206 163.5ZM137.194 124.991C144.156 124.314 149.38 125.474 153.633 127.67C157.922 129.884 161.364 133.223 164.652 137.141C166.297 139.101 167.877 141.172 169.509 143.307C171.13 145.428 172.801 147.607 174.583 149.714C178.153 153.932 182.246 157.952 187.574 160.88L189.501 157.375C184.775 154.778 181.05 151.165 177.637 147.13C175.927 145.11 174.314 143.007 172.686 140.877C171.068 138.76 169.431 136.612 167.716 134.569C164.285 130.481 160.44 126.683 155.468 124.116C150.461 121.53 144.453 120.266 136.806 121.009L137.194 124.991Z" fill="#819700"/>
</svg>
