<svg xmlns="http://www.w3.org/2000/svg" id="s" viewBox="80 80 240 240"><circle r="4" fill="black" cx="122" cy="367"></circle><circle r="4" fill="red" cx="226.00740571165375" cy="211.2920704301654"></circle><line stroke-width="3" stroke="red" x1="221.48387429578037" y1="205.47551172758625" x2="226.00740571165375" y2="211.2920704301654"></line><circle r="4" fill="blue" cx="220.55672393549455" cy="207.7501933743736"></circle><line stroke-width="3" stroke="blue" x1="221.48387429578037" y1="205.47551172758625" x2="220.55672393549455" y2="207.7501933743736"></line><circle r="4" fill="green" cx="221.48387429578037" cy="205.47551172758625"></circle><circle r="4" fill="black" cx="122" cy="367"></circle><circle r="4" fill="red" cx="216.2747659781044" cy="242.46148624431066"></circle><line stroke-width="3" stroke="red" x1="216.95069256932305" y1="235.14668292254112" x2="216.2747659781044" y2="242.46148624431066"></line><circle r="4" fill="blue" cx="214.91210163187662" cy="232.87878361840822"></circle><line stroke-width="3" stroke="blue" x1="216.95069256932305" y1="235.14668292254112" x2="214.91210163187662" y2="232.87878361840822"></line><circle r="4" fill="green" cx="216.95069256932305" cy="235.14668292254112"></circle><circle r="4" fill="black" cx="122" cy="367"></circle><circle r="4" fill="red" cx="205.2831628757758" cy="174.07688632061814"></circle><line stroke-width="3" stroke="red" x1="202.7562264650056" y1="178.63215879724297" x2="205.2831628757758" y2="174.07688632061814"></line><circle r="4" fill="blue" cx="204.3144963999756" cy="181.74146289934575"></circle><line stroke-width="3" stroke="blue" x1="202.7562264650056" y1="178.63215879724297" x2="204.3144963999756" y2="181.74146289934575"></line><circle r="4" fill="green" cx="202.7562264650056" cy="178.63215879724297"></circle><circle r="4" fill="black" cx="122" cy="367"></circle><circle r="4" fill="red" cx="190.2961367304322" cy="217.03794868712262"></circle><line stroke-width="3" stroke="red" x1="195.33452416186887" y1="219.94544315227566" x2="190.2961367304322" y2="217.03794868712262"></line><circle r="4" fill="blue" cx="195.41720243556293" cy="216.57057166085326"></circle><line stroke-width="3" stroke="blue" x1="195.33452416186887" y1="219.94544315227566" x2="195.41720243556293" y2="216.57057166085326"></line><circle r="4" fill="green" cx="195.33452416186887" cy="219.94544315227566"></circle><circle r="4" fill="black" cx="122" cy="367"></circle><circle r="4" fill="red" cx="187.37790276137193" cy="188.31513616538828"></circle><line stroke-width="3" stroke="red" x1="190.64019935757827" y1="195.75758544915323" x2="187.37790276137193" y2="188.31513616538828"></line><circle r="4" fill="blue" cx="192.1727980512957" cy="194.88221532775114"></circle><line stroke-width="3" stroke="blue" x1="190.64019935757827" y1="195.75758544915323" x2="192.1727980512957" y2="194.88221532775114"></line><circle r="4" fill="green" cx="190.64019935757827" cy="195.75758544915323"></circle><circle r="4" fill="black" cx="122" cy="367"></circle><circle r="4" fill="red" cx="189.166072201807" cy="173.25957548584032"></circle><line stroke-width="3" stroke="red" x1="190.6558021019747" y1="182.19868556350664" x2="189.166072201807" y2="173.25957548584032"></line><circle r="4" fill="blue" cx="192.82957686087707" cy="183.10420339437718"></circle><line stroke-width="3" stroke="blue" x1="190.6558021019747" y1="182.19868556350664" x2="192.82957686087707" y2="183.10420339437718"></line><circle r="4" fill="green" cx="190.6558021019747" cy="182.19868556350664"></circle><circle r="4" fill="black" cx="122" cy="367"></circle><circle r="4" fill="red" cx="199.6905427268674" cy="229.7298358140207"></circle><line stroke-width="3" stroke="red" x1="203.4578441716934" y1="228.48272912792518" x2="199.6905427268674" y2="229.7298358140207"></line><circle r="4" fill="blue" cx="202.60956799016026" cy="225.15331514029072"></circle><line stroke-width="3" stroke="blue" x1="203.4578441716934" y1="228.48272912792518" x2="202.60956799016026" y2="225.15331514029072"></line><circle r="4" fill="green" cx="203.4578441716934" cy="228.48272912792518"></circle><circle r="4" fill="black" cx="122" cy="367"></circle><circle r="4" fill="red" cx="215.91455515919546" cy="180.81625102686047"></circle><line stroke-width="3" stroke="red" x1="211.28127311969823" y1="181.66801767340087" x2="215.91455515919546" y2="180.81625102686047"></line><circle r="4" fill="blue" cx="212.14310917387667" cy="185.60208552742017"></circle><line stroke-width="3" stroke="blue" x1="211.28127311969823" y1="181.66801767340087" x2="212.14310917387667" y2="185.60208552742017"></line><circle r="4" fill="green" cx="211.28127311969823" cy="181.66801767340087"></circle><circle r="4" fill="black" cx="122" cy="367"></circle><circle r="4" fill="red" cx="221.88926436174228" cy="233.38531386855738"></circle><line stroke-width="3" stroke="red" x1="220.34587462634207" y1="225.76895758060164" x2="221.88926436174228" y2="233.38531386855738"></line><circle r="4" fill="blue" cx="218.5313420334404" cy="225.21829751209034"></circle><line stroke-width="3" stroke="blue" x1="220.34587462634207" y1="225.76895758060164" x2="218.5313420334404" y2="225.21829751209034"></line><circle r="4" fill="green" cx="220.34587462634207" cy="225.76895758060164"></circle><circle r="4" fill="black" cx="122" cy="367"></circle><circle r="4" fill="red" cx="228.7713467059862" cy="230.02030695073262"></circle><line stroke-width="3" stroke="red" x1="225.18744515852487" y1="221.01828976523453" x2="228.7713467059862" y2="230.02030695073262"></line><circle r="4" fill="blue" cx="223.2840564973378" cy="221.78539328013804"></circle><line stroke-width="3" stroke="blue" x1="225.18744515852487" y1="221.01828976523453" x2="223.2840564973378" y2="221.78539328013804"></line><circle r="4" fill="green" cx="225.18744515852487" cy="221.01828976523453"></circle><circle r="4" fill="black" cx="122" cy="367"></circle><circle r="4" fill="red" cx="219.38486206136807" cy="195.41179152711652"></circle><line stroke-width="3" stroke="red" x1="215.14997795493414" y1="193.43173720682847" x2="219.38486206136807" y2="195.41179152711652"></line><circle r="4" fill="blue" cx="215.20385749807483" cy="196.3776520750625"></circle><line stroke-width="3" stroke="blue" x1="215.14997795493414" y1="193.43173720682847" x2="215.20385749807483" y2="196.3776520750625"></line><circle r="4" fill="green" cx="215.14997795493414" cy="193.43173720682847"></circle><circle r="4" fill="black" cx="122" cy="367"></circle><circle r="4" fill="red" cx="206.3325791990195" cy="243.56661231257593"></circle><line stroke-width="3" stroke="red" x1="209.62726280713412" y1="238.7453769018124" x2="206.3325791990195" y2="243.56661231257593"></line><circle r="4" fill="blue" cx="207.89297835950975" cy="234.9547809625933"></circle><line stroke-width="3" stroke="blue" x1="209.62726280713412" y1="238.7453769018124" x2="207.89297835950975" y2="234.9547809625933"></line><circle r="4" fill="green" cx="209.62726280713412" cy="238.7453769018124"></circle><circle r="4" fill="black" cx="122" cy="367"></circle><circle r="4" fill="red" cx="197.17316640076808" cy="176.12411973585318"></circle><line stroke-width="3" stroke="red" x1="196.88276834435047" y1="182.56342357014265" x2="197.17316640076808" y2="176.12411973585318"></line><circle r="4" fill="blue" cx="198.63559701123637" cy="184.3144180083222"></circle><line stroke-width="3" stroke="blue" x1="196.88276834435047" y1="182.56342357014265" x2="198.63559701123637" y2="184.3144180083222"></line><circle r="4" fill="green" cx="196.88276834435047" cy="182.56342357014265"></circle><circle r="4" fill="black" cx="122" cy="367"></circle><circle r="4" fill="red" cx="183.05951978458188" cy="197.88145711709848"></circle><line stroke-width="3" stroke="red" x1="188.25530011461706" y1="205.21734891572052" x2="183.05951978458188" y2="197.88145711709848"></line><circle r="4" fill="blue" cx="189.4944620282992" cy="202.75891336486404"></circle><line stroke-width="3" stroke="blue" x1="188.25530011461706" y1="205.21734891572052" x2="189.4944620282992" y2="202.75891336486404"></line><circle r="4" fill="green" cx="188.25530011461706" cy="205.21734891572052"></circle><circle r="4" fill="black" cx="122" cy="367"></circle><circle r="4" fill="red" cx="190.31865688557352" cy="204.3110829760443"></circle><line stroke-width="3" stroke="red" x1="194.2363640023454" y1="208.87888332271382" x2="190.31865688557352" y2="204.3110829760443"></line><circle r="4" fill="blue" cx="194.91437523420862" cy="206.79817506975354"></circle><line stroke-width="3" stroke="blue" x1="194.2363640023454" y1="208.87888332271382" x2="194.91437523420862" y2="206.79817506975354"></line><circle r="4" fill="green" cx="194.2363640023454" cy="208.87888332271382"></circle><circle r="4" fill="black" cx="122" cy="367"></circle><circle r="4" fill="red" cx="196.43388062619735" cy="163.74172519880682"></circle><line stroke-width="3" stroke="red" x1="195.2462205357005" y1="171.99838733782204" x2="196.43388062619735" y2="163.74172519880682"></line><circle r="4" fill="blue" cx="197.60553026654395" cy="174.9005181242812"></circle><line stroke-width="3" stroke="blue" x1="195.2462205357005" y1="171.99838733782204" x2="197.60553026654395" y2="174.9005181242812"></line><circle r="4" fill="green" cx="195.2462205357005" cy="171.99838733782204"></circle><circle r="4" fill="black" cx="122" cy="367"></circle><circle r="4" fill="red" cx="208.64826386521722" cy="234.43380129248257"></circle><line stroke-width="3" stroke="red" x1="210.5554478208404" y1="230.19380139061445" x2="208.64826386521722" y2="234.43380129248257"></line><circle r="4" fill="blue" cx="209.16601919321164" cy="227.6581545153184"></circle><line stroke-width="3" stroke="blue" x1="210.5554478208404" y1="230.19380139061445" x2="209.16601919321164" y2="227.6581545153184"></line><circle r="4" fill="green" cx="210.5554478208404" cy="230.19380139061445"></circle><circle r="4" fill="black" cx="122" cy="367"></circle><circle r="4" fill="red" cx="226.67431513419382" cy="196.75089755446584"></circle><line stroke-width="3" stroke="red" x1="220.70770055316027" y1="192.66119022069407" x2="226.67431513419382" y2="196.75089755446584"></line><circle r="4" fill="blue" cx="220.4377888641499" cy="196.50549787596793"></circle><line stroke-width="3" stroke="blue" x1="220.70770055316027" y1="192.66119022069407" x2="220.4377888641499" y2="196.50549787596793"></line><circle r="4" fill="green" cx="220.70770055316027" cy="192.66119022069407"></circle><circle r="4" fill="black" cx="122" cy="367"></circle><circle r="4" fill="red" cx="222.81236444515798" cy="220.0883928093217"></circle><line stroke-width="3" stroke="red" x1="219.86991178975583" y1="213.96799982896312" x2="222.81236444515798" y2="220.0883928093217"></line><circle r="4" fill="blue" cx="218.6451605608564" cy="214.89710158944305"></circle><line stroke-width="3" stroke="blue" x1="219.86991178975583" y1="213.96799982896312" x2="218.6451605608564" y2="214.89710158944305"></line><circle r="4" fill="green" cx="219.86991178975583" cy="213.96799982896312"></circle><circle r="4" fill="black" cx="122" cy="367"></circle><circle r="4" fill="red" cx="225.84526761758562" cy="246.95400661122918"></circle><line stroke-width="3" stroke="red" x1="224.4871143691728" y1="236.51138641389448" x2="225.84526761758562" y2="246.95400661122918"></line><circle r="4" fill="blue" cx="221.89532903255682" cy="235.1456437062519"></circle><line stroke-width="3" stroke="blue" x1="224.4871143691728" y1="236.51138641389448" x2="221.89532903255682" y2="235.1456437062519"></line><circle r="4" fill="green" cx="224.4871143691728" cy="236.51138641389448"></circle><circle r="4" fill="black" cx="122" cy="367"></circle><circle r="4" fill="red" cx="211.22655778928518" cy="185.39275037123872"></circle><line stroke-width="3" stroke="red" x1="208.1833706582074" y1="186.88933941672445" x2="211.22655778928518" y2="185.39275037123872"></line><circle r="4" fill="blue" cx="208.99873577030064" cy="189.69405077565983"></circle><line stroke-width="3" stroke="blue" x1="208.1833706582074" y1="186.88933941672445" x2="208.99873577030064" y2="189.69405077565983"></line><circle r="4" fill="green" cx="208.1833706582074" cy="186.88933941672445"></circle><circle r="4" fill="black" cx="122" cy="367"></circle><circle r="4" fill="red" cx="193.77292510998683" cy="234.2463723265859"></circle><line stroke-width="3" stroke="red" x1="199.43697432469975" y1="233.9782306986486" x2="193.77292510998683" y2="234.2463723265859"></line><circle r="4" fill="blue" cx="198.58907382042878" cy="229.3510842222447"></circle><line stroke-width="3" stroke="blue" x1="199.43697432469975" y1="233.9782306986486" x2="198.58907382042878" y2="229.3510842222447"></line><circle r="4" fill="green" cx="199.43697432469975" cy="233.9782306986486"></circle><circle r="4" fill="black" cx="122" cy="367"></circle><circle r="4" fill="red" cx="192.8980021792562" cy="184.6354191373896"></circle><line stroke-width="3" stroke="red" x1="194.43769725314684" y1="191.09482706088747" x2="192.8980021792562" y2="184.6354191373896"></line><circle r="4" fill="blue" cx="195.94495958989899" cy="191.3759055837541"></circle><line stroke-width="3" stroke="blue" x1="194.43769725314684" y1="191.09482706088747" x2="195.94495958989899" y2="191.3759055837541"></line><circle r="4" fill="green" cx="194.43769725314684" cy="191.09482706088747"></circle><circle r="4" fill="black" cx="122" cy="367"></circle><circle r="4" fill="red" cx="180.64740497516866" cy="176.0576017495088"></circle><line stroke-width="3" stroke="red" x1="184.54311186755527" y1="186.8908894751525" x2="180.64740497516866" y2="176.0576017495088"></line><circle r="4" fill="blue" cx="186.89091367497537" cy="186.30395771102894"></circle><line stroke-width="3" stroke="blue" x1="184.54311186755527" y1="186.8908894751525" x2="186.89091367497537" y2="186.30395771102894"></line><circle r="4" fill="green" cx="184.54311186755527" cy="186.8908894751525"></circle><circle r="4" fill="black" cx="122" cy="367"></circle><circle r="4" fill="red" cx="196.31973448888542" cy="217.40737626302356"></circle><line stroke-width="3" stroke="red" x1="199.86253787507385" y1="218.6680814369673" x2="196.31973448888542" y2="217.40737626302356"></line><circle r="4" fill="blue" cx="199.71218128363088" cy="216.1103640339983"></circle><line stroke-width="3" stroke="blue" x1="199.86253787507385" y1="218.6680814369673" x2="199.71218128363088" y2="216.1103640339983"></line><circle r="4" fill="green" cx="199.86253787507385" cy="218.6680814369673"></circle><circle r="4" fill="black" cx="122" cy="367"></circle><circle r="4" fill="red" cx="208.5515929151438" cy="163.99216119446623"></circle><line stroke-width="3" stroke="red" x1="204.31208827551083" y1="169.0004793531363" x2="208.5515929151438" y2="163.99216119446623"></line><circle r="4" fill="blue" cx="206.22568082880994" cy="173.59646673524836"></circle><line stroke-width="3" stroke="blue" x1="204.31208827551083" y1="169.0004793531363" x2="206.22568082880994" y2="173.59646673524836"></line><circle r="4" fill="green" cx="204.31208827551083" cy="169.0004793531363"></circle><circle r="4" fill="black" cx="122" cy="367"></circle><circle r="4" fill="red" cx="215.22241322494244" cy="231.76677122661934"></circle><line stroke-width="3" stroke="red" x1="215.22834374390382" y1="226.13143995506448" x2="215.22241322494244" y2="231.76677122661934"></line><circle r="4" fill="blue" cx="213.7283934750235" cy="224.79906686468615"></circle><line stroke-width="3" stroke="blue" x1="215.22834374390382" y1="226.13143995506448" x2="213.7283934750235" y2="224.79906686468615"></line><circle r="4" fill="green" cx="215.22834374390382" cy="226.13143995506448"></circle><circle r="4" fill="black" cx="122" cy="367"></circle><circle r="4" fill="red" cx="234.49129943940096" cy="219.7450066400414"></circle><line stroke-width="3" stroke="red" x1="228.55627946336435" y1="210.5704505497386" x2="234.49129943940096" y2="219.7450066400414"></line><circle r="4" fill="blue" cx="226.9293407684297" cy="213.19139043511026"></circle><line stroke-width="3" stroke="blue" x1="228.55627946336435" y1="210.5704505497386" x2="226.9293407684297" y2="213.19139043511026"></line><circle r="4" fill="green" cx="228.55627946336435" cy="210.5704505497386"></circle><circle r="4" fill="black" cx="122" cy="367"></circle><circle r="4" fill="red" cx="219.8251625072515" cy="206.48945003236383"></circle><line stroke-width="3" stroke="red" x1="216.449076639386" y1="202.94220043509648" x2="219.8251625072515" y2="206.48945003236383"></line><circle r="4" fill="blue" cx="215.96829822673817" cy="204.82690673501187"></circle><line stroke-width="3" stroke="blue" x1="216.449076639386" y1="202.94220043509648" x2="215.96829822673817" y2="204.82690673501187"></line><circle r="4" fill="green" cx="216.449076639386" cy="202.94220043509648"></circle><circle r="4" fill="black" cx="122" cy="367"></circle><circle r="4" fill="red" cx="216.54941487708038" cy="256.7249506837598"></circle><line stroke-width="3" stroke="red" x1="218.4052591876652" y1="247.46980348714527" x2="216.54941487708038" y2="256.7249506837598"></line><circle r="4" fill="blue" cx="215.68871654479614" cy="243.7940361428244"></circle><line stroke-width="3" stroke="blue" x1="218.4052591876652" y1="247.46980348714527" x2="215.68871654479614" y2="243.7940361428244"></line><circle r="4" fill="green" cx="218.4052591876652" cy="247.46980348714527"></circle><circle r="4" fill="black" cx="122" cy="367"></circle><circle r="4" fill="red" cx="203.71415156772883" cy="182.27729605270127"></circle><line stroke-width="3" stroke="red" x1="202.3036280249589" y1="186.17527170789674" x2="203.71415156772883" y2="182.27729605270127"></line><circle r="4" fill="blue" cx="203.53397524767428" cy="188.23014417213366"></circle><line stroke-width="3" stroke="blue" x1="202.3036280249589" y1="186.17527170789674" x2="203.53397524767428" y2="188.23014417213366"></line><circle r="4" fill="green" cx="202.3036280249589" cy="186.17527170789674"></circle><circle r="4" fill="black" cx="122" cy="367"></circle><circle r="4" fill="red" cx="181.5196391864365" cy="214.3979793330038"></circle><line stroke-width="3" stroke="red" x1="188.55299621565857" y1="219.98004609411618" x2="181.5196391864365" y2="214.3979793330038"></line><circle r="4" fill="blue" cx="189.0736568478894" cy="215.6277550374524"></circle><line stroke-width="3" stroke="blue" x1="188.55299621565857" y1="219.98004609411618" x2="189.0736568478894" y2="215.6277550374524"></line><circle r="4" fill="green" cx="188.55299621565857" cy="219.98004609411618"></circle><circle r="4" fill="black" cx="122" cy="367"></circle><circle r="4" fill="red" cx="192.62062572286763" cy="196.30748136973904"></circle><line stroke-width="3" stroke="red" x1="195.25323947164742" y1="201.3123136116404" x2="192.62062572286763" y2="196.30748136973904"></line><circle r="4" fill="blue" cx="196.22370441315093" cy="200.3700654274743"></circle><line stroke-width="3" stroke="blue" x1="195.25323947164742" y1="201.3123136116404" x2="196.22370441315093" y2="200.3700654274743"></line><circle r="4" fill="green" cx="195.25323947164742" cy="201.3123136116404"></circle><circle r="4" fill="black" cx="122" cy="367"></circle><circle r="4" fill="red" cx="185.04841757768585" cy="157.15072791154387"></circle><line stroke-width="3" stroke="red" x1="186.17137914740576" y1="169.29157084616955" x2="185.04841757768585" y2="157.15072791154387"></line><circle r="4" fill="blue" cx="189.2471795377855" cy="171.24690052379134"></circle><line stroke-width="3" stroke="blue" x1="186.17137914740576" y1="169.29157084616955" x2="189.2471795377855" y2="171.24690052379134"></line><circle r="4" fill="green" cx="186.17137914740576" cy="169.29157084616955"></circle><circle r="4" fill="black" cx="122" cy="367"></circle><circle r="4" fill="red" cx="203.36843145918687" cy="225.2354104174707"></circle><line stroke-width="3" stroke="red" x1="205.80905291445126" y1="223.6007780514298" x2="203.36843145918687" y2="225.2354104174707"></line><circle r="4" fill="blue" cx="205.03957950668985" cy="221.2490811459337"></circle><line stroke-width="3" stroke="blue" x1="205.80905291445126" y1="223.6007780514298" x2="205.03957950668985" y2="221.2490811459337"></line><circle r="4" fill="green" cx="205.80905291445126" cy="223.6007780514298"></circle><circle r="4" fill="black" cx="122" cy="367"></circle><circle r="4" fill="red" cx="223.32097338177113" cy="176.55541489999644"></circle><line stroke-width="3" stroke="red" x1="216.4356949608539" y1="175.99967054698072" x2="223.32097338177113" y2="176.55541489999644"></line><circle r="4" fill="blue" cx="217.23185782558775" cy="181.4167644468818"></circle><line stroke-width="3" stroke="blue" x1="216.4356949608539" y1="175.99967054698072" x2="217.23185782558775" y2="181.4167644468818"></line><circle r="4" fill="green" cx="216.4356949608539" cy="175.99967054698072"></circle><circle r="4" fill="black" cx="122" cy="367"></circle><circle r="4" fill="red" cx="218.42005709228454" cy="223.89327070370365"></circle><line stroke-width="3" stroke="red" x1="216.92509471372568" y1="218.44026140445234" x2="218.42005709228454" y2="223.89327070370365"></line><circle r="4" fill="blue" cx="215.67942617695743" cy="218.36022968382244"></circle><line stroke-width="3" stroke="blue" x1="216.92509471372568" y1="218.44026140445234" x2="215.67942617695743" y2="218.36022968382244"></line><circle r="4" fill="green" cx="216.92509471372568" cy="218.44026140445234"></circle><circle r="4" fill="black" cx="122" cy="367"></circle><circle r="4" fill="red" cx="236.3209976439965" cy="245.05306250941925"></circle><line stroke-width="3" stroke="red" x1="232.13902898461342" y1="232.07948693601793" x2="236.3209976439965" y2="245.05306250941925"></line><circle r="4" fill="blue" cx="229.26110565573003" cy="232.39286488798655"></circle><line stroke-width="3" stroke="blue" x1="232.13902898461342" y1="232.07948693601793" x2="229.26110565573003" y2="232.39286488798655"></line><circle r="4" fill="green" cx="232.13902898461342" cy="232.07948693601793"></circle><circle r="4" fill="black" cx="122" cy="367"></circle><circle r="4" fill="red" cx="214.43386782408123" cy="195.747988338438"></circle><line stroke-width="3" stroke="red" x1="211.4843085796008" y1="195.03771249959982" x2="214.43386782408123" y2="195.747988338438"></line><circle r="4" fill="blue" cx="211.69975634881277" cy="197.24707813781387"></circle><line stroke-width="3" stroke="blue" x1="211.4843085796008" y1="195.03771249959982" x2="211.69975634881277" y2="197.24707813781387"></line><circle r="4" fill="green" cx="211.4843085796008" cy="195.03771249959982"></circle><circle r="4" fill="black" cx="122" cy="367"></circle><circle r="4" fill="red" cx="201.86041010957183" cy="254.59418295152182"></circle><line stroke-width="3" stroke="red" x1="207.2556032210475" y1="249.51588266835208" x2="201.86041010957183" y2="254.59418295152182"></line><circle r="4" fill="blue" cx="205.16494328350822" cy="243.97217815855086"></circle><line stroke-width="3" stroke="blue" x1="207.2556032210475" y1="249.51588266835208" x2="205.16494328350822" y2="243.97217815855086"></line><circle r="4" fill="green" cx="207.2556032210475" cy="249.51588266835208"></circle><circle r="4" fill="black" cx="122" cy="367"></circle><circle r="4" fill="red" cx="198.42131197585826" cy="185.31599683373676"></circle><line stroke-width="3" stroke="red" x1="198.6195853428638" y1="190.22063410222992" x2="198.42131197585826" y2="185.31599683373676"></line><circle r="4" fill="blue" cx="199.8971556489003" cy="191.21632393861645"></circle><line stroke-width="3" stroke="blue" x1="198.6195853428638" y1="190.22063410222992" x2="199.8971556489003" y2="191.21632393861645"></line><circle r="4" fill="green" cx="198.6195853428638" cy="190.22063410222992"></circle><circle r="4" fill="black" cx="122" cy="367"></circle><circle r="4" fill="red" cx="173.19139396580223" cy="186.92979505780391"></circle><line stroke-width="3" stroke="red" x1="179.93088089999466" y1="198.31815298510395" x2="173.19139396580223" y2="186.92979505780391"></line><circle r="4" fill="blue" cx="182.03644924330402" cy="195.57052635096167"></circle><line stroke-width="3" stroke="blue" x1="179.93088089999466" y1="198.31815298510395" x2="182.03644924330402" y2="195.57052635096167"></line><circle r="4" fill="green" cx="179.93088089999466" cy="198.31815298510395"></circle><circle r="4" fill="black" cx="122" cy="367"></circle><circle r="4" fill="red" cx="195.55949803457275" cy="207.8154269287712"></circle><line stroke-width="3" stroke="red" x1="198.4548174446649" y1="210.53370712708997" x2="195.55949803457275" y2="207.8154269287712"></line><circle r="4" fill="blue" cx="198.78098492178327" cy="208.8411007357751"></circle><line stroke-width="3" stroke="blue" x1="198.4548174446649" y1="210.53370712708997" x2="198.78098492178327" y2="208.8411007357751"></line><circle r="4" fill="green" cx="198.4548174446649" cy="210.53370712708997"></circle><circle r="4" fill="black" cx="122" cy="367"></circle><circle r="4" fill="red" cx="196.8174767909171" cy="147.3992512073111"></circle><line stroke-width="3" stroke="red" x1="194.1007915701061" y1="157.69378244759562" x2="196.8174767909171" y2="147.3992512073111"></line><circle r="4" fill="blue" cx="197.21186141734833" cy="162.30806037396454"></circle><line stroke-width="3" stroke="blue" x1="194.1007915701061" y1="157.69378244759562" x2="197.21186141734833" y2="162.30806037396454"></line><circle r="4" fill="green" cx="194.1007915701061" cy="157.69378244759562"></circle><circle r="4" fill="black" cx="122" cy="367"></circle><circle r="4" fill="red" cx="209.6388202768045" cy="227.12631258425236"></circle><line stroke-width="3" stroke="red" x1="210.6545490107905" y1="223.580201382837" x2="209.6388202768045" y2="227.12631258425236"></line><circle r="4" fill="blue" cx="209.57193466976076" cy="221.92634027747778"></circle><line stroke-width="3" stroke="blue" x1="210.6545490107905" y1="223.580201382837" x2="209.57193466976076" y2="221.92634027747778"></line><circle r="4" fill="green" cx="210.6545490107905" cy="223.580201382837"></circle><circle r="4" fill="black" cx="122" cy="367"></circle><circle r="4" fill="red" cx="237.18956714437104" cy="201.10388662469998"></circle><line stroke-width="3" stroke="red" x1="228.93700292361035" y1="193.65393184150614" x2="237.18956714437104" y2="201.10388662469998"></line><circle r="4" fill="blue" cx="228.0865971209532" cy="198.54859075067372"></circle><line stroke-width="3" stroke="blue" x1="228.93700292361035" y1="193.65393184150614" x2="228.0865971209532" y2="198.54859075067372"></line><circle r="4" fill="green" cx="228.93700292361035" cy="193.65393184150614"></circle><circle r="4" fill="black" cx="122" cy="367"></circle><circle r="4" fill="red" cx="218.22669016762578" cy="213.70569923979596"></circle><line stroke-width="3" stroke="red" x1="215.8882705046346" y1="209.63782312472242" x2="218.22669016762578" y2="213.70569923979596"></line><circle r="4" fill="blue" cx="215.1267235965809" cy="210.56374760837272"></circle><line stroke-width="3" stroke="blue" x1="215.8882705046346" y1="209.63782312472242" x2="215.1267235965809" y2="210.56374760837272"></line><circle r="4" fill="green" cx="215.8882705046346" cy="209.63782312472242"></circle><circle r="4" fill="black" cx="122" cy="367"></circle><circle r="4" fill="red" cx="230.0313875691483" cy="265.99041737500113"></circle><line stroke-width="3" stroke="red" x1="229.2791119554638" y1="251.94460125986694" x2="230.0313875691483" y2="265.99041737500113"></line><circle r="4" fill="blue" cx="225.64571887905944" cy="249.24179894209914"></circle><line stroke-width="3" stroke="blue" x1="229.2791119554638" y1="251.94460125986694" x2="225.64571887905944" y2="249.24179894209914"></line><circle r="4" fill="green" cx="229.2791119554638" cy="251.94460125986694"></circle><circle r="4" fill="black" cx="122" cy="367"></circle><circle r="4" fill="red" cx="208.37371917735206" cy="189.7054654452199"></circle><line stroke-width="3" stroke="red" x1="206.43201026200455" y1="191.39443559221962" x2="208.37371917735206" y2="189.7054654452199"></line><circle r="4" fill="blue" cx="207.14753556679634" cy="193.35691995629048"></circle><line stroke-width="3" stroke="blue" x1="206.43201026200455" y1="191.39443559221962" x2="207.14753556679634" y2="193.35691995629048"></line><circle r="4" fill="green" cx="206.43201026200455" cy="191.39443559221962"></circle><circle r="4" fill="black" cx="122" cy="367"></circle><circle r="4" fill="red" cx="184.57309727285255" cy="237.98836144739374"></circle><line stroke-width="3" stroke="red" x1="192.89860514910168" y1="239.67156060785308" x2="184.57309727285255" y2="237.98836144739374"></line><circle r="4" fill="blue" cx="192.20491074138977" cy="233.35956928863465"></circle><line stroke-width="3" stroke="blue" x1="192.89860514910168" y1="239.67156060785308" x2="192.20491074138977" y2="233.35956928863465"></line><circle r="4" fill="green" cx="192.89860514910168" cy="239.67156060785308"></circle><circle r="4" fill="black" cx="122" cy="367"></circle><circle r="4" fill="red" cx="196.0839451032153" cy="192.51682263921114"></circle><line stroke-width="3" stroke="red" x1="197.50596180553697" y1="197.09892572268728" x2="196.0839451032153" y2="192.51682263921114"></line><circle r="4" fill="blue" cx="198.52994900067023" cy="197.03256394779882"></circle><line stroke-width="3" stroke="blue" x1="197.50596180553697" y1="197.09892572268728" x2="198.52994900067023" y2="197.03256394779882"></line><circle r="4" fill="green" cx="197.50596180553697" cy="197.09892572268728"></circle><circle r="4" fill="black" cx="122" cy="367"></circle><circle r="4" fill="red" cx="172.2434000588521" cy="157.72855779030135"></circle><line stroke-width="3" stroke="red" x1="176.66511058016854" y1="173.19168616289443" x2="172.2434000588521" y2="157.72855779030135"></line><circle r="4" fill="blue" cx="180.17244662677967" cy="173.27162809022906"></circle><line stroke-width="3" stroke="blue" x1="176.66511058016854" y1="173.19168616289443" x2="180.17244662677967" y2="173.27162809022906"></line><circle r="4" fill="green" cx="176.66511058016854" cy="173.19168616289443"></circle><circle r="4" fill="black" cx="122" cy="367"></circle><circle r="4" fill="red" cx="200.36605627727522" cy="216.57424072878166"></circle><line stroke-width="3" stroke="red" x1="202.80947892218867" y1="216.87029360475378" x2="200.36605627727522" y2="216.57424072878166"></line><circle r="4" fill="blue" cx="202.55323137072557" cy="214.97117828585175"></circle><line stroke-width="3" stroke="blue" x1="202.80947892218867" y1="216.87029360475378" x2="202.55323137072557" y2="214.97117828585175"></line><circle r="4" fill="green" cx="202.80947892218867" cy="216.87029360475378"></circle><circle r="4" fill="black" cx="122" cy="367"></circle><circle r="4" fill="red" cx="214.53155875161755" cy="152.07031522622265"></circle><line stroke-width="3" stroke="red" x1="207.7307310240305" y1="157.0526736018345" x2="214.53155875161755" y2="152.07031522622265"></line><circle r="4" fill="blue" cx="209.9885872700505" cy="163.70640773690425"></circle><line stroke-width="3" stroke="blue" x1="207.7307310240305" y1="157.0526736018345" x2="209.9885872700505" y2="163.70640773690425"></line><circle r="4" fill="green" cx="207.7307310240305" cy="157.0526736018345"></circle><circle r="4" fill="black" cx="122" cy="367"></circle><circle r="4" fill="red" cx="213.8679441551627" cy="223.9040743373397"></circle><line stroke-width="3" stroke="red" x1="213.5286193642385" y1="219.65759893944974" x2="213.8679441551627" y2="223.9040743373397"></line><circle r="4" fill="blue" cx="212.44547517978492" cy="218.9306179608246"></circle><line stroke-width="3" stroke="blue" x1="213.5286193642385" y1="219.65759893944974" x2="212.44547517978492" y2="218.9306179608246"></line><circle r="4" fill="green" cx="213.5286193642385" cy="219.65759893944974"></circle><circle r="4" fill="black" cx="122" cy="367"></circle><circle r="4" fill="red" cx="245.91324605336374" cy="233.76298745149742"></circle><line stroke-width="3" stroke="red" x1="238.309008827263" y1="219.72218158842037" x2="245.91324605336374" y2="233.76298745149742"></line><circle r="4" fill="blue" cx="235.61638528313748" cy="222.54173202267683"></circle><line stroke-width="3" stroke="blue" x1="238.309008827263" y1="219.72218158842037" x2="235.61638528313748" y2="222.54173202267683"></line><circle r="4" fill="green" cx="238.309008827263" cy="219.72218158842037"></circle><circle r="4" fill="black" cx="122" cy="367"></circle><circle r="4" fill="red" cx="215.4028081495111" cy="204.0121088227603"></circle><line stroke-width="3" stroke="red" x1="212.9314653021834" y1="201.96272407347342" x2="215.4028081495111" y2="204.0121088227603"></line><circle r="4" fill="blue" cx="212.72511130619193" cy="203.47127983168284"></circle><line stroke-width="3" stroke="blue" x1="212.9314653021834" y1="201.96272407347342" x2="212.72511130619193" y2="203.47127983168284"></line><circle r="4" fill="green" cx="212.9314653021834" cy="201.96272407347342"></circle><circle r="4" fill="black" cx="122" cy="367"></circle><circle r="4" fill="red" cx="215.26273465819636" cy="275.34317381511823"></circle><line stroke-width="3" stroke="red" x1="219.0760533308168" y1="263.9918443564519" x2="215.26273465819636" y2="275.34317381511823"></line><circle r="4" fill="blue" cx="215.53349539477466" cy="258.24495647304724"></circle><line stroke-width="3" stroke="blue" x1="219.0760533308168" y1="263.9918443564519" x2="215.53349539477466" y2="258.24495647304724"></line><circle r="4" fill="green" cx="219.0760533308168" cy="263.9918443564519"></circle><circle r="4" fill="black" cx="122" cy="367"></circle><circle r="4" fill="red" cx="203.16558075330394" cy="188.74458710932888"></circle><line stroke-width="3" stroke="red" x1="202.46079061097043" y1="191.9413927914215" x2="203.16558075330394" y2="188.74458710932888"></line><circle r="4" fill="blue" cx="203.40784989812585" cy="193.2624150299633"></circle><line stroke-width="3" stroke="blue" x1="202.46079061097043" y1="191.9413927914215" x2="203.40784989812585" y2="193.2624150299633"></line><circle r="4" fill="green" cx="202.46079061097043" cy="191.9413927914215"></circle><circle r="4" fill="black" cx="122" cy="367"></circle><circle r="4" fill="red" cx="168.98096308705985" cy="207.82263186206157"></circle><line stroke-width="3" stroke="red" x1="178.6188373815113" y1="217.5928469830289" x2="168.98096308705985" y2="207.82263186206157"></line><circle r="4" fill="blue" cx="179.8965570536383" cy="212.12854959135862"></circle><line stroke-width="3" stroke="blue" x1="178.6188373815113" y1="217.5928469830289" x2="179.8965570536383" y2="212.12854959135862"></line><circle r="4" fill="green" cx="178.6188373815113" cy="217.5928469830289"></circle><circle r="4" fill="black" cx="122" cy="367"></circle><circle r="4" fill="red" cx="196.6096799898136" cy="201.36115977305812"></circle><line stroke-width="3" stroke="red" x1="198.67316807183374" y1="204.6457972744821" x2="196.6096799898136" y2="201.36115977305812"></line><circle r="4" fill="blue" cx="199.26404861636004" cy="203.7568885543104"></circle><line stroke-width="3" stroke="blue" x1="198.67316807183374" y1="204.6457972744821" x2="199.26404861636004" y2="203.7568885543104"></line><circle r="4" fill="green" cx="198.67316807183374" cy="204.6457972744821"></circle><circle r="4" fill="black" cx="122" cy="367"></circle><circle r="4" fill="red" cx="180.92635770504478" cy="134.75819818964732"></circle><line stroke-width="3" stroke="red" x1="181.13317121455998" y1="150.92464240430564" x2="180.92635770504478" y2="134.75819818964732"></line><circle r="4" fill="blue" cx="185.40548915173218" cy="154.56655332412697"></circle><line stroke-width="3" stroke="blue" x1="181.13317121455998" y1="150.92464240430564" x2="185.40548915173218" y2="154.56655332412697"></line><circle r="4" fill="green" cx="181.13317121455998" cy="150.92464240430564"></circle><circle r="4" fill="black" cx="122" cy="367"></circle><circle r="4" fill="red" cx="205.5515081067545" cy="221.17090600029994"></circle><line stroke-width="3" stroke="red" x1="207.08228857597288" y1="219.4891232118354" x2="205.5515081067545" y2="221.17090600029994"></line><circle r="4" fill="blue" cx="206.42501553962745" cy="217.8594499257482"></circle><line stroke-width="3" stroke="blue" x1="207.08228857597288" y1="219.4891232118354" x2="206.42501553962745" y2="217.8594499257482"></line><circle r="4" fill="green" cx="207.08228857597288" cy="219.4891232118354"></circle><circle r="4" fill="black" cx="122" cy="367"></circle><circle r="4" fill="red" cx="234.67054767687128" cy="173.67937144761382"></circle><line stroke-width="3" stroke="red" x1="224.65436816049166" y1="170.48845464242584" x2="234.67054767687128" y2="173.67937144761382"></line><circle r="4" fill="blue" cx="225.17877163408747" cy="177.80756076529073"></circle><line stroke-width="3" stroke="blue" x1="224.65436816049166" y1="170.48845464242584" x2="225.17877163408747" y2="177.80756076529073"></line><circle r="4" fill="green" cx="224.65436816049166" cy="170.48845464242584"></circle><circle r="4" fill="black" cx="122" cy="367"></circle><circle r="4" fill="red" cx="215.52437042356877" cy="217.38255346301568"></circle><line stroke-width="3" stroke="red" x1="214.19354216226083" y1="213.550367700846" x2="215.52437042356877" y2="217.38255346301568"></line><circle r="4" fill="blue" cx="213.35654910728067" cy="213.7199202606934"></circle><line stroke-width="3" stroke="blue" x1="214.19354216226083" y1="213.550367700846" x2="213.35654910728067" y2="213.7199202606934"></line><circle r="4" fill="green" cx="214.19354216226083" cy="213.550367700846"></circle><circle r="4" fill="black" cx="122" cy="367"></circle><circle r="4" fill="red" cx="245.59587711185947" cy="267.27924268449976"></circle><line stroke-width="3" stroke="red" x1="241.00841641574644" y1="248.93449350715437" x2="245.59587711185947" y2="267.27924268449976"></line><circle r="4" fill="blue" cx="236.75722327400172" cy="248.3092457070476"></circle><line stroke-width="3" stroke="blue" x1="241.00841641574644" y1="248.93449350715437" x2="236.75722327400172" y2="248.3092457070476"></line><circle r="4" fill="green" cx="241.00841641574644" cy="248.93449350715437"></circle><circle r="4" fill="black" cx="122" cy="367"></circle><circle r="4" fill="red" cx="211.14703921745394" cy="196.91479511686762"></circle><line stroke-width="3" stroke="red" x1="209.13343939255043" y1="196.9239461649485" x2="211.14703921745394" y2="196.91479511686762"></line><circle r="4" fill="blue" cx="209.411947955836" cy="198.5486201171206"></circle><line stroke-width="3" stroke="blue" x1="209.13343939255043" y1="196.9239461649485" x2="209.411947955836" y2="198.5486201171206"></line><circle r="4" fill="green" cx="209.13343939255043" cy="196.9239461649485"></circle><circle r="4" fill="black" cx="122" cy="367"></circle><circle r="4" fill="red" cx="194.00619603601464" cy="267.3085131713103"></circle><line stroke-width="3" stroke="red" x1="202.50756242392782" y1="262.64976600161293" x2="194.00619603601464" y2="267.3085131713103"></line><circle r="4" fill="blue" cx="200.10264276661658" cy="254.70200977749207"></circle><line stroke-width="3" stroke="blue" x1="202.50756242392782" y1="262.64976600161293" x2="200.10264276661658" y2="254.70200977749207"></line><circle r="4" fill="green" cx="202.50756242392782" cy="262.64976600161293"></circle><circle r="4" fill="black" cx="122" cy="367"></circle><circle r="4" fill="red" cx="199.81502431119438" cy="192.01040291482755"></circle><line stroke-width="3" stroke="red" x1="200.2462475819482" y1="195.6687307480197" x2="199.81502431119438" y2="192.01040291482755"></line><circle r="4" fill="blue" cx="201.16033028127688" cy="196.18310357612734"></circle><line stroke-width="3" stroke="blue" x1="200.2462475819482" y1="195.6687307480197" x2="201.16033028127688" y2="196.18310357612734"></line><circle r="4" fill="green" cx="200.2462475819482" cy="195.6687307480197"></circle><circle r="4" fill="black" cx="122" cy="367"></circle><circle r="4" fill="red" cx="160.03840051669036" cy="169.17102035900317"></circle><line stroke-width="3" stroke="red" x1="168.55848156257073" y1="186.3747469477378" x2="160.03840051669036" y2="169.17102035900317"></line><circle r="4" fill="blue" cx="171.9669534983669" cy="183.56236184794915"></circle><line stroke-width="3" stroke="blue" x1="168.55848156257073" y1="186.3747469477378" x2="171.9669534983669" y2="183.56236184794915"></line><circle r="4" fill="green" cx="168.55848156257073" cy="186.3747469477378"></circle><circle r="4" fill="black" cx="122" cy="367"></circle><circle r="4" fill="red" cx="199.2739004932039" cy="209.48841337545636"></circle><line stroke-width="3" stroke="red" x1="201.37358885077796" y1="211.0020020115741" x2="199.2739004932039" y2="209.48841337545636"></line><circle r="4" fill="blue" cx="201.48836346687258" cy="209.66669290184942"></circle><line stroke-width="3" stroke="blue" x1="201.37358885077796" y1="211.0020020115741" x2="201.48836346687258" y2="209.66669290184942"></line><circle r="4" fill="green" cx="201.37358885077796" cy="211.0020020115741"></circle><circle r="4" fill="black" cx="122" cy="367"></circle><circle r="4" fill="red" cx="199.3141745692699" cy="126.31770918325037"></circle><line stroke-width="3" stroke="red" x1="194.11727635564634" y1="138.709845811619" x2="199.3141745692699" y2="126.31770918325037"></line><circle r="4" fill="blue" cx="198.12641004707365" cy="145.81679178439097"></circle><line stroke-width="3" stroke="blue" x1="194.11727635564634" y1="138.709845811619" x2="198.12641004707365" y2="145.81679178439097"></line><circle r="4" fill="green" cx="194.11727635564634" cy="138.709845811619"></circle><circle r="4" fill="black" cx="122" cy="367"></circle><circle r="4" fill="red" cx="209.85537192633305" cy="221.438437864184"></circle><line stroke-width="3" stroke="red" x1="210.31787005007973" y1="218.57955509803566" x2="209.85537192633305" y2="221.438437864184"></line><circle r="4" fill="blue" cx="209.49392599022215" cy="217.5333761425302"></circle><line stroke-width="3" stroke="blue" x1="210.31787005007973" y1="218.57955509803566" x2="209.49392599022215" y2="217.5333761425302"></line><circle r="4" fill="green" cx="210.31787005007973" cy="218.57955509803566"></circle><circle r="4" fill="black" cx="122" cy="367"></circle><circle r="4" fill="red" cx="252.07144072954029" cy="210.5270108219903"></circle><line stroke-width="3" stroke="red" x1="240.86946903237782" y1="197.8942679950873" x2="252.07144072954029" y2="210.5270108219903"></line><circle r="4" fill="blue" cx="239.0446915879608" cy="203.94451752634774"></circle><line stroke-width="3" stroke="blue" x1="240.86946903237782" y1="197.8942679950873" x2="239.0446915879608" y2="203.94451752634774"></line><circle r="4" fill="green" cx="240.86946903237782" cy="197.8942679950873"></circle><circle r="4" fill="black" cx="122" cy="367"></circle><circle r="4" fill="red" cx="214.77460517689968" cy="209.74341779655106"></circle><line stroke-width="3" stroke="red" x1="212.96471777089968" y1="207.11035369181596" x2="214.77460517689968" y2="209.74341779655106"></line><circle r="4" fill="blue" cx="212.51240196244126" cy="207.9484164308096"></circle><line stroke-width="3" stroke="blue" x1="212.96471777089968" y1="207.11035369181596" x2="212.51240196244126" y2="207.9484164308096"></line><circle r="4" fill="green" cx="212.96471777089968" cy="207.11035369181596"></circle><circle r="4" fill="black" cx="122" cy="367"></circle><circle r="4" fill="red" cx="233.90706633990584" cy="292.20865792670355"></circle><line stroke-width="3" stroke="red" x1="234.46859657965408" y1="273.70173392297244" x2="233.90706633990584" y2="292.20865792670355"></line><circle r="4" fill="blue" cx="229.46830966893384" cy="268.8893273079832"></circle><line stroke-width="3" stroke="blue" x1="234.46859657965408" y1="273.70173392297244" x2="229.46830966893384" y2="268.8893273079832"></line><circle r="4" fill="green" cx="234.46859657965408" cy="273.70173392297244"></circle><circle r="4" fill="black" cx="122" cy="367"></circle><circle r="4" fill="red" cx="206.7307142109432" cy="193.48084413687002"></circle><line stroke-width="3" stroke="red" x1="205.53652188669048" y1="195.11150549180832" x2="206.7307142109432" y2="193.48084413687002"></line><circle r="4" fill="blue" cx="206.1340475171482" cy="196.4579194454947"></circle><line stroke-width="3" stroke="blue" x1="205.53652188669048" y1="195.11150549180832" x2="206.1340475171482" y2="196.4579194454947"></line><circle r="4" fill="green" cx="205.53652188669048" cy="195.11150549180832"></circle><circle r="4" fill="black" cx="122" cy="367"></circle><circle r="4" fill="red" cx="170.65890083826412" cy="239.5475439099006"></circle><line stroke-width="3" stroke="red" x1="182.65048627750207" y1="244.71887525760533" x2="170.65890083826412" y2="239.5475439099006"></line><circle r="4" fill="blue" cx="182.382084345458" cy="236.27458106032614"></circle><line stroke-width="3" stroke="blue" x1="182.65048627750207" y1="244.71887525760533" x2="182.382084345458" y2="236.27458106032614"></line><circle r="4" fill="green" cx="182.65048627750207" cy="244.71887525760533"></circle><circle r="4" fill="black" cx="122" cy="367"></circle><circle r="4" fill="red" cx="198.69229360550412" cy="197.86642977446735"></circle><line stroke-width="3" stroke="red" x1="199.92134066694243" y1="201.05597724289066" x2="198.69229360550412" y2="197.86642977446735"></line><circle r="4" fill="blue" cx="200.60133076800153" cy="200.81704256168575"></circle><line stroke-width="3" stroke="blue" x1="199.92134066694243" y1="201.05597724289066" x2="200.60133076800153" y2="200.81704256168575"></line><circle r="4" fill="green" cx="199.92134066694243" cy="201.05597724289066"></circle><circle r="4" fill="black" cx="122" cy="367"></circle><circle r="4" fill="red" cx="162.10779830140757" cy="130.9160617544136"></circle><line stroke-width="3" stroke="red" x1="166.7515367906213" y1="152.57923444647358" x2="162.10779830140757" y2="130.9160617544136"></line><circle r="4" fill="blue" cx="171.8777965128574" cy="153.9409025253033"></circle><line stroke-width="3" stroke="blue" x1="166.7515367906213" y1="152.57923444647358" x2="171.8777965128574" y2="153.9409025253033"></line><circle r="4" fill="green" cx="166.7515367906213" cy="152.57923444647358"></circle><circle r="4" fill="black" cx="122" cy="367"></circle><circle r="4" fill="red" cx="203.0182836335703" cy="215.19999041099584"></circle><line stroke-width="3" stroke="red" x1="204.66854651779624" y1="214.97217396639297" x2="203.0182836335703" y2="215.19999041099584"></line><circle r="4" fill="blue" cx="204.38168279451068" cy="213.58875550124705"></circle><line stroke-width="3" stroke="blue" x1="204.66854651779624" y1="214.97217396639297" x2="204.38168279451068" y2="213.58875550124705"></line><circle r="4" fill="green" cx="204.66854651779624" cy="214.97217396639297"></circle><circle r="4" fill="black" cx="122" cy="367"></circle><circle r="4" fill="red" cx="224.6994960579778" cy="138.7356116943553"></circle><line stroke-width="3" stroke="red" x1="214.15124562628304" y1="142.76567071713484" x2="224.6994960579778" y2="138.7356116943553"></line><circle r="4" fill="blue" cx="216.6695563082091" cy="152.21465587815845"></circle><line stroke-width="3" stroke="blue" x1="214.15124562628304" y1="142.76567071713484" x2="216.6695563082091" y2="152.21465587815845"></line><circle r="4" fill="green" cx="214.15124562628304" cy="142.76567071713484"></circle><circle r="4" fill="black" cx="122" cy="367"></circle><circle r="4" fill="red" cx="212.48417619431743" cy="218.23062546269816"></circle><line stroke-width="3" stroke="red" x1="211.99882242946504" y1="215.09415048076409" x2="212.48417619431743" y2="218.23062546269816"></line><circle r="4" fill="blue" cx="211.23098701437553" cy="214.74633514247415"></circle><line stroke-width="3" stroke="blue" x1="211.99882242946504" y1="215.09415048076409" x2="211.23098701437553" y2="214.74633514247415"></line><circle r="4" fill="green" cx="211.99882242946504" cy="215.09415048076409"></circle><circle r="4" fill="black" cx="122" cy="367"></circle><circle r="4" fill="red" cx="260.9784068790301" cy="256.0603415912689"></circle><line stroke-width="3" stroke="red" x1="251.50614749017976" y1="235.10253490827498" x2="260.9784068790301" y2="256.0603415912689"></line><circle r="4" fill="blue" cx="247.2295458209565" cy="237.7977645564884"></circle><line stroke-width="3" stroke="blue" x1="251.50614749017976" y1="235.10253490827498" x2="247.2295458209565" y2="237.7977645564884"></line><circle r="4" fill="green" cx="251.50614749017976" cy="235.10253490827498"></circle><circle r="4" fill="black" cx="122" cy="367"></circle><circle r="4" fill="red" cx="212.2977239590545" cy="202.96179259668136"></circle><line stroke-width="3" stroke="red" x1="210.52200273584614" y1="201.87388682792027" x2="212.2977239590545" y2="202.96179259668136"></line><circle r="4" fill="blue" cx="210.4760528236038" cy="203.0484338689758"></circle><line stroke-width="3" stroke="blue" x1="210.52200273584614" y1="201.87388682792027" x2="210.4760528236038" y2="203.0484338689758"></line><circle r="4" fill="green" cx="210.52200273584614" cy="201.87388682792027"></circle><circle r="4" fill="black" cx="122" cy="367"></circle><circle r="4" fill="red" cx="211.1742116220186" cy="299.0556729023695"></circle><line stroke-width="3" stroke="red" x1="218.10201778585608" y1="285.68468314408835" x2="211.1742116220186" y2="299.0556729023695"></line><circle r="4" fill="blue" cx="213.595169257568" cy="276.9524042439752"></circle><line stroke-width="3" stroke="blue" x1="218.10201778585608" y1="285.68468314408835" x2="213.595169257568" y2="276.9524042439752"></line><circle r="4" fill="green" cx="218.10201778585608" cy="285.68468314408835"></circle><circle r="4" fill="black" cx="122" cy="367"></circle><circle r="4" fill="red" cx="203.19309729017874" cy="193.71794531711478"></circle><line stroke-width="3" stroke="red" x1="202.91703036048875" y1="196.25630567163435" x2="203.19309729017874" y2="193.71794531711478"></line><circle r="4" fill="blue" cx="203.63014694253658" cy="197.07675215141552"></circle><line stroke-width="3" stroke="blue" x1="202.91703036048875" y1="196.25630567163435" x2="203.63014694253658" y2="197.07675215141552"></line><circle r="4" fill="green" cx="202.91703036048875" cy="196.25630567163435"></circle><circle r="4" fill="black" cx="122" cy="367"></circle><circle r="4" fill="red" cx="151.39936318502922" cy="194.78831019927725"></circle><line stroke-width="3" stroke="red" x1="164.35509111842958" y1="210.93051339046121" x2="151.39936318502922" y2="194.78831019927725"></line><circle r="4" fill="blue" cx="166.87302325247256" cy="204.2938955008427"></circle><line stroke-width="3" stroke="blue" x1="164.35509111842958" y1="210.93051339046121" x2="166.87302325247256" y2="204.2938955008427"></line><circle r="4" fill="green" cx="164.35509111842958" cy="210.93051339046121"></circle><circle r="4" fill="black" cx="122" cy="367"></circle><circle r="4" fill="red" cx="199.58225808097222" cy="204.43231195866156"></circle><line stroke-width="3" stroke="red" x1="201.16077631855154" y1="206.52605165207004" x2="199.58225808097222" y2="204.43231195866156"></line><circle r="4" fill="blue" cx="201.50134034478654" cy="205.74736526922973"></circle><line stroke-width="3" stroke="blue" x1="201.16077631855154" y1="206.52605165207004" x2="201.50134034478654" y2="205.74736526922973"></line><circle r="4" fill="green" cx="201.16077631855154" cy="206.52605165207004"></circle><circle r="4" fill="black" cx="122" cy="367"></circle><circle r="4" fill="red" cx="177.54185693526773" cy="104.20533769344836"></circle><line stroke-width="3" stroke="red" x1="175.9305272881034" y1="125.27006671968735" x2="177.54185693526773" y2="104.20533769344836"></line><circle r="4" fill="blue" cx="181.75518596259408" cy="131.53095868797465"></circle><line stroke-width="3" stroke="blue" x1="175.9305272881034" y1="125.27006671968735" x2="181.75518596259408" y2="131.53095868797465"></line><circle r="4" fill="green" cx="175.9305272881034" cy="125.27006671968735"></circle><circle r="4" fill="black" cx="122" cy="367"></circle><circle r="4" fill="red" cx="206.7622262643525" cy="217.70609811930132"></circle><line stroke-width="3" stroke="red" x1="207.68235252453235" y1="216.15667382463164" x2="206.7622262643525" y2="217.70609811930132"></line><circle r="4" fill="blue" cx="207.14401372368494" cy="215.05023493462656"></circle><line stroke-width="3" stroke="blue" x1="207.68235252453235" y1="216.15667382463164" x2="207.14401372368494" y2="215.05023493462656"></line><circle r="4" fill="green" cx="207.68235252453235" cy="216.15667382463164"></circle><circle r="4" fill="black" cx="122" cy="367"></circle><circle r="4" fill="red" cx="251.6300458005621" cy="174.01552054223512"></circle><line stroke-width="3" stroke="red" x1="237.3413611656395" y1="166.28022169315028" x2="251.6300458005621" y2="174.01552054223512"></line><circle r="4" fill="blue" cx="237.2426277553128" cy="175.97144211968268"></circle><line stroke-width="3" stroke="blue" x1="237.3413611656395" y1="166.28022169315028" x2="237.2426277553128" y2="175.97144211968268"></line><circle r="4" fill="green" cx="237.3413611656395" cy="166.28022169315028"></circle><circle r="4" fill="black" cx="122" cy="367"></circle><circle r="4" fill="red" cx="213.19341354933115" cy="213.01199724198722"></circle><line stroke-width="3" stroke="red" x1="212.07096376051626" y1="210.37057492746032" x2="213.19341354933115" y2="213.01199724198722"></line><circle r="4" fill="blue" cx="211.52217347953766" cy="210.6527452435854"></circle><line stroke-width="3" stroke="blue" x1="212.07096376051626" y1="210.37057492746032" x2="211.52217347953766" y2="210.6527452435854"></line><circle r="4" fill="green" cx="212.07096376051626" cy="210.37057492746032"></circle><circle r="4" fill="black" cx="122" cy="367"></circle><circle r="4" fill="red" cx="256.54524946618903" cy="299.46412204301777"></circle><line stroke-width="3" stroke="red" x1="252.000000000009" y1="274.00000000025636" x2="256.54524946618903" y2="299.46412204301777"></line><circle r="4" fill="blue" cx="245.84909064879542" cy="271.6635282542763"></circle><line stroke-width="3" stroke="blue" x1="252.000000000009" y1="274.00000000025636" x2="245.84909064879542" y2="271.6635282542763"></line><circle r="4" fill="green" cx="252.000000000009" cy="274.00000000025636"></circle><circle r="4" fill="black" cx="122" cy="367"></circle><circle r="4" fill="red" cx="209.02248632155766" cy="198.40027904495045"></circle><line stroke-width="3" stroke="red" x1="207.6779409948401" y1="198.77871234600022" x2="209.02248632155766" y2="198.40027904495045"></line><circle r="4" fill="blue" cx="207.9629571801992" cy="199.95127270700965"></circle><line stroke-width="3" stroke="blue" x1="207.6779409948401" y1="198.77871234600022" x2="207.9629571801992" y2="199.95127270700965"></line><circle r="4" fill="green" cx="207.6779409948401" cy="198.77871234600022"></circle><circle r="4" fill="black" cx="122" cy="367"></circle><circle r="4" fill="red" cx="181" cy="281"></circle><line stroke-width="3" stroke="red" x1="194" y1="278" x2="181" y2="281"></line><circle r="4" fill="blue" cx="191.41956385179856" cy="266.81811002446045"></circle><line stroke-width="3" stroke="blue" x1="194" y1="278" x2="191.41956385179856" y2="266.81811002446045"></line><circle r="4" fill="green" cx="194" cy="278"></circle><circle r="4" fill="black" cx="122" cy="367"></circle><circle r="4" fill="red" cx="201.15383857142595" cy="196.79647804383262"></circle><line stroke-width="3" stroke="red" x1="201.66475327048374" y1="199.47291496046768" x2="201.15383857142595" y2="196.79647804383262"></line><circle r="4" fill="blue" cx="202.30670268283023" cy="199.69175616404917"></circle><line stroke-width="3" stroke="blue" x1="201.66475327048374" y1="199.47291496046768" x2="202.30670268283023" y2="199.69175616404917"></line><circle r="4" fill="green" cx="201.66475327048374" cy="199.47291496046768"></circle><circle r="4" fill="black" cx="122" cy="367"></circle><circle r="4" fill="red" cx="142.88142379294445" cy="141.3957859736196"></circle><line stroke-width="3" stroke="red" x1="153.32023506309906" y1="166.78879626802728" x2="142.88142379294445" y2="141.3957859736196"></line><circle r="4" fill="blue" cx="158.64419144680022" cy="164.35960202919364"></circle><line stroke-width="3" stroke="blue" x1="153.32023506309906" y1="166.78879626802728" x2="158.64419144680022" y2="164.35960202919364"></line><circle r="4" fill="green" cx="153.32023506309906" cy="166.78879626802728"></circle><circle r="4" fill="black" cx="122" cy="367"></circle><circle r="4" fill="red" cx="201.85706772258285" cy="210.06339606274946"></circle><line stroke-width="3" stroke="red" x1="203.35188141399996" y1="210.81623524394743" x2="201.85706772258285" y2="210.06339606274946"></line><circle r="4" fill="blue" cx="203.34720911142458" cy="209.78910146656278"></circle><line stroke-width="3" stroke="blue" x1="203.35188141399996" y1="210.81623524394743" x2="203.34720911142458" y2="209.78910146656278"></line><circle r="4" fill="green" cx="203.35188141399996" cy="210.81623524394743"></circle><circle r="4" fill="black" cx="122" cy="367"></circle><circle r="4" fill="red" cx="205.46616863255207" cy="99.84079058354635"></circle><line stroke-width="3" stroke="red" x1="196.3891782410321" y1="114.06696028235008" x2="205.46616863255207" y2="99.84079058354635"></line><circle r="4" fill="blue" cx="201.41818916277072" cy="124.73247525873049"></circle><line stroke-width="3" stroke="blue" x1="196.3891782410321" y1="114.06696028235008" x2="201.41818916277072" y2="124.73247525873049"></line><circle r="4" fill="green" cx="196.3891782410321" cy="114.06696028235008"></circle><circle r="4" fill="black" cx="122" cy="367"></circle><circle r="4" fill="red" cx="209.65354316397938" cy="217.11351606328157"></circle><line stroke-width="3" stroke="red" x1="209.7883420354119" y1="214.87443670566338" x2="209.65354316397938" y2="217.11351606328157"></line><circle r="4" fill="blue" cx="209.17421010899187" cy="214.2383270186384"></circle><line stroke-width="3" stroke="blue" x1="209.7883420354119" y1="214.87443670566338" x2="209.17421010899187" y2="214.2383270186384"></line><circle r="4" fill="green" cx="209.7883420354119" cy="214.87443670566338"></circle><circle r="4" fill="black" cx="122" cy="367"></circle><circle r="4" fill="red" cx="272.7469533344669" cy="228.09925844728704"></circle><line stroke-width="3" stroke="red" x1="257.8398806222972" y1="207.6793930892581" x2="272.7469533344669" y2="228.09925844728704"></line><circle r="4" fill="blue" cx="254.45152349769177" cy="214.88061607435537"></circle><line stroke-width="3" stroke="blue" x1="257.8398806222972" y1="207.6793930892581" x2="254.45152349769177" y2="214.88061607435537"></line><circle r="4" fill="green" cx="257.8398806222972" cy="207.6793930892581"></circle></svg>