<svg width="1349" height="449" viewBox="0 0 1349 449" fill="none" xmlns="http://www.w3.org/2000/svg">
<path d="M549.677 6H136.236C80.1605 6 48.1903 70.0578 81.9012 114.869L92.776 129.324C109.442 151.477 104.904 182.96 82.6602 199.505C69.9757 208.94 62.5 223.817 62.5 239.626V312.75C62.5 329.457 76.0434 343 92.75 343C109.457 343 123 356.543 123 373.25V396C123 425.271 146.729 449 176 449H569C595.786 449 617.5 427.286 617.5 400.5V238.383C617.5 223.316 610.534 209.096 598.63 199.86C577.119 183.17 573.444 152.097 590.468 130.849L602.447 115.899C637.914 71.6327 606.399 6 549.677 6Z" fill="#EAB84A"/>
<circle cx="274" cy="311" r="44" fill="#093F32"/>
<circle cx="274" cy="311" r="44" fill="#093F32"/>
<circle cx="274" cy="311" r="44" fill="#093F32"/>
<circle cx="274" cy="311" r="44" fill="#093F32"/>
<circle cx="274" cy="311" r="37.6577" fill="#093F32"/>
<circle cx="274" cy="311" r="37.6577" fill="#093F32"/>
<circle cx="274" cy="311" r="37.6577" fill="#093F32"/>
<circle cx="274" cy="311" r="37.6577" fill="#EAB84A"/>
<path d="M451.658 66.3008C445.896 66.3008 442.967 68.0586 442.869 71.5742C442.967 74.1133 443.797 76.6035 445.359 79.0449L489.158 146.135L495.311 136.027C520.701 94.5234 533.396 72.6484 533.396 70.4023C533.494 68.1563 532.127 66.7891 529.295 66.3008C526.463 65.7148 521.189 65.3242 513.475 65.1289V58.6836H570.164V65.1289C569.969 65.2266 569.383 65.2754 568.406 65.2754C558.738 65.7637 551.902 68.4492 547.898 73.332C539.402 83.6836 524.51 107.121 503.221 143.645C498.924 151.066 496.141 155.949 494.871 158.293V210.734C494.871 217.082 495.408 220.891 496.482 222.16C497.557 223.43 499.705 224.406 502.928 225.09L512.742 226.994V233H455.76V227.287L464.256 225.529C469.432 224.455 472.508 222.404 473.484 219.377C474.559 216.35 475.096 210.783 475.096 202.678V158.293C450.389 116.301 433.885 90.4707 425.584 80.8027C416.404 70.2559 408.152 65.0312 400.828 65.1289V58.6836H477C486.766 58.6836 491.697 62.0527 491.795 68.791C491.795 73.8691 489.256 77.3848 484.178 79.3379C482.42 79.9238 480.711 80.2168 479.051 80.2168C474.07 80.2168 469.188 78.2148 464.402 74.2109C459.715 70.1094 456.688 67.7656 455.32 67.1797C454.051 66.5938 452.83 66.3008 451.658 66.3008Z" fill="#093F32"/>
<path d="M552.16 389.918C560.07 389.918 564.807 383.961 566.369 372.047H572.229V399H455.627V392.848L464.123 391.09C469.396 390.016 472.619 387.867 473.791 384.645C474.963 381.422 475.549 375.953 475.549 368.238V255.445C475.549 246.559 474.816 240.797 473.352 238.16C471.887 235.426 468.859 233.57 464.27 232.594L455.627 230.836V224.684H563.732V251.637H557.873C556.213 239.918 551.477 233.961 543.664 233.766H495.178V308.326H529.016C532.727 308.326 534.924 307.74 535.607 306.568C536.389 305.396 537.219 302.955 538.098 299.244L539.562 292.799H545.715V332.643H539.562C538 324.635 536.535 320.094 535.168 319.02C533.898 317.945 531.799 317.408 528.869 317.408H495.178V389.918H552.16Z" fill="#093F32"/>
<path d="M340.902 202.531V89.5918C340.902 80.7051 340.121 74.9434 338.559 72.3066C336.996 69.6699 333.92 67.8633 329.33 66.8867L320.834 65.1289V58.6836H377.816V65.2754L367.855 67.4727C364.34 68.2539 362.289 69.377 361.703 70.8418C361.02 72.3066 360.678 75.9199 360.678 81.6816V223.918H414.877C422.006 223.918 426.742 218.449 429.086 207.512C429.77 204.289 430.111 201.408 430.111 198.869H437.729V233H321.566V227.141L330.062 225.383C335.238 224.504 338.363 222.551 339.438 219.523C340.414 216.496 340.902 210.832 340.902 202.531Z" fill="#093F32"/>
<path d="M114.453 268.629C114.453 288.551 118.896 298.561 127.783 298.658C129.346 298.658 131.787 297.193 135.107 294.264C140.674 290.162 145.361 287.965 149.17 287.672C155.42 287.672 158.838 290.65 159.424 296.607C159.717 300.611 157.861 303.736 153.857 305.982C151.807 307.057 149.658 307.594 147.412 307.594C136.279 307.594 128.223 306.764 123.242 305.104C111.035 301.1 102.637 292.896 98.0469 280.494C95.9961 274.732 94.9707 268.629 94.9707 262.184C94.9707 243.629 103.662 231.91 121.045 227.027C126.416 225.465 132.275 224.684 138.623 224.684H249.658C260.4 224.684 267.334 222.438 270.459 217.945C272.51 214.82 273.535 210.133 273.535 203.883H279.688C283.496 216.676 283.447 225.123 279.541 229.225C275.635 233.229 269.141 235.523 260.059 236.109H204.688V368.385C204.688 377.369 205.322 383.229 206.592 385.963C207.861 388.6 210.84 390.406 215.527 391.383L224.023 392.994V399H167.188V392.848L177.295 390.65C180.908 389.869 183.154 388.746 184.033 387.281C184.814 385.621 185.205 382.057 185.205 376.588V236.109H136.865C125.537 236.109 118.457 242.848 115.625 256.324C114.844 260.133 114.453 264.234 114.453 268.629Z" fill="#093F32"/>
<path d="M283.248 235.23C283.248 228.297 288.18 224.781 298.043 224.684H393.844C407.027 224.684 418.307 228.248 427.682 235.377C437.057 242.506 441.695 253.443 441.598 268.189C441.402 299.732 424.85 315.504 391.939 315.504C377.975 315.113 370.797 311.598 370.406 304.957C370.699 297.535 374.85 293.775 382.857 293.678C387.057 293.678 390.328 295.338 392.672 298.658C395.016 301.979 396.529 303.932 397.213 304.518C398.678 305.592 400.436 306.129 402.486 306.129C414.4 306.129 420.357 294.264 420.357 270.533C420.357 257.545 415.865 247.535 406.881 240.504C401.217 236.109 395.113 233.912 388.57 233.912H360.445V376.881C360.445 383.229 360.982 387.037 362.057 388.307C363.131 389.479 365.23 390.357 368.355 390.943L378.316 392.994V399H321.334V393.287L329.83 391.529C335.006 390.455 338.082 388.453 339.059 385.523C340.133 382.594 340.67 376.979 340.67 368.678V259.107C340.084 245.729 337.008 237.525 331.441 234.498C329.488 233.521 327.145 233.033 324.41 233.033C321.773 233.033 318.062 234.938 313.277 238.746C306.832 243.922 301.168 246.559 296.285 246.656C291.5 246.656 288.131 245.387 286.178 242.848C284.225 240.211 283.248 237.672 283.248 235.23Z" fill="#093F32"/>
<path d="M127.748 69.2305C127.748 62.2969 132.68 58.7813 142.543 58.6836H238.344C251.527 58.6836 262.807 62.248 272.182 69.377C281.557 76.5059 286.195 87.4434 286.098 102.189C285.902 133.732 269.35 149.504 236.439 149.504C222.475 149.113 215.297 145.598 214.906 138.957C215.199 131.535 219.35 127.775 227.357 127.678C231.557 127.678 234.828 129.338 237.172 132.658C239.516 135.979 241.029 137.932 241.713 138.518C243.178 139.592 244.936 140.129 246.986 140.129C258.9 140.129 264.857 128.264 264.857 104.533C264.857 91.5449 260.365 81.5352 251.381 74.5039C245.717 70.1094 239.613 67.9121 233.07 67.9121H204.945V210.881C204.945 217.229 205.482 221.037 206.557 222.307C207.631 223.479 209.73 224.357 212.855 224.943L222.816 226.994V233H165.834V227.287L174.33 225.529C179.506 224.455 182.582 222.453 183.559 219.523C184.633 216.594 185.17 210.979 185.17 202.678V93.1074C184.584 79.7285 181.508 71.5254 175.941 68.498C173.988 67.5215 171.645 67.0332 168.91 67.0332C166.273 67.0332 162.562 68.9375 157.777 72.7461C151.332 77.9219 145.668 80.5586 140.785 80.6562C136 80.6562 132.631 79.3867 130.678 76.8477C128.725 74.2109 127.748 71.6719 127.748 69.2305Z" fill="#093F32"/>
<circle cx="283" cy="189" r="44" fill="#093F32"/>
<circle cx="283" cy="189" r="44" fill="#093F32"/>
<circle cx="283" cy="189" r="44" fill="#093F32"/>
<circle cx="283" cy="189" r="44" fill="#093F32"/>
<circle cx="283" cy="189" r="37.6577" fill="#093F32"/>
<circle cx="283" cy="189" r="37.6577" fill="#093F32"/>
<circle cx="283" cy="189" r="37.6577" fill="#093F32"/>
<circle cx="283" cy="189" r="37.6577" fill="#EAB84A"/>
<path d="M275.696 229.2C263.766 228.365 250.614 227.293 248.5 226.5C244.5 225 256.5 225.5 251.5 219C247.332 213.582 268.526 225.187 275.696 229.2C278.754 229.414 281.731 229.613 284.422 229.787L300.5 228L296 230.5C296 230.5 291.092 230.218 284.422 229.787L278 230.5C278 230.5 277.128 230.002 275.696 229.2Z" fill="#093F32"/>
<path d="M280.5 219.5C276.1 227.9 265.667 223.667 261 220.5L268 229C276.667 230.5 290.4 231.7 298 224.5C307.5 215.5 286 209 280.5 219.5Z" fill="#093F32"/>
<path d="M291 224C292 226 283 232.5 283.5 238C282.833 239.167 281.2 240.3 280 243.5C278.8 246.7 274.5 241.833 272.5 239C269.333 238 267.789 237.207 273 234C279.5 230 282 225 284.5 223C287 221 288.939 219.877 291 224Z" fill="#EAB84A"/>
<path d="M667.739 105.036C672.224 100.532 678.318 98 684.674 98H1325.1C1338.3 98 1349 108.699 1349 121.897V190.103C1349 203.301 1338.3 214 1325.1 214H684.674C678.318 214 672.224 211.468 667.739 206.964L633.786 172.86C624.503 163.537 624.503 148.463 633.786 139.14L667.739 105.036Z" fill="#F17DAE"/>
<path d="M707.026 131.348V151.881H729.595V158.209H707.026V179.849H734.729V186H699.326V125.064H733.932L733.047 131.348H707.026ZM745.669 125.064H754.475L767.839 148.474L781.248 125.064H789.568L772.265 153.12L791.647 186H782.841L767.662 158.475L752.307 186H744.031L763.149 153.518L745.669 125.064ZM835.423 143.871C835.423 140.715 834.804 138.222 833.565 136.392C832.326 134.534 830.629 133.206 828.476 132.41C826.322 131.584 823.859 131.171 821.085 131.171H812.279V157.191H820.776C823.637 157.191 826.16 156.808 828.343 156.041C830.526 155.244 832.252 153.887 833.52 151.97C834.789 150.022 835.423 147.323 835.423 143.871ZM843.654 143.783C843.654 148.533 842.637 152.338 840.601 155.2C838.595 158.062 835.822 160.142 832.281 161.44C828.741 162.738 824.67 163.387 820.068 163.387H812.279V186H804.579V125.064H820.156C827.414 125.064 833.137 126.598 837.326 129.666C841.545 132.705 843.654 137.41 843.654 143.783ZM866.233 131.348V151.881H888.802V158.209H866.233V179.849H893.935V186H858.533V125.064H893.139L892.254 131.348H866.233ZM948.066 142.145C948.066 145.184 947.403 147.839 946.075 150.111C944.777 152.383 943.007 154.256 940.765 155.731C938.522 157.206 936 158.283 933.197 158.961L951.253 186H942.048L925.409 159.847H917.178V186H909.478V125.064H925.143C932.666 125.064 938.36 126.509 942.225 129.401C946.119 132.262 948.066 136.51 948.066 142.145ZM939.835 142.145C939.835 138.222 938.714 135.419 936.472 133.737C934.23 132.026 930.749 131.171 926.028 131.171H917.178V153.828H926.028C930.395 153.828 933.787 152.943 936.207 151.173C938.626 149.373 939.835 146.364 939.835 142.145ZM997.551 125.064V131.215H984.009V179.849H997.551V186H962.679V179.849H976.221V131.215H962.679V125.064H997.551ZM1053.58 125.064L1057.04 186H1049.65L1047.74 154.182C1047.65 152.029 1047.57 149.845 1047.48 147.633C1047.39 145.42 1047.33 143.296 1047.3 141.26C1047.27 139.225 1047.26 137.41 1047.26 135.817C1047.26 134.224 1047.26 132.985 1047.26 132.1L1036.99 175.07H1029.29L1018.27 132.1C1018.3 132.956 1018.33 134.224 1018.36 135.906C1018.39 137.558 1018.4 139.431 1018.4 141.526C1018.43 143.62 1018.42 145.774 1018.36 147.987C1018.33 150.17 1018.27 152.206 1018.18 154.094L1016.54 186H1009.33L1012.78 125.064H1023.49L1033.36 166.794L1042.79 125.064H1053.58ZM1078.51 131.348V151.881H1101.08V158.209H1078.51V179.849H1106.21V186H1070.81V125.064H1105.41L1104.53 131.348H1078.51ZM1147.73 186L1126.27 132.41C1126.3 133.088 1126.36 134.224 1126.44 135.817C1126.56 137.381 1126.68 139.254 1126.8 141.437C1126.95 143.591 1127.06 145.877 1127.15 148.297C1127.24 150.716 1127.29 153.105 1127.29 155.465V186H1120.16V125.064H1130.56L1152.38 178.875C1152.35 178.02 1152.24 176.456 1152.07 174.184C1151.89 171.883 1151.73 169.11 1151.58 165.865C1151.43 162.62 1151.36 159.183 1151.36 155.554V125.064H1158.48V186H1147.73ZM1196.06 131.657V186H1188.41V131.657H1169.38V125.064H1215.36L1214.56 131.657H1196.06ZM1295.83 124.09C1299.66 124.09 1302.94 124.828 1305.65 126.303C1308.4 127.778 1310.51 129.799 1311.98 132.365C1313.46 134.932 1314.19 137.838 1314.19 141.083C1314.19 143.886 1313.71 146.63 1312.73 149.314C1311.76 151.97 1310.2 154.772 1308.04 157.722C1305.92 160.643 1303.12 163.888 1299.64 167.458C1296.18 171.028 1291.93 175.099 1286.89 179.672H1315.61L1314.68 186H1278.44V179.937C1283.04 175.542 1286.95 171.692 1290.16 168.387C1293.41 165.083 1296.08 162.192 1298.17 159.714C1300.3 157.206 1301.95 154.934 1303.13 152.899C1304.34 150.863 1305.18 148.931 1305.65 147.102C1306.13 145.243 1306.36 143.325 1306.36 141.349C1306.36 137.927 1305.39 135.227 1303.44 133.251C1301.52 131.274 1298.87 130.286 1295.48 130.286C1292.47 130.286 1290 130.802 1288.08 131.834C1286.17 132.867 1284.25 134.519 1282.33 136.791L1277.2 132.808C1279.62 129.858 1282.3 127.675 1285.25 126.259C1288.2 124.813 1291.73 124.09 1295.83 124.09Z" fill="#093F32"/>
</svg>
