<svg xmlns="http://www.w3.org/2000/svg" direction="ltr" width="2740.93" height="789.05" viewBox="-1005.2372046311426 -108.30809554907432 2740.93 789.05" stroke-linecap="round" stroke-linejoin="round"><defs></defs><g transform="matrix(1, 0, 0, 1, 1424.10, 256.87)" opacity="0.25"><path d="M0,0 Q23.1278,0 30.83,0 T44.6204,0 56.06,0 67.84,0 81.08,0 98.37,0 118.96,0 139.11,0 157.49,0 173.55,0 186.21,0 195.04,0.3105 202.31,0.9973 208.11,1.5336 212.38,1.7615 216.00,2.0999 218.88,2.974 220.55,4.3229 220.94,5.5604 219.87,6.506 217.60,7.3967 214.83,8.2611 211.85,9.1143 208.77,9.9657 205.65,10.8134 202.52,11.6596 199.38,12.5051 196.23,13.1059 193.08,13.6056 189.94,14.3068 185.97,15.1596 181.65,16.0741 176.12,16.7042 168.17,17.3516 157.87,18.8974 145.24,20.8941 132.95,22.5679 122.14,24.4149 113.02,26.2693 105.70,27.6785 99.95,28.8293 96.28,29.7353 93.48,30.5401 90.49,31.3709 87.40,32.4571 84.29,33.649 79.42,35.1963 73.00,37.2771 66.37,39.895 60.46,42.3618 57.06,43.8299 54.70,44.8736 52.79,45.7369 51.98,46.7679 51.63,48.1836 51.82,49.4494 53.13,50.1628 55.48,50.4659 58.28,50.5948 61.27,50.6495 65.25,50.6728 69.64,50.6827 73.32,50.6869 77.50,50.6887 81.89,50.6894 86.39,50.6898 91.75,50.6899 96.65,50.69 101.35,51.0005 106.80,51.7535 115.35,52.384 126.29,52.6519 136.53,52.7658 146.47,52.8142 157.61,52.8348 169.26,52.8435 179.80,52.8473 188.79,53.1593 200.57,54.3988 214.28,56.0137 L220.1152,56.7 " fill="none" stroke="#fddd00" stroke-width="49.28" opacity="0.82"/></g><g transform="matrix(1, 0, 0, 1, 881.27, 146.20)" opacity="0.25"><path d="M0,0 Q-17.7387,0 -22.4455,0 T-29.6413,0 -33.6799,0 -35.7097,0 -35.9083,-0.4916 -32.4161,-2.7361 -23.756,-6.4011 -2.9922,-13.4615 24.05,-22.1057 44.85,-28.2549 60.01,-32.9297 70.19,-36.1901 76.21,-37.9553 78.46,-38.7055 77.99,-39.0243 75.34,-38.7832 70.46,-37.41 63.92,-35.0381 56.67,-32.2418 46.88,-29.268 36.01,-26.6644 26.92,-24.6637 19.31,-22.9912 13.04,-21.9038 7.92,-21.1311 4.32,-20.2478 1.81,-19.3837 0.25,-18.5967 1.11,-18.0868 6.07,-18.9023 16.49,-21.5862 35.63,-25.7571 62.73,-30.9798 96.78,-36.9312 135.50,-43.336 177.85,-47.9268 212.79,-49.8779 230.05,-50.7071 237.39,-50.8813 239.39,-50.4665 238.37,-49.6693 235.49,-48.2638 231.23,-46.1542 225.67,-43.6074 217.97,-40.6017 207.53,-37.1277 192.51,-32.3191 171.70,-25.7359 147.00,-17.395 122.09,-7.7954 99.78,1.7815 81.98,10.0031 69.81,15.7973 63.12,19.1942 61.97,20.9887 76.31,19.5519 105.03,14.8416 136.21,9.3897 168.43,3.6226 198.10,-1.9995 221.30,-6.4215 235.73,-8.8874 240.84,-9.9354 238.40,-9.3487 230.19,-6.9028 220.37,-3.8048 211.73,-1.1484 204.31,1.1852 198.70,3.2464 193.15,4.8786 186.31,6.912 178.08,9.6996 163.32,14.2452 143.65,19.8111 125.46,24.3702 113.12,27.3773 108.12,28.342 109.33,27.2282 117.02,24.5555 142.06,15.6312 181.60,2.417 219.08,-7.7243 252.41,-15.3463 278.58,-20.7563 296.03,-24.5333 305.85,-27.0327 309.71,-27.8534 309.35,-27.2017 303.59,-24.4148 291.83,-20.1772 276.39,-15.7686 259.38,-10.6346 242.84,-4.7468 227.64,0.6736 211.87,6.1024 195.86,12.1155 181.87,17.963 169.75,23.5359 159.27,28.3424 150.35,32.1734 143.38,35.0062 139.49,36.696 139.34,37.5896 143.89,36.9372 154.13,33.6699 171.62,28.7365 196.46,22.4652 227.70,14.4122 261.65,7.3269 289.65,2.286 307.87,-1.0237 318.34,-2.4303 321.76,-2.0938 317.61,0.7345 297.33,9.7393 266.37,21.9958 233.24,34.5994 197.62,48.4227 165.08,60.913 138.10,71.9973 117.32,81.0695 101.32,88.2199 89.91,93.1793 83.54,95.8391 82.53,97.1449 92.09,94.8507 110.97,88.8559 129.58,82.9703 145.66,78.1344 158.09,74.9119 165.06,73.5423 168.03,73.1385 166.87,74.0364 161.06,76.8531 151.41,81.3449 138.00,86.9627 122.99,93.059 109.43,98.9447 97.49,104.0193 86.23,108.7491 74.27,114.0511 62.00,119.0817 51.47,123.1431 43.24,126.1428 38.04,127.9726 41.26,127.1718 57.71,123.3528 85.38,117.2044 123.39,107.4901 171.82,95.6163 226.81,83.6843 280.44,72.1588 327.49,62.3788 361.27,56.5978 375.14,54.9 370.02,57.0677 348.72,64.0955 317.28,74.5459 271.26,91.114 221.62,110.8629 184.44,126.8664 160.25,137.5865 149.21,142.9417 146.21,145.0165 149.54,143.972 163.34,139.5089 184.84,133.0753 201.22,127.9662 209.30,125.4844 211.39,124.4296 207.67,124.4931 197.78,126.9897 180.43,132.3834 155.65,139.6379 126.14,147.0307 83.43,158.2141 36.68,172.4516 2.39,183.8357 -23.9071,192.144 -42.5417,197.8716 -52.8735,201.3753 -56.954,203.0398 -56.6872,203.3676 -52.8277,202.2334 -43.7325,198.8964 -30.5607,194.3502 -17.7867,190.2187 -6.1793,186.4015 4.07,182.8529 13.75,179.4156 23.19,176.4741 31.66,173.8814 40.59,171.8853 49.70,170.1429 56.75,168.5082 61.60,167.8135 65.09,167.5182 67.55,167.3928 68.59,167.3394 67.03,167.6934 62.61,169.5602 56.27,172.5875 48.24,175.7974 38.65,179.2202 29.97,182.4631 23.83,184.9108 19.79,186.7475 17.10,188.2583 14.53,189.1448 11.56,189.832 8.43,190.7451 7.10,191.4437 11.55,189.9897 33.51,182.8627 70.03,172.2783 106.22,162.395 140.57,153.8793 168.74,147.3649 187.03,142.9806 197.21,140.6688 201.54,139.8645 202.27,140.3219 201.15,141.6261 198.67,143.4281 193.86,146.2927 185.50,150.6008 172.63,156.1376 155.44,162.6135 127.79,173.801 99.10,186.367 83.33,193.4959 76.31,196.77 75.02,197.782 80.07,196.0788 92.80,192.1551 115.90,186.2412 148.11,177.1958 190.40,164.6546 229.86,153.1922 252.95,147.1534 265.49,144.587 271.31,143.6716 273.78,143.9467 274.34,145.0411 273.15,146.6188 270.77,148.5343 264.36,152.2032 254.07,157.0256 242.52,161.8553 230.43,167.2026 218.12,172.77 204.71,178.6379 192.69,183.7767 183.83,187.2315 178.72,189.2518 178.96,189.3916 185.38,187.3897 200.12,182.994 225.50,175.9479 273.58,163.1238 335.18,147.4183 387.61,135.649 427.59,128.7783 452.01,125.8583 463.14,124.6173 464.61,125.122 456.92,128.3236 441.93,134.5286 423.83,142.0131 405.69,149.1068 387.54,156.6871 370.52,164.2702 356.10,170.2731 345.37,174.6097 338.36,177.5194 333.96,179.3109 331.10,180.3166 328.91,180.9884 326.55,181.8288 322.38,182.9421 316.14,184.755 309.01,186.8653 301.30,188.8949 294.05,190.8241 288.52,192.6445 284.74,194.2835 282.16,195.2245 280.74,195.6244 281.25,195.7944 285.49,194.8345 293.47,193.3944 303.04,191.7531 314.28,188.8591 326.23,185.4297 338.48,182.9401 351.86,180.7148 363.15,178.6018 369.64,177.7038 372.39,177.3221 371.87,177.5365 367.04,179.5481 357.81,183.1113 345.72,186.9573 329.31,191.9527 306.98,198.601 283.14,205.8196 264.59,211.8401 252.95,215.6695 245.56,217.987 241.65,219.2825 241.10,219.8331 244.89,220.0671 252.68,219.1344 263.16,216.5386 278.20,212.1004 300.58,205.4589 338.54,195.7363 380.14,186.5672 408.41,181.9458 424.99,179.9817 431.02,179.906 429.82,181.524 423.99,184.1351 414.33,187.4413 400.92,191.9687 384.77,197.8086 368.60,203.4128 355.40,207.4074 346.05,210.3098 339.62,212.6099 336.13,213.898 335.00,214.4454 335.18,214.678 336.68,214.153 339.76,213.306 344.10,212.1871 351.21,210.0555 360.21,207.3585 367.20,205.3181 371.28,204.4509 373.19,204.2578 373.07,204.9749 370.57,206.6597 361.81,211.2196 344.73,219.0255 328.05,226.0172 317.21,230.6389 310.91,233.3593 308.99,234.5155 312.20,233.9747 321.87,230.7549 336.42,226.1233 354.32,221.4035 371.52,216.9194 383.43,213.602 390.18,211.8126 392.74,211.0521 391.82,211.1084 386.82,212.5411 377.52,215.3436 364.26,219.0043 348.18,223.1677 330.90,227.5448 313.11,231.36 295.10,234.2839 278.14,237.3464 264.61,240.2608 255.69,241.9451 250.71,242.1693 248.36,241.2842 247.67,239.4849 248.31,236.8486 252.78,231.6629 260.03,224.9884 266.69,219.4664 272.24,215.1531 276.02,212.4488 275.88,211.0522 269.50,211.0423 256.20,213.065 237.55,217.5356 215.20,223.9781 192.55,230.3933 173.62,235.5894 159.97,239.3416 151.71,241.3129 146.33,242.4613 142.94,243.2598 141.31,243.4209 140.62,242.8224 140.58,241.5876 141.29,240.0825 143.50,237.8386 146.35,235.2778 148.98,233.0739 153.27,230.1708 158.84,226.8353 164.23,223.8998 168.97,221.5827 172.10,220.2874 172.09,219.7369 167.47,220.0176 158.33,221.8158 144.18,225.803 129.75,230.4501 118.93,233.6959 111.71,235.452 108.46,235.7096 107.70,234.396 109.78,231.5607 115.03,226.9517 122.93,221.3847 132.46,215.9281 141.83,210.7226 148.98,206.5437 153.13,203.9656 154.14,202.6916 152.69,202.1502 147.39,203.1247 139.15,205.6376 131.18,208.491 124.62,210.9054 119.38,212.2421 112.61,213.5662 105.18,215.2618 98.99,216.7385 94.35,217.7456 92.13,217.682 92.37,216.5395 94.92,214.671 102.84,210.6771 114.69,205.4664 123.83,202.1795 128.82,200.7825 132.63,200.1888 149.34,195.5952 183.06,185.2854 223.50,171.8675 266.79,157.1288 322.49,138.0941 376.90,119.0823 408.76,108.386 425.02,103.3915 431.93,101.2689 432.86,100.7434 429.51,101.7908 422.75,104.1593 413.70,107.2245 403.01,111.2067 393.79,114.8598 387.41,117.1024 382.25,118.7455 378.63,119.7544 376.12,120.4246 374.07,121.1953 372.21,121.7673 370.45,122.0103 368.71,122.3551 366.99,122.9876 365.28,123.5007 363.58,123.9632 361.87,124.6456 360.17,125.4215 358.46,126.24 356.26,127.3181 353.37,128.2622 350.98,128.6634 349.79,128.3423 349.52,127.2255 351.44,124.4738 356.62,119.4548 363.97,113.1989 372.76,106.9349 382.67,101.6967 391.48,97.6794 396.92,95.0347 397.17,93.7325 389.82,95.1369 373.55,100.8571 349.23,109.9035 318.21,120.93 285.91,131.7227 257.76,140.1277 236.20,146.1723 222.44,150.1471 214.89,152.213 212.00,152.8467 213.49,151.529 221.57,147.0158 240.49,137.8211 269.06,123.6496 303.50,106.0031 345.31,85.2754 382.81,66.9614 407.87,54.6517 L418.53,49.42 " fill="none" stroke="#10acff" stroke-width="49.28" opacity="0.82"/></g><g transform="matrix(1, 0, 0, 1, 337.40, 445.18)" opacity="0.25"><path d="M0,0 Q8.5675,0 10.80,0 T14.3975,0 16.75,0.207 18.57,0.7061 20.18,1.1223 21.68,1.2992 23.15,1.3744 24.59,1.4064 26.18,1.5695 29.00,2.0499 34.26,2.5157 40.02,2.7573 L42.47,2.86 " fill="none" stroke="#fddd00" stroke-width="20.16" opacity="0.82"/></g><g transform="matrix(1, 0, 0, 1, 1424.10, 256.87)" opacity="0.25"><path d="M0,0 Q23.1278,0 30.83,0 T44.6204,0 56.06,0 67.84,0 81.08,0 98.37,0 118.96,0 139.11,0 157.49,0 173.55,0 186.21,0 195.04,0.3105 202.31,0.9973 208.11,1.5336 212.38,1.7615 216.00,2.0999 218.88,2.974 220.55,4.3229 220.94,5.5604 219.87,6.506 217.60,7.3967 214.83,8.2611 211.85,9.1143 208.77,9.9657 205.65,10.8134 202.52,11.6596 199.38,12.5051 196.23,13.1059 193.08,13.6056 189.94,14.3068 185.97,15.1596 181.65,16.0741 176.12,16.7042 168.17,17.3516 157.87,18.8974 145.24,20.8941 132.95,22.5679 122.14,24.4149 113.02,26.2693 105.70,27.6785 99.95,28.8293 96.28,29.7353 93.48,30.5401 90.49,31.3709 87.40,32.4571 84.29,33.649 79.42,35.1963 73.00,37.2771 66.37,39.895 60.46,42.3618 57.06,43.8299 54.70,44.8736 52.79,45.7369 51.98,46.7679 51.63,48.1836 51.82,49.4494 53.13,50.1628 55.48,50.4659 58.28,50.5948 61.27,50.6495 65.25,50.6728 69.64,50.6827 73.32,50.6869 77.50,50.6887 81.89,50.6894 86.39,50.6898 91.75,50.6899 96.65,50.69 101.35,51.0005 106.80,51.7535 115.35,52.384 126.29,52.6519 136.53,52.7658 146.47,52.8142 157.61,52.8348 169.26,52.8435 179.80,52.8473 188.79,53.1593 200.57,54.3988 214.28,56.0137 L220.1152,56.7 " fill="none" stroke="#fddd00" stroke-width="49.28" opacity="0.35"/></g><g transform="matrix(1, 0, 0, 1, 881.27, 146.20)" opacity="0.25"><path d="M0,0 Q-17.7387,0 -22.4455,0 T-29.6413,0 -33.6799,0 -35.7097,0 -35.9083,-0.4916 -32.4161,-2.7361 -23.756,-6.4011 -2.9922,-13.4615 24.05,-22.1057 44.85,-28.2549 60.01,-32.9297 70.19,-36.1901 76.21,-37.9553 78.46,-38.7055 77.99,-39.0243 75.34,-38.7832 70.46,-37.41 63.92,-35.0381 56.67,-32.2418 46.88,-29.268 36.01,-26.6644 26.92,-24.6637 19.31,-22.9912 13.04,-21.9038 7.92,-21.1311 4.32,-20.2478 1.81,-19.3837 0.25,-18.5967 1.11,-18.0868 6.07,-18.9023 16.49,-21.5862 35.63,-25.7571 62.73,-30.9798 96.78,-36.9312 135.50,-43.336 177.85,-47.9268 212.79,-49.8779 230.05,-50.7071 237.39,-50.8813 239.39,-50.4665 238.37,-49.6693 235.49,-48.2638 231.23,-46.1542 225.67,-43.6074 217.97,-40.6017 207.53,-37.1277 192.51,-32.3191 171.70,-25.7359 147.00,-17.395 122.09,-7.7954 99.78,1.7815 81.98,10.0031 69.81,15.7973 63.12,19.1942 61.97,20.9887 76.31,19.5519 105.03,14.8416 136.21,9.3897 168.43,3.6226 198.10,-1.9995 221.30,-6.4215 235.73,-8.8874 240.84,-9.9354 238.40,-9.3487 230.19,-6.9028 220.37,-3.8048 211.73,-1.1484 204.31,1.1852 198.70,3.2464 193.15,4.8786 186.31,6.912 178.08,9.6996 163.32,14.2452 143.65,19.8111 125.46,24.3702 113.12,27.3773 108.12,28.342 109.33,27.2282 117.02,24.5555 142.06,15.6312 181.60,2.417 219.08,-7.7243 252.41,-15.3463 278.58,-20.7563 296.03,-24.5333 305.85,-27.0327 309.71,-27.8534 309.35,-27.2017 303.59,-24.4148 291.83,-20.1772 276.39,-15.7686 259.38,-10.6346 242.84,-4.7468 227.64,0.6736 211.87,6.1024 195.86,12.1155 181.87,17.963 169.75,23.5359 159.27,28.3424 150.35,32.1734 143.38,35.0062 139.49,36.696 139.34,37.5896 143.89,36.9372 154.13,33.6699 171.62,28.7365 196.46,22.4652 227.70,14.4122 261.65,7.3269 289.65,2.286 307.87,-1.0237 318.34,-2.4303 321.76,-2.0938 317.61,0.7345 297.33,9.7393 266.37,21.9958 233.24,34.5994 197.62,48.4227 165.08,60.913 138.10,71.9973 117.32,81.0695 101.32,88.2199 89.91,93.1793 83.54,95.8391 82.53,97.1449 92.09,94.8507 110.97,88.8559 129.58,82.9703 145.66,78.1344 158.09,74.9119 165.06,73.5423 168.03,73.1385 166.87,74.0364 161.06,76.8531 151.41,81.3449 138.00,86.9627 122.99,93.059 109.43,98.9447 97.49,104.0193 86.23,108.7491 74.27,114.0511 62.00,119.0817 51.47,123.1431 43.24,126.1428 38.04,127.9726 41.26,127.1718 57.71,123.3528 85.38,117.2044 123.39,107.4901 171.82,95.6163 226.81,83.6843 280.44,72.1588 327.49,62.3788 361.27,56.5978 375.14,54.9 370.02,57.0677 348.72,64.0955 317.28,74.5459 271.26,91.114 221.62,110.8629 184.44,126.8664 160.25,137.5865 149.21,142.9417 146.21,145.0165 149.54,143.972 163.34,139.5089 184.84,133.0753 201.22,127.9662 209.30,125.4844 211.39,124.4296 207.67,124.4931 197.78,126.9897 180.43,132.3834 155.65,139.6379 126.14,147.0307 83.43,158.2141 36.68,172.4516 2.39,183.8357 -23.9071,192.144 -42.5417,197.8716 -52.8735,201.3753 -56.954,203.0398 -56.6872,203.3676 -52.8277,202.2334 -43.7325,198.8964 -30.5607,194.3502 -17.7867,190.2187 -6.1793,186.4015 4.07,182.8529 13.75,179.4156 23.19,176.4741 31.66,173.8814 40.59,171.8853 49.70,170.1429 56.75,168.5082 61.60,167.8135 65.09,167.5182 67.55,167.3928 68.59,167.3394 67.03,167.6934 62.61,169.5602 56.27,172.5875 48.24,175.7974 38.65,179.2202 29.97,182.4631 23.83,184.9108 19.79,186.7475 17.10,188.2583 14.53,189.1448 11.56,189.832 8.43,190.7451 7.10,191.4437 11.55,189.9897 33.51,182.8627 70.03,172.2783 106.22,162.395 140.57,153.8793 168.74,147.3649 187.03,142.9806 197.21,140.6688 201.54,139.8645 202.27,140.3219 201.15,141.6261 198.67,143.4281 193.86,146.2927 185.50,150.6008 172.63,156.1376 155.44,162.6135 127.79,173.801 99.10,186.367 83.33,193.4959 76.31,196.77 75.02,197.782 80.07,196.0788 92.80,192.1551 115.90,186.2412 148.11,177.1958 190.40,164.6546 229.86,153.1922 252.95,147.1534 265.49,144.587 271.31,143.6716 273.78,143.9467 274.34,145.0411 273.15,146.6188 270.77,148.5343 264.36,152.2032 254.07,157.0256 242.52,161.8553 230.43,167.2026 218.12,172.77 204.71,178.6379 192.69,183.7767 183.83,187.2315 178.72,189.2518 178.96,189.3916 185.38,187.3897 200.12,182.994 225.50,175.9479 273.58,163.1238 335.18,147.4183 387.61,135.649 427.59,128.7783 452.01,125.8583 463.14,124.6173 464.61,125.122 456.92,128.3236 441.93,134.5286 423.83,142.0131 405.69,149.1068 387.54,156.6871 370.52,164.2702 356.10,170.2731 345.37,174.6097 338.36,177.5194 333.96,179.3109 331.10,180.3166 328.91,180.9884 326.55,181.8288 322.38,182.9421 316.14,184.755 309.01,186.8653 301.30,188.8949 294.05,190.8241 288.52,192.6445 284.74,194.2835 282.16,195.2245 280.74,195.6244 281.25,195.7944 285.49,194.8345 293.47,193.3944 303.04,191.7531 314.28,188.8591 326.23,185.4297 338.48,182.9401 351.86,180.7148 363.15,178.6018 369.64,177.7038 372.39,177.3221 371.87,177.5365 367.04,179.5481 357.81,183.1113 345.72,186.9573 329.31,191.9527 306.98,198.601 283.14,205.8196 264.59,211.8401 252.95,215.6695 245.56,217.987 241.65,219.2825 241.10,219.8331 244.89,220.0671 252.68,219.1344 263.16,216.5386 278.20,212.1004 300.58,205.4589 338.54,195.7363 380.14,186.5672 408.41,181.9458 424.99,179.9817 431.02,179.906 429.82,181.524 423.99,184.1351 414.33,187.4413 400.92,191.9687 384.77,197.8086 368.60,203.4128 355.40,207.4074 346.05,210.3098 339.62,212.6099 336.13,213.898 335.00,214.4454 335.18,214.678 336.68,214.153 339.76,213.306 344.10,212.1871 351.21,210.0555 360.21,207.3585 367.20,205.3181 371.28,204.4509 373.19,204.2578 373.07,204.9749 370.57,206.6597 361.81,211.2196 344.73,219.0255 328.05,226.0172 317.21,230.6389 310.91,233.3593 308.99,234.5155 312.20,233.9747 321.87,230.7549 336.42,226.1233 354.32,221.4035 371.52,216.9194 383.43,213.602 390.18,211.8126 392.74,211.0521 391.82,211.1084 386.82,212.5411 377.52,215.3436 364.26,219.0043 348.18,223.1677 330.90,227.5448 313.11,231.36 295.10,234.2839 278.14,237.3464 264.61,240.2608 255.69,241.9451 250.71,242.1693 248.36,241.2842 247.67,239.4849 248.31,236.8486 252.78,231.6629 260.03,224.9884 266.69,219.4664 272.24,215.1531 276.02,212.4488 275.88,211.0522 269.50,211.0423 256.20,213.065 237.55,217.5356 215.20,223.9781 192.55,230.3933 173.62,235.5894 159.97,239.3416 151.71,241.3129 146.33,242.4613 142.94,243.2598 141.31,243.4209 140.62,242.8224 140.58,241.5876 141.29,240.0825 143.50,237.8386 146.35,235.2778 148.98,233.0739 153.27,230.1708 158.84,226.8353 164.23,223.8998 168.97,221.5827 172.10,220.2874 172.09,219.7369 167.47,220.0176 158.33,221.8158 144.18,225.803 129.75,230.4501 118.93,233.6959 111.71,235.452 108.46,235.7096 107.70,234.396 109.78,231.5607 115.03,226.9517 122.93,221.3847 132.46,215.9281 141.83,210.7226 148.98,206.5437 153.13,203.9656 154.14,202.6916 152.69,202.1502 147.39,203.1247 139.15,205.6376 131.18,208.491 124.62,210.9054 119.38,212.2421 112.61,213.5662 105.18,215.2618 98.99,216.7385 94.35,217.7456 92.13,217.682 92.37,216.5395 94.92,214.671 102.84,210.6771 114.69,205.4664 123.83,202.1795 128.82,200.7825 132.63,200.1888 149.34,195.5952 183.06,185.2854 223.50,171.8675 266.79,157.1288 322.49,138.0941 376.90,119.0823 408.76,108.386 425.02,103.3915 431.93,101.2689 432.86,100.7434 429.51,101.7908 422.75,104.1593 413.70,107.2245 403.01,111.2067 393.79,114.8598 387.41,117.1024 382.25,118.7455 378.63,119.7544 376.12,120.4246 374.07,121.1953 372.21,121.7673 370.45,122.0103 368.71,122.3551 366.99,122.9876 365.28,123.5007 363.58,123.9632 361.87,124.6456 360.17,125.4215 358.46,126.24 356.26,127.3181 353.37,128.2622 350.98,128.6634 349.79,128.3423 349.52,127.2255 351.44,124.4738 356.62,119.4548 363.97,113.1989 372.76,106.9349 382.67,101.6967 391.48,97.6794 396.92,95.0347 397.17,93.7325 389.82,95.1369 373.55,100.8571 349.23,109.9035 318.21,120.93 285.91,131.7227 257.76,140.1277 236.20,146.1723 222.44,150.1471 214.89,152.213 212.00,152.8467 213.49,151.529 221.57,147.0158 240.49,137.8211 269.06,123.6496 303.50,106.0031 345.31,85.2754 382.81,66.9614 407.87,54.6517 L418.53,49.42 " fill="none" stroke="#10acff" stroke-width="49.28" opacity="0.35"/></g><g transform="matrix(1, 0, 0, 1, 529.87, 201.09)" opacity="1"><g><text font-size="44px" font-family="'tldraw_draw', sans-serif" font-style="normal" font-weight="normal" line-height="59.400000000000006px" dominant-baseline="mathematical" alignment-baseline="mathematical" stroke="rgb(249, 250, 251)" stroke-width="2px" fill="rgb(249, 250, 251)"><tspan alignment-baseline="mathematical" x="0.546875px" y="22.5px">Polytope</tspan></text><text font-size="44px" font-family="'tldraw_draw', sans-serif" font-style="normal" font-weight="normal" line-height="59.400000000000006px" dominant-baseline="mathematical" alignment-baseline="mathematical" stroke="none" stroke-width="2px" fill="#1d1d1d"><tspan alignment-baseline="mathematical" x="0.546875px" y="22.5px">Polytope</tspan></text></g></g><g transform="matrix(1, 0, 0, 1, 70.84, 339.91)" opacity="1"><g><text font-size="18px" font-family="'tldraw_draw', sans-serif" font-style="normal" font-weight="normal" line-height="24.3px" dominant-baseline="mathematical" alignment-baseline="mathematical" stroke="rgb(249, 250, 251)" stroke-width="2px" fill="rgb(249, 250, 251)"><tspan alignment-baseline="mathematical" x="0.984375px" y="8.75px">Notebook</tspan></text><text font-size="18px" font-family="'tldraw_draw', sans-serif" font-style="normal" font-weight="normal" line-height="24.3px" dominant-baseline="mathematical" alignment-baseline="mathematical" stroke="none" stroke-width="2px" fill="#1d1d1d"><tspan alignment-baseline="mathematical" x="0.984375px" y="8.75px">Notebook</tspan></text></g></g><g transform="matrix(1, 0, 0, 1, 9.08, 382.51)" opacity="1"><g><text font-size="18px" font-family="'tldraw_draw', sans-serif" font-style="normal" font-weight="normal" line-height="24.3px" dominant-baseline="mathematical" alignment-baseline="mathematical" stroke="rgb(249, 250, 251)" stroke-width="2px" fill="rgb(249, 250, 251)"><tspan alignment-baseline="mathematical" x="0.9296875px" y="8.75px">code</tspan></text><text font-size="18px" font-family="'tldraw_draw', sans-serif" font-style="normal" font-weight="normal" line-height="24.3px" dominant-baseline="mathematical" alignment-baseline="mathematical" stroke="none" stroke-width="2px" fill="#099268"><tspan alignment-baseline="mathematical" x="0.9296875px" y="8.75px">code</tspan></text></g></g><g transform="matrix(1, 0, 0, 1, 159.05, 382.52)" opacity="1"><g><text font-size="18px" font-family="'tldraw_draw', sans-serif" font-style="normal" font-weight="normal" line-height="24.3px" dominant-baseline="mathematical" alignment-baseline="mathematical" stroke="rgb(249, 250, 251)" stroke-width="2px" fill="rgb(249, 250, 251)"><tspan alignment-baseline="mathematical" x="0.7265625px" y="8.75px">value/vis</tspan></text><text font-size="18px" font-family="'tldraw_draw', sans-serif" font-style="normal" font-weight="normal" line-height="24.3px" dominant-baseline="mathematical" alignment-baseline="mathematical" stroke="none" stroke-width="2px" fill="#099268"><tspan alignment-baseline="mathematical" x="0.7265625px" y="8.75px">value/vis</tspan></text></g></g><g transform="matrix(1, 0, 0, 1, 68.96, 393.17)" opacity="1"><g><defs><mask id="shape_AGJeld-phdcRUUxJVRKw7_clip"><rect x="-115.74217615822113" y="-98.51177759639262" width="293.84" height="200.00" fill="white"/><path d="M 72.90 -1.5058987554135945 L 78.09 1.49 L 72.90 4.49" fill="none" stroke="none"/><rect x="7.94" y="-14.907103376893282" width="46.46" height="32.79" fill="black"/></mask></defs><g mask="url(#shape_AGJeld-phdcRUUxJVRKw7_clip)"><rect x="-100" y="-100" width="293.84" height="200.00" fill="transparent" stroke="none"/><path d="M-15.74217615822112,1.4882224036073808L78.09852116236726,1.4944458426060536" fill="none" stroke="#099268" stroke-width="2" stroke-dasharray="none" stroke-dashoffset="none"/></g><path d="M 72.90 -1.5058987554135945 L 78.09 1.49 L 72.90 4.49" fill="none" stroke="#099268" stroke-width="2"/><text font-size="18px" font-family="'tldraw_draw', sans-serif" font-style="normal" font-weight="normal" line-height="24.3px" dominant-baseline="mathematical" alignment-baseline="mathematical" fill="rgb(249, 250, 251)" stroke-width="2" stroke="rgb(249, 250, 251)"><tspan alignment-baseline="mathematical" x="12.459422502073071px" y="-2.157103376893282px">eval</tspan></text><text font-size="18px" font-family="'tldraw_draw', sans-serif" font-style="normal" font-weight="normal" line-height="24.3px" dominant-baseline="mathematical" alignment-baseline="mathematical" fill="#1d1d1d"><tspan alignment-baseline="mathematical" x="12.459422502073071px" y="-2.157103376893282px">eval</tspan></text></g></g><g transform="matrix(1, 0, 0, 1, 109.52, 419.34)" opacity="1"><path d="M1.9113,1.335 Q2.0689,2.9334 2.24,4.3961 T2.6091,7.2458 2.92,10.0333 3.10,12.7895 3.20,15.4783 3.28,17.9641 3.42,20.897 3.54,23.7078 3.53,25.0026 3.36,25.5036 3.04,25.9257 2.61,26.2248 2.10,26.3694 1.58,26.3445 1.08,26.1526 0.68,25.8139 0.40,25.3638 0.29,24.8494 0.34,24.3246 0.56,23.8444 0.92,23.459 1.38,23.2087 1.90,23.1198 2.43,23.2016 2.89,23.4456 3.26,23.826 3.48,24.3033 3.54,24.8273 3.43,25.3432 3.16,25.797 2.76,26.1412 2.28,26.3397 1.75,26.3718 1.24,26.2341 0.80,25.941 0.48,25.5232 0.31,25.0244 0.26,24.7612 0.27,23.7305 0.34,20.9337 0.41,18.0287 0.38,15.5886 0.27,12.9891 0.08,10.392 -0.2966,7.7071 -0.8319,4.8663 -1.4348,1.8376 -1.7375,-0.0822 -1.5738,-0.7408 -1.1704,-1.2867 -0.5889,-1.6367 0.08,-1.7375 0.74,-1.5737 1.28,-1.1704 1.63,-0.5888 1.75,-0.2634 1.91,1.335 Z" fill="#099268" stroke-linecap="round"/></g><g transform="matrix(1, 0, 0, 1, 121.02, 419.40)" opacity="1"><path d="M1.5829,1.8414 Q1.379,3.558 1.25,5.0665 T1.0571,7.9882 0.98,10.6036 1.05,13.2747 1.21,15.7923 1.22,18.1379 1.17,20.4947 1.23,22.789 1.26,24.6375 1.21,25.6046 0.98,26.2732 0.55,26.8347 -0.0258,27.2303 -0.706,27.4186 -1.4107,27.3798 -2.0661,27.118 -2.6036,26.6606 -2.967,26.0556 -3.1181,25.3662 -3.0411,24.6646 -2.7442,24.0243 -2.2584,23.5124 -1.6345,23.1824 -0.938,23.0688 -0.2416,23.1837 0.38,23.5149 0.86,24.0277 1.16,24.6685 1.23,25.3702 1.08,26.0594 0.72,26.6637 0.18,27.1201 -0.4733,27.3807 -1.1781,27.4181 -1.8579,27.2286 -2.4417,26.8319 -2.8682,26.2696 -3.0928,25.6005 -3.1503,25.2479 -3.1367,24.1226 -3.0813,22.0323 -2.9094,20.0165 -2.5656,17.8968 -2.2551,15.7709 -2.0513,13.236 -1.9109,10.5438 -1.8727,7.888 -1.864,4.8893 -1.8234,1.6035 -1.6948,-0.4619 -1.3891,-1.0753 -0.8718,-1.5251 -0.2218,-1.7426 0.46,-1.6948 1.07,-1.389 1.52,-0.8717 1.74,-0.2217 1.78,0.1249 1.58,1.8414 Z" fill="#099268" stroke-linecap="round"/></g><g transform="matrix(1, 0, 0, 1, 99.90, 436.75)" opacity="1"><path d="M2.2749,-0.0836 Q3.053,1.007 3.75,1.9374 T5.0968,3.7147 6.46,5.5185 7.90,7.309 9.35,8.9377 10.83,10.5085 12.28,12.0789 13.81,13.8924 15.42,14.3472 17.22,13.0576 19.13,11.6619 20.86,10.3639 22.46,8.9912 24.05,7.4555 25.64,5.889 27.47,3.9468 29.34,1.7231 30.40,0.4642 30.91,0.1461 31.51,0.0107 32.12,0.0719 32.67,0.3236 33.12,0.7392 33.40,1.2754 33.51,1.8758 33.41,2.4778 33.13,3.0182 32.69,3.4405 32.14,3.7005 31.54,3.7709 30.94,3.6443 30.42,3.3341 30.02,2.8727 29.79,2.3084 29.75,1.7003 29.91,1.1121 30.25,0.6053 30.73,0.233 31.31,0.0342 31.92,0.0297 32.49,0.22 32.98,0.5851 33.33,1.0869 33.50,1.6727 33.47,2.2813 33.25,2.8489 33.09,3.1144 32.16,4.154 30.05,6.3754 28.08,8.3398 26.50,9.9305 24.79,11.666 23.05,13.2247 21.36,14.5434 19.51,16.0527 17.41,17.7244 14.73,18.5552 12.46,17.8499 11.06,16.1414 9.75,14.373 8.36,12.8283 6.83,11.1969 5.28,9.4718 3.73,7.6312 2.32,5.8444 0.96,4.1055 -0.6228,2.1896 -1.6644,0.8431 -1.8603,0.1419 -1.773,-0.5808 -1.4158,-1.2151 -0.843,-1.6644 -0.1418,-1.8603 0.58,-1.773 1.21,-1.4157 1.49,-1.1741 2.27,-0.0836 Z" fill="#099268" stroke-linecap="round"/></g><g transform="matrix(1, 0, 0, 1, 90.55, 466.92)" opacity="1"><g><text font-size="18px" font-family="'tldraw_draw', sans-serif" font-style="normal" font-weight="normal" line-height="24.3px" dominant-baseline="mathematical" alignment-baseline="mathematical" stroke="rgb(249, 250, 251)" stroke-width="2px" fill="rgb(249, 250, 251)"><tspan alignment-baseline="mathematical" x="0.9296875px" y="8.75px">code</tspan></text><text font-size="18px" font-family="'tldraw_draw', sans-serif" font-style="normal" font-weight="normal" line-height="24.3px" dominant-baseline="mathematical" alignment-baseline="mathematical" stroke="none" stroke-width="2px" fill="#099268"><tspan alignment-baseline="mathematical" x="0.9296875px" y="8.75px">code</tspan></text></g></g><g transform="matrix(1, 0, 0, 1, 109.03, 478.31)" opacity="1"><g><defs><mask id="shape_65VLaxrJUOpUymL3DfDAC_clip"><rect x="-126.65552858883026" y="-91.53511606721185" width="267.25" height="260.04" fill="white"/><path d="M 30.30 14.24 L 28.71 8.46 L 34.51 9.97" fill="none" stroke="none"/><rect x="-13.941902763468644" y="52.66" width="46.46" height="32.79" fill="black"/></mask></defs><g mask="url(#shape_65VLaxrJUOpUymL3DfDAC_clip)"><rect x="-100" y="-100" width="267.25" height="260.04" fill="transparent" stroke="none"/><path d="M-18.479591024242325,11.809488003292302 A34.27409431979948 34.27 0 1 0 28.71,8.464883932788155" fill="none" stroke="#099268" stroke-width="2" stroke-dasharray="none" stroke-dashoffset="none"/></g><path d="M 30.30 14.24 L 28.71 8.46 L 34.51 9.97" fill="none" stroke="#099268" stroke-width="2"/><text font-size="18px" font-family="'tldraw_draw', sans-serif" font-style="normal" font-weight="normal" line-height="24.3px" dominant-baseline="mathematical" alignment-baseline="mathematical" fill="rgb(249, 250, 251)" stroke-width="2" stroke="rgb(249, 250, 251)"><tspan alignment-baseline="mathematical" x="-9.426277763468644px" y="65.41756964872778px">eval</tspan></text><text font-size="18px" font-family="'tldraw_draw', sans-serif" font-style="normal" font-weight="normal" line-height="24.3px" dominant-baseline="mathematical" alignment-baseline="mathematical" fill="#1d1d1d"><tspan alignment-baseline="mathematical" x="-9.426277763468644px" y="65.41756964872778px">eval</tspan></text></g></g><g transform="matrix(1, 0, 0, 1, -6.5123, 375.01)" opacity="1"><path d="M4,-0.0068 L252.5872,-0.4285 Q256.5872,-0.4352 256.58,3.5648 L256.5415,34.3427 Q256.5363,38.3427 252.53,38.3373 L4.5319,38.0018 Q0.5319,37.9964 0.41,33.9981 L-0.4601,4.1437 Q-0.5773,0.1454 3.42,0.1363 L251.4789,-0.4247 Q255.4789,-0.4338 255.60,3.5642 L256.5929,34.6151 Q256.72,38.6131 252.72,38.6044 L3.7715,38.0643 Q-0.2285,38.0557 -0.1948,34.0558 L0.0587,3.9351 Q0.0924,-0.0647 4,-0.0068 " fill="none" stroke="#099268" stroke-width="2"/></g><g transform="matrix(1, 0, 0, 1, 60.64, 459.35)" opacity="1"><path d="M4,0.0084 L103.3703,0.2182 Q107.3703,0.2267 107.37,4.2267 L107.4375,102.0515 Q107.4402,106.0515 103.44,106.0534 L4.2294,106.0999 Q0.2294,106.1017 0.21,102.1018 L-0.1078,3.6751 Q-0.121,-0.3248 3.87,-0.3311 L103.2057,-0.487 Q107.2057,-0.4933 107.23,3.5065 L108.078,101.3807 Q108.1122,105.3805 104.11,105.3956 L4.1606,105.7725 Q0.1607,105.7875 0.15,101.7875 L0.1166,3.8699 Q0.1149,-0.1301 4,0.0084 " fill="none" stroke="#099268" stroke-width="2"/></g><g transform="matrix(1, 0, 0, 1, 541.08, 46.51)" opacity="1"><g><text font-size="36px" font-family="'tldraw_draw', sans-serif" font-style="normal" font-weight="normal" line-height="48.6px" dominant-baseline="mathematical" alignment-baseline="mathematical" stroke="rgb(249, 250, 251)" stroke-width="2px" fill="rgb(249, 250, 251)"><tspan alignment-baseline="mathematical" x="0.5px" y="18.5px">Caretope</tspan></text><text font-size="36px" font-family="'tldraw_draw', sans-serif" font-style="normal" font-weight="normal" line-height="48.6px" dominant-baseline="mathematical" alignment-baseline="mathematical" stroke="none" stroke-width="2px" fill="#1d1d1d"><tspan alignment-baseline="mathematical" x="0.5px" y="18.5px">Caretope</tspan></text></g></g><g transform="matrix(1, 0, 0, 1, 563.91, 221.08)" opacity="1"><g><defs><mask id="shape_rJaCNUb0E-I_4ab5Tkpr7_clip"><rect x="-39.17639704669273" y="-211.72186607417683" width="201.57" height="291.73" fill="white"/><path d="M 55.73 -102.53973925384607 L 60.82 -111.72186607417682 L 66.22 -102.7201439499958" fill="none" stroke="none"/></mask></defs><g mask="url(#shape_rJaCNUb0E-I_4ab5Tkpr7_clip)"><rect x="-100" y="-100" width="201.57" height="291.73" fill="transparent" stroke="none"/><path d="M62.3999156502299,-19.990106773784987L60.82360295330727,-111.72186607417682" fill="none" stroke="#adb5bd" stroke-width="3.5" stroke-dasharray="none" stroke-dashoffset="none"/></g><path d="M 55.73 -102.53973925384607 L 60.82 -111.72186607417682 L 66.22 -102.7201439499958" fill="none" stroke="#adb5bd" stroke-width="3.5"/></g></g><g transform="matrix(1, 0, 0, 1, 635.76, 1.87)" opacity="1"><path d="M-1.395,1.7546 Q-2.79,1.6884 -5.2099,2.2927 T-9.9006,3.6536 -14.738,5.3392 -20.0122,7.2905 -25.176,9.6162 -30.0225,12.4054 -34.7283,15.7164 -39.356,19.5781 -43.6016,23.3921 -47.6594,26.943 -51.5806,30.3242 -54.4804,33.0712 -56.4652,35.1617 -58.0914,36.934 -59.6456,39.1529 -61.6122,41.9396 -63.0222,44.2777 -61.8366,45.1869 -58.3857,45.2826 -54.381,45.5098 -49.9931,45.2306 -45.4272,44.3826 -41.8421,43.3872 -39.2907,42.5042 -36.5521,41.3535 -33.4344,39.9757 -30.1298,38.4502 -26.7446,36.7984 -23.4163,35.2691 -18.9703,33.1378 -13.9323,30.7314 -10.1008,28.7927 -7.4142,27.3924 -5.2824,26.502 -2.8974,25.4129 0.19,23.951 3.17,22.7764 5.23,21.6814 5.85,20.0469 5.48,17.6608 4.54,14.8625 3.22,12.0973 2.20,9.8844 1.41,7.9472 0.27,6.0706 -2.2073,4.6523 -4.3217,3.6405 -4.9035,2.9447 -5.2072,2.2872 -5.2849,1.5671 -5.1287,0.8599 -4.7548,0.2396 -4.2024,-0.2288 -3.5294,-0.4963 -2.8062,-0.535 -2.1085,-0.3406 -1.5094,0.0663 -1.0716,0.6433 -0.8409,1.3298 -0.8415,2.054 -1.0734,2.7402 -1.5122,3.3164 -2.112,3.7223 -2.81,3.9154 -3.5332,3.8755 -4.2057,3.6068 -4.7573,3.1374 -5.1301,2.5165 -5.2851,1.809 -5.2061,1.0891 -4.9014,0.4321 -4.4028,-0.0932 -3.7626,-0.4318 -3.0477,-0.5483 -2.3331,-0.4304 -1.6936,-0.0905 -1.4019,0.1317 -1.2446,0.5968 0.26,1.3586 2.41,2.4845 3.94,3.9401 5.27,5.988 6.52,8.545 7.61,10.6615 8.08,12.6634 8.64,14.4854 9.34,16.3839 9.74,19.2649 9.38,22.5467 7.44,24.8043 5.11,25.9723 2.69,26.5793 -0.2023,27.3703 -3.4315,28.5945 -6.2939,29.6471 -8.9497,30.989 -12.8143,33.0243 -17.7962,35.5093 -22.1985,37.7638 -25.3732,39.4116 -28.6681,41.2836 -31.6205,42.8786 -34.0476,43.5953 -36.3779,44.2873 -38.4623,45.0047 -41.0826,45.8744 -44.8897,47.0494 -49.779,48.0897 -54.4434,48.6002 -58.5619,48.6528 -62.169,48.6257 -64.8413,48.1149 -66.5169,46.4662 -66.6172,43.9814 -65.1157,41.2727 -62.9489,38.6949 -61.3028,36.7183 -59.9178,35.1521 -58.1774,33.4971 -56.0921,31.3979 -53.1099,28.5594 -49.2112,25.1785 -45.1914,21.6333 -40.8959,17.7393 -36.134,13.7285 -31.2759,10.2536 -26.2478,7.291 -20.9679,4.8024 -15.7042,2.7087 -10.7865,0.8023 -5.6264,-0.8902 -1.41,-1.7546 0.34,-1.7514 0.99,-1.4848 1.48,-0.992 1.75,-0.3483 1.75,0.3485 1.48,0.9922 0.99,1.4849 0.34,1.7514 -0.0001,1.8207 -1.395,1.7546 Z" fill="#f76707" stroke-linecap="round"/></g><g transform="matrix(1, 0, 0, 1, 635.81, 9.37)" opacity="1"><path d="M1.8719,-3.3523 Q4.7828,-4.9913 7.68,-6.6494 T13.4917,-9.979 18.87,-13.0045 23.24,-15.4425 27.18,-17.8789 30.99,-20.6128 34.01,-23.0372 36.22,-24.9539 37.35,-26.6362 37.58,-27.6933 37.75,-28.1631 38.05,-28.5551 38.47,-28.8282 38.95,-28.9539 39.45,-28.919 39.91,-28.7272 40.28,-28.3985 40.54,-27.9673 40.63,-27.4789 40.57,-26.9842 40.36,-26.5352 40.01,-26.1789 39.56,-25.9525 39.07,-25.8797 38.58,-25.9682 38.14,-26.2087 37.81,-26.576 37.60,-27.0317 37.56,-27.5281 37.67,-28.0131 37.94,-28.436 38.32,-28.7526 38.79,-28.9296 39.29,-28.9486 39.76,-28.8075 40.17,-28.5212 40.47,-28.1195 40.62,-27.6446 40.66,-27.395 40.42,-26.3575 39.52,-24.6243 37.85,-23.0724 35.57,-21.1298 32.49,-18.5736 28.58,-15.6698 24.62,-13.0772 20.33,-10.5035 15.10,-7.3108 9.45,-3.7339 3.83,-0.1108 0.67,1.8469 -0.0862,1.9633 -0.831,1.7809 -1.4493,1.3273 -1.8469,0.6716 -1.9633,-0.0863 -1.7809,-0.8311 -1.3272,-1.4493 -1.039,-1.7133 1.87,-3.3523 Z" fill="#099268" stroke-linecap="round"/></g><g transform="matrix(1, 0, 0, 1, 643.98, 5.45)" opacity="1"><path d="M1.2034,-1.9461 Q2.7745,-2.2134 4.59,-2.3566 T8.1257,-2.9786 11.45,-3.74 14.35,-4.5007 17.02,-5.3052 19.72,-5.8193 22.64,-6.07 25.67,-6.1806 28.14,-6.3011 31.08,-6.4563 33.15,-6.5213 33.50,-6.4444 33.81,-6.2865 34.09,-6.0568 34.30,-5.7685 34.43,-5.4385 34.48,-5.0858 34.45,-4.7312 34.33,-4.395 34.13,-4.0969 33.87,-3.8542 33.56,-3.681 33.22,-3.5874 31.86,-3.5466 29.15,-3.0214 26.15,-2.1851 24.45,-1.8366 23.98,-1.8682 23.55,-2.0476 23.20,-2.356 22.96,-2.7612 22.87,-3.2207 22.92,-3.6864 23.13,-4.1096 23.45,-4.4459 23.87,-4.6601 24.33,-4.7299 24.80,-4.6478 25.21,-4.4225 25.53,-4.0776 25.72,-3.6492 25.76,-3.1822 25.65,-2.7254 25.41,-2.3266 25.05,-2.0277 24.61,-1.8599 24.14,-1.8407 23.69,-1.9723 23.30,-2.2408 23.02,-2.6181 22.88,-3.0647 22.89,-3.5338 23.04,-3.9764 23.33,-4.346 23.72,-4.6041 23.94,-4.7009 25.37,-5.1378 28.85,-6.0532 31.93,-6.5351 33.15,-6.5213 33.50,-6.4444 33.81,-6.2865 34.09,-6.0568 34.30,-5.7685 34.43,-5.4385 34.48,-5.0858 34.45,-4.7312 34.33,-4.395 34.13,-4.0969 33.87,-3.8542 33.56,-3.681 33.22,-3.5874 31.15,-3.5822 28.22,-3.625 25.79,-3.601 22.88,-3.447 20.16,-3.2132 17.75,-2.84 15.05,-2.02 12.09,-1.1357 8.67,-0.2148 5.08,0.6232 1.90,1.2653 0.03,1.6853 -0.615,1.5694 -1.1688,1.2146 -1.5447,0.6748 -1.6853,0.0323 -1.5694,-0.6151 -1.2145,-1.1689 -0.6747,-1.5447 -0.3676,-1.6789 1.20,-1.9461 Z" fill="#099268" stroke-linecap="round"/></g><g transform="matrix(1, 0, 0, 1, 644.49, 6.72)" opacity="1"><path d="M1.7971,-1.6959 Q3.4797,-1.4977 6.16,-1.37 T12.7146,-1.1572 19.98,-1.0149 26.56,-0.9189 31.99,-0.8533 36.19,-0.7048 40.38,-0.4454 42.84,-0.2654 43.20,-0.122 43.50,0.1285 43.69,0.4597 43.78,0.837 43.73,1.2209 43.57,1.5712 43.31,1.8512 42.96,2.0317 42.58,2.0936 42.20,2.0306 41.86,1.8492 41.60,1.5684 41.43,1.2177 41.39,0.8337 41.48,0.4566 41.68,0.1259 41.97,-0.1237 42.33,-0.2661 42.72,-0.2864 43.09,-0.1826 43.41,0.0347 43.64,0.3425 43.76,0.7087 43.76,1.0949 43.64,1.4607 43.40,1.7679 43.08,1.9841 42.71,2.0868 42.52,2.1077 40.25,1.9931 36.12,1.7906 31.99,1.7195 26.55,1.757 19.96,1.8016 12.67,1.8497 6.03,1.89 1.57,1.9002 -0.4726,1.8001 -1.1256,1.4822 -1.6071,0.9386 -1.844,0.2521 -1.8001,-0.4727 -1.4822,-1.1256 -0.9386,-1.6072 -0.2521,-1.844 0.11,-1.8942 1.79,-1.6959 Z" fill="#099268" stroke-linecap="round"/></g><g transform="matrix(1, 0, 0, 1, 773.40, 233.72)" opacity="1"><g><text font-size="36px" font-family="'tldraw_draw', sans-serif" font-style="normal" font-weight="normal" line-height="48.6px" dominant-baseline="mathematical" alignment-baseline="mathematical" stroke="rgb(249, 250, 251)" stroke-width="2px" fill="rgb(249, 250, 251)"><tspan alignment-baseline="mathematical" x="58.6328125px" y="18.703125px">Component</tspan><tspan alignment-baseline="mathematical" x="263px" y="18.703125px">  </tspan><tspan alignment-baseline="mathematical" x="0px" y="67.296875px">
</tspan><tspan alignment-baseline="mathematical" x="0.7109375px" y="67.296875px">&amp;</tspan><tspan alignment-baseline="mathematical" x="24.7578125px" y="67.296875px"> </tspan><tspan alignment-baseline="mathematical" x="37.1015625px" y="67.296875px">Drawing</tspan><tspan alignment-baseline="mathematical" x="189.921875px" y="67.296875px"> </tspan><tspan alignment-baseline="mathematical" x="202.2734375px" y="67.296875px">Library</tspan></text><text font-size="36px" font-family="'tldraw_draw', sans-serif" font-style="normal" font-weight="normal" line-height="48.6px" dominant-baseline="mathematical" alignment-baseline="mathematical" stroke="none" stroke-width="2px" fill="#1d1d1d"><tspan alignment-baseline="mathematical" x="58.6328125px" y="18.703125px">Component</tspan><tspan alignment-baseline="mathematical" x="263px" y="18.703125px">  </tspan><tspan alignment-baseline="mathematical" x="0px" y="67.296875px">
</tspan><tspan alignment-baseline="mathematical" x="0.7109375px" y="67.296875px">&amp;</tspan><tspan alignment-baseline="mathematical" x="24.7578125px" y="67.296875px"> </tspan><tspan alignment-baseline="mathematical" x="37.1015625px" y="67.296875px">Drawing</tspan><tspan alignment-baseline="mathematical" x="189.921875px" y="67.296875px"> </tspan><tspan alignment-baseline="mathematical" x="202.2734375px" y="67.296875px">Library</tspan></text></g></g><g transform="matrix(1, 0, 0, 1, 628.23, 231.97)" opacity="1"><g><defs><mask id="shape_WexKGJZrF0hpZ0ePc0jmc_clip"><rect x="-4.455951953667068" y="-85.24279334767735" width="235.56" height="205.84" fill="white"/><path d="M 125.53 16.03 L 131.11 20.60 L 124.36 23.14" fill="none" stroke="none"/></mask></defs><g mask="url(#shape_WexKGJZrF0hpZ0ePc0jmc_clip)"><rect x="-100" y="-100" width="235.56" height="205.84" fill="transparent" stroke="none"/><path d="M95.54404804633293,14.757206652322651L131.11022284978407,20.606001447351726" fill="none" stroke="#adb5bd" stroke-width="3.5" stroke-dasharray="none" stroke-dashoffset="none"/></g><path d="M 125.53 16.03 L 131.11 20.60 L 124.36 23.14" fill="none" stroke="#adb5bd" stroke-width="3.5"/></g></g><g transform="matrix(1, 0, 0, 1, 704.93, 392.11)" opacity="1"><g><text font-size="24px" font-family="'tldraw_draw', sans-serif" font-style="normal" font-weight="normal" line-height="32.400000000000006px" dominant-baseline="mathematical" alignment-baseline="mathematical" stroke="rgb(249, 250, 251)" stroke-width="2px" fill="rgb(249, 250, 251)"><tspan alignment-baseline="mathematical" x="0.7890625px" y="12.5px">Multiplayer</tspan></text><text font-size="24px" font-family="'tldraw_draw', sans-serif" font-style="normal" font-weight="normal" line-height="32.400000000000006px" dominant-baseline="mathematical" alignment-baseline="mathematical" stroke="none" stroke-width="2px" fill="#1d1d1d"><tspan alignment-baseline="mathematical" x="0.7890625px" y="12.5px">Multiplayer</tspan></text></g></g><g transform="matrix(1, 0, 0, 1, 639.69, 216.09)" opacity="1"><g><defs><mask id="shape_3GV_4r1cNKcqCJ7wsbZ8f_clip"><rect x="-87.80315119973329" y="-55.60205969818719" width="302.37" height="321.30" fill="white"/><path d="M 112.72 155.36 L 114.57 165.70 L 104.69 162.14" fill="none" stroke="none"/></mask></defs><g mask="url(#shape_3GV_4r1cNKcqCJ7wsbZ8f_clip)"><rect x="-100" y="-100" width="302.37" height="321.30" fill="transparent" stroke="none"/><path d="M12.196848800266707,44.39794030181281L114.57568420099605,165.70302852759028" fill="none" stroke="#adb5bd" stroke-width="3.5" stroke-dasharray="none" stroke-dashoffset="none"/></g><path d="M 112.72 155.36 L 114.57 165.70 L 104.69 162.14" fill="none" stroke="#adb5bd" stroke-width="3.5"/></g></g><g transform="matrix(1, 0, 0, 1, 534.74, -50.6524)" opacity="1"><g><text font-size="18px" font-family="'tldraw_draw', sans-serif" font-style="normal" font-weight="normal" line-height="24.3px" dominant-baseline="mathematical" alignment-baseline="mathematical" stroke="rgb(249, 250, 251)" stroke-width="2px" fill="rgb(249, 250, 251)"><tspan alignment-baseline="mathematical" x="0.59375px" y="8.75px">Highlighting</tspan></text><text font-size="18px" font-family="'tldraw_draw', sans-serif" font-style="normal" font-weight="normal" line-height="24.3px" dominant-baseline="mathematical" alignment-baseline="mathematical" stroke="none" stroke-width="2px" fill="#1d1d1d"><tspan alignment-baseline="mathematical" x="0.59375px" y="8.75px">Highlighting</tspan></text></g></g><g transform="matrix(1, 0, 0, 1, 700.58, -14.4444)" opacity="1"><g><text font-size="18px" font-family="'tldraw_draw', sans-serif" font-style="normal" font-weight="normal" line-height="24.3px" dominant-baseline="mathematical" alignment-baseline="mathematical" stroke="rgb(249, 250, 251)" stroke-width="2px" fill="rgb(249, 250, 251)"><tspan alignment-baseline="mathematical" x="0.7265625px" y="8.75px">Multicursors</tspan></text><text font-size="18px" font-family="'tldraw_draw', sans-serif" font-style="normal" font-weight="normal" line-height="24.3px" dominant-baseline="mathematical" alignment-baseline="mathematical" stroke="none" stroke-width="2px" fill="#1d1d1d"><tspan alignment-baseline="mathematical" x="0.7265625px" y="8.75px">Multicursors</tspan></text></g></g><g transform="matrix(1, 0, 0, 1, 321.19, -27.92)" opacity="1"><g><text font-size="18px" font-family="'tldraw_draw', sans-serif" font-style="normal" font-weight="normal" line-height="24.3px" dominant-baseline="mathematical" alignment-baseline="mathematical" stroke="rgb(249, 250, 251)" stroke-width="2px" fill="rgb(249, 250, 251)"><tspan alignment-baseline="mathematical" x="51.1171875px" y="8.6015625px">Escape</tspan><tspan alignment-baseline="mathematical" x="114.2421875px" y="8.6015625px"> </tspan><tspan alignment-baseline="mathematical" x="120.4140625px" y="8.6015625px">Hatches</tspan><tspan alignment-baseline="mathematical" x="193.8828125px" y="8.6015625px"> </tspan><tspan alignment-baseline="mathematical" x="0px" y="32.8984375px">
</tspan><tspan alignment-baseline="mathematical" x="0.859375px" y="32.8984375px">&amp;</tspan><tspan alignment-baseline="mathematical" x="12.8828125px" y="32.8984375px"> </tspan><tspan alignment-baseline="mathematical" x="19.0546875px" y="32.8984375px">Custom</tspan><tspan alignment-baseline="mathematical" x="85.3125px" y="32.8984375px"> </tspan><tspan alignment-baseline="mathematical" x="91.484375px" y="32.8984375px">Caret</tspan><tspan alignment-baseline="mathematical" x="141.46875px" y="32.8984375px"> </tspan><tspan alignment-baseline="mathematical" x="147.6484375px" y="32.8984375px">Topologies</tspan></text><text font-size="18px" font-family="'tldraw_draw', sans-serif" font-style="normal" font-weight="normal" line-height="24.3px" dominant-baseline="mathematical" alignment-baseline="mathematical" stroke="none" stroke-width="2px" fill="#1d1d1d"><tspan alignment-baseline="mathematical" x="51.1171875px" y="8.6015625px">Escape</tspan><tspan alignment-baseline="mathematical" x="114.2421875px" y="8.6015625px"> </tspan><tspan alignment-baseline="mathematical" x="120.4140625px" y="8.6015625px">Hatches</tspan><tspan alignment-baseline="mathematical" x="193.8828125px" y="8.6015625px"> </tspan><tspan alignment-baseline="mathematical" x="0px" y="32.8984375px">
</tspan><tspan alignment-baseline="mathematical" x="0.859375px" y="32.8984375px">&amp;</tspan><tspan alignment-baseline="mathematical" x="12.8828125px" y="32.8984375px"> </tspan><tspan alignment-baseline="mathematical" x="19.0546875px" y="32.8984375px">Custom</tspan><tspan alignment-baseline="mathematical" x="85.3125px" y="32.8984375px"> </tspan><tspan alignment-baseline="mathematical" x="91.484375px" y="32.8984375px">Caret</tspan><tspan alignment-baseline="mathematical" x="141.46875px" y="32.8984375px"> </tspan><tspan alignment-baseline="mathematical" x="147.6484375px" y="32.8984375px">Topologies</tspan></text></g></g><g transform="matrix(1, 0, 0, 1, 683.66, 99.69)" opacity="1"><g><text font-size="18px" font-family="'tldraw_draw', sans-serif" font-style="normal" font-weight="normal" line-height="24.3px" dominant-baseline="mathematical" alignment-baseline="mathematical" stroke="rgb(249, 250, 251)" stroke-width="2px" fill="rgb(249, 250, 251)"><tspan alignment-baseline="mathematical" x="0.6953125px" y="8.75px">Copy&amp;Paste</tspan></text><text font-size="18px" font-family="'tldraw_draw', sans-serif" font-style="normal" font-weight="normal" line-height="24.3px" dominant-baseline="mathematical" alignment-baseline="mathematical" stroke="none" stroke-width="2px" fill="#1d1d1d"><tspan alignment-baseline="mathematical" x="0.6953125px" y="8.75px">Copy&amp;Paste</tspan></text></g></g><g transform="matrix(1, 0, 0, 1, 861.27, 93.21)" opacity="1"><g><text font-size="36px" font-family="'tldraw_draw', sans-serif" font-style="normal" font-weight="normal" line-height="48.6px" dominant-baseline="mathematical" alignment-baseline="mathematical" stroke="rgb(249, 250, 251)" stroke-width="2px" fill="rgb(249, 250, 251)"><tspan alignment-baseline="mathematical" x="0.6171875px" y="18.5px">Bidirectional</tspan><tspan alignment-baseline="mathematical" x="232.234375px" y="18.5px"> </tspan><tspan alignment-baseline="mathematical" x="244.5859375px" y="18.5px">Parsing</tspan></text><text font-size="36px" font-family="'tldraw_draw', sans-serif" font-style="normal" font-weight="normal" line-height="48.6px" dominant-baseline="mathematical" alignment-baseline="mathematical" stroke="none" stroke-width="2px" fill="#1d1d1d"><tspan alignment-baseline="mathematical" x="0.6171875px" y="18.5px">Bidirectional</tspan><tspan alignment-baseline="mathematical" x="232.234375px" y="18.5px"> </tspan><tspan alignment-baseline="mathematical" x="244.5859375px" y="18.5px">Parsing</tspan></text></g></g><g transform="matrix(1, 0, 0, 1, 635.79, 235.51)" opacity="1"><g><defs><mask id="shape_u4QF6Q7-5Dh-3G3uETuZH_clip"><rect x="-12.016157854920948" y="-189.63267866684993" width="387.54" height="255.97" fill="white"/><path d="M 265.31 -92.0629759513912 L 275.52 -89.63267866684994 L 268.31 -82.00148674753444" fill="none" stroke="none"/></mask></defs><g mask="url(#shape_u4QF6Q7-5Dh-3G3uETuZH_clip)"><rect x="-100" y="-100" width="387.54" height="255.97" fill="transparent" stroke="none"/><path d="M87.98384214507905,-33.662576330795616L275.526876496206,-89.63267866684994" fill="none" stroke="#adb5bd" stroke-width="3.5" stroke-dasharray="none" stroke-dashoffset="none"/></g><path d="M 265.31 -92.0629759513912 L 275.52 -89.63267866684994 L 268.31 -82.00148674753444" fill="none" stroke="#adb5bd" stroke-width="3.5"/></g></g><g transform="matrix(1, 0, 0, 1, 1003.15, 186.03)" opacity="1"><g><text font-size="18px" font-family="'tldraw_draw', sans-serif" font-style="normal" font-weight="normal" line-height="24.3px" dominant-baseline="mathematical" alignment-baseline="mathematical" stroke="rgb(249, 250, 251)" stroke-width="2px" fill="rgb(249, 250, 251)"><tspan alignment-baseline="mathematical" x="0.90625px" y="8.75px">Bidirectional</tspan><tspan alignment-baseline="mathematical" x="116.7109375px" y="8.75px"> </tspan><tspan alignment-baseline="mathematical" x="122.890625px" y="8.75px">Language</tspan></text><text font-size="18px" font-family="'tldraw_draw', sans-serif" font-style="normal" font-weight="normal" line-height="24.3px" dominant-baseline="mathematical" alignment-baseline="mathematical" stroke="none" stroke-width="2px" fill="#1d1d1d"><tspan alignment-baseline="mathematical" x="0.90625px" y="8.75px">Bidirectional</tspan><tspan alignment-baseline="mathematical" x="116.7109375px" y="8.75px"> </tspan><tspan alignment-baseline="mathematical" x="122.890625px" y="8.75px">Language</tspan></text></g></g><g transform="matrix(1, 0, 0, 1, 247.04, 306.76)" opacity="1"><g><text font-size="24px" font-family="'tldraw_draw', sans-serif" font-style="normal" font-weight="normal" line-height="32.400000000000006px" dominant-baseline="mathematical" alignment-baseline="mathematical" stroke="rgb(249, 250, 251)" stroke-width="2px" fill="rgb(249, 250, 251)"><tspan alignment-baseline="mathematical" x="64.8203125px" y="12.6015625px">Editor</tspan><tspan alignment-baseline="mathematical" x="141.0859375px" y="12.6015625px"> </tspan><tspan alignment-baseline="mathematical" x="149.3203125px" y="12.6015625px">Editor,</tspan><tspan alignment-baseline="mathematical" x="229.1796875px" y="12.6015625px"> </tspan><tspan alignment-baseline="mathematical" x="0px" y="45px">
</tspan><tspan alignment-baseline="mathematical" x="0.8984375px" y="45px">Editor</tspan><tspan alignment-baseline="mathematical" x="77.1640625px" y="45px"> </tspan><tspan alignment-baseline="mathematical" x="85.3984375px" y="45px">Transformations,</tspan><tspan alignment-baseline="mathematical" x="293.1015625px" y="45px"> </tspan><tspan alignment-baseline="mathematical" x="0px" y="77.3984375px">
</tspan><tspan alignment-baseline="mathematical" x="26.875px" y="77.3984375px">&amp;</tspan><tspan alignment-baseline="mathematical" x="42.90625px" y="77.3984375px"> </tspan><tspan alignment-baseline="mathematical" x="51.1328125px" y="77.3984375px">Polydirectionality</tspan></text><text font-size="24px" font-family="'tldraw_draw', sans-serif" font-style="normal" font-weight="normal" line-height="32.400000000000006px" dominant-baseline="mathematical" alignment-baseline="mathematical" stroke="none" stroke-width="2px" fill="#1d1d1d"><tspan alignment-baseline="mathematical" x="64.8203125px" y="12.6015625px">Editor</tspan><tspan alignment-baseline="mathematical" x="141.0859375px" y="12.6015625px"> </tspan><tspan alignment-baseline="mathematical" x="149.3203125px" y="12.6015625px">Editor,</tspan><tspan alignment-baseline="mathematical" x="229.1796875px" y="12.6015625px"> </tspan><tspan alignment-baseline="mathematical" x="0px" y="45px">
</tspan><tspan alignment-baseline="mathematical" x="0.8984375px" y="45px">Editor</tspan><tspan alignment-baseline="mathematical" x="77.1640625px" y="45px"> </tspan><tspan alignment-baseline="mathematical" x="85.3984375px" y="45px">Transformations,</tspan><tspan alignment-baseline="mathematical" x="293.1015625px" y="45px"> </tspan><tspan alignment-baseline="mathematical" x="0px" y="77.3984375px">
</tspan><tspan alignment-baseline="mathematical" x="26.875px" y="77.3984375px">&amp;</tspan><tspan alignment-baseline="mathematical" x="42.90625px" y="77.3984375px"> </tspan><tspan alignment-baseline="mathematical" x="51.1328125px" y="77.3984375px">Polydirectionality</tspan></text></g></g><g transform="matrix(1, 0, 0, 1, 626.27, 223.67)" opacity="1"><g><defs><mask id="shape_SZGvBZdVw3tOEVgZSmKt0_clip"><rect x="-229.75761335896172" y="-63.18121348390537" width="274.70" height="239.90" fill="white"/><path d="M -119.26331801670432 77.07 L -129.75761335896172 76.72 L -124.21075924461552 67.81" fill="none" stroke="none"/></mask></defs><g mask="url(#shape_SZGvBZdVw3tOEVgZSmKt0_clip)"><rect x="-100" y="-100" width="274.70" height="239.90" fill="transparent" stroke="none"/><path d="M-55.048987242749945,36.81878651609463L-129.75761335896172,76.72830939715732" fill="none" stroke="#adb5bd" stroke-width="3.5" stroke-dasharray="none" stroke-dashoffset="none"/></g><path d="M -119.26331801670432 77.07 L -129.75761335896172 76.72 L -124.21075924461552 67.81" fill="none" stroke="#adb5bd" stroke-width="3.5"/></g></g><g transform="matrix(1, 0, 0, 1, 266.36, 435.23)" opacity="1"><g><text font-size="18px" font-family="'tldraw_draw', sans-serif" font-style="normal" font-weight="normal" line-height="24.3px" dominant-baseline="mathematical" alignment-baseline="mathematical" stroke="rgb(249, 250, 251)" stroke-width="2px" fill="rgb(249, 250, 251)"><tspan alignment-baseline="mathematical" x="0.6796875px" y="8.75px">Editor</tspan><tspan alignment-baseline="mathematical" x="57.8828125px" y="8.75px"> </tspan><tspan alignment-baseline="mathematical" x="64.0546875px" y="8.75px">Change</tspan><tspan alignment-baseline="mathematical" x="132.1875px" y="8.75px"> </tspan><tspan alignment-baseline="mathematical" x="138.359375px" y="8.75px">Maps</tspan></text><text font-size="18px" font-family="'tldraw_draw', sans-serif" font-style="normal" font-weight="normal" line-height="24.3px" dominant-baseline="mathematical" alignment-baseline="mathematical" stroke="none" stroke-width="2px" fill="#1d1d1d"><tspan alignment-baseline="mathematical" x="0.6796875px" y="8.75px">Editor</tspan><tspan alignment-baseline="mathematical" x="57.8828125px" y="8.75px"> </tspan><tspan alignment-baseline="mathematical" x="64.0546875px" y="8.75px">Change</tspan><tspan alignment-baseline="mathematical" x="132.1875px" y="8.75px"> </tspan><tspan alignment-baseline="mathematical" x="138.359375px" y="8.75px">Maps</tspan></text></g></g><g transform="matrix(1, 0, 0, 1, 55.72, 146.15)" opacity="1"><g><text font-size="18px" font-family="'tldraw_draw', sans-serif" font-style="normal" font-weight="normal" line-height="24.3px" dominant-baseline="mathematical" alignment-baseline="mathematical" stroke="rgb(249, 250, 251)" stroke-width="2px" fill="rgb(249, 250, 251)"><tspan alignment-baseline="mathematical" x="0.6640625px" y="8.75px">Ummmstructured</tspan><tspan alignment-baseline="mathematical" x="158.15625px" y="8.75px"> </tspan><tspan alignment-baseline="mathematical" x="164.3359375px" y="8.75px">Editors</tspan></text><text font-size="18px" font-family="'tldraw_draw', sans-serif" font-style="normal" font-weight="normal" line-height="24.3px" dominant-baseline="mathematical" alignment-baseline="mathematical" stroke="none" stroke-width="2px" fill="#1d1d1d"><tspan alignment-baseline="mathematical" x="0.6640625px" y="8.75px">Ummmstructured</tspan><tspan alignment-baseline="mathematical" x="158.15625px" y="8.75px"> </tspan><tspan alignment-baseline="mathematical" x="164.3359375px" y="8.75px">Editors</tspan></text></g></g><g transform="matrix(1, 0, 0, 1, 467.11, 56.71)" opacity="1"><g><text font-size="18px" font-family="'tldraw_draw', sans-serif" font-style="normal" font-weight="normal" line-height="24.3px" dominant-baseline="mathematical" alignment-baseline="mathematical" stroke="rgb(249, 250, 251)" stroke-width="2px" fill="rgb(249, 250, 251)"><tspan alignment-baseline="mathematical" x="0.71875px" y="8.75px">Article</tspan></text><text font-size="18px" font-family="'tldraw_draw', sans-serif" font-style="normal" font-weight="normal" line-height="24.3px" dominant-baseline="mathematical" alignment-baseline="mathematical" stroke="none" stroke-width="2px" fill="#1d1d1d"><tspan alignment-baseline="mathematical" x="0.71875px" y="8.75px">Article</tspan></text></g></g><g transform="matrix(1, 0, 0, 1, -6.3694, 357.33)" opacity="1"><g><text font-size="18px" font-family="'tldraw_draw', sans-serif" font-style="normal" font-weight="normal" line-height="24.3px" dominant-baseline="mathematical" alignment-baseline="mathematical" stroke="rgb(249, 250, 251)" stroke-width="2px" fill="rgb(249, 250, 251)"><tspan alignment-baseline="mathematical" x="0.9921875px" y="8.75px">Θ</tspan></text><text font-size="18px" font-family="'tldraw_draw', sans-serif" font-style="normal" font-weight="normal" line-height="24.3px" dominant-baseline="mathematical" alignment-baseline="mathematical" stroke="none" stroke-width="2px" fill="#099268"><tspan alignment-baseline="mathematical" x="0.9921875px" y="8.75px">Θ</tspan></text></g></g><g transform="matrix(1, 0, 0, 1, -670.7064, 220.61)" opacity="1"><g><text font-size="36px" font-family="'tldraw_draw', sans-serif" font-style="normal" font-weight="normal" line-height="48.6px" dominant-baseline="mathematical" alignment-baseline="mathematical" stroke="rgb(249, 250, 251)" stroke-width="2px" fill="rgb(249, 250, 251)"><tspan alignment-baseline="mathematical" x="0.9453125px" y="18.5px">Formal</tspan><tspan alignment-baseline="mathematical" x="129.2109375px" y="18.5px"> </tspan><tspan alignment-baseline="mathematical" x="141.5546875px" y="18.5px">Computation</tspan></text><text font-size="36px" font-family="'tldraw_draw', sans-serif" font-style="normal" font-weight="normal" line-height="48.6px" dominant-baseline="mathematical" alignment-baseline="mathematical" stroke="none" stroke-width="2px" fill="#1d1d1d"><tspan alignment-baseline="mathematical" x="0.9453125px" y="18.5px">Formal</tspan><tspan alignment-baseline="mathematical" x="129.2109375px" y="18.5px"> </tspan><tspan alignment-baseline="mathematical" x="141.5546875px" y="18.5px">Computation</tspan></text></g></g><g transform="matrix(1, 0, 0, 1, -850.3818, 56.62)" opacity="1"><g><text font-size="24px" font-family="'tldraw_draw', sans-serif" font-style="normal" font-weight="normal" line-height="32.400000000000006px" dominant-baseline="mathematical" alignment-baseline="mathematical" stroke="rgb(249, 250, 251)" stroke-width="2px" fill="rgb(249, 250, 251)"><tspan alignment-baseline="mathematical" x="0.578125px" y="12.5px">Conal</tspan><tspan alignment-baseline="mathematical" x="69.1875px" y="12.5px"> </tspan><tspan alignment-baseline="mathematical" x="77.421875px" y="12.5px">Agda</tspan><tspan alignment-baseline="mathematical" x="142.921875px" y="12.5px"> </tspan><tspan alignment-baseline="mathematical" x="151.1484375px" y="12.5px">Exercises</tspan></text><text font-size="24px" font-family="'tldraw_draw', sans-serif" font-style="normal" font-weight="normal" line-height="32.400000000000006px" dominant-baseline="mathematical" alignment-baseline="mathematical" stroke="none" stroke-width="2px" fill="#1d1d1d"><tspan alignment-baseline="mathematical" x="0.578125px" y="12.5px">Conal</tspan><tspan alignment-baseline="mathematical" x="69.1875px" y="12.5px"> </tspan><tspan alignment-baseline="mathematical" x="77.421875px" y="12.5px">Agda</tspan><tspan alignment-baseline="mathematical" x="142.921875px" y="12.5px"> </tspan><tspan alignment-baseline="mathematical" x="151.1484375px" y="12.5px">Exercises</tspan></text></g></g><g transform="matrix(1, 0, 0, 1, -507.7471, 242.48)" opacity="1"><g><defs><mask id="shape_y6ody_tQ7FNMBiykf0NjV_clip"><rect x="-266.71349446111543" y="-245.20114514089553" width="359.40" height="323.33" fill="white"/><path d="M -162.73422663814884 -135.48438500219174 L -166.71349446111543 -145.20114514089553 L -156.30889942703465 -143.7889120946947" fill="none" stroke="none"/></mask></defs><g mask="url(#shape_y6ody_tQ7FNMBiykf0NjV_clip)"><rect x="-100" y="-100" width="359.40" height="323.33" fill="transparent" stroke="none"/><path d="M-7.307528190421863,-21.866549289232125L-166.71349446111543,-145.20114514089553" fill="none" stroke="#adb5bd" stroke-width="3.5" stroke-dasharray="none" stroke-dashoffset="none"/></g><path d="M -162.73422663814884 -135.48438500219174 L -166.71349446111543 -145.20114514089553 L -156.30889942703465 -143.7889120946947" fill="none" stroke="#adb5bd" stroke-width="3.5"/></g></g><g transform="matrix(1, 0, 0, 1, -898.3499, 385.12)" opacity="1"><g><text font-size="24px" font-family="'tldraw_draw', sans-serif" font-style="normal" font-weight="normal" line-height="32.400000000000006px" dominant-baseline="mathematical" alignment-baseline="mathematical" stroke="rgb(249, 250, 251)" stroke-width="2px" fill="rgb(249, 250, 251)"><tspan alignment-baseline="mathematical" x="0.75px" y="12.5px">Category</tspan><tspan alignment-baseline="mathematical" x="112.6328125px" y="12.5px"> </tspan><tspan alignment-baseline="mathematical" x="120.8671875px" y="12.5px">Theory</tspan></text><text font-size="24px" font-family="'tldraw_draw', sans-serif" font-style="normal" font-weight="normal" line-height="32.400000000000006px" dominant-baseline="mathematical" alignment-baseline="mathematical" stroke="none" stroke-width="2px" fill="#1d1d1d"><tspan alignment-baseline="mathematical" x="0.75px" y="12.5px">Category</tspan><tspan alignment-baseline="mathematical" x="112.6328125px" y="12.5px"> </tspan><tspan alignment-baseline="mathematical" x="120.8671875px" y="12.5px">Theory</tspan></text></g></g><g transform="matrix(1, 0, 0, 1, -452.4508, 243.74)" opacity="1"><g><defs><mask id="shape_FriL5rGX-3fIdrlitFdR3_clip"><rect x="-398.33258077541575" y="-74.52967562536378" width="418.75" height="309.85" fill="white"/><path d="M -287.8503523999689 135.93 L -298.33258077541575 135.32 L -292.56263181790814 126.55" fill="none" stroke="none"/></mask></defs><g mask="url(#shape_FriL5rGX-3fIdrlitFdR3_clip)"><rect x="-100" y="-100" width="418.75" height="309.85" fill="transparent" stroke="none"/><path d="M-79.58134314688834,25.47032437463622L-298.33258077541575,135.32805619177202" fill="none" stroke="#adb5bd" stroke-width="3.5" stroke-dasharray="none" stroke-dashoffset="none"/></g><path d="M -287.8503523999689 135.93 L -298.33258077541575 135.32 L -292.56263181790814 126.55" fill="none" stroke="#adb5bd" stroke-width="3.5"/></g></g><g transform="matrix(1, 0, 0, 1, -973.2372, 561.94)" opacity="1"><g><text font-size="24px" font-family="'tldraw_draw', sans-serif" font-style="normal" font-weight="normal" line-height="32.400000000000006px" dominant-baseline="mathematical" alignment-baseline="mathematical" stroke="rgb(249, 250, 251)" stroke-width="2px" fill="rgb(249, 250, 251)"><tspan alignment-baseline="mathematical" x="0.65625px" y="12.5px">Math</tspan></text><text font-size="24px" font-family="'tldraw_draw', sans-serif" font-style="normal" font-weight="normal" line-height="32.400000000000006px" dominant-baseline="mathematical" alignment-baseline="mathematical" stroke="none" stroke-width="2px" fill="#1d1d1d"><tspan alignment-baseline="mathematical" x="0.65625px" y="12.5px">Math</tspan></text></g></g><g transform="matrix(1, 0, 0, 1, 243.98, 177.45)" opacity="1"><g><text font-size="24px" font-family="'tldraw_draw', sans-serif" font-style="normal" font-weight="normal" line-height="32.400000000000006px" dominant-baseline="mathematical" alignment-baseline="mathematical" stroke="rgb(249, 250, 251)" stroke-width="2px" fill="rgb(249, 250, 251)"><tspan alignment-baseline="mathematical" x="0.8984375px" y="12.5px">Example</tspan><tspan alignment-baseline="mathematical" x="102.8671875px" y="12.5px"> </tspan><tspan alignment-baseline="mathematical" x="111.1015625px" y="12.5px">Editors</tspan></text><text font-size="24px" font-family="'tldraw_draw', sans-serif" font-style="normal" font-weight="normal" line-height="32.400000000000006px" dominant-baseline="mathematical" alignment-baseline="mathematical" stroke="none" stroke-width="2px" fill="#1d1d1d"><tspan alignment-baseline="mathematical" x="0.8984375px" y="12.5px">Example</tspan><tspan alignment-baseline="mathematical" x="102.8671875px" y="12.5px"> </tspan><tspan alignment-baseline="mathematical" x="111.1015625px" y="12.5px">Editors</tspan></text></g></g><g transform="matrix(1, 0, 0, 1, 626.17, 235.15)" opacity="1"><g><defs><mask id="shape_hoS0prjIv2pLyWNHC8-u-_clip"><rect x="-269.60634371538606" y="-126.68442284879333" width="273.31" height="209.61" fill="white"/><path d="M -161.27268032366635 -20.296930815646817 L -169.6063437153861 -26.68442284879333 L -159.90778165235062 -30.707841036037763" fill="none" stroke="none"/></mask></defs><g mask="url(#shape_hoS0prjIv2pLyWNHC8-u-_clip)"><rect x="-100" y="-100" width="273.31" height="209.61" fill="transparent" stroke="none"/><path d="M-96.29538600854687,-17.07315672040383L-169.6063437153861,-26.68442284879333" fill="none" stroke="#adb5bd" stroke-width="3.5" stroke-dasharray="none" stroke-dashoffset="none"/></g><path d="M -161.27268032366635 -20.296930815646817 L -169.6063437153861 -26.68442284879333 L -159.90778165235062 -30.707841036037763" fill="none" stroke="#adb5bd" stroke-width="3.5"/></g></g><g transform="matrix(1, 0, 0, 1, 100.25, 192.22)" opacity="1"><g><text font-size="18px" font-family="'tldraw_draw', sans-serif" font-style="normal" font-weight="normal" line-height="24.3px" dominant-baseline="mathematical" alignment-baseline="mathematical" stroke="rgb(249, 250, 251)" stroke-width="2px" fill="rgb(249, 250, 251)"><tspan alignment-baseline="mathematical" x="0.65625px" y="8.75px">Hopf</tspan><tspan alignment-baseline="mathematical" x="42.734375px" y="8.75px"> </tspan><tspan alignment-baseline="mathematical" x="48.9140625px" y="8.75px">Algebra</tspan></text><text font-size="18px" font-family="'tldraw_draw', sans-serif" font-style="normal" font-weight="normal" line-height="24.3px" dominant-baseline="mathematical" alignment-baseline="mathematical" stroke="none" stroke-width="2px" fill="#1d1d1d"><tspan alignment-baseline="mathematical" x="0.65625px" y="8.75px">Hopf</tspan><tspan alignment-baseline="mathematical" x="42.734375px" y="8.75px"> </tspan><tspan alignment-baseline="mathematical" x="48.9140625px" y="8.75px">Algebra</tspan></text></g></g><g transform="matrix(1, 0, 0, 1, 1004.78, 332.24)" opacity="1"><g><text font-size="18px" font-family="'tldraw_draw', sans-serif" font-style="normal" font-weight="normal" line-height="24.3px" dominant-baseline="mathematical" alignment-baseline="mathematical" stroke="rgb(249, 250, 251)" stroke-width="2px" fill="rgb(249, 250, 251)"><tspan alignment-baseline="mathematical" x="0.625px" y="8.75px">Layout</tspan></text><text font-size="18px" font-family="'tldraw_draw', sans-serif" font-style="normal" font-weight="normal" line-height="24.3px" dominant-baseline="mathematical" alignment-baseline="mathematical" stroke="none" stroke-width="2px" fill="#1d1d1d"><tspan alignment-baseline="mathematical" x="0.625px" y="8.75px">Layout</tspan></text></g></g><g transform="matrix(1, 0, 0, 1, 1109.61, 309.69)" opacity="1"><g><text font-size="18px" font-family="'tldraw_draw', sans-serif" font-style="normal" font-weight="normal" line-height="24.3px" dominant-baseline="mathematical" alignment-baseline="mathematical" stroke="rgb(249, 250, 251)" stroke-width="2px" fill="rgb(249, 250, 251)"><tspan alignment-baseline="mathematical" x="0.9765625px" y="8.75px">Drag&amp;Drop</tspan></text><text font-size="18px" font-family="'tldraw_draw', sans-serif" font-style="normal" font-weight="normal" line-height="24.3px" dominant-baseline="mathematical" alignment-baseline="mathematical" stroke="none" stroke-width="2px" fill="#1d1d1d"><tspan alignment-baseline="mathematical" x="0.9765625px" y="8.75px">Drag&amp;Drop</tspan></text></g></g><g transform="matrix(1, 0, 0, 1, 944.41, 359.08)" opacity="1"><g><text font-size="18px" font-family="'tldraw_draw', sans-serif" font-style="normal" font-weight="normal" line-height="24.3px" dominant-baseline="mathematical" alignment-baseline="mathematical" stroke="rgb(249, 250, 251)" stroke-width="2px" fill="rgb(249, 250, 251)"><tspan alignment-baseline="mathematical" x="0.6171875px" y="8.75px">Infinitely</tspan><tspan alignment-baseline="mathematical" x="86.0390625px" y="8.75px"> </tspan><tspan alignment-baseline="mathematical" x="92.21875px" y="8.75px">recursive</tspan><tspan alignment-baseline="mathematical" x="175.0703125px" y="8.75px"> </tspan><tspan alignment-baseline="mathematical" x="181.2421875px" y="8.75px">components</tspan></text><text font-size="18px" font-family="'tldraw_draw', sans-serif" font-style="normal" font-weight="normal" line-height="24.3px" dominant-baseline="mathematical" alignment-baseline="mathematical" stroke="none" stroke-width="2px" fill="#1d1d1d"><tspan alignment-baseline="mathematical" x="0.6171875px" y="8.75px">Infinitely</tspan><tspan alignment-baseline="mathematical" x="86.0390625px" y="8.75px"> </tspan><tspan alignment-baseline="mathematical" x="92.21875px" y="8.75px">recursive</tspan><tspan alignment-baseline="mathematical" x="175.0703125px" y="8.75px"> </tspan><tspan alignment-baseline="mathematical" x="181.2421875px" y="8.75px">components</tspan></text></g></g><g transform="matrix(1, 0, 0, 1, 623.13, -76.3081)" opacity="1"><g><text font-size="18px" font-family="'tldraw_draw', sans-serif" font-style="normal" font-weight="normal" line-height="24.3px" dominant-baseline="mathematical" alignment-baseline="mathematical" stroke="rgb(249, 250, 251)" stroke-width="2px" fill="rgb(249, 250, 251)"><tspan alignment-baseline="mathematical" x="0.5625px" y="8.75px">Performance</tspan></text><text font-size="18px" font-family="'tldraw_draw', sans-serif" font-style="normal" font-weight="normal" line-height="24.3px" dominant-baseline="mathematical" alignment-baseline="mathematical" stroke="none" stroke-width="2px" fill="#1d1d1d"><tspan alignment-baseline="mathematical" x="0.5625px" y="8.75px">Performance</tspan></text></g></g><g transform="matrix(1, 0, 0, 1, 690.30, -49.8821)" opacity="1"><g><text font-size="18px" font-family="'tldraw_draw', sans-serif" font-style="normal" font-weight="normal" line-height="24.3px" dominant-baseline="mathematical" alignment-baseline="mathematical" stroke="rgb(249, 250, 251)" stroke-width="2px" fill="rgb(249, 250, 251)"><tspan alignment-baseline="mathematical" x="0.953125px" y="8.75px">Nesting</tspan></text><text font-size="18px" font-family="'tldraw_draw', sans-serif" font-style="normal" font-weight="normal" line-height="24.3px" dominant-baseline="mathematical" alignment-baseline="mathematical" stroke="none" stroke-width="2px" fill="#1d1d1d"><tspan alignment-baseline="mathematical" x="0.953125px" y="8.75px">Nesting</tspan></text></g></g><g transform="matrix(1, 0, 0, 1, 618.98, 445.06)" opacity="1"><g><text font-size="24px" font-family="'tldraw_draw', sans-serif" font-style="normal" font-weight="normal" line-height="32.400000000000006px" dominant-baseline="mathematical" alignment-baseline="mathematical" stroke="rgb(249, 250, 251)" stroke-width="2px" fill="rgb(249, 250, 251)"><tspan alignment-baseline="mathematical" x="0.703125px" y="12.5px">History</tspan></text><text font-size="24px" font-family="'tldraw_draw', sans-serif" font-style="normal" font-weight="normal" line-height="32.400000000000006px" dominant-baseline="mathematical" alignment-baseline="mathematical" stroke="none" stroke-width="2px" fill="#1d1d1d"><tspan alignment-baseline="mathematical" x="0.703125px" y="12.5px">History</tspan></text></g></g><g transform="matrix(1, 0, 0, 1, 629.19, 227.92)" opacity="1"><g><defs><mask id="shape_PkiCp-eVktmsEe5rzAQvp_clip"><rect x="-98.62824252189046" y="-67.43817152688382" width="221.53" height="371.17" fill="white"/><path d="M 26.98 194.06 L 22.91 203.73 L 16.56 195.37" fill="none" stroke="none"/></mask></defs><g mask="url(#shape_PkiCp-eVktmsEe5rzAQvp_clip)"><rect x="-100" y="-100" width="221.53" height="371.17" fill="transparent" stroke="none"/><path d="M1.3717574781095436,32.56182847311618L22.910499642662835,203.73968054305183" fill="none" stroke="#adb5bd" stroke-width="3.5" stroke-dasharray="none" stroke-dashoffset="none"/></g><path d="M 26.98 194.06 L 22.91 203.73 L 16.56 195.37" fill="none" stroke="#adb5bd" stroke-width="3.5"/></g></g><g transform="matrix(1, 0, 0, 1, 1468.00, 292.29)" opacity="1"><g><text font-size="24px" font-family="'tldraw_draw', sans-serif" font-style="normal" font-weight="normal" line-height="32.400000000000006px" dominant-baseline="mathematical" alignment-baseline="mathematical" stroke="rgb(249, 250, 251)" stroke-width="2px" fill="rgb(249, 250, 251)"><tspan alignment-baseline="mathematical" x="0.859375px" y="12.5px">nudging</tspan></text><text font-size="24px" font-family="'tldraw_draw', sans-serif" font-style="normal" font-weight="normal" line-height="32.400000000000006px" dominant-baseline="mathematical" alignment-baseline="mathematical" stroke="none" stroke-width="2px" fill="#1d1d1d"><tspan alignment-baseline="mathematical" x="0.859375px" y="12.5px">nudging</tspan></text></g></g><g transform="matrix(1, 0, 0, 1, 1195.58, 49.96)" opacity="1"><g><text font-size="24px" font-family="'tldraw_draw', sans-serif" font-style="normal" font-weight="normal" line-height="32.400000000000006px" dominant-baseline="mathematical" alignment-baseline="mathematical" stroke="rgb(249, 250, 251)" stroke-width="2px" fill="rgb(249, 250, 251)"><tspan alignment-baseline="mathematical" x="0.625px" y="12.5px">Bidirectionality</tspan></text><text font-size="24px" font-family="'tldraw_draw', sans-serif" font-style="normal" font-weight="normal" line-height="32.400000000000006px" dominant-baseline="mathematical" alignment-baseline="mathematical" stroke="none" stroke-width="2px" fill="#4dabf7"><tspan alignment-baseline="mathematical" x="0.625px" y="12.5px">Bidirectionality</tspan></text></g></g><g transform="matrix(1, 0, 0, 1, 1499.20, 200.26)" opacity="1"><g><text font-size="24px" font-family="'tldraw_draw', sans-serif" font-style="normal" font-weight="normal" line-height="32.400000000000006px" dominant-baseline="mathematical" alignment-baseline="mathematical" stroke="rgb(249, 250, 251)" stroke-width="2px" fill="rgb(249, 250, 251)"><tspan alignment-baseline="mathematical" x="0.625px" y="12.5px">Differentiability</tspan></text><text font-size="24px" font-family="'tldraw_draw', sans-serif" font-style="normal" font-weight="normal" line-height="32.400000000000006px" dominant-baseline="mathematical" alignment-baseline="mathematical" stroke="none" stroke-width="2px" fill="#ffc078"><tspan alignment-baseline="mathematical" x="0.625px" y="12.5px">Differentiability</tspan></text></g></g><g transform="matrix(1, 0, 0, 1, 735.41, 426.18)" opacity="1"><g><text font-size="18px" font-family="'tldraw_draw', sans-serif" font-style="normal" font-weight="normal" line-height="24.3px" dominant-baseline="mathematical" alignment-baseline="mathematical" stroke="rgb(249, 250, 251)" stroke-width="2px" fill="rgb(249, 250, 251)"><tspan alignment-baseline="mathematical" x="0.671875px" y="8.75px">Custom</tspan><tspan alignment-baseline="mathematical" x="66.9296875px" y="8.75px"> </tspan><tspan alignment-baseline="mathematical" x="73.1015625px" y="8.75px">CRDT</tspan></text><text font-size="18px" font-family="'tldraw_draw', sans-serif" font-style="normal" font-weight="normal" line-height="24.3px" dominant-baseline="mathematical" alignment-baseline="mathematical" stroke="none" stroke-width="2px" fill="#1d1d1d"><tspan alignment-baseline="mathematical" x="0.671875px" y="8.75px">Custom</tspan><tspan alignment-baseline="mathematical" x="66.9296875px" y="8.75px"> </tspan><tspan alignment-baseline="mathematical" x="73.1015625px" y="8.75px">CRDT</tspan></text></g></g><g transform="matrix(1, 0, 0, 1, 583.58, 486.56)" opacity="1"><g><text font-size="18px" font-family="'tldraw_draw', sans-serif" font-style="normal" font-weight="normal" line-height="24.3px" dominant-baseline="mathematical" alignment-baseline="mathematical" stroke="rgb(249, 250, 251)" stroke-width="2px" fill="rgb(249, 250, 251)"><tspan alignment-baseline="mathematical" x="0.53125px" y="8.75px">non-hierarchical</tspan></text><text font-size="18px" font-family="'tldraw_draw', sans-serif" font-style="normal" font-weight="normal" line-height="24.3px" dominant-baseline="mathematical" alignment-baseline="mathematical" stroke="none" stroke-width="2px" fill="#1d1d1d"><tspan alignment-baseline="mathematical" x="0.53125px" y="8.75px">non-hierarchical</tspan></text></g></g><g transform="matrix(1, 0, 0, 1, 668.51, 24.69)" opacity="1"><g><text font-size="18px" font-family="'tldraw_draw', sans-serif" font-style="normal" font-weight="normal" line-height="24.3px" dominant-baseline="mathematical" alignment-baseline="mathematical" stroke="rgb(249, 250, 251)" stroke-width="2px" fill="rgb(249, 250, 251)"><tspan alignment-baseline="mathematical" x="0.640625px" y="8.75px">Community</tspan></text><text font-size="18px" font-family="'tldraw_draw', sans-serif" font-style="normal" font-weight="normal" line-height="24.3px" dominant-baseline="mathematical" alignment-baseline="mathematical" stroke="none" stroke-width="2px" fill="#1d1d1d"><tspan alignment-baseline="mathematical" x="0.640625px" y="8.75px">Community</tspan></text></g></g><g transform="matrix(1, 0, 0, 1, 1148.14, 334.66)" opacity="1"><g><text font-size="18px" font-family="'tldraw_draw', sans-serif" font-style="normal" font-weight="normal" line-height="24.3px" dominant-baseline="mathematical" alignment-baseline="mathematical" stroke="rgb(249, 250, 251)" stroke-width="2px" fill="rgb(249, 250, 251)"><tspan alignment-baseline="mathematical" x="0.875px" y="8.75px">TODO</tspan><tspan alignment-baseline="mathematical" x="49.234375px" y="8.75px"> </tspan><tspan alignment-baseline="mathematical" x="55.4140625px" y="8.75px">Community</tspan></text><text font-size="18px" font-family="'tldraw_draw', sans-serif" font-style="normal" font-weight="normal" line-height="24.3px" dominant-baseline="mathematical" alignment-baseline="mathematical" stroke="none" stroke-width="2px" fill="#1d1d1d"><tspan alignment-baseline="mathematical" x="0.875px" y="8.75px">TODO</tspan><tspan alignment-baseline="mathematical" x="49.234375px" y="8.75px"> </tspan><tspan alignment-baseline="mathematical" x="55.4140625px" y="8.75px">Community</tspan></text></g></g><g transform="matrix(1, 0, 0, 1, 1266.34, 262.20)" opacity="1"><g><text font-size="18px" font-family="'tldraw_draw', sans-serif" font-style="normal" font-weight="normal" line-height="24.3px" dominant-baseline="mathematical" alignment-baseline="mathematical" stroke="rgb(249, 250, 251)" stroke-width="2px" fill="rgb(249, 250, 251)"><tspan alignment-baseline="mathematical" x="0.578125px" y="8.75px">smooth</tspan><tspan alignment-baseline="mathematical" x="68.71875px" y="8.75px"> </tspan><tspan alignment-baseline="mathematical" x="74.8984375px" y="8.75px">transforms</tspan></text><text font-size="18px" font-family="'tldraw_draw', sans-serif" font-style="normal" font-weight="normal" line-height="24.3px" dominant-baseline="mathematical" alignment-baseline="mathematical" stroke="none" stroke-width="2px" fill="#1d1d1d"><tspan alignment-baseline="mathematical" x="0.578125px" y="8.75px">smooth</tspan><tspan alignment-baseline="mathematical" x="68.71875px" y="8.75px"> </tspan><tspan alignment-baseline="mathematical" x="74.8984375px" y="8.75px">transforms</tspan></text></g></g><g transform="matrix(1, 0, 0, 1, 1579.54, 261.98)" opacity="1"><g><text font-size="18px" font-family="'tldraw_draw', sans-serif" font-style="normal" font-weight="normal" line-height="24.3px" dominant-baseline="mathematical" alignment-baseline="mathematical" stroke="rgb(249, 250, 251)" stroke-width="2px" fill="rgb(249, 250, 251)"><tspan alignment-baseline="mathematical" x="0.921875px" y="8.75px">Truthy</tspan><tspan alignment-baseline="mathematical" x="61.1640625px" y="8.75px"> </tspan><tspan alignment-baseline="mathematical" x="67.3359375px" y="8.75px">Graph</tspan></text><text font-size="18px" font-family="'tldraw_draw', sans-serif" font-style="normal" font-weight="normal" line-height="24.3px" dominant-baseline="mathematical" alignment-baseline="mathematical" stroke="none" stroke-width="2px" fill="#1d1d1d"><tspan alignment-baseline="mathematical" x="0.921875px" y="8.75px">Truthy</tspan><tspan alignment-baseline="mathematical" x="61.1640625px" y="8.75px"> </tspan><tspan alignment-baseline="mathematical" x="67.3359375px" y="8.75px">Graph</tspan></text></g></g><g transform="matrix(1, 0, 0, 1, -235.6396, 158.49)" opacity="1"><g><text font-size="18px" font-family="'tldraw_draw', sans-serif" font-style="normal" font-weight="normal" line-height="24.3px" dominant-baseline="mathematical" alignment-baseline="mathematical" stroke="rgb(249, 250, 251)" stroke-width="2px" fill="rgb(249, 250, 251)"><tspan alignment-baseline="mathematical" x="0.8359375px" y="8.75px">ProofTope</tspan></text><text font-size="18px" font-family="'tldraw_draw', sans-serif" font-style="normal" font-weight="normal" line-height="24.3px" dominant-baseline="mathematical" alignment-baseline="mathematical" stroke="none" stroke-width="2px" fill="#adb5bd"><tspan alignment-baseline="mathematical" x="0.8359375px" y="8.75px">ProofTope</tspan></text></g></g><g transform="matrix(1, 0, 0, 1, -225.5337, 257.96)" opacity="1"><g><text font-size="18px" font-family="'tldraw_draw', sans-serif" font-style="normal" font-weight="normal" line-height="24.3px" dominant-baseline="mathematical" alignment-baseline="mathematical" stroke="rgb(249, 250, 251)" stroke-width="2px" fill="rgb(249, 250, 251)"><tspan alignment-baseline="mathematical" x="0.5625px" y="8.6015625px">Formalization</tspan><tspan alignment-baseline="mathematical" x="128.84375px" y="8.6015625px"> </tspan><tspan alignment-baseline="mathematical" x="135.015625px" y="8.6015625px">of</tspan><tspan alignment-baseline="mathematical" x="153.4375px" y="8.6015625px"> </tspan><tspan alignment-baseline="mathematical" x="0px" y="32.8984375px">
</tspan><tspan alignment-baseline="mathematical" x="37.5390625px" y="32.8984375px">Polytope</tspan></text><text font-size="18px" font-family="'tldraw_draw', sans-serif" font-style="normal" font-weight="normal" line-height="24.3px" dominant-baseline="mathematical" alignment-baseline="mathematical" stroke="none" stroke-width="2px" fill="#adb5bd"><tspan alignment-baseline="mathematical" x="0.5625px" y="8.6015625px">Formalization</tspan><tspan alignment-baseline="mathematical" x="128.84375px" y="8.6015625px"> </tspan><tspan alignment-baseline="mathematical" x="135.015625px" y="8.6015625px">of</tspan><tspan alignment-baseline="mathematical" x="153.4375px" y="8.6015625px"> </tspan><tspan alignment-baseline="mathematical" x="0px" y="32.8984375px">
</tspan><tspan alignment-baseline="mathematical" x="37.5390625px" y="32.8984375px">Polytope</tspan></text></g></g><g transform="matrix(1, 0, 0, 1, 911.44, 600.15)" opacity="1"><g><text font-size="18px" font-family="'tldraw_draw', sans-serif" font-style="normal" font-weight="normal" line-height="24.3px" dominant-baseline="mathematical" alignment-baseline="mathematical" stroke="rgb(249, 250, 251)" stroke-width="2px" fill="rgb(249, 250, 251)"><tspan alignment-baseline="mathematical" x="0.671875px" y="8.6015625px">Automatic</tspan><tspan alignment-baseline="mathematical" x="95.4921875px" y="8.6015625px"> </tspan><tspan alignment-baseline="mathematical" x="101.6640625px" y="8.6015625px">Layout</tspan><tspan alignment-baseline="mathematical" x="164.4140625px" y="8.6015625px"> </tspan><tspan alignment-baseline="mathematical" x="170.5859375px" y="8.6015625px">vs</tspan><tspan alignment-baseline="mathematical" x="190.3203125px" y="8.6015625px"> </tspan><tspan alignment-baseline="mathematical" x="0px" y="32.8984375px">
</tspan><tspan alignment-baseline="mathematical" x="48.8125px" y="32.8984375px">User</tspan><tspan alignment-baseline="mathematical" x="89.6328125px" y="32.8984375px"> </tspan><tspan alignment-baseline="mathematical" x="95.8046875px" y="32.8984375px">Edits</tspan></text><text font-size="18px" font-family="'tldraw_draw', sans-serif" font-style="normal" font-weight="normal" line-height="24.3px" dominant-baseline="mathematical" alignment-baseline="mathematical" stroke="none" stroke-width="2px" fill="#adb5bd"><tspan alignment-baseline="mathematical" x="0.671875px" y="8.6015625px">Automatic</tspan><tspan alignment-baseline="mathematical" x="95.4921875px" y="8.6015625px"> </tspan><tspan alignment-baseline="mathematical" x="101.6640625px" y="8.6015625px">Layout</tspan><tspan alignment-baseline="mathematical" x="164.4140625px" y="8.6015625px"> </tspan><tspan alignment-baseline="mathematical" x="170.5859375px" y="8.6015625px">vs</tspan><tspan alignment-baseline="mathematical" x="190.3203125px" y="8.6015625px"> </tspan><tspan alignment-baseline="mathematical" x="0px" y="32.8984375px">
</tspan><tspan alignment-baseline="mathematical" x="48.8125px" y="32.8984375px">User</tspan><tspan alignment-baseline="mathematical" x="89.6328125px" y="32.8984375px"> </tspan><tspan alignment-baseline="mathematical" x="95.8046875px" y="32.8984375px">Edits</tspan></text></g></g><g transform="matrix(1, 0, 0, 1, 179.06, 299.78)" opacity="1"><g><text font-size="18px" font-family="'tldraw_draw', sans-serif" font-style="normal" font-weight="normal" line-height="24.3px" dominant-baseline="mathematical" alignment-baseline="mathematical" stroke="rgb(249, 250, 251)" stroke-width="2px" fill="rgb(249, 250, 251)"><tspan alignment-baseline="mathematical" x="0.703125px" y="8.75px">Imports</tspan></text><text font-size="18px" font-family="'tldraw_draw', sans-serif" font-style="normal" font-weight="normal" line-height="24.3px" dominant-baseline="mathematical" alignment-baseline="mathematical" stroke="none" stroke-width="2px" fill="#1d1d1d"><tspan alignment-baseline="mathematical" x="0.703125px" y="8.75px">Imports</tspan></text></g></g><g transform="matrix(1, 0, 0, 1, 953.49, 400.15)" opacity="1"><g><text font-size="18px" font-family="'tldraw_draw', sans-serif" font-style="normal" font-weight="normal" line-height="24.3px" dominant-baseline="mathematical" alignment-baseline="mathematical" stroke="rgb(249, 250, 251)" stroke-width="2px" fill="rgb(249, 250, 251)"><tspan alignment-baseline="mathematical" x="0.5078125px" y="8.75px">SVG</tspan><tspan alignment-baseline="mathematical" x="36.4296875px" y="8.75px"> </tspan><tspan alignment-baseline="mathematical" x="42.609375px" y="8.75px">Target</tspan></text><text font-size="18px" font-family="'tldraw_draw', sans-serif" font-style="normal" font-weight="normal" line-height="24.3px" dominant-baseline="mathematical" alignment-baseline="mathematical" stroke="none" stroke-width="2px" fill="#1d1d1d"><tspan alignment-baseline="mathematical" x="0.5078125px" y="8.75px">SVG</tspan><tspan alignment-baseline="mathematical" x="36.4296875px" y="8.75px"> </tspan><tspan alignment-baseline="mathematical" x="42.609375px" y="8.75px">Target</tspan></text></g></g><g transform="matrix(1, 0, 0, 1, 729.15, 439.61)" opacity="1"><path d="M1.5313,-1.9021 Q3.1827,-1.9104 5.56,-1.8956 T11.2574,-1.8573 19.04,-2.1419 29.79,-2.6134 47.97,-2.8598 70.45,-2.9841 90.03,-3.0449 105.77,-3.0731 116.82,-3.0849 126.33,-3.0948 131.71,-3.0713 132.06,-2.9526 132.36,-2.7269 132.57,-2.4177 132.67,-2.0574 132.65,-1.6838 132.52,-1.336 132.28,-1.0504 131.96,-0.8569 131.59,-0.7757 131.22,-0.8154 130.88,-0.9718 130.61,-1.2285 130.43,-1.5586 130.37,-1.9277 130.43,-2.297 130.60,-2.6278 130.87,-2.8856 131.21,-3.0434 131.59,-3.0846 131.95,-3.0048 132.27,-2.8126 132.51,-2.5279 132.65,-2.1807 132.67,-1.8072 132.58,-1.4465 132.37,-1.1365 132.07,-0.9096 131.71,-0.7895 131.53,-0.7584 126.33,-0.7428 116.83,-0.7117 105.78,-0.6708 90.04,-0.6026 70.47,-0.4868 48.02,-0.2878 29.93,0.0579 19.16,0.6706 11.30,1.1495 5.70,1.364 1.75,1.6933 -0.2468,1.8447 -0.934,1.6098 -1.479,1.1299 -1.7988,0.4779 -1.8447,-0.2469 -1.6098,-0.9341 -1.1298,-1.479 -0.4778,-1.7988 -0.1201,-1.8938 1.53,-1.9021 Z" fill="#1d1d1d" stroke-linecap="round"/></g><g transform="matrix(1, 0, 0, 1, 729.29, 453.15)" opacity="1"><g><text font-size="18px" font-family="'tldraw_draw', sans-serif" font-style="normal" font-weight="normal" line-height="24.3px" dominant-baseline="mathematical" alignment-baseline="mathematical" stroke="rgb(249, 250, 251)" stroke-width="2px" fill="rgb(249, 250, 251)"><tspan alignment-baseline="mathematical" x="0.75px" y="8.75px">Automerge</tspan><tspan alignment-baseline="mathematical" x="101.890625px" y="8.75px"> </tspan><tspan alignment-baseline="mathematical" x="108.0625px" y="8.75px">history?</tspan></text><text font-size="18px" font-family="'tldraw_draw', sans-serif" font-style="normal" font-weight="normal" line-height="24.3px" dominant-baseline="mathematical" alignment-baseline="mathematical" stroke="none" stroke-width="2px" fill="#1d1d1d"><tspan alignment-baseline="mathematical" x="0.75px" y="8.75px">Automerge</tspan><tspan alignment-baseline="mathematical" x="101.890625px" y="8.75px"> </tspan><tspan alignment-baseline="mathematical" x="108.0625px" y="8.75px">history?</tspan></text></g></g><g transform="matrix(1, 0, 0, 1, 337.40, 445.18)" opacity="0.25"><path d="M0,0 Q8.5675,0 10.80,0 T14.3975,0 16.75,0.207 18.57,0.7061 20.18,1.1223 21.68,1.2992 23.15,1.3744 24.59,1.4064 26.18,1.5695 29.00,2.0499 34.26,2.5157 40.02,2.7573 L42.47,2.86 " fill="none" stroke="#fddd00" stroke-width="20.16" opacity="0.35"/></g></svg>